solid OpenSCAD_Model
  facet normal 0.97815 0.2079 0
    outer loop
      vertex 42.5815 5.98444 3.2
      vertex 41.3343 11.8524 0
      vertex 41.3343 11.8524 3.2
    endloop
  endfacet
  facet normal 0.97815 0.2079 0
    outer loop
      vertex 41.3343 11.8524 0
      vertex 42.5815 5.98444 3.2
      vertex 42.5815 5.98444 0
    endloop
  endfacet
  facet normal 0.997564 0.069761 0
    outer loop
      vertex 43 0 3.2
      vertex 42.5815 5.98444 0
      vertex 42.5815 5.98444 3.2
    endloop
  endfacet
  facet normal 0.997564 0.069761 0
    outer loop
      vertex 42.5815 5.98444 0
      vertex 43 0 3.2
      vertex 43 0 0
    endloop
  endfacet
  facet normal 0.939693 0.342019 0
    outer loop
      vertex 41.3343 11.8524 3.2
      vertex 39.2825 17.4897 0
      vertex 39.2825 17.4897 3.2
    endloop
  endfacet
  facet normal 0.939693 0.342019 0
    outer loop
      vertex 39.2825 17.4897 0
      vertex 41.3343 11.8524 3.2
      vertex 41.3343 11.8524 0
    endloop
  endfacet
  facet normal -0.913541 -0.406746 0
    outer loop
      vertex -37.9667 -20.1873 0
      vertex -40.4068 -14.7069 3.2
      vertex -40.4068 -14.7069 0
    endloop
  endfacet
  facet normal -0.913541 -0.406746 0
    outer loop
      vertex -40.4068 -14.7069 3.2
      vertex -37.9667 -20.1873 0
      vertex -37.9667 -20.1873 3.2
    endloop
  endfacet
  facet normal 0.104533 0.994521 -0
    outer loop
      vertex 7.46687 42.3467 0
      vertex 1.50068 42.9738 3.2
      vertex 7.46687 42.3467 3.2
    endloop
  endfacet
  facet normal 0.104533 0.994521 0
    outer loop
      vertex 1.50068 42.9738 3.2
      vertex 7.46687 42.3467 0
      vertex 1.50068 42.9738 0
    endloop
  endfacet
  facet normal 0.882945 0.469477 0
    outer loop
      vertex 39.2825 17.4897 3.2
      vertex 36.4661 22.7865 0
      vertex 36.4661 22.7865 3.2
    endloop
  endfacet
  facet normal 0.882945 0.469477 0
    outer loop
      vertex 36.4661 22.7865 0
      vertex 39.2825 17.4897 3.2
      vertex 39.2825 17.4897 0
    endloop
  endfacet
  facet normal 0.809017 0.587785 0
    outer loop
      vertex 36.4661 22.7865 3.2
      vertex 32.9399 27.6399 0
      vertex 32.9399 27.6399 3.2
    endloop
  endfacet
  facet normal 0.809017 0.587785 0
    outer loop
      vertex 32.9399 27.6399 0
      vertex 36.4661 22.7865 3.2
      vertex 36.4661 22.7865 0
    endloop
  endfacet
  facet normal -0.913541 0.406746 0
    outer loop
      vertex -40.4068 14.7069 0
      vertex -37.9667 20.1873 3.2
      vertex -37.9667 20.1873 0
    endloop
  endfacet
  facet normal -0.913541 0.406746 0
    outer loop
      vertex -37.9667 20.1873 3.2
      vertex -40.4068 14.7069 0
      vertex -40.4068 14.7069 3.2
    endloop
  endfacet
  facet normal 0.104533 -0.994521 0
    outer loop
      vertex 1.50068 -42.9738 0
      vertex 7.46687 -42.3467 3.2
      vertex 1.50068 -42.9738 3.2
    endloop
  endfacet
  facet normal 0.104533 -0.994521 0
    outer loop
      vertex 7.46687 -42.3467 3.2
      vertex 1.50068 -42.9738 0
      vertex 7.46687 -42.3467 0
    endloop
  endfacet
  facet normal -0.559193 0.829038 0
    outer loop
      vertex -21.5 37.2391 0
      vertex -26.4734 33.8845 3.2
      vertex -21.5 37.2391 3.2
    endloop
  endfacet
  facet normal -0.559193 0.829038 0
    outer loop
      vertex -26.4734 33.8845 3.2
      vertex -21.5 37.2391 0
      vertex -26.4734 33.8845 0
    endloop
  endfacet
  facet normal 0.719335 0.694664 0
    outer loop
      vertex 32.9399 27.6399 3.2
      vertex 28.7726 31.9552 0
      vertex 28.7726 31.9552 3.2
    endloop
  endfacet
  facet normal 0.719335 0.694664 0
    outer loop
      vertex 28.7726 31.9552 0
      vertex 32.9399 27.6399 3.2
      vertex 32.9399 27.6399 0
    endloop
  endfacet
  facet normal 0.809017 -0.587785 0
    outer loop
      vertex 32.9399 -27.6399 3.2
      vertex 36.4661 -22.7865 0
      vertex 36.4661 -22.7865 3.2
    endloop
  endfacet
  facet normal 0.809017 -0.587785 0
    outer loop
      vertex 36.4661 -22.7865 0
      vertex 32.9399 -27.6399 3.2
      vertex 32.9399 -27.6399 0
    endloop
  endfacet
  facet normal -0.43837 0.898794 0
    outer loop
      vertex -16.1081 39.8689 0
      vertex -21.5 37.2391 3.2
      vertex -16.1081 39.8689 3.2
    endloop
  endfacet
  facet normal -0.43837 0.898794 0
    outer loop
      vertex -21.5 37.2391 3.2
      vertex -16.1081 39.8689 0
      vertex -21.5 37.2391 0
    endloop
  endfacet
  facet normal -0.766043 0.642789 0
    outer loop
      vertex -34.7877 25.2748 0
      vertex -30.9316 29.8703 3.2
      vertex -30.9316 29.8703 0
    endloop
  endfacet
  facet normal -0.766043 0.642789 0
    outer loop
      vertex -30.9316 29.8703 3.2
      vertex -34.7877 25.2748 0
      vertex -34.7877 25.2748 3.2
    endloop
  endfacet
  facet normal 0.241923 -0.970296 0
    outer loop
      vertex 7.46687 -42.3467 0
      vertex 13.2877 -40.8954 3.2
      vertex 7.46687 -42.3467 3.2
    endloop
  endfacet
  facet normal 0.241923 -0.970296 0
    outer loop
      vertex 13.2877 -40.8954 3.2
      vertex 7.46687 -42.3467 0
      vertex 13.2877 -40.8954 0
    endloop
  endfacet
  facet normal -0.669132 0.743143 0
    outer loop
      vertex -26.4734 33.8845 0
      vertex -30.9316 29.8703 3.2
      vertex -26.4734 33.8845 3.2
    endloop
  endfacet
  facet normal -0.669132 0.743143 0
    outer loop
      vertex -30.9316 29.8703 3.2
      vertex -26.4734 33.8845 0
      vertex -30.9316 29.8703 0
    endloop
  endfacet
  facet normal 0.882945 -0.469477 0
    outer loop
      vertex 36.4661 -22.7865 3.2
      vertex 39.2825 -17.4897 0
      vertex 39.2825 -17.4897 3.2
    endloop
  endfacet
  facet normal 0.882945 -0.469477 0
    outer loop
      vertex 39.2825 -17.4897 0
      vertex 36.4661 -22.7865 3.2
      vertex 36.4661 -22.7865 0
    endloop
  endfacet
  facet normal -0.0349055 0.999391 0
    outer loop
      vertex 1.50068 42.9738 0
      vertex -4.49472 42.7644 3.2
      vertex 1.50068 42.9738 3.2
    endloop
  endfacet
  facet normal -0.0349055 0.999391 0
    outer loop
      vertex -4.49472 42.7644 3.2
      vertex 1.50068 42.9738 0
      vertex -4.49472 42.7644 0
    endloop
  endfacet
  facet normal -0.0349055 -0.999391 0
    outer loop
      vertex -4.49472 -42.7644 0
      vertex 1.50068 -42.9738 3.2
      vertex -4.49472 -42.7644 3.2
    endloop
  endfacet
  facet normal -0.0349055 -0.999391 -0
    outer loop
      vertex 1.50068 -42.9738 3.2
      vertex -4.49472 -42.7644 0
      vertex 1.50068 -42.9738 0
    endloop
  endfacet
  facet normal -0.309013 0.951058 0
    outer loop
      vertex -10.4026 41.7227 0
      vertex -16.1081 39.8689 3.2
      vertex -10.4026 41.7227 3.2
    endloop
  endfacet
  facet normal -0.309013 0.951058 0
    outer loop
      vertex -16.1081 39.8689 3.2
      vertex -10.4026 41.7227 0
      vertex -16.1081 39.8689 0
    endloop
  endfacet
  facet normal -0.961265 0.275626 0
    outer loop
      vertex -42.0603 8.9402 0
      vertex -40.4068 14.7069 3.2
      vertex -40.4068 14.7069 0
    endloop
  endfacet
  facet normal -0.961265 0.275626 0
    outer loop
      vertex -40.4068 14.7069 3.2
      vertex -42.0603 8.9402 0
      vertex -42.0603 8.9402 3.2
    endloop
  endfacet
  facet normal 0.241899 0.970301 -0
    outer loop
      vertex 10.9197 41.4859 0
      vertex 7.46687 42.3467 3.2
      vertex 10.9197 41.4859 3.2
    endloop
  endfacet
  facet normal 0.241899 0.970301 0
    outer loop
      vertex 7.46687 42.3467 3.2
      vertex 10.9197 41.4859 0
      vertex 7.46687 42.3467 0
    endloop
  endfacet
  facet normal -0.173645 0.984808 0
    outer loop
      vertex -4.49472 42.7644 0
      vertex -10.4026 41.7227 3.2
      vertex -4.49472 42.7644 3.2
    endloop
  endfacet
  facet normal -0.173645 0.984808 0
    outer loop
      vertex -10.4026 41.7227 3.2
      vertex -4.49472 42.7644 0
      vertex -10.4026 41.7227 0
    endloop
  endfacet
  facet normal -0.990266 0.139188 0
    outer loop
      vertex -42.8953 2.99953 0
      vertex -42.0603 8.9402 3.2
      vertex -42.0603 8.9402 0
    endloop
  endfacet
  facet normal -0.990266 0.139188 0
    outer loop
      vertex -42.0603 8.9402 3.2
      vertex -42.8953 2.99953 0
      vertex -42.8953 2.99953 3.2
    endloop
  endfacet
  facet normal 0.499999 0.866026 -0
    outer loop
      vertex 24.0453 35.6486 0
      vertex 18.85 38.6481 3.2
      vertex 24.0453 35.6486 3.2
    endloop
  endfacet
  facet normal 0.499999 0.866026 0
    outer loop
      vertex 18.85 38.6481 3.2
      vertex 24.0453 35.6486 0
      vertex 18.85 38.6481 0
    endloop
  endfacet
  facet normal 0 0 -1
    outer loop
      vertex 35.5 0 0
      vertex 43 0 0
      vertex 42.5815 -5.98444 0
    endloop
  endfacet
  facet normal 0 0 -1
    outer loop
      vertex 35.1545 -4.94064 0
      vertex 42.5815 -5.98444 0
      vertex 41.3343 -11.8524 0
    endloop
  endfacet
  facet normal 0 0 -1
    outer loop
      vertex 43 0 0
      vertex 35.5 0 0
      vertex 42.5815 5.98444 0
    endloop
  endfacet
  facet normal 0 0 -1
    outer loop
      vertex 34.1248 -9.78513 0
      vertex 41.3343 -11.8524 0
      vertex 39.2825 -17.4897 0
    endloop
  endfacet
  facet normal 0 0 -1
    outer loop
      vertex 35.1545 4.94064 0
      vertex 42.5815 5.98444 0
      vertex 35.5 0 0
    endloop
  endfacet
  facet normal 0 0 -1
    outer loop
      vertex 32.4309 -14.4392 0
      vertex 39.2825 -17.4897 0
      vertex 36.4661 -22.7865 0
    endloop
  endfacet
  facet normal -0 0 -1
    outer loop
      vertex 42.5815 5.98444 0
      vertex 35.1545 4.94064 0
      vertex 41.3343 11.8524 0
    endloop
  endfacet
  facet normal 0 0 -1
    outer loop
      vertex 34.1248 9.78513 0
      vertex 41.3343 11.8524 0
      vertex 35.1545 4.94064 0
    endloop
  endfacet
  facet normal 0 0 -1
    outer loop
      vertex 42.5815 -5.98444 0
      vertex 35.1545 -4.94064 0
      vertex 35.5 0 0
    endloop
  endfacet
  facet normal 0 0 -1
    outer loop
      vertex 41.3343 -11.8524 0
      vertex 34.1248 -9.78513 0
      vertex 35.1545 -4.94064 0
    endloop
  endfacet
  facet normal 0 0 -1
    outer loop
      vertex 30.1057 -18.8121 0
      vertex 36.4661 -22.7865 0
      vertex 32.9399 -27.6399 0
    endloop
  endfacet
  facet normal 0 0 -1
    outer loop
      vertex 39.2825 -17.4897 0
      vertex 32.4309 -14.4392 0
      vertex 34.1248 -9.78513 0
    endloop
  endfacet
  facet normal 0 0 -1
    outer loop
      vertex 36.4661 -22.7865 0
      vertex 30.1057 -18.8121 0
      vertex 32.4309 -14.4392 0
    endloop
  endfacet
  facet normal 0 0 -1
    outer loop
      vertex 27.1946 -22.819 0
      vertex 32.9399 -27.6399 0
      vertex 28.7726 -31.9552 0
    endloop
  endfacet
  facet normal 0 0 -1
    outer loop
      vertex 32.9399 -27.6399 0
      vertex 27.1946 -22.819 0
      vertex 30.1057 -18.8121 0
    endloop
  endfacet
  facet normal 0 0 -1
    outer loop
      vertex 23.7541 -26.3816 0
      vertex 28.7726 -31.9552 0
      vertex 24.0453 -35.6486 0
    endloop
  endfacet
  facet normal 0 0 -1
    outer loop
      vertex 28.7726 -31.9552 0
      vertex 23.7541 -26.3816 0
      vertex 27.1946 -22.819 0
    endloop
  endfacet
  facet normal 0 0 -1
    outer loop
      vertex 24.0453 -35.6486 0
      vertex 19.8513 -29.4308 0
      vertex 23.7541 -26.3816 0
    endloop
  endfacet
  facet normal 0 0 -1
    outer loop
      vertex 18.85 -38.6481 0
      vertex 19.8513 -29.4308 0
      vertex 24.0453 -35.6486 0
    endloop
  endfacet
  facet normal 0 0 -1
    outer loop
      vertex 18.85 -38.6481 0
      vertex 15.5622 -31.9072 0
      vertex 19.8513 -29.4308 0
    endloop
  endfacet
  facet normal 0 0 -1
    outer loop
      vertex 13.2877 -40.8954 0
      vertex 15.5622 -31.9072 0
      vertex 18.85 -38.6481 0
    endloop
  endfacet
  facet normal 0 0 -1
    outer loop
      vertex 13.2877 -40.8954 0
      vertex 10.9701 -33.7625 0
      vertex 15.5622 -31.9072 0
    endloop
  endfacet
  facet normal 0 0 -1
    outer loop
      vertex 7.46687 -42.3467 0
      vertex 10.9701 -33.7625 0
      vertex 13.2877 -40.8954 0
    endloop
  endfacet
  facet normal 0 0 -1
    outer loop
      vertex 7.46687 -42.3467 0
      vertex 6.16451 -34.9607 0
      vertex 10.9701 -33.7625 0
    endloop
  endfacet
  facet normal 0 0 -1
    outer loop
      vertex 1.50068 -42.9738 0
      vertex 6.16451 -34.9607 0
      vertex 7.46687 -42.3467 0
    endloop
  endfacet
  facet normal 0 0 -1
    outer loop
      vertex 1.50068 -42.9738 0
      vertex 1.23893 -35.4784 0
      vertex 6.16451 -34.9607 0
    endloop
  endfacet
  facet normal 0 0 -1
    outer loop
      vertex 1.50068 -42.9738 0
      vertex -3.71076 -35.3055 0
      vertex 1.23893 -35.4784 0
    endloop
  endfacet
  facet normal 0 0 -1
    outer loop
      vertex -4.49472 -42.7644 0
      vertex -3.71076 -35.3055 0
      vertex 1.50068 -42.9738 0
    endloop
  endfacet
  facet normal 0 0 -1
    outer loop
      vertex -4.49472 -42.7644 0
      vertex -8.58823 -34.4455 0
      vertex -3.71076 -35.3055 0
    endloop
  endfacet
  facet normal 0 0 -1
    outer loop
      vertex -10.4026 -41.7227 0
      vertex -8.58823 -34.4455 0
      vertex -4.49472 -42.7644 0
    endloop
  endfacet
  facet normal 0 0 -1
    outer loop
      vertex -10.4026 -41.7227 0
      vertex -13.2985 -32.915 0
      vertex -8.58823 -34.4455 0
    endloop
  endfacet
  facet normal 0 0 -1
    outer loop
      vertex -16.1081 -39.8689 0
      vertex -13.2985 -32.915 0
      vertex -10.4026 -41.7227 0
    endloop
  endfacet
  facet normal 0 0 -1
    outer loop
      vertex -16.1081 -39.8689 0
      vertex -17.75 -30.7439 0
      vertex -13.2985 -32.915 0
    endloop
  endfacet
  facet normal 0 0 -1
    outer loop
      vertex -21.5 -37.2391 0
      vertex -17.75 -30.7439 0
      vertex -16.1081 -39.8689 0
    endloop
  endfacet
  facet normal 0 0 -1
    outer loop
      vertex -21.5 -37.2391 0
      vertex -21.856 -27.9744 0
      vertex -17.75 -30.7439 0
    endloop
  endfacet
  facet normal 0 0 -1
    outer loop
      vertex -26.4734 -33.8845 0
      vertex -21.856 -27.9744 0
      vertex -21.5 -37.2391 0
    endloop
  endfacet
  facet normal -0 0 -1
    outer loop
      vertex -21.856 -27.9744 0
      vertex -26.4734 -33.8845 0
      vertex -25.5366 -24.6604 0
    endloop
  endfacet
  facet normal 0 0 -1
    outer loop
      vertex -30.9316 -29.8703 0
      vertex -25.5366 -24.6604 0
      vertex -26.4734 -33.8845 0
    endloop
  endfacet
  facet normal -0 0 -1
    outer loop
      vertex -25.5366 -24.6604 0
      vertex -30.9316 -29.8703 0
      vertex -28.7201 -20.8664 0
    endloop
  endfacet
  facet normal 0 0 -1
    outer loop
      vertex -34.7877 -25.2748 0
      vertex -28.7201 -20.8664 0
      vertex -30.9316 -29.8703 0
    endloop
  endfacet
  facet normal -0 0 -1
    outer loop
      vertex -28.7201 -20.8664 0
      vertex -34.7877 -25.2748 0
      vertex -31.3446 -16.6662 0
    endloop
  endfacet
  facet normal 0 0 -1
    outer loop
      vertex -37.9667 -20.1873 0
      vertex -31.3446 -16.6662 0
      vertex -34.7877 -25.2748 0
    endloop
  endfacet
  facet normal -0 0 -1
    outer loop
      vertex -31.3446 -16.6662 0
      vertex -37.9667 -20.1873 0
      vertex -33.3591 -12.1417 0
    endloop
  endfacet
  facet normal 0 0 -1
    outer loop
      vertex -40.4068 -14.7069 0
      vertex -33.3591 -12.1417 0
      vertex -37.9667 -20.1873 0
    endloop
  endfacet
  facet normal 0 0 -1
    outer loop
      vertex -42.0603 -8.9402 0
      vertex -34.7242 -7.38086 0
      vertex -40.4068 -14.7069 0
    endloop
  endfacet
  facet normal -0 0 -1
    outer loop
      vertex -33.3591 -12.1417 0
      vertex -40.4068 -14.7069 0
      vertex -34.7242 -7.38086 0
    endloop
  endfacet
  facet normal -0 0 -1
    outer loop
      vertex 41.3343 11.8524 0
      vertex 34.1248 9.78513 0
      vertex 39.2825 17.4897 0
    endloop
  endfacet
  facet normal 0 0 -1
    outer loop
      vertex 32.4309 14.4392 0
      vertex 39.2825 17.4897 0
      vertex 34.1248 9.78513 0
    endloop
  endfacet
  facet normal -0 0 -1
    outer loop
      vertex 39.2825 17.4897 0
      vertex 32.4309 14.4392 0
      vertex 36.4661 22.7865 0
    endloop
  endfacet
  facet normal 0 0 -1
    outer loop
      vertex 30.1057 18.8121 0
      vertex 36.4661 22.7865 0
      vertex 32.4309 14.4392 0
    endloop
  endfacet
  facet normal -0 0 -1
    outer loop
      vertex 36.4661 22.7865 0
      vertex 30.1057 18.8121 0
      vertex 32.9399 27.6399 0
    endloop
  endfacet
  facet normal 0 0 -1
    outer loop
      vertex 27.1946 22.819 0
      vertex 32.9399 27.6399 0
      vertex 30.1057 18.8121 0
    endloop
  endfacet
  facet normal -0 0 -1
    outer loop
      vertex 32.9399 27.6399 0
      vertex 27.1946 22.819 0
      vertex 28.7726 31.9552 0
    endloop
  endfacet
  facet normal 0 0 -1
    outer loop
      vertex 23.7541 26.3816 0
      vertex 28.7726 31.9552 0
      vertex 27.1946 22.819 0
    endloop
  endfacet
  facet normal -0 0 -1
    outer loop
      vertex 28.7726 31.9552 0
      vertex 23.7541 26.3816 0
      vertex 24.0453 35.6486 0
    endloop
  endfacet
  facet normal 0 0 -1
    outer loop
      vertex 19.8513 29.4308 0
      vertex 24.0453 35.6486 0
      vertex 23.7541 26.3816 0
    endloop
  endfacet
  facet normal 0 0 -1
    outer loop
      vertex 16.1153 31.5878 0
      vertex 24.0453 35.6486 0
      vertex 19.8513 29.4308 0
    endloop
  endfacet
  facet normal -0 0 -1
    outer loop
      vertex 24.0453 35.6486 0
      vertex 16.1153 31.5878 0
      vertex 18.85 38.6481 0
    endloop
  endfacet
  facet normal -0 0 -1
    outer loop
      vertex 18.85 38.6481 0
      vertex 16.1153 31.5878 0
      vertex 18.4605 38.8055 0
    endloop
  endfacet
  facet normal 0 0 -1
    outer loop
      vertex 6.16451 34.9607 0
      vertex 8.97476 35.5 0
      vertex 8.60205 34.3529 0
    endloop
  endfacet
  facet normal 0 0 -1
    outer loop
      vertex 1.23893 35.4784 0
      vertex 8.97476 35.5 0
      vertex 6.16451 34.9607 0
    endloop
  endfacet
  facet normal 0 0 -1
    outer loop
      vertex 1.23893 35.4784 0
      vertex -10 35.5 0
      vertex 8.97476 35.5 0
    endloop
  endfacet
  facet normal 0 0 -1
    outer loop
      vertex -3.71076 35.3055 0
      vertex -10 35.5 0
      vertex 1.23893 35.4784 0
    endloop
  endfacet
  facet normal 0 0 -1
    outer loop
      vertex -8.58823 34.4455 0
      vertex -10 35.5 0
      vertex -3.71076 35.3055 0
    endloop
  endfacet
  facet normal 0 0 -1
    outer loop
      vertex -16.1081 39.8689 0
      vertex -10 39.5 0
      vertex -10 35.5 0
    endloop
  endfacet
  facet normal 0 0 -1
    outer loop
      vertex -13.2985 32.915 0
      vertex -10 35.5 0
      vertex -8.58823 34.4455 0
    endloop
  endfacet
  facet normal 0 0 -1
    outer loop
      vertex -16.1081 39.8689 0
      vertex -10 35.5 0
      vertex -13.2985 32.915 0
    endloop
  endfacet
  facet normal 0 0 -1
    outer loop
      vertex -10 39.5 0
      vertex -16.1081 39.8689 0
      vertex -10.4026 41.7227 0
    endloop
  endfacet
  facet normal 0 0 -1
    outer loop
      vertex -17.75 30.7439 0
      vertex -16.1081 39.8689 0
      vertex -13.2985 32.915 0
    endloop
  endfacet
  facet normal 0 0 -1
    outer loop
      vertex -17.75 30.7439 0
      vertex -21.5 37.2391 0
      vertex -16.1081 39.8689 0
    endloop
  endfacet
  facet normal 0 0 -1
    outer loop
      vertex -21.856 27.9744 0
      vertex -21.5 37.2391 0
      vertex -17.75 30.7439 0
    endloop
  endfacet
  facet normal 0 0 -1
    outer loop
      vertex -26.4734 33.8845 0
      vertex -21.856 27.9744 0
      vertex -25.5366 24.6604 0
    endloop
  endfacet
  facet normal 0 0 -1
    outer loop
      vertex -21.856 27.9744 0
      vertex -26.4734 33.8845 0
      vertex -21.5 37.2391 0
    endloop
  endfacet
  facet normal 0 0 -1
    outer loop
      vertex -30.9316 29.8703 0
      vertex -25.5366 24.6604 0
      vertex -28.7201 20.8664 0
    endloop
  endfacet
  facet normal 0 0 -1
    outer loop
      vertex -25.5366 24.6604 0
      vertex -30.9316 29.8703 0
      vertex -26.4734 33.8845 0
    endloop
  endfacet
  facet normal 0 0 -1
    outer loop
      vertex -34.7877 25.2748 0
      vertex -28.7201 20.8664 0
      vertex -31.3446 16.6662 0
    endloop
  endfacet
  facet normal 0 0 -1
    outer loop
      vertex -37.9667 20.1873 0
      vertex -31.3446 16.6662 0
      vertex -33.3591 12.1417 0
    endloop
  endfacet
  facet normal 0 0 -1
    outer loop
      vertex -40.4068 14.7069 0
      vertex -33.3591 12.1417 0
      vertex -34.7242 7.38086 0
    endloop
  endfacet
  facet normal 0 0 -1
    outer loop
      vertex -28.7201 20.8664 0
      vertex -34.7877 25.2748 0
      vertex -30.9316 29.8703 0
    endloop
  endfacet
  facet normal 0 0 -1
    outer loop
      vertex -42.0603 8.9402 0
      vertex -34.7242 7.38086 0
      vertex -35.4135 2.47635 0
    endloop
  endfacet
  facet normal -0 0 -1
    outer loop
      vertex -34.7242 -7.38086 0
      vertex -42.0603 -8.9402 0
      vertex -35.4135 -2.47635 0
    endloop
  endfacet
  facet normal 0 0 -1
    outer loop
      vertex -31.3446 16.6662 0
      vertex -37.9667 20.1873 0
      vertex -34.7877 25.2748 0
    endloop
  endfacet
  facet normal 0 0 -1
    outer loop
      vertex -42.8953 -2.99953 0
      vertex -35.4135 -2.47635 0
      vertex -42.0603 -8.9402 0
    endloop
  endfacet
  facet normal 0 0 -1
    outer loop
      vertex -33.3591 12.1417 0
      vertex -40.4068 14.7069 0
      vertex -37.9667 20.1873 0
    endloop
  endfacet
  facet normal -0 0 -1
    outer loop
      vertex -35.4135 -2.47635 0
      vertex -42.8953 -2.99953 0
      vertex -35.4135 2.47635 0
    endloop
  endfacet
  facet normal 0 0 -1
    outer loop
      vertex -34.7242 7.38086 0
      vertex -42.0603 8.9402 0
      vertex -40.4068 14.7069 0
    endloop
  endfacet
  facet normal 0 0 -1
    outer loop
      vertex -42.8953 2.99953 0
      vertex -35.4135 2.47635 0
      vertex -42.8953 -2.99953 0
    endloop
  endfacet
  facet normal 0 0 -1
    outer loop
      vertex -35.4135 2.47635 0
      vertex -42.8953 2.99953 0
      vertex -42.0603 8.9402 0
    endloop
  endfacet
  facet normal 0 0 -1
    outer loop
      vertex 10 39.5 0
      vertex 10.9197 41.4859 0
      vertex 10 38.6554 0
    endloop
  endfacet
  facet normal 0 0 -1
    outer loop
      vertex 10 39.5 0
      vertex 7.46687 42.3467 0
      vertex 10.9197 41.4859 0
    endloop
  endfacet
  facet normal 0 0 -1
    outer loop
      vertex 10 39.5 0
      vertex 1.50068 42.9738 0
      vertex 7.46687 42.3467 0
    endloop
  endfacet
  facet normal 0 0 -1
    outer loop
      vertex -10 39.5 0
      vertex 1.50068 42.9738 0
      vertex 10 39.5 0
    endloop
  endfacet
  facet normal 0 0 -1
    outer loop
      vertex 1.50068 42.9738 0
      vertex -10 39.5 0
      vertex -4.49472 42.7644 0
    endloop
  endfacet
  facet normal 0 0 -1
    outer loop
      vertex -4.49472 42.7644 0
      vertex -10 39.5 0
      vertex -10.4026 41.7227 0
    endloop
  endfacet
  facet normal 0 0 1
    outer loop
      vertex 7.46687 42.3467 3.2
      vertex 8.60205 34.3529 3.2
      vertex 10.9197 41.4859 3.2
    endloop
  endfacet
  facet normal 0 0 1
    outer loop
      vertex 7.46687 42.3467 3.2
      vertex 6.16451 34.9607 3.2
      vertex 8.60205 34.3529 3.2
    endloop
  endfacet
  facet normal 0 0 1
    outer loop
      vertex 1.50068 42.9738 3.2
      vertex 6.16451 34.9607 3.2
      vertex 7.46687 42.3467 3.2
    endloop
  endfacet
  facet normal 0 0 1
    outer loop
      vertex 1.50068 42.9738 3.2
      vertex 1.23893 35.4784 3.2
      vertex 6.16451 34.9607 3.2
    endloop
  endfacet
  facet normal 0 0 1
    outer loop
      vertex 1.50068 42.9738 3.2
      vertex -3.71076 35.3055 3.2
      vertex 1.23893 35.4784 3.2
    endloop
  endfacet
  facet normal -0 0 1
    outer loop
      vertex -4.49472 42.7644 3.2
      vertex -3.71076 35.3055 3.2
      vertex 1.50068 42.9738 3.2
    endloop
  endfacet
  facet normal 0 0 1
    outer loop
      vertex -4.49472 42.7644 3.2
      vertex -8.58823 34.4455 3.2
      vertex -3.71076 35.3055 3.2
    endloop
  endfacet
  facet normal -0 0 1
    outer loop
      vertex -10.4026 41.7227 3.2
      vertex -8.58823 34.4455 3.2
      vertex -4.49472 42.7644 3.2
    endloop
  endfacet
  facet normal 0 0 1
    outer loop
      vertex -10.4026 41.7227 3.2
      vertex -13.2985 32.915 3.2
      vertex -8.58823 34.4455 3.2
    endloop
  endfacet
  facet normal -0 0 1
    outer loop
      vertex -16.1081 39.8689 3.2
      vertex -13.2985 32.915 3.2
      vertex -10.4026 41.7227 3.2
    endloop
  endfacet
  facet normal 0 0 1
    outer loop
      vertex -16.1081 39.8689 3.2
      vertex -17.75 30.7439 3.2
      vertex -13.2985 32.915 3.2
    endloop
  endfacet
  facet normal -0 0 1
    outer loop
      vertex -21.5 37.2391 3.2
      vertex -17.75 30.7439 3.2
      vertex -16.1081 39.8689 3.2
    endloop
  endfacet
  facet normal 0 0 1
    outer loop
      vertex -21.5 37.2391 3.2
      vertex -21.856 27.9744 3.2
      vertex -17.75 30.7439 3.2
    endloop
  endfacet
  facet normal -0 0 1
    outer loop
      vertex -26.4734 33.8845 3.2
      vertex -21.856 27.9744 3.2
      vertex -21.5 37.2391 3.2
    endloop
  endfacet
  facet normal 0 0 1
    outer loop
      vertex -21.856 27.9744 3.2
      vertex -26.4734 33.8845 3.2
      vertex -25.5366 24.6604 3.2
    endloop
  endfacet
  facet normal -0 0 1
    outer loop
      vertex -30.9316 29.8703 3.2
      vertex -25.5366 24.6604 3.2
      vertex -26.4734 33.8845 3.2
    endloop
  endfacet
  facet normal 0 0 1
    outer loop
      vertex -25.5366 24.6604 3.2
      vertex -30.9316 29.8703 3.2
      vertex -28.7201 20.8664 3.2
    endloop
  endfacet
  facet normal -0 0 1
    outer loop
      vertex -34.7877 25.2748 3.2
      vertex -28.7201 20.8664 3.2
      vertex -30.9316 29.8703 3.2
    endloop
  endfacet
  facet normal 0 0 1
    outer loop
      vertex -28.7201 20.8664 3.2
      vertex -34.7877 25.2748 3.2
      vertex -31.3446 16.6662 3.2
    endloop
  endfacet
  facet normal -0 0 1
    outer loop
      vertex -37.9667 20.1873 3.2
      vertex -31.3446 16.6662 3.2
      vertex -34.7877 25.2748 3.2
    endloop
  endfacet
  facet normal 0 0 1
    outer loop
      vertex -31.3446 16.6662 3.2
      vertex -37.9667 20.1873 3.2
      vertex -33.3591 12.1417 3.2
    endloop
  endfacet
  facet normal -0 0 1
    outer loop
      vertex -40.4068 14.7069 3.2
      vertex -33.3591 12.1417 3.2
      vertex -37.9667 20.1873 3.2
    endloop
  endfacet
  facet normal -0 0 1
    outer loop
      vertex -42.0603 8.9402 3.2
      vertex -34.7242 7.38086 3.2
      vertex -40.4068 14.7069 3.2
    endloop
  endfacet
  facet normal 0 0 1
    outer loop
      vertex -33.3591 12.1417 3.2
      vertex -40.4068 14.7069 3.2
      vertex -34.7242 7.38086 3.2
    endloop
  endfacet
  facet normal 0 0 1
    outer loop
      vertex 35.5 0 3.2
      vertex 43 0 3.2
      vertex 42.5815 5.98444 3.2
    endloop
  endfacet
  facet normal 0 0 1
    outer loop
      vertex 35.1545 4.94064 3.2
      vertex 42.5815 5.98444 3.2
      vertex 41.3343 11.8524 3.2
    endloop
  endfacet
  facet normal 0 0 1
    outer loop
      vertex 43 0 3.2
      vertex 35.5 0 3.2
      vertex 42.5815 -5.98444 3.2
    endloop
  endfacet
  facet normal 0 0 1
    outer loop
      vertex 34.1248 9.78513 3.2
      vertex 41.3343 11.8524 3.2
      vertex 39.2825 17.4897 3.2
    endloop
  endfacet
  facet normal -0 0 1
    outer loop
      vertex 35.1545 -4.94064 3.2
      vertex 42.5815 -5.98444 3.2
      vertex 35.5 0 3.2
    endloop
  endfacet
  facet normal 0 0 1
    outer loop
      vertex 32.4309 14.4392 3.2
      vertex 39.2825 17.4897 3.2
      vertex 36.4661 22.7865 3.2
    endloop
  endfacet
  facet normal 0 0 1
    outer loop
      vertex 42.5815 -5.98444 3.2
      vertex 35.1545 -4.94064 3.2
      vertex 41.3343 -11.8524 3.2
    endloop
  endfacet
  facet normal -0 0 1
    outer loop
      vertex 34.1248 -9.78513 3.2
      vertex 41.3343 -11.8524 3.2
      vertex 35.1545 -4.94064 3.2
    endloop
  endfacet
  facet normal 0 0 1
    outer loop
      vertex 42.5815 5.98444 3.2
      vertex 35.1545 4.94064 3.2
      vertex 35.5 0 3.2
    endloop
  endfacet
  facet normal 0 0 1
    outer loop
      vertex 41.3343 11.8524 3.2
      vertex 34.1248 9.78513 3.2
      vertex 35.1545 4.94064 3.2
    endloop
  endfacet
  facet normal 0 0 1
    outer loop
      vertex 30.1057 18.8121 3.2
      vertex 36.4661 22.7865 3.2
      vertex 32.9399 27.6399 3.2
    endloop
  endfacet
  facet normal 0 0 1
    outer loop
      vertex 39.2825 17.4897 3.2
      vertex 32.4309 14.4392 3.2
      vertex 34.1248 9.78513 3.2
    endloop
  endfacet
  facet normal 0 0 1
    outer loop
      vertex 36.4661 22.7865 3.2
      vertex 30.1057 18.8121 3.2
      vertex 32.4309 14.4392 3.2
    endloop
  endfacet
  facet normal 0 0 1
    outer loop
      vertex 27.1946 22.819 3.2
      vertex 32.9399 27.6399 3.2
      vertex 28.7726 31.9552 3.2
    endloop
  endfacet
  facet normal 0 0 1
    outer loop
      vertex 32.9399 27.6399 3.2
      vertex 27.1946 22.819 3.2
      vertex 30.1057 18.8121 3.2
    endloop
  endfacet
  facet normal 0 0 1
    outer loop
      vertex 23.7541 26.3816 3.2
      vertex 28.7726 31.9552 3.2
      vertex 24.0453 35.6486 3.2
    endloop
  endfacet
  facet normal 0 0 1
    outer loop
      vertex 28.7726 31.9552 3.2
      vertex 23.7541 26.3816 3.2
      vertex 27.1946 22.819 3.2
    endloop
  endfacet
  facet normal 0 0 1
    outer loop
      vertex 24.0453 35.6486 3.2
      vertex 19.8513 29.4308 3.2
      vertex 23.7541 26.3816 3.2
    endloop
  endfacet
  facet normal 0 0 1
    outer loop
      vertex 16.1153 31.5878 3.2
      vertex 24.0453 35.6486 3.2
      vertex 18.85 38.6481 3.2
    endloop
  endfacet
  facet normal 0 0 1
    outer loop
      vertex 16.1153 31.5878 3.2
      vertex 18.85 38.6481 3.2
      vertex 18.4605 38.8055 3.2
    endloop
  endfacet
  facet normal 0 0 1
    outer loop
      vertex 24.0453 35.6486 3.2
      vertex 16.1153 31.5878 3.2
      vertex 19.8513 29.4308 3.2
    endloop
  endfacet
  facet normal 0 0 1
    outer loop
      vertex 41.3343 -11.8524 3.2
      vertex 34.1248 -9.78513 3.2
      vertex 39.2825 -17.4897 3.2
    endloop
  endfacet
  facet normal -0 0 1
    outer loop
      vertex 32.4309 -14.4392 3.2
      vertex 39.2825 -17.4897 3.2
      vertex 34.1248 -9.78513 3.2
    endloop
  endfacet
  facet normal 0 0 1
    outer loop
      vertex 39.2825 -17.4897 3.2
      vertex 32.4309 -14.4392 3.2
      vertex 36.4661 -22.7865 3.2
    endloop
  endfacet
  facet normal -0 0 1
    outer loop
      vertex 30.1057 -18.8121 3.2
      vertex 36.4661 -22.7865 3.2
      vertex 32.4309 -14.4392 3.2
    endloop
  endfacet
  facet normal 0 0 1
    outer loop
      vertex 36.4661 -22.7865 3.2
      vertex 30.1057 -18.8121 3.2
      vertex 32.9399 -27.6399 3.2
    endloop
  endfacet
  facet normal -0 0 1
    outer loop
      vertex 27.1946 -22.819 3.2
      vertex 32.9399 -27.6399 3.2
      vertex 30.1057 -18.8121 3.2
    endloop
  endfacet
  facet normal 0 0 1
    outer loop
      vertex 32.9399 -27.6399 3.2
      vertex 27.1946 -22.819 3.2
      vertex 28.7726 -31.9552 3.2
    endloop
  endfacet
  facet normal -0 0 1
    outer loop
      vertex 23.7541 -26.3816 3.2
      vertex 28.7726 -31.9552 3.2
      vertex 27.1946 -22.819 3.2
    endloop
  endfacet
  facet normal 0 0 1
    outer loop
      vertex 28.7726 -31.9552 3.2
      vertex 23.7541 -26.3816 3.2
      vertex 24.0453 -35.6486 3.2
    endloop
  endfacet
  facet normal -0 0 1
    outer loop
      vertex 19.8513 -29.4308 3.2
      vertex 24.0453 -35.6486 3.2
      vertex 23.7541 -26.3816 3.2
    endloop
  endfacet
  facet normal 0 0 1
    outer loop
      vertex 19.8513 -29.4308 3.2
      vertex 18.85 -38.6481 3.2
      vertex 24.0453 -35.6486 3.2
    endloop
  endfacet
  facet normal -0 0 1
    outer loop
      vertex 15.5622 -31.9072 3.2
      vertex 18.85 -38.6481 3.2
      vertex 19.8513 -29.4308 3.2
    endloop
  endfacet
  facet normal 0 0 1
    outer loop
      vertex 15.5622 -31.9072 3.2
      vertex 13.2877 -40.8954 3.2
      vertex 18.85 -38.6481 3.2
    endloop
  endfacet
  facet normal -0 0 1
    outer loop
      vertex 10.9701 -33.7625 3.2
      vertex 13.2877 -40.8954 3.2
      vertex 15.5622 -31.9072 3.2
    endloop
  endfacet
  facet normal 0 0 1
    outer loop
      vertex 10.9701 -33.7625 3.2
      vertex 7.46687 -42.3467 3.2
      vertex 13.2877 -40.8954 3.2
    endloop
  endfacet
  facet normal -0 0 1
    outer loop
      vertex 6.16451 -34.9607 3.2
      vertex 7.46687 -42.3467 3.2
      vertex 10.9701 -33.7625 3.2
    endloop
  endfacet
  facet normal 0 0 1
    outer loop
      vertex 6.16451 -34.9607 3.2
      vertex 1.50068 -42.9738 3.2
      vertex 7.46687 -42.3467 3.2
    endloop
  endfacet
  facet normal -0 0 1
    outer loop
      vertex 1.23893 -35.4784 3.2
      vertex 1.50068 -42.9738 3.2
      vertex 6.16451 -34.9607 3.2
    endloop
  endfacet
  facet normal 0 0 1
    outer loop
      vertex -3.71076 -35.3055 3.2
      vertex 1.50068 -42.9738 3.2
      vertex 1.23893 -35.4784 3.2
    endloop
  endfacet
  facet normal 0 0 1
    outer loop
      vertex -3.71076 -35.3055 3.2
      vertex -4.49472 -42.7644 3.2
      vertex 1.50068 -42.9738 3.2
    endloop
  endfacet
  facet normal 0 0 1
    outer loop
      vertex -8.58823 -34.4455 3.2
      vertex -4.49472 -42.7644 3.2
      vertex -3.71076 -35.3055 3.2
    endloop
  endfacet
  facet normal 0 0 1
    outer loop
      vertex -8.58823 -34.4455 3.2
      vertex -10.4026 -41.7227 3.2
      vertex -4.49472 -42.7644 3.2
    endloop
  endfacet
  facet normal 0 0 1
    outer loop
      vertex -13.2985 -32.915 3.2
      vertex -10.4026 -41.7227 3.2
      vertex -8.58823 -34.4455 3.2
    endloop
  endfacet
  facet normal 0 0 1
    outer loop
      vertex -13.2985 -32.915 3.2
      vertex -16.1081 -39.8689 3.2
      vertex -10.4026 -41.7227 3.2
    endloop
  endfacet
  facet normal 0 0 1
    outer loop
      vertex -17.75 -30.7439 3.2
      vertex -16.1081 -39.8689 3.2
      vertex -13.2985 -32.915 3.2
    endloop
  endfacet
  facet normal 0 0 1
    outer loop
      vertex -17.75 -30.7439 3.2
      vertex -21.5 -37.2391 3.2
      vertex -16.1081 -39.8689 3.2
    endloop
  endfacet
  facet normal 0 0 1
    outer loop
      vertex -21.856 -27.9744 3.2
      vertex -21.5 -37.2391 3.2
      vertex -17.75 -30.7439 3.2
    endloop
  endfacet
  facet normal 0 0 1
    outer loop
      vertex -26.4734 -33.8845 3.2
      vertex -21.856 -27.9744 3.2
      vertex -25.5366 -24.6604 3.2
    endloop
  endfacet
  facet normal 0 0 1
    outer loop
      vertex -21.856 -27.9744 3.2
      vertex -26.4734 -33.8845 3.2
      vertex -21.5 -37.2391 3.2
    endloop
  endfacet
  facet normal 0 0 1
    outer loop
      vertex -30.9316 -29.8703 3.2
      vertex -25.5366 -24.6604 3.2
      vertex -28.7201 -20.8664 3.2
    endloop
  endfacet
  facet normal 0 0 1
    outer loop
      vertex -25.5366 -24.6604 3.2
      vertex -30.9316 -29.8703 3.2
      vertex -26.4734 -33.8845 3.2
    endloop
  endfacet
  facet normal 0 0 1
    outer loop
      vertex -34.7877 -25.2748 3.2
      vertex -28.7201 -20.8664 3.2
      vertex -31.3446 -16.6662 3.2
    endloop
  endfacet
  facet normal 0 0 1
    outer loop
      vertex -37.9667 -20.1873 3.2
      vertex -31.3446 -16.6662 3.2
      vertex -33.3591 -12.1417 3.2
    endloop
  endfacet
  facet normal 0 0 1
    outer loop
      vertex -40.4068 -14.7069 3.2
      vertex -33.3591 -12.1417 3.2
      vertex -34.7242 -7.38086 3.2
    endloop
  endfacet
  facet normal 0 0 1
    outer loop
      vertex -28.7201 -20.8664 3.2
      vertex -34.7877 -25.2748 3.2
      vertex -30.9316 -29.8703 3.2
    endloop
  endfacet
  facet normal 0 0 1
    outer loop
      vertex -42.0603 -8.9402 3.2
      vertex -34.7242 -7.38086 3.2
      vertex -35.4135 -2.47635 3.2
    endloop
  endfacet
  facet normal 0 0 1
    outer loop
      vertex -34.7242 7.38086 3.2
      vertex -42.0603 8.9402 3.2
      vertex -35.4135 2.47635 3.2
    endloop
  endfacet
  facet normal 0 0 1
    outer loop
      vertex -31.3446 -16.6662 3.2
      vertex -37.9667 -20.1873 3.2
      vertex -34.7877 -25.2748 3.2
    endloop
  endfacet
  facet normal -0 0 1
    outer loop
      vertex -42.8953 2.99953 3.2
      vertex -35.4135 2.47635 3.2
      vertex -42.0603 8.9402 3.2
    endloop
  endfacet
  facet normal 0 0 1
    outer loop
      vertex -33.3591 -12.1417 3.2
      vertex -40.4068 -14.7069 3.2
      vertex -37.9667 -20.1873 3.2
    endloop
  endfacet
  facet normal 0 0 1
    outer loop
      vertex -35.4135 2.47635 3.2
      vertex -42.8953 2.99953 3.2
      vertex -35.4135 -2.47635 3.2
    endloop
  endfacet
  facet normal 0 0 1
    outer loop
      vertex -34.7242 -7.38086 3.2
      vertex -42.0603 -8.9402 3.2
      vertex -40.4068 -14.7069 3.2
    endloop
  endfacet
  facet normal 0 0 1
    outer loop
      vertex -42.8953 -2.99953 3.2
      vertex -35.4135 -2.47635 3.2
      vertex -42.8953 2.99953 3.2
    endloop
  endfacet
  facet normal 0 0 1
    outer loop
      vertex -35.4135 -2.47635 3.2
      vertex -42.8953 -2.99953 3.2
      vertex -42.0603 -8.9402 3.2
    endloop
  endfacet
  facet normal 0.615664 0.788008 -0
    outer loop
      vertex 28.7726 31.9552 0
      vertex 24.0453 35.6486 3.2
      vertex 28.7726 31.9552 3.2
    endloop
  endfacet
  facet normal 0.615664 0.788008 0
    outer loop
      vertex 24.0453 35.6486 3.2
      vertex 28.7726 31.9552 0
      vertex 24.0453 35.6486 0
    endloop
  endfacet
  facet normal -0.961265 -0.275626 0
    outer loop
      vertex -40.4068 -14.7069 0
      vertex -42.0603 -8.9402 3.2
      vertex -42.0603 -8.9402 0
    endloop
  endfacet
  facet normal -0.961265 -0.275626 0
    outer loop
      vertex -42.0603 -8.9402 3.2
      vertex -40.4068 -14.7069 0
      vertex -40.4068 -14.7069 3.2
    endloop
  endfacet
  facet normal -0.84805 -0.529917 0
    outer loop
      vertex -34.7877 -25.2748 0
      vertex -37.9667 -20.1873 3.2
      vertex -37.9667 -20.1873 0
    endloop
  endfacet
  facet normal -0.84805 -0.529917 0
    outer loop
      vertex -37.9667 -20.1873 3.2
      vertex -34.7877 -25.2748 0
      vertex -34.7877 -25.2748 3.2
    endloop
  endfacet
  facet normal 0.939693 -0.342019 0
    outer loop
      vertex 39.2825 -17.4897 3.2
      vertex 41.3343 -11.8524 0
      vertex 41.3343 -11.8524 3.2
    endloop
  endfacet
  facet normal 0.939693 -0.342019 0
    outer loop
      vertex 41.3343 -11.8524 0
      vertex 39.2825 -17.4897 3.2
      vertex 39.2825 -17.4897 0
    endloop
  endfacet
  facet normal -0.990266 -0.139188 0
    outer loop
      vertex -42.0603 -8.9402 0
      vertex -42.8953 -2.99953 3.2
      vertex -42.8953 -2.99953 0
    endloop
  endfacet
  facet normal -0.990266 -0.139188 0
    outer loop
      vertex -42.8953 -2.99953 3.2
      vertex -42.0603 -8.9402 0
      vertex -42.0603 -8.9402 3.2
    endloop
  endfacet
  facet normal -0.766043 -0.642789 0
    outer loop
      vertex -30.9316 -29.8703 0
      vertex -34.7877 -25.2748 3.2
      vertex -34.7877 -25.2748 0
    endloop
  endfacet
  facet normal -0.766043 -0.642789 0
    outer loop
      vertex -34.7877 -25.2748 3.2
      vertex -30.9316 -29.8703 0
      vertex -30.9316 -29.8703 3.2
    endloop
  endfacet
  facet normal 0.499999 -0.866026 0
    outer loop
      vertex 18.85 -38.6481 0
      vertex 24.0453 -35.6486 3.2
      vertex 18.85 -38.6481 3.2
    endloop
  endfacet
  facet normal 0.499999 -0.866026 0
    outer loop
      vertex 24.0453 -35.6486 3.2
      vertex 18.85 -38.6481 0
      vertex 24.0453 -35.6486 0
    endloop
  endfacet
  facet normal 0.374672 0.927158 -0
    outer loop
      vertex 18.85 38.6481 0
      vertex 18.4605 38.8055 3.2
      vertex 18.85 38.6481 3.2
    endloop
  endfacet
  facet normal 0.374672 0.927158 0
    outer loop
      vertex 18.4605 38.8055 3.2
      vertex 18.85 38.6481 0
      vertex 18.4605 38.8055 0
    endloop
  endfacet
  facet normal 0.719335 -0.694664 0
    outer loop
      vertex 28.7726 -31.9552 3.2
      vertex 32.9399 -27.6399 0
      vertex 32.9399 -27.6399 3.2
    endloop
  endfacet
  facet normal 0.719335 -0.694664 0
    outer loop
      vertex 32.9399 -27.6399 0
      vertex 28.7726 -31.9552 3.2
      vertex 28.7726 -31.9552 0
    endloop
  endfacet
  facet normal -0.559193 -0.829038 0
    outer loop
      vertex -26.4734 -33.8845 0
      vertex -21.5 -37.2391 3.2
      vertex -26.4734 -33.8845 3.2
    endloop
  endfacet
  facet normal -0.559193 -0.829038 -0
    outer loop
      vertex -21.5 -37.2391 3.2
      vertex -26.4734 -33.8845 0
      vertex -21.5 -37.2391 0
    endloop
  endfacet
  facet normal 0.374604 -0.927185 0
    outer loop
      vertex 13.2877 -40.8954 0
      vertex 18.85 -38.6481 3.2
      vertex 13.2877 -40.8954 3.2
    endloop
  endfacet
  facet normal 0.374604 -0.927185 0
    outer loop
      vertex 18.85 -38.6481 3.2
      vertex 13.2877 -40.8954 0
      vertex 18.85 -38.6481 0
    endloop
  endfacet
  facet normal 0.997564 -0.069761 0
    outer loop
      vertex 42.5815 -5.98444 3.2
      vertex 43 0 0
      vertex 43 0 3.2
    endloop
  endfacet
  facet normal 0.997564 -0.069761 0
    outer loop
      vertex 43 0 0
      vertex 42.5815 -5.98444 3.2
      vertex 42.5815 -5.98444 0
    endloop
  endfacet
  facet normal 0.97815 -0.2079 0
    outer loop
      vertex 41.3343 -11.8524 3.2
      vertex 42.5815 -5.98444 0
      vertex 42.5815 -5.98444 3.2
    endloop
  endfacet
  facet normal 0.97815 -0.2079 0
    outer loop
      vertex 42.5815 -5.98444 0
      vertex 41.3343 -11.8524 3.2
      vertex 41.3343 -11.8524 0
    endloop
  endfacet
  facet normal 0.615664 -0.788008 0
    outer loop
      vertex 24.0453 -35.6486 0
      vertex 28.7726 -31.9552 3.2
      vertex 24.0453 -35.6486 3.2
    endloop
  endfacet
  facet normal 0.615664 -0.788008 0
    outer loop
      vertex 28.7726 -31.9552 3.2
      vertex 24.0453 -35.6486 0
      vertex 28.7726 -31.9552 0
    endloop
  endfacet
  facet normal -0.43837 -0.898794 0
    outer loop
      vertex -21.5 -37.2391 0
      vertex -16.1081 -39.8689 3.2
      vertex -21.5 -37.2391 3.2
    endloop
  endfacet
  facet normal -0.43837 -0.898794 -0
    outer loop
      vertex -16.1081 -39.8689 3.2
      vertex -21.5 -37.2391 0
      vertex -16.1081 -39.8689 0
    endloop
  endfacet
  facet normal -1 0 0
    outer loop
      vertex -42.8953 -2.99953 0
      vertex -42.8953 2.99953 3.2
      vertex -42.8953 2.99953 0
    endloop
  endfacet
  facet normal -1 -0 0
    outer loop
      vertex -42.8953 2.99953 3.2
      vertex -42.8953 -2.99953 0
      vertex -42.8953 -2.99953 3.2
    endloop
  endfacet
  facet normal -0.309013 -0.951058 0
    outer loop
      vertex -16.1081 -39.8689 0
      vertex -10.4026 -41.7227 3.2
      vertex -16.1081 -39.8689 3.2
    endloop
  endfacet
  facet normal -0.309013 -0.951058 -0
    outer loop
      vertex -10.4026 -41.7227 3.2
      vertex -16.1081 -39.8689 0
      vertex -10.4026 -41.7227 0
    endloop
  endfacet
  facet normal -0.84805 0.529917 0
    outer loop
      vertex -37.9667 20.1873 0
      vertex -34.7877 25.2748 3.2
      vertex -34.7877 25.2748 0
    endloop
  endfacet
  facet normal -0.84805 0.529917 0
    outer loop
      vertex -34.7877 25.2748 3.2
      vertex -37.9667 20.1873 0
      vertex -37.9667 20.1873 3.2
    endloop
  endfacet
  facet normal -0.669132 -0.743143 0
    outer loop
      vertex -30.9316 -29.8703 0
      vertex -26.4734 -33.8845 3.2
      vertex -30.9316 -29.8703 3.2
    endloop
  endfacet
  facet normal -0.669132 -0.743143 -0
    outer loop
      vertex -26.4734 -33.8845 3.2
      vertex -30.9316 -29.8703 0
      vertex -26.4734 -33.8845 0
    endloop
  endfacet
  facet normal -0.173645 -0.984808 0
    outer loop
      vertex -10.4026 -41.7227 0
      vertex -4.49472 -42.7644 3.2
      vertex -10.4026 -41.7227 3.2
    endloop
  endfacet
  facet normal -0.173645 -0.984808 -0
    outer loop
      vertex -4.49472 -42.7644 3.2
      vertex -10.4026 -41.7227 0
      vertex -4.49472 -42.7644 0
    endloop
  endfacet
  facet normal -0.978149 0.207906 0
    outer loop
      vertex 34.1248 -9.78513 0
      vertex 35.1545 -4.94064 3.2
      vertex 35.1545 -4.94064 0
    endloop
  endfacet
  facet normal -0.978149 0.207906 0
    outer loop
      vertex 35.1545 -4.94064 3.2
      vertex 34.1248 -9.78513 0
      vertex 34.1248 -9.78513 3.2
    endloop
  endfacet
  facet normal -0.978149 -0.207906 0
    outer loop
      vertex 35.1545 4.94064 0
      vertex 34.1248 9.78513 3.2
      vertex 34.1248 9.78513 0
    endloop
  endfacet
  facet normal -0.978149 -0.207906 0
    outer loop
      vertex 34.1248 9.78513 3.2
      vertex 35.1545 4.94064 0
      vertex 35.1545 4.94064 3.2
    endloop
  endfacet
  facet normal -0.997564 -0.0697598 0
    outer loop
      vertex 35.5 0 0
      vertex 35.1545 4.94064 3.2
      vertex 35.1545 4.94064 0
    endloop
  endfacet
  facet normal -0.997564 -0.0697598 0
    outer loop
      vertex 35.1545 4.94064 3.2
      vertex 35.5 0 0
      vertex 35.5 0 3.2
    endloop
  endfacet
  facet normal -0.88294 0.469485 0
    outer loop
      vertex 30.1057 -18.8121 0
      vertex 32.4309 -14.4392 3.2
      vertex 32.4309 -14.4392 0
    endloop
  endfacet
  facet normal -0.88294 0.469485 0
    outer loop
      vertex 32.4309 -14.4392 3.2
      vertex 30.1057 -18.8121 0
      vertex 30.1057 -18.8121 3.2
    endloop
  endfacet
  facet normal 0.913541 0.406747 0
    outer loop
      vertex -31.3446 -16.6662 3.2
      vertex -33.3591 -12.1417 0
      vertex -33.3591 -12.1417 3.2
    endloop
  endfacet
  facet normal 0.913541 0.406747 0
    outer loop
      vertex -33.3591 -12.1417 0
      vertex -31.3446 -16.6662 3.2
      vertex -31.3446 -16.6662 0
    endloop
  endfacet
  facet normal 0.559188 -0.829041 0
    outer loop
      vertex -21.856 27.9744 0
      vertex -17.75 30.7439 3.2
      vertex -21.856 27.9744 3.2
    endloop
  endfacet
  facet normal 0.559188 -0.829041 0
    outer loop
      vertex -17.75 30.7439 3.2
      vertex -21.856 27.9744 0
      vertex -17.75 30.7439 0
    endloop
  endfacet
  facet normal 1 -0 0
    outer loop
      vertex -35.4135 -2.47635 3.2
      vertex -35.4135 2.47635 0
      vertex -35.4135 2.47635 3.2
    endloop
  endfacet
  facet normal 1 0 0
    outer loop
      vertex -35.4135 2.47635 0
      vertex -35.4135 -2.47635 3.2
      vertex -35.4135 -2.47635 0
    endloop
  endfacet
  facet normal -0.615661 -0.788011 0
    outer loop
      vertex 19.8513 29.4308 0
      vertex 23.7541 26.3816 3.2
      vertex 19.8513 29.4308 3.2
    endloop
  endfacet
  facet normal -0.615661 -0.788011 -0
    outer loop
      vertex 23.7541 26.3816 3.2
      vertex 19.8513 29.4308 0
      vertex 23.7541 26.3816 0
    endloop
  endfacet
  facet normal -0.615661 0.788011 0
    outer loop
      vertex 23.7541 -26.3816 0
      vertex 19.8513 -29.4308 3.2
      vertex 23.7541 -26.3816 3.2
    endloop
  endfacet
  facet normal -0.615661 0.788011 0
    outer loop
      vertex 19.8513 -29.4308 3.2
      vertex 23.7541 -26.3816 0
      vertex 19.8513 -29.4308 0
    endloop
  endfacet
  facet normal 0.173642 0.984809 -0
    outer loop
      vertex -3.71076 -35.3055 0
      vertex -8.58823 -34.4455 3.2
      vertex -3.71076 -35.3055 3.2
    endloop
  endfacet
  facet normal 0.173642 0.984809 0
    outer loop
      vertex -8.58823 -34.4455 3.2
      vertex -3.71076 -35.3055 0
      vertex -8.58823 -34.4455 0
    endloop
  endfacet
  facet normal 0.438364 0.898797 -0
    outer loop
      vertex -13.2985 -32.915 0
      vertex -17.75 -30.7439 3.2
      vertex -13.2985 -32.915 3.2
    endloop
  endfacet
  facet normal 0.438364 0.898797 0
    outer loop
      vertex -17.75 -30.7439 3.2
      vertex -13.2985 -32.915 0
      vertex -17.75 -30.7439 0
    endloop
  endfacet
  facet normal -0.809025 0.587774 0
    outer loop
      vertex 27.1946 -22.819 0
      vertex 30.1057 -18.8121 3.2
      vertex 30.1057 -18.8121 0
    endloop
  endfacet
  facet normal -0.809025 0.587774 0
    outer loop
      vertex 30.1057 -18.8121 3.2
      vertex 27.1946 -22.819 0
      vertex 27.1946 -22.819 3.2
    endloop
  endfacet
  facet normal 0.766049 -0.642782 0
    outer loop
      vertex -28.7201 20.8664 3.2
      vertex -25.5366 24.6604 0
      vertex -25.5366 24.6604 3.2
    endloop
  endfacet
  facet normal 0.766049 -0.642782 0
    outer loop
      vertex -25.5366 24.6604 0
      vertex -28.7201 20.8664 3.2
      vertex -28.7201 20.8664 0
    endloop
  endfacet
  facet normal -0.104529 -0.994522 0
    outer loop
      vertex 1.23893 35.4784 0
      vertex 6.16451 34.9607 3.2
      vertex 1.23893 35.4784 3.2
    endloop
  endfacet
  facet normal -0.104529 -0.994522 -0
    outer loop
      vertex 6.16451 34.9607 3.2
      vertex 1.23893 35.4784 0
      vertex 6.16451 34.9607 0
    endloop
  endfacet
  facet normal -0.374602 0.927186 0
    outer loop
      vertex 15.5622 -31.9072 0
      vertex 10.9701 -33.7625 3.2
      vertex 15.5622 -31.9072 3.2
    endloop
  endfacet
  facet normal -0.374602 0.927186 0
    outer loop
      vertex 10.9701 -33.7625 3.2
      vertex 15.5622 -31.9072 0
      vertex 10.9701 -33.7625 0
    endloop
  endfacet
  facet normal 0.961264 0.275628 0
    outer loop
      vertex -33.3591 -12.1417 3.2
      vertex -34.7242 -7.38086 0
      vertex -34.7242 -7.38086 3.2
    endloop
  endfacet
  facet normal 0.961264 0.275628 0
    outer loop
      vertex -34.7242 -7.38086 0
      vertex -33.3591 -12.1417 3.2
      vertex -33.3591 -12.1417 0
    endloop
  endfacet
  facet normal -0.809025 -0.587774 0
    outer loop
      vertex 30.1057 18.8121 0
      vertex 27.1946 22.819 3.2
      vertex 27.1946 22.819 0
    endloop
  endfacet
  facet normal -0.809025 -0.587774 0
    outer loop
      vertex 27.1946 22.819 3.2
      vertex 30.1057 18.8121 0
      vertex 30.1057 18.8121 3.2
    endloop
  endfacet
  facet normal -0.104529 0.994522 0
    outer loop
      vertex 6.16451 -34.9607 0
      vertex 1.23893 -35.4784 3.2
      vertex 6.16451 -34.9607 3.2
    endloop
  endfacet
  facet normal -0.104529 0.994522 0
    outer loop
      vertex 1.23893 -35.4784 3.2
      vertex 6.16451 -34.9607 0
      vertex 1.23893 -35.4784 0
    endloop
  endfacet
  facet normal 0.559188 0.829041 -0
    outer loop
      vertex -17.75 -30.7439 0
      vertex -21.856 -27.9744 3.2
      vertex -17.75 -30.7439 3.2
    endloop
  endfacet
  facet normal 0.559188 0.829041 0
    outer loop
      vertex -21.856 -27.9744 3.2
      vertex -17.75 -30.7439 0
      vertex -21.856 -27.9744 0
    endloop
  endfacet
  facet normal -0.500003 -0.866023 0
    outer loop
      vertex 16.1153 31.5878 0
      vertex 19.8513 29.4308 3.2
      vertex 16.1153 31.5878 3.2
    endloop
  endfacet
  facet normal -0.500003 -0.866023 -0
    outer loop
      vertex 19.8513 29.4308 3.2
      vertex 16.1153 31.5878 0
      vertex 19.8513 29.4308 0
    endloop
  endfacet
  facet normal 0.0349102 0.99939 -0
    outer loop
      vertex 1.23893 -35.4784 0
      vertex -3.71076 -35.3055 3.2
      vertex 1.23893 -35.4784 3.2
    endloop
  endfacet
  facet normal 0.0349102 0.99939 0
    outer loop
      vertex -3.71076 -35.3055 3.2
      vertex 1.23893 -35.4784 0
      vertex -3.71076 -35.3055 0
    endloop
  endfacet
  facet normal -0.500013 0.866018 0
    outer loop
      vertex 19.8513 -29.4308 0
      vertex 15.5622 -31.9072 3.2
      vertex 19.8513 -29.4308 3.2
    endloop
  endfacet
  facet normal -0.500013 0.866018 0
    outer loop
      vertex 15.5622 -31.9072 3.2
      vertex 19.8513 -29.4308 0
      vertex 15.5622 -31.9072 0
    endloop
  endfacet
  facet normal 0.913541 -0.406747 0
    outer loop
      vertex -33.3591 12.1417 3.2
      vertex -31.3446 16.6662 0
      vertex -31.3446 16.6662 3.2
    endloop
  endfacet
  facet normal 0.913541 -0.406747 0
    outer loop
      vertex -31.3446 16.6662 0
      vertex -33.3591 12.1417 3.2
      vertex -33.3591 12.1417 0
    endloop
  endfacet
  facet normal 0.961264 -0.275628 0
    outer loop
      vertex -34.7242 7.38086 3.2
      vertex -33.3591 12.1417 0
      vertex -33.3591 12.1417 3.2
    endloop
  endfacet
  facet normal 0.961264 -0.275628 0
    outer loop
      vertex -33.3591 12.1417 0
      vertex -34.7242 7.38086 3.2
      vertex -34.7242 7.38086 0
    endloop
  endfacet
  facet normal -0.241942 -0.970291 0
    outer loop
      vertex 6.16451 34.9607 0
      vertex 8.60205 34.3529 3.2
      vertex 6.16451 34.9607 3.2
    endloop
  endfacet
  facet normal -0.241942 -0.970291 -0
    outer loop
      vertex 8.60205 34.3529 3.2
      vertex 6.16451 34.9607 0
      vertex 8.60205 34.3529 0
    endloop
  endfacet
  facet normal -0.997564 0.0697598 0
    outer loop
      vertex 35.1545 -4.94064 0
      vertex 35.5 0 3.2
      vertex 35.5 0 0
    endloop
  endfacet
  facet normal -0.997564 0.0697598 0
    outer loop
      vertex 35.5 0 3.2
      vertex 35.1545 -4.94064 0
      vertex 35.1545 -4.94064 3.2
    endloop
  endfacet
  facet normal 0.309024 -0.951054 0
    outer loop
      vertex -13.2985 32.915 0
      vertex -8.58823 34.4455 3.2
      vertex -13.2985 32.915 3.2
    endloop
  endfacet
  facet normal 0.309024 -0.951054 0
    outer loop
      vertex -8.58823 34.4455 3.2
      vertex -13.2985 32.915 0
      vertex -8.58823 34.4455 0
    endloop
  endfacet
  facet normal -0.241928 0.970294 0
    outer loop
      vertex 10.9701 -33.7625 0
      vertex 6.16451 -34.9607 3.2
      vertex 10.9701 -33.7625 3.2
    endloop
  endfacet
  facet normal -0.241928 0.970294 0
    outer loop
      vertex 6.16451 -34.9607 3.2
      vertex 10.9701 -33.7625 0
      vertex 6.16451 -34.9607 0
    endloop
  endfacet
  facet normal 0.438364 -0.898797 0
    outer loop
      vertex -17.75 30.7439 0
      vertex -13.2985 32.915 3.2
      vertex -17.75 30.7439 3.2
    endloop
  endfacet
  facet normal 0.438364 -0.898797 0
    outer loop
      vertex -13.2985 32.915 3.2
      vertex -17.75 30.7439 0
      vertex -13.2985 32.915 0
    endloop
  endfacet
  facet normal 0.848055 0.529908 0
    outer loop
      vertex -28.7201 -20.8664 3.2
      vertex -31.3446 -16.6662 0
      vertex -31.3446 -16.6662 3.2
    endloop
  endfacet
  facet normal 0.848055 0.529908 0
    outer loop
      vertex -31.3446 -16.6662 0
      vertex -28.7201 -20.8664 3.2
      vertex -28.7201 -20.8664 0
    endloop
  endfacet
  facet normal 0.0349102 -0.99939 0
    outer loop
      vertex -3.71076 35.3055 0
      vertex 1.23893 35.4784 3.2
      vertex -3.71076 35.3055 3.2
    endloop
  endfacet
  facet normal 0.0349102 -0.99939 0
    outer loop
      vertex 1.23893 35.4784 3.2
      vertex -3.71076 35.3055 0
      vertex 1.23893 35.4784 0
    endloop
  endfacet
  facet normal 0.309024 0.951054 -0
    outer loop
      vertex -8.58823 -34.4455 0
      vertex -13.2985 -32.915 3.2
      vertex -8.58823 -34.4455 3.2
    endloop
  endfacet
  facet normal 0.309024 0.951054 0
    outer loop
      vertex -13.2985 -32.915 3.2
      vertex -8.58823 -34.4455 0
      vertex -13.2985 -32.915 0
    endloop
  endfacet
  facet normal 0.669128 0.743148 -0
    outer loop
      vertex -21.856 -27.9744 0
      vertex -25.5366 -24.6604 3.2
      vertex -21.856 -27.9744 3.2
    endloop
  endfacet
  facet normal 0.669128 0.743148 0
    outer loop
      vertex -25.5366 -24.6604 3.2
      vertex -21.856 -27.9744 0
      vertex -25.5366 -24.6604 0
    endloop
  endfacet
  facet normal 0.669128 -0.743148 0
    outer loop
      vertex -25.5366 24.6604 0
      vertex -21.856 27.9744 3.2
      vertex -25.5366 24.6604 3.2
    endloop
  endfacet
  facet normal 0.669128 -0.743148 0
    outer loop
      vertex -21.856 27.9744 3.2
      vertex -25.5366 24.6604 0
      vertex -21.856 27.9744 0
    endloop
  endfacet
  facet normal 0.173642 -0.984809 0
    outer loop
      vertex -8.58823 34.4455 0
      vertex -3.71076 35.3055 3.2
      vertex -8.58823 34.4455 3.2
    endloop
  endfacet
  facet normal 0.173642 -0.984809 0
    outer loop
      vertex -3.71076 35.3055 3.2
      vertex -8.58823 34.4455 0
      vertex -3.71076 35.3055 0
    endloop
  endfacet
  facet normal -0.88294 -0.469485 0
    outer loop
      vertex 32.4309 14.4392 0
      vertex 30.1057 18.8121 3.2
      vertex 30.1057 18.8121 0
    endloop
  endfacet
  facet normal -0.88294 -0.469485 0
    outer loop
      vertex 30.1057 18.8121 3.2
      vertex 32.4309 14.4392 0
      vertex 32.4309 14.4392 3.2
    endloop
  endfacet
  facet normal -0.719326 -0.694673 0
    outer loop
      vertex 27.1946 22.819 0
      vertex 23.7541 26.3816 3.2
      vertex 23.7541 26.3816 0
    endloop
  endfacet
  facet normal -0.719326 -0.694673 0
    outer loop
      vertex 23.7541 26.3816 3.2
      vertex 27.1946 22.819 0
      vertex 27.1946 22.819 3.2
    endloop
  endfacet
  facet normal -0.939695 -0.342012 0
    outer loop
      vertex 34.1248 9.78513 0
      vertex 32.4309 14.4392 3.2
      vertex 32.4309 14.4392 0
    endloop
  endfacet
  facet normal -0.939695 -0.342012 0
    outer loop
      vertex 32.4309 14.4392 3.2
      vertex 34.1248 9.78513 0
      vertex 34.1248 9.78513 3.2
    endloop
  endfacet
  facet normal 0.848055 -0.529908 0
    outer loop
      vertex -31.3446 16.6662 3.2
      vertex -28.7201 20.8664 0
      vertex -28.7201 20.8664 3.2
    endloop
  endfacet
  facet normal 0.848055 -0.529908 0
    outer loop
      vertex -28.7201 20.8664 0
      vertex -31.3446 16.6662 3.2
      vertex -31.3446 16.6662 0
    endloop
  endfacet
  facet normal -0.939695 0.342012 0
    outer loop
      vertex 32.4309 -14.4392 0
      vertex 34.1248 -9.78513 3.2
      vertex 34.1248 -9.78513 0
    endloop
  endfacet
  facet normal -0.939695 0.342012 0
    outer loop
      vertex 34.1248 -9.78513 3.2
      vertex 32.4309 -14.4392 0
      vertex 32.4309 -14.4392 3.2
    endloop
  endfacet
  facet normal 0.990268 0.139176 0
    outer loop
      vertex -34.7242 -7.38086 3.2
      vertex -35.4135 -2.47635 0
      vertex -35.4135 -2.47635 3.2
    endloop
  endfacet
  facet normal 0.990268 0.139176 0
    outer loop
      vertex -35.4135 -2.47635 0
      vertex -34.7242 -7.38086 3.2
      vertex -34.7242 -7.38086 0
    endloop
  endfacet
  facet normal 0.766049 0.642782 0
    outer loop
      vertex -25.5366 -24.6604 3.2
      vertex -28.7201 -20.8664 0
      vertex -28.7201 -20.8664 3.2
    endloop
  endfacet
  facet normal 0.766049 0.642782 0
    outer loop
      vertex -28.7201 -20.8664 0
      vertex -25.5366 -24.6604 3.2
      vertex -25.5366 -24.6604 0
    endloop
  endfacet
  facet normal 0.990268 -0.139176 0
    outer loop
      vertex -35.4135 2.47635 3.2
      vertex -34.7242 7.38086 0
      vertex -34.7242 7.38086 3.2
    endloop
  endfacet
  facet normal 0.990268 -0.139176 0
    outer loop
      vertex -34.7242 7.38086 0
      vertex -35.4135 2.47635 3.2
      vertex -35.4135 2.47635 0
    endloop
  endfacet
  facet normal -0.719326 0.694673 0
    outer loop
      vertex 23.7541 -26.3816 0
      vertex 27.1946 -22.819 3.2
      vertex 27.1946 -22.819 0
    endloop
  endfacet
  facet normal -0.719326 0.694673 0
    outer loop
      vertex 27.1946 -22.819 3.2
      vertex 23.7541 -26.3816 0
      vertex 23.7541 -26.3816 3.2
    endloop
  endfacet
  facet normal 1 0 0
    outer loop
      vertex 10 38.6554 -3
      vertex 10 39.5 0
      vertex 10 38.6554 0
    endloop
  endfacet
  facet normal 1 0 0
    outer loop
      vertex 10 39.5 0
      vertex 10 38.6554 -3
      vertex 10 39.5 -4
    endloop
  endfacet
  facet normal 1 0 0
    outer loop
      vertex 10 35.5 -4
      vertex 10 38.6554 -3
      vertex 10 35.5 -3
    endloop
  endfacet
  facet normal 1 0 0
    outer loop
      vertex 10 38.6554 -3
      vertex 10 35.5 -4
      vertex 10 39.5 -4
    endloop
  endfacet
  facet normal 0 0 -1
    outer loop
      vertex -10 35.5 -4
      vertex 10 39.5 -4
      vertex 10 35.5 -4
    endloop
  endfacet
  facet normal -0 0 -1
    outer loop
      vertex 10 39.5 -4
      vertex -10 35.5 -4
      vertex -10 39.5 -4
    endloop
  endfacet
  facet normal -1 0 0
    outer loop
      vertex -10 35.5 -4
      vertex -10 39.5 0
      vertex -10 39.5 -4
    endloop
  endfacet
  facet normal -1 -0 0
    outer loop
      vertex -10 39.5 0
      vertex -10 35.5 -4
      vertex -10 35.5 0
    endloop
  endfacet
  facet normal 0 1 -0
    outer loop
      vertex 10 39.5 -4
      vertex -10 39.5 0
      vertex 10 39.5 0
    endloop
  endfacet
  facet normal 0 1 0
    outer loop
      vertex -10 39.5 0
      vertex 10 39.5 -4
      vertex -10 39.5 -4
    endloop
  endfacet
  facet normal 0 -1 0
    outer loop
      vertex -10 35.5 0
      vertex 8.97476 35.5 -3
      vertex 8.97476 35.5 0
    endloop
  endfacet
  facet normal 0 -1 0
    outer loop
      vertex -10 35.5 -4
      vertex 8.97476 35.5 -3
      vertex -10 35.5 0
    endloop
  endfacet
  facet normal 0 -1 0
    outer loop
      vertex 10 35.5 -4
      vertex 8.97476 35.5 -3
      vertex -10 35.5 -4
    endloop
  endfacet
  facet normal 0 -1 0
    outer loop
      vertex 8.97476 35.5 -3
      vertex 10 35.5 -4
      vertex 10 35.5 -3
    endloop
  endfacet
  facet normal 1 -0 0
    outer loop
      vertex 3 43 3.2
      vertex 3 47 0
      vertex 3 47 3.2
    endloop
  endfacet
  facet normal 1 0 0
    outer loop
      vertex 3 47 0
      vertex 3 43 3.2
      vertex 3 43 0
    endloop
  endfacet
  facet normal -0 0 1
    outer loop
      vertex -3 47 3.2
      vertex 3 43 3.2
      vertex 3 47 3.2
    endloop
  endfacet
  facet normal 0 0 1
    outer loop
      vertex 3 43 3.2
      vertex -3 47 3.2
      vertex -3 43 3.2
    endloop
  endfacet
  facet normal 0 0 -1
    outer loop
      vertex -3 43 0
      vertex 3 47 0
      vertex 3 43 0
    endloop
  endfacet
  facet normal -0 0 -1
    outer loop
      vertex 3 47 0
      vertex -3 43 0
      vertex -3 47 0
    endloop
  endfacet
  facet normal -1 0 0
    outer loop
      vertex -3 43 0
      vertex -3 47 3.2
      vertex -3 47 0
    endloop
  endfacet
  facet normal -1 -0 0
    outer loop
      vertex -3 47 3.2
      vertex -3 43 0
      vertex -3 43 3.2
    endloop
  endfacet
  facet normal 0 1 -0
    outer loop
      vertex 3 47 0
      vertex -3 47 3.2
      vertex 3 47 3.2
    endloop
  endfacet
  facet normal 0 1 0
    outer loop
      vertex -3 47 3.2
      vertex 3 47 0
      vertex -3 47 0
    endloop
  endfacet
  facet normal 0 -1 0
    outer loop
      vertex -3 43 0
      vertex 3 43 3.2
      vertex -3 43 3.2
    endloop
  endfacet
  facet normal 0 -1 -0
    outer loop
      vertex 3 43 3.2
      vertex -3 43 0
      vertex 3 43 0
    endloop
  endfacet
  facet normal 0.951053 -0.309029 0
    outer loop
      vertex 19.3167 41.4405 6.2
      vertex 18.4605 38.8055 3.2
      vertex 19.3167 41.4405 -3
    endloop
  endfacet
  facet normal 0.951056 -0.309019 -1.00312e-05
    outer loop
      vertex 15.6085 30.0279 6.2
      vertex 18.4605 38.8055 3.2
      vertex 19.3167 41.4405 6.2
    endloop
  endfacet
  facet normal 0.951064 -0.308994 0
    outer loop
      vertex 16.1153 31.5878 3.2
      vertex 15.6085 30.0279 6.2
      vertex 16.1153 31.5878 0
    endloop
  endfacet
  facet normal 0.951055 -0.30902 -1.52463e-05
    outer loop
      vertex 18.4605 38.8055 3.2
      vertex 15.6085 30.0279 6.2
      vertex 16.1153 31.5878 3.2
    endloop
  endfacet
  facet normal 0.951053 -0.309029 0
    outer loop
      vertex 18.4605 38.8055 0
      vertex 19.3167 41.4405 -3
      vertex 18.4605 38.8055 3.2
    endloop
  endfacet
  facet normal 0.951055 -0.30902 1.52463e-05
    outer loop
      vertex 15.6085 30.0279 -3
      vertex 18.4605 38.8055 0
      vertex 16.1153 31.5878 0
    endloop
  endfacet
  facet normal 0.951056 -0.309019 1.00312e-05
    outer loop
      vertex 18.4605 38.8055 0
      vertex 15.6085 30.0279 -3
      vertex 19.3167 41.4405 -3
    endloop
  endfacet
  facet normal 0.951064 -0.308994 0
    outer loop
      vertex 15.6085 30.0279 -3
      vertex 16.1153 31.5878 0
      vertex 15.6085 30.0279 6.2
    endloop
  endfacet
  facet normal 0 0 1
    outer loop
      vertex 11.7082 43.9127 6.2
      vertex 15.6085 30.0279 6.2
      vertex 19.3167 41.4405 6.2
    endloop
  endfacet
  facet normal 0 0 1
    outer loop
      vertex 15.6085 30.0279 6.2
      vertex 11.7082 43.9127 6.2
      vertex 8 32.5 6.2
    endloop
  endfacet
  facet normal 0 0 -1
    outer loop
      vertex 10 35.5 -3
      vertex 19.3167 41.4405 -3
      vertex 15.6085 30.0279 -3
    endloop
  endfacet
  facet normal 0 0 -1
    outer loop
      vertex 19.3167 41.4405 -3
      vertex 10 35.5 -3
      vertex 10 38.6554 -3
    endloop
  endfacet
  facet normal 0 0 -1
    outer loop
      vertex 8 32.5 -3
      vertex 10 35.5 -3
      vertex 15.6085 30.0279 -3
    endloop
  endfacet
  facet normal -0 0 -1
    outer loop
      vertex 10 35.5 -3
      vertex 8 32.5 -3
      vertex 8.97476 35.5 -3
    endloop
  endfacet
  facet normal -0 0 -1
    outer loop
      vertex 19.3167 41.4405 -3
      vertex 10 38.6554 -3
      vertex 11.7082 43.9127 -3
    endloop
  endfacet
  facet normal -0.951058 0.309013 0
    outer loop
      vertex 8.97476 35.5 -3
      vertex 8.60205 34.3529 0
      vertex 8.97476 35.5 0
    endloop
  endfacet
  facet normal -0.951056 0.30902 0
    outer loop
      vertex 8.60205 34.3529 0
      vertex 8 32.5 -3
      vertex 8.60205 34.3529 3.2
    endloop
  endfacet
  facet normal -0.951056 0.309017 1.81715e-06
    outer loop
      vertex 8 32.5 -3
      vertex 8.60205 34.3529 0
      vertex 8.97476 35.5 -3
    endloop
  endfacet
  facet normal -0.951058 0.309012 0
    outer loop
      vertex 11.7082 43.9127 -3
      vertex 10.9197 41.4859 0
      vertex 11.7082 43.9127 6.2
    endloop
  endfacet
  facet normal -0.951057 0.309017 4.74627e-06
    outer loop
      vertex 10 38.6554 -3
      vertex 10.9197 41.4859 0
      vertex 11.7082 43.9127 -3
    endloop
  endfacet
  facet normal -0.951055 0.309021 0
    outer loop
      vertex 10.9197 41.4859 0
      vertex 10 38.6554 -3
      vertex 10 38.6554 0
    endloop
  endfacet
  facet normal -0.951058 0.309012 0
    outer loop
      vertex 10.9197 41.4859 3.2
      vertex 11.7082 43.9127 6.2
      vertex 10.9197 41.4859 0
    endloop
  endfacet
  facet normal -0.951057 0.309017 -2.1762e-06
    outer loop
      vertex 8 32.5 6.2
      vertex 10.9197 41.4859 3.2
      vertex 8.60205 34.3529 3.2
    endloop
  endfacet
  facet normal -0.951057 0.309016 -4.05027e-06
    outer loop
      vertex 10.9197 41.4859 3.2
      vertex 8 32.5 6.2
      vertex 11.7082 43.9127 6.2
    endloop
  endfacet
  facet normal -0.951056 0.30902 0
    outer loop
      vertex 8 32.5 6.2
      vertex 8.60205 34.3529 3.2
      vertex 8 32.5 -3
    endloop
  endfacet
  facet normal 0.309022 0.951055 -0
    outer loop
      vertex 19.3167 41.4405 -3
      vertex 11.7082 43.9127 6.2
      vertex 19.3167 41.4405 6.2
    endloop
  endfacet
  facet normal 0.309022 0.951055 0
    outer loop
      vertex 11.7082 43.9127 6.2
      vertex 19.3167 41.4405 -3
      vertex 11.7082 43.9127 -3
    endloop
  endfacet
  facet normal -0.309011 -0.951058 0
    outer loop
      vertex 8 32.5 -3
      vertex 15.6085 30.0279 6.2
      vertex 8 32.5 6.2
    endloop
  endfacet
  facet normal -0.309011 -0.951058 -0
    outer loop
      vertex 15.6085 30.0279 6.2
      vertex 8 32.5 -3
      vertex 15.6085 30.0279 -3
    endloop
  endfacet
endsolid OpenSCAD_Model
