solid OpenSCAD_Model
  facet normal -0.965925 -0.258821 0
    outer loop
      vertex 2.29571 65.05 21.8
      vertex 1.8 66.9 24.4
      vertex 1.8 66.9 21.8
    endloop
  endfacet
  facet normal -0.965925 -0.258821 0
    outer loop
      vertex 1.8 66.9 24.4
      vertex 2.29571 65.05 21.8
      vertex 2.29571 65.05 24.4
    endloop
  endfacet
  facet normal 0.707109 0.707104 0
    outer loop
      vertex 8.70429 68.75 24.4
      vertex 7.35 70.1043 21.8
      vertex 7.35 70.1043 24.4
    endloop
  endfacet
  facet normal 0.707109 0.707104 0
    outer loop
      vertex 7.35 70.1043 21.8
      vertex 8.70429 68.75 24.4
      vertex 8.70429 68.75 21.8
    endloop
  endfacet
  facet normal 0.965925 0.258821 0
    outer loop
      vertex 9.2 66.9 24.4
      vertex 8.70429 68.75 21.8
      vertex 8.70429 68.75 24.4
    endloop
  endfacet
  facet normal 0.965925 0.258821 0
    outer loop
      vertex 8.70429 68.75 21.8
      vertex 9.2 66.9 24.4
      vertex 9.2 66.9 21.8
    endloop
  endfacet
  facet normal 0.258816 0.965927 -0
    outer loop
      vertex 7.35 70.1043 21.8
      vertex 5.5 70.6 24.4
      vertex 7.35 70.1043 24.4
    endloop
  endfacet
  facet normal 0.258816 0.965927 0
    outer loop
      vertex 5.5 70.6 24.4
      vertex 7.35 70.1043 21.8
      vertex 5.5 70.6 21.8
    endloop
  endfacet
  facet normal 0.258816 -0.965927 0
    outer loop
      vertex 5.5 63.2 21.8
      vertex 7.35 63.6957 24.4
      vertex 5.5 63.2 24.4
    endloop
  endfacet
  facet normal 0.258816 -0.965927 0
    outer loop
      vertex 7.35 63.6957 24.4
      vertex 5.5 63.2 21.8
      vertex 7.35 63.6957 21.8
    endloop
  endfacet
  facet normal 0.965925 -0.258821 0
    outer loop
      vertex 8.70429 65.05 24.4
      vertex 9.2 66.9 21.8
      vertex 9.2 66.9 24.4
    endloop
  endfacet
  facet normal 0.965925 -0.258821 0
    outer loop
      vertex 9.2 66.9 21.8
      vertex 8.70429 65.05 24.4
      vertex 8.70429 65.05 21.8
    endloop
  endfacet
  facet normal -0.707109 0.707104 0
    outer loop
      vertex 2.29571 68.75 21.8
      vertex 3.65 70.1043 24.4
      vertex 3.65 70.1043 21.8
    endloop
  endfacet
  facet normal -0.707109 0.707104 0
    outer loop
      vertex 3.65 70.1043 24.4
      vertex 2.29571 68.75 21.8
      vertex 2.29571 68.75 24.4
    endloop
  endfacet
  facet normal -0.258816 0.965927 0
    outer loop
      vertex 5.5 70.6 21.8
      vertex 3.65 70.1043 24.4
      vertex 5.5 70.6 24.4
    endloop
  endfacet
  facet normal -0.258816 0.965927 0
    outer loop
      vertex 3.65 70.1043 24.4
      vertex 5.5 70.6 21.8
      vertex 3.65 70.1043 21.8
    endloop
  endfacet
  facet normal -0.965925 0.258821 0
    outer loop
      vertex 1.8 66.9 21.8
      vertex 2.29571 68.75 24.4
      vertex 2.29571 68.75 21.8
    endloop
  endfacet
  facet normal -0.965925 0.258821 0
    outer loop
      vertex 2.29571 68.75 24.4
      vertex 1.8 66.9 21.8
      vertex 1.8 66.9 24.4
    endloop
  endfacet
  facet normal 0.707109 -0.707104 0
    outer loop
      vertex 7.35 63.6957 24.4
      vertex 8.70429 65.05 21.8
      vertex 8.70429 65.05 24.4
    endloop
  endfacet
  facet normal 0.707109 -0.707104 0
    outer loop
      vertex 8.70429 65.05 21.8
      vertex 7.35 63.6957 24.4
      vertex 7.35 63.6957 21.8
    endloop
  endfacet
  facet normal 0 0 1
    outer loop
      vertex 6.8 66.9 24.4
      vertex 9.2 66.9 24.4
      vertex 8.70429 68.75 24.4
    endloop
  endfacet
  facet normal 0 0 1
    outer loop
      vertex 5.90172 68.1364 24.4
      vertex 8.70429 68.75 24.4
      vertex 7.35 70.1043 24.4
    endloop
  endfacet
  facet normal 0 0 1
    outer loop
      vertex 9.2 66.9 24.4
      vertex 6.8 66.9 24.4
      vertex 8.70429 65.05 24.4
    endloop
  endfacet
  facet normal -0 0 1
    outer loop
      vertex 5.90172 65.6636 24.4
      vertex 8.70429 65.05 24.4
      vertex 6.8 66.9 24.4
    endloop
  endfacet
  facet normal 0 0 1
    outer loop
      vertex 8.70429 68.75 24.4
      vertex 5.90172 68.1364 24.4
      vertex 6.8 66.9 24.4
    endloop
  endfacet
  facet normal 0 0 1
    outer loop
      vertex 5.5 70.6 24.4
      vertex 5.90172 68.1364 24.4
      vertex 7.35 70.1043 24.4
    endloop
  endfacet
  facet normal -0 0 1
    outer loop
      vertex 3.65 70.1043 24.4
      vertex 5.90172 68.1364 24.4
      vertex 5.5 70.6 24.4
    endloop
  endfacet
  facet normal -0 0 1
    outer loop
      vertex 2.29571 68.75 24.4
      vertex 4.44828 67.6641 24.4
      vertex 3.65 70.1043 24.4
    endloop
  endfacet
  facet normal 0 0 1
    outer loop
      vertex 5.90172 68.1364 24.4
      vertex 3.65 70.1043 24.4
      vertex 4.44828 67.6641 24.4
    endloop
  endfacet
  facet normal 0 0 1
    outer loop
      vertex 8.70429 65.05 24.4
      vertex 5.90172 65.6636 24.4
      vertex 7.35 63.6957 24.4
    endloop
  endfacet
  facet normal 0 0 1
    outer loop
      vertex 5.90172 65.6636 24.4
      vertex 5.5 63.2 24.4
      vertex 7.35 63.6957 24.4
    endloop
  endfacet
  facet normal 0 0 1
    outer loop
      vertex 3.65 63.6957 24.4
      vertex 5.90172 65.6636 24.4
      vertex 4.44828 66.1359 24.4
    endloop
  endfacet
  facet normal 0 0 1
    outer loop
      vertex 5.90172 65.6636 24.4
      vertex 3.65 63.6957 24.4
      vertex 5.5 63.2 24.4
    endloop
  endfacet
  facet normal 0 0 1
    outer loop
      vertex 1.8 66.9 24.4
      vertex 4.44828 67.6641 24.4
      vertex 2.29571 68.75 24.4
    endloop
  endfacet
  facet normal 0 0 1
    outer loop
      vertex 4.44828 67.6641 24.4
      vertex 1.8 66.9 24.4
      vertex 4.44828 66.1359 24.4
    endloop
  endfacet
  facet normal 0 0 1
    outer loop
      vertex 4.44828 66.1359 24.4
      vertex 2.29571 65.05 24.4
      vertex 3.65 63.6957 24.4
    endloop
  endfacet
  facet normal 0 0 1
    outer loop
      vertex 4.44828 66.1359 24.4
      vertex 1.8 66.9 24.4
      vertex 2.29571 65.05 24.4
    endloop
  endfacet
  facet normal -0.707109 -0.707104 0
    outer loop
      vertex 3.65 63.6957 21.8
      vertex 2.29571 65.05 24.4
      vertex 2.29571 65.05 21.8
    endloop
  endfacet
  facet normal -0.707109 -0.707104 0
    outer loop
      vertex 2.29571 65.05 24.4
      vertex 3.65 63.6957 21.8
      vertex 3.65 63.6957 24.4
    endloop
  endfacet
  facet normal 0 0 -1
    outer loop
      vertex 6.8 66.9 21.8
      vertex 9.2 66.9 21.8
      vertex 8.70429 65.05 21.8
    endloop
  endfacet
  facet normal 0 0 -1
    outer loop
      vertex 5.90172 65.6636 21.8
      vertex 8.70429 65.05 21.8
      vertex 7.35 63.6957 21.8
    endloop
  endfacet
  facet normal 0 0 -1
    outer loop
      vertex 9.2 66.9 21.8
      vertex 6.8 66.9 21.8
      vertex 8.70429 68.75 21.8
    endloop
  endfacet
  facet normal 0 0 -1
    outer loop
      vertex 5.90172 68.1364 21.8
      vertex 8.70429 68.75 21.8
      vertex 6.8 66.9 21.8
    endloop
  endfacet
  facet normal 0 0 -1
    outer loop
      vertex 8.70429 65.05 21.8
      vertex 5.90172 65.6636 21.8
      vertex 6.8 66.9 21.8
    endloop
  endfacet
  facet normal 0 0 -1
    outer loop
      vertex 5.5 63.2 21.8
      vertex 5.90172 65.6636 21.8
      vertex 7.35 63.6957 21.8
    endloop
  endfacet
  facet normal 0 0 -1
    outer loop
      vertex 3.65 63.6957 21.8
      vertex 5.90172 65.6636 21.8
      vertex 5.5 63.2 21.8
    endloop
  endfacet
  facet normal 0 0 -1
    outer loop
      vertex 2.29571 65.05 21.8
      vertex 4.44828 66.1359 21.8
      vertex 3.65 63.6957 21.8
    endloop
  endfacet
  facet normal -0 0 -1
    outer loop
      vertex 5.90172 65.6636 21.8
      vertex 3.65 63.6957 21.8
      vertex 4.44828 66.1359 21.8
    endloop
  endfacet
  facet normal -0 0 -1
    outer loop
      vertex 8.70429 68.75 21.8
      vertex 5.90172 68.1364 21.8
      vertex 7.35 70.1043 21.8
    endloop
  endfacet
  facet normal 0 0 -1
    outer loop
      vertex 5.90172 68.1364 21.8
      vertex 5.5 70.6 21.8
      vertex 7.35 70.1043 21.8
    endloop
  endfacet
  facet normal 0 0 -1
    outer loop
      vertex 3.65 70.1043 21.8
      vertex 5.90172 68.1364 21.8
      vertex 4.44828 67.6641 21.8
    endloop
  endfacet
  facet normal 0 0 -1
    outer loop
      vertex 5.90172 68.1364 21.8
      vertex 3.65 70.1043 21.8
      vertex 5.5 70.6 21.8
    endloop
  endfacet
  facet normal 0 0 -1
    outer loop
      vertex 1.8 66.9 21.8
      vertex 4.44828 66.1359 21.8
      vertex 2.29571 65.05 21.8
    endloop
  endfacet
  facet normal 0 0 -1
    outer loop
      vertex 4.44828 66.1359 21.8
      vertex 1.8 66.9 21.8
      vertex 4.44828 67.6641 21.8
    endloop
  endfacet
  facet normal 0 0 -1
    outer loop
      vertex 4.44828 67.6641 21.8
      vertex 2.29571 68.75 21.8
      vertex 3.65 70.1043 21.8
    endloop
  endfacet
  facet normal -0 0 -1
    outer loop
      vertex 4.44828 67.6641 21.8
      vertex 1.8 66.9 21.8
      vertex 2.29571 68.75 21.8
    endloop
  endfacet
  facet normal -0.258816 -0.965927 0
    outer loop
      vertex 3.65 63.6957 21.8
      vertex 5.5 63.2 24.4
      vertex 3.65 63.6957 24.4
    endloop
  endfacet
  facet normal -0.258816 -0.965927 -0
    outer loop
      vertex 5.5 63.2 24.4
      vertex 3.65 63.6957 21.8
      vertex 5.5 63.2 21.8
    endloop
  endfacet
  facet normal 0.309046 0.951047 -0
    outer loop
      vertex 5.90172 65.6636 21.8
      vertex 4.44828 66.1359 24.4
      vertex 5.90172 65.6636 24.4
    endloop
  endfacet
  facet normal 0.309046 0.951047 0
    outer loop
      vertex 4.44828 66.1359 24.4
      vertex 5.90172 65.6636 21.8
      vertex 4.44828 66.1359 21.8
    endloop
  endfacet
  facet normal 0.309046 -0.951047 0
    outer loop
      vertex 4.44828 67.6641 21.8
      vertex 5.90172 68.1364 24.4
      vertex 4.44828 67.6641 24.4
    endloop
  endfacet
  facet normal 0.309046 -0.951047 0
    outer loop
      vertex 5.90172 68.1364 24.4
      vertex 4.44828 67.6641 21.8
      vertex 5.90172 68.1364 21.8
    endloop
  endfacet
  facet normal -0.809022 -0.587778 0
    outer loop
      vertex 6.8 66.9 21.8
      vertex 5.90172 68.1364 24.4
      vertex 5.90172 68.1364 21.8
    endloop
  endfacet
  facet normal -0.809022 -0.587778 0
    outer loop
      vertex 5.90172 68.1364 24.4
      vertex 6.8 66.9 21.8
      vertex 6.8 66.9 24.4
    endloop
  endfacet
  facet normal 1 -0 0
    outer loop
      vertex 4.44828 66.1359 24.4
      vertex 4.44828 67.6641 21.8
      vertex 4.44828 67.6641 24.4
    endloop
  endfacet
  facet normal 1 0 0
    outer loop
      vertex 4.44828 67.6641 21.8
      vertex 4.44828 66.1359 24.4
      vertex 4.44828 66.1359 21.8
    endloop
  endfacet
  facet normal -0.809022 0.587778 0
    outer loop
      vertex 5.90172 65.6636 21.8
      vertex 6.8 66.9 24.4
      vertex 6.8 66.9 21.8
    endloop
  endfacet
  facet normal -0.809022 0.587778 0
    outer loop
      vertex 6.8 66.9 24.4
      vertex 5.90172 65.6636 21.8
      vertex 5.90172 65.6636 24.4
    endloop
  endfacet
  facet normal -0.965925 -0.258821 0
    outer loop
      vertex 2.29571 82.95 21.8
      vertex 1.8 84.8 24.4
      vertex 1.8 84.8 21.8
    endloop
  endfacet
  facet normal -0.965925 -0.258821 0
    outer loop
      vertex 1.8 84.8 24.4
      vertex 2.29571 82.95 21.8
      vertex 2.29571 82.95 24.4
    endloop
  endfacet
  facet normal 0.707109 0.707104 0
    outer loop
      vertex 8.70429 86.65 24.4
      vertex 7.35 88.0043 21.8
      vertex 7.35 88.0043 24.4
    endloop
  endfacet
  facet normal 0.707109 0.707104 0
    outer loop
      vertex 7.35 88.0043 21.8
      vertex 8.70429 86.65 24.4
      vertex 8.70429 86.65 21.8
    endloop
  endfacet
  facet normal 0.965925 0.258821 0
    outer loop
      vertex 9.2 84.8 24.4
      vertex 8.70429 86.65 21.8
      vertex 8.70429 86.65 24.4
    endloop
  endfacet
  facet normal 0.965925 0.258821 0
    outer loop
      vertex 8.70429 86.65 21.8
      vertex 9.2 84.8 24.4
      vertex 9.2 84.8 21.8
    endloop
  endfacet
  facet normal 0.258816 0.965927 -0
    outer loop
      vertex 7.35 88.0043 21.8
      vertex 5.5 88.5 24.4
      vertex 7.35 88.0043 24.4
    endloop
  endfacet
  facet normal 0.258816 0.965927 0
    outer loop
      vertex 5.5 88.5 24.4
      vertex 7.35 88.0043 21.8
      vertex 5.5 88.5 21.8
    endloop
  endfacet
  facet normal 0.258816 -0.965927 0
    outer loop
      vertex 5.5 81.1 21.8
      vertex 7.35 81.5957 24.4
      vertex 5.5 81.1 24.4
    endloop
  endfacet
  facet normal 0.258816 -0.965927 0
    outer loop
      vertex 7.35 81.5957 24.4
      vertex 5.5 81.1 21.8
      vertex 7.35 81.5957 21.8
    endloop
  endfacet
  facet normal 0.965925 -0.258821 0
    outer loop
      vertex 8.70429 82.95 24.4
      vertex 9.2 84.8 21.8
      vertex 9.2 84.8 24.4
    endloop
  endfacet
  facet normal 0.965925 -0.258821 0
    outer loop
      vertex 9.2 84.8 21.8
      vertex 8.70429 82.95 24.4
      vertex 8.70429 82.95 21.8
    endloop
  endfacet
  facet normal -0.707109 0.707104 0
    outer loop
      vertex 2.29571 86.65 21.8
      vertex 3.65 88.0043 24.4
      vertex 3.65 88.0043 21.8
    endloop
  endfacet
  facet normal -0.707109 0.707104 0
    outer loop
      vertex 3.65 88.0043 24.4
      vertex 2.29571 86.65 21.8
      vertex 2.29571 86.65 24.4
    endloop
  endfacet
  facet normal -0.258816 0.965927 0
    outer loop
      vertex 5.5 88.5 21.8
      vertex 3.65 88.0043 24.4
      vertex 5.5 88.5 24.4
    endloop
  endfacet
  facet normal -0.258816 0.965927 0
    outer loop
      vertex 3.65 88.0043 24.4
      vertex 5.5 88.5 21.8
      vertex 3.65 88.0043 21.8
    endloop
  endfacet
  facet normal -0.965925 0.258821 0
    outer loop
      vertex 1.8 84.8 21.8
      vertex 2.29571 86.65 24.4
      vertex 2.29571 86.65 21.8
    endloop
  endfacet
  facet normal -0.965925 0.258821 0
    outer loop
      vertex 2.29571 86.65 24.4
      vertex 1.8 84.8 21.8
      vertex 1.8 84.8 24.4
    endloop
  endfacet
  facet normal 0.707109 -0.707104 0
    outer loop
      vertex 7.35 81.5957 24.4
      vertex 8.70429 82.95 21.8
      vertex 8.70429 82.95 24.4
    endloop
  endfacet
  facet normal 0.707109 -0.707104 0
    outer loop
      vertex 8.70429 82.95 21.8
      vertex 7.35 81.5957 24.4
      vertex 7.35 81.5957 21.8
    endloop
  endfacet
  facet normal 0 0 1
    outer loop
      vertex 6.8 84.8 24.4
      vertex 9.2 84.8 24.4
      vertex 8.70429 86.65 24.4
    endloop
  endfacet
  facet normal 0 0 1
    outer loop
      vertex 5.90172 86.0364 24.4
      vertex 8.70429 86.65 24.4
      vertex 7.35 88.0043 24.4
    endloop
  endfacet
  facet normal 0 0 1
    outer loop
      vertex 9.2 84.8 24.4
      vertex 6.8 84.8 24.4
      vertex 8.70429 82.95 24.4
    endloop
  endfacet
  facet normal -0 0 1
    outer loop
      vertex 5.90172 83.5636 24.4
      vertex 8.70429 82.95 24.4
      vertex 6.8 84.8 24.4
    endloop
  endfacet
  facet normal 0 0 1
    outer loop
      vertex 8.70429 86.65 24.4
      vertex 5.90172 86.0364 24.4
      vertex 6.8 84.8 24.4
    endloop
  endfacet
  facet normal 0 0 1
    outer loop
      vertex 5.5 88.5 24.4
      vertex 5.90172 86.0364 24.4
      vertex 7.35 88.0043 24.4
    endloop
  endfacet
  facet normal -0 0 1
    outer loop
      vertex 3.65 88.0043 24.4
      vertex 5.90172 86.0364 24.4
      vertex 5.5 88.5 24.4
    endloop
  endfacet
  facet normal -0 0 1
    outer loop
      vertex 2.29571 86.65 24.4
      vertex 4.44828 85.5641 24.4
      vertex 3.65 88.0043 24.4
    endloop
  endfacet
  facet normal 0 0 1
    outer loop
      vertex 5.90172 86.0364 24.4
      vertex 3.65 88.0043 24.4
      vertex 4.44828 85.5641 24.4
    endloop
  endfacet
  facet normal 0 0 1
    outer loop
      vertex 8.70429 82.95 24.4
      vertex 5.90172 83.5636 24.4
      vertex 7.35 81.5957 24.4
    endloop
  endfacet
  facet normal 0 0 1
    outer loop
      vertex 5.90172 83.5636 24.4
      vertex 5.5 81.1 24.4
      vertex 7.35 81.5957 24.4
    endloop
  endfacet
  facet normal 0 0 1
    outer loop
      vertex 3.65 81.5957 24.4
      vertex 5.90172 83.5636 24.4
      vertex 4.44828 84.0359 24.4
    endloop
  endfacet
  facet normal 0 0 1
    outer loop
      vertex 5.90172 83.5636 24.4
      vertex 3.65 81.5957 24.4
      vertex 5.5 81.1 24.4
    endloop
  endfacet
  facet normal 0 0 1
    outer loop
      vertex 1.8 84.8 24.4
      vertex 4.44828 85.5641 24.4
      vertex 2.29571 86.65 24.4
    endloop
  endfacet
  facet normal 0 0 1
    outer loop
      vertex 4.44828 85.5641 24.4
      vertex 1.8 84.8 24.4
      vertex 4.44828 84.0359 24.4
    endloop
  endfacet
  facet normal 0 0 1
    outer loop
      vertex 4.44828 84.0359 24.4
      vertex 2.29571 82.95 24.4
      vertex 3.65 81.5957 24.4
    endloop
  endfacet
  facet normal 0 0 1
    outer loop
      vertex 4.44828 84.0359 24.4
      vertex 1.8 84.8 24.4
      vertex 2.29571 82.95 24.4
    endloop
  endfacet
  facet normal -0.707109 -0.707104 0
    outer loop
      vertex 3.65 81.5957 21.8
      vertex 2.29571 82.95 24.4
      vertex 2.29571 82.95 21.8
    endloop
  endfacet
  facet normal -0.707109 -0.707104 0
    outer loop
      vertex 2.29571 82.95 24.4
      vertex 3.65 81.5957 21.8
      vertex 3.65 81.5957 24.4
    endloop
  endfacet
  facet normal 0 0 -1
    outer loop
      vertex 6.8 84.8 21.8
      vertex 9.2 84.8 21.8
      vertex 8.70429 82.95 21.8
    endloop
  endfacet
  facet normal 0 0 -1
    outer loop
      vertex 5.90172 83.5636 21.8
      vertex 8.70429 82.95 21.8
      vertex 7.35 81.5957 21.8
    endloop
  endfacet
  facet normal 0 0 -1
    outer loop
      vertex 9.2 84.8 21.8
      vertex 6.8 84.8 21.8
      vertex 8.70429 86.65 21.8
    endloop
  endfacet
  facet normal 0 0 -1
    outer loop
      vertex 5.90172 86.0364 21.8
      vertex 8.70429 86.65 21.8
      vertex 6.8 84.8 21.8
    endloop
  endfacet
  facet normal 0 0 -1
    outer loop
      vertex 8.70429 82.95 21.8
      vertex 5.90172 83.5636 21.8
      vertex 6.8 84.8 21.8
    endloop
  endfacet
  facet normal 0 0 -1
    outer loop
      vertex 5.5 81.1 21.8
      vertex 5.90172 83.5636 21.8
      vertex 7.35 81.5957 21.8
    endloop
  endfacet
  facet normal 0 0 -1
    outer loop
      vertex 3.65 81.5957 21.8
      vertex 5.90172 83.5636 21.8
      vertex 5.5 81.1 21.8
    endloop
  endfacet
  facet normal 0 0 -1
    outer loop
      vertex 2.29571 82.95 21.8
      vertex 4.44828 84.0359 21.8
      vertex 3.65 81.5957 21.8
    endloop
  endfacet
  facet normal -0 0 -1
    outer loop
      vertex 5.90172 83.5636 21.8
      vertex 3.65 81.5957 21.8
      vertex 4.44828 84.0359 21.8
    endloop
  endfacet
  facet normal -0 0 -1
    outer loop
      vertex 8.70429 86.65 21.8
      vertex 5.90172 86.0364 21.8
      vertex 7.35 88.0043 21.8
    endloop
  endfacet
  facet normal 0 0 -1
    outer loop
      vertex 5.90172 86.0364 21.8
      vertex 5.5 88.5 21.8
      vertex 7.35 88.0043 21.8
    endloop
  endfacet
  facet normal 0 0 -1
    outer loop
      vertex 3.65 88.0043 21.8
      vertex 5.90172 86.0364 21.8
      vertex 4.44828 85.5641 21.8
    endloop
  endfacet
  facet normal 0 0 -1
    outer loop
      vertex 5.90172 86.0364 21.8
      vertex 3.65 88.0043 21.8
      vertex 5.5 88.5 21.8
    endloop
  endfacet
  facet normal 0 0 -1
    outer loop
      vertex 1.8 84.8 21.8
      vertex 4.44828 84.0359 21.8
      vertex 2.29571 82.95 21.8
    endloop
  endfacet
  facet normal 0 0 -1
    outer loop
      vertex 4.44828 84.0359 21.8
      vertex 1.8 84.8 21.8
      vertex 4.44828 85.5641 21.8
    endloop
  endfacet
  facet normal 0 0 -1
    outer loop
      vertex 4.44828 85.5641 21.8
      vertex 2.29571 86.65 21.8
      vertex 3.65 88.0043 21.8
    endloop
  endfacet
  facet normal -0 0 -1
    outer loop
      vertex 4.44828 85.5641 21.8
      vertex 1.8 84.8 21.8
      vertex 2.29571 86.65 21.8
    endloop
  endfacet
  facet normal -0.258816 -0.965927 0
    outer loop
      vertex 3.65 81.5957 21.8
      vertex 5.5 81.1 24.4
      vertex 3.65 81.5957 24.4
    endloop
  endfacet
  facet normal -0.258816 -0.965927 -0
    outer loop
      vertex 5.5 81.1 24.4
      vertex 3.65 81.5957 21.8
      vertex 5.5 81.1 21.8
    endloop
  endfacet
  facet normal 0.309046 0.951047 -0
    outer loop
      vertex 5.90172 83.5636 21.8
      vertex 4.44828 84.0359 24.4
      vertex 5.90172 83.5636 24.4
    endloop
  endfacet
  facet normal 0.309046 0.951047 0
    outer loop
      vertex 4.44828 84.0359 24.4
      vertex 5.90172 83.5636 21.8
      vertex 4.44828 84.0359 21.8
    endloop
  endfacet
  facet normal 0.309046 -0.951047 0
    outer loop
      vertex 4.44828 85.5641 21.8
      vertex 5.90172 86.0364 24.4
      vertex 4.44828 85.5641 24.4
    endloop
  endfacet
  facet normal 0.309046 -0.951047 0
    outer loop
      vertex 5.90172 86.0364 24.4
      vertex 4.44828 85.5641 21.8
      vertex 5.90172 86.0364 21.8
    endloop
  endfacet
  facet normal -0.809022 -0.587778 0
    outer loop
      vertex 6.8 84.8 21.8
      vertex 5.90172 86.0364 24.4
      vertex 5.90172 86.0364 21.8
    endloop
  endfacet
  facet normal -0.809022 -0.587778 0
    outer loop
      vertex 5.90172 86.0364 24.4
      vertex 6.8 84.8 21.8
      vertex 6.8 84.8 24.4
    endloop
  endfacet
  facet normal 1 -0 0
    outer loop
      vertex 4.44828 84.0359 24.4
      vertex 4.44828 85.5641 21.8
      vertex 4.44828 85.5641 24.4
    endloop
  endfacet
  facet normal 1 0 0
    outer loop
      vertex 4.44828 85.5641 21.8
      vertex 4.44828 84.0359 24.4
      vertex 4.44828 84.0359 21.8
    endloop
  endfacet
  facet normal -0.809022 0.587778 0
    outer loop
      vertex 5.90172 83.5636 21.8
      vertex 6.8 84.8 24.4
      vertex 6.8 84.8 21.8
    endloop
  endfacet
  facet normal -0.809022 0.587778 0
    outer loop
      vertex 6.8 84.8 24.4
      vertex 5.90172 83.5636 21.8
      vertex 5.90172 83.5636 24.4
    endloop
  endfacet
  facet normal -0.965927 -0.258816 0
    outer loop
      vertex 34.9957 65.05 21.8
      vertex 34.5 66.9 24.4
      vertex 34.5 66.9 21.8
    endloop
  endfacet
  facet normal -0.965927 -0.258816 0
    outer loop
      vertex 34.5 66.9 24.4
      vertex 34.9957 65.05 21.8
      vertex 34.9957 65.05 24.4
    endloop
  endfacet
  facet normal 0.707107 0.707107 0
    outer loop
      vertex 41.4043 68.75 24.4
      vertex 40.05 70.1043 21.8
      vertex 40.05 70.1043 24.4
    endloop
  endfacet
  facet normal 0.707107 0.707107 0
    outer loop
      vertex 40.05 70.1043 21.8
      vertex 41.4043 68.75 24.4
      vertex 41.4043 68.75 21.8
    endloop
  endfacet
  facet normal 0.965927 0.258816 0
    outer loop
      vertex 41.9 66.9 24.4
      vertex 41.4043 68.75 21.8
      vertex 41.4043 68.75 24.4
    endloop
  endfacet
  facet normal 0.965927 0.258816 0
    outer loop
      vertex 41.4043 68.75 21.8
      vertex 41.9 66.9 24.4
      vertex 41.9 66.9 21.8
    endloop
  endfacet
  facet normal 0.258816 0.965927 -0
    outer loop
      vertex 40.05 70.1043 21.8
      vertex 38.2 70.6 24.4
      vertex 40.05 70.1043 24.4
    endloop
  endfacet
  facet normal 0.258816 0.965927 0
    outer loop
      vertex 38.2 70.6 24.4
      vertex 40.05 70.1043 21.8
      vertex 38.2 70.6 21.8
    endloop
  endfacet
  facet normal 0.258816 -0.965927 0
    outer loop
      vertex 38.2 63.2 21.8
      vertex 40.05 63.6957 24.4
      vertex 38.2 63.2 24.4
    endloop
  endfacet
  facet normal 0.258816 -0.965927 0
    outer loop
      vertex 40.05 63.6957 24.4
      vertex 38.2 63.2 21.8
      vertex 40.05 63.6957 21.8
    endloop
  endfacet
  facet normal 0.965927 -0.258816 0
    outer loop
      vertex 41.4043 65.05 24.4
      vertex 41.9 66.9 21.8
      vertex 41.9 66.9 24.4
    endloop
  endfacet
  facet normal 0.965927 -0.258816 0
    outer loop
      vertex 41.9 66.9 21.8
      vertex 41.4043 65.05 24.4
      vertex 41.4043 65.05 21.8
    endloop
  endfacet
  facet normal -0.707107 0.707107 0
    outer loop
      vertex 34.9957 68.75 21.8
      vertex 36.35 70.1043 24.4
      vertex 36.35 70.1043 21.8
    endloop
  endfacet
  facet normal -0.707107 0.707107 0
    outer loop
      vertex 36.35 70.1043 24.4
      vertex 34.9957 68.75 21.8
      vertex 34.9957 68.75 24.4
    endloop
  endfacet
  facet normal -0.258816 0.965927 0
    outer loop
      vertex 38.2 70.6 21.8
      vertex 36.35 70.1043 24.4
      vertex 38.2 70.6 24.4
    endloop
  endfacet
  facet normal -0.258816 0.965927 0
    outer loop
      vertex 36.35 70.1043 24.4
      vertex 38.2 70.6 21.8
      vertex 36.35 70.1043 21.8
    endloop
  endfacet
  facet normal -0.965927 0.258816 0
    outer loop
      vertex 34.5 66.9 21.8
      vertex 34.9957 68.75 24.4
      vertex 34.9957 68.75 21.8
    endloop
  endfacet
  facet normal -0.965927 0.258816 0
    outer loop
      vertex 34.9957 68.75 24.4
      vertex 34.5 66.9 21.8
      vertex 34.5 66.9 24.4
    endloop
  endfacet
  facet normal 0.707107 -0.707107 0
    outer loop
      vertex 40.05 63.6957 24.4
      vertex 41.4043 65.05 21.8
      vertex 41.4043 65.05 24.4
    endloop
  endfacet
  facet normal 0.707107 -0.707107 0
    outer loop
      vertex 41.4043 65.05 21.8
      vertex 40.05 63.6957 24.4
      vertex 40.05 63.6957 21.8
    endloop
  endfacet
  facet normal 0 0 1
    outer loop
      vertex 39.5 66.9 24.4
      vertex 41.9 66.9 24.4
      vertex 41.4043 68.75 24.4
    endloop
  endfacet
  facet normal 0 0 1
    outer loop
      vertex 38.6017 68.1364 24.4
      vertex 41.4043 68.75 24.4
      vertex 40.05 70.1043 24.4
    endloop
  endfacet
  facet normal 0 0 1
    outer loop
      vertex 41.9 66.9 24.4
      vertex 39.5 66.9 24.4
      vertex 41.4043 65.05 24.4
    endloop
  endfacet
  facet normal -0 0 1
    outer loop
      vertex 38.6017 65.6636 24.4
      vertex 41.4043 65.05 24.4
      vertex 39.5 66.9 24.4
    endloop
  endfacet
  facet normal 0 0 1
    outer loop
      vertex 41.4043 68.75 24.4
      vertex 38.6017 68.1364 24.4
      vertex 39.5 66.9 24.4
    endloop
  endfacet
  facet normal 0 0 1
    outer loop
      vertex 38.2 70.6 24.4
      vertex 38.6017 68.1364 24.4
      vertex 40.05 70.1043 24.4
    endloop
  endfacet
  facet normal -0 0 1
    outer loop
      vertex 36.35 70.1043 24.4
      vertex 38.6017 68.1364 24.4
      vertex 38.2 70.6 24.4
    endloop
  endfacet
  facet normal -0 0 1
    outer loop
      vertex 34.9957 68.75 24.4
      vertex 37.1483 67.6641 24.4
      vertex 36.35 70.1043 24.4
    endloop
  endfacet
  facet normal 0 0 1
    outer loop
      vertex 38.6017 68.1364 24.4
      vertex 36.35 70.1043 24.4
      vertex 37.1483 67.6641 24.4
    endloop
  endfacet
  facet normal 0 0 1
    outer loop
      vertex 41.4043 65.05 24.4
      vertex 38.6017 65.6636 24.4
      vertex 40.05 63.6957 24.4
    endloop
  endfacet
  facet normal 0 0 1
    outer loop
      vertex 38.6017 65.6636 24.4
      vertex 38.2 63.2 24.4
      vertex 40.05 63.6957 24.4
    endloop
  endfacet
  facet normal 0 0 1
    outer loop
      vertex 36.35 63.6957 24.4
      vertex 38.6017 65.6636 24.4
      vertex 37.1483 66.1359 24.4
    endloop
  endfacet
  facet normal 0 0 1
    outer loop
      vertex 38.6017 65.6636 24.4
      vertex 36.35 63.6957 24.4
      vertex 38.2 63.2 24.4
    endloop
  endfacet
  facet normal 0 0 1
    outer loop
      vertex 34.5 66.9 24.4
      vertex 37.1483 67.6641 24.4
      vertex 34.9957 68.75 24.4
    endloop
  endfacet
  facet normal 0 0 1
    outer loop
      vertex 37.1483 67.6641 24.4
      vertex 34.5 66.9 24.4
      vertex 37.1483 66.1359 24.4
    endloop
  endfacet
  facet normal 0 0 1
    outer loop
      vertex 37.1483 66.1359 24.4
      vertex 34.9957 65.05 24.4
      vertex 36.35 63.6957 24.4
    endloop
  endfacet
  facet normal 0 0 1
    outer loop
      vertex 37.1483 66.1359 24.4
      vertex 34.5 66.9 24.4
      vertex 34.9957 65.05 24.4
    endloop
  endfacet
  facet normal -0.707107 -0.707107 0
    outer loop
      vertex 36.35 63.6957 21.8
      vertex 34.9957 65.05 24.4
      vertex 34.9957 65.05 21.8
    endloop
  endfacet
  facet normal -0.707107 -0.707107 0
    outer loop
      vertex 34.9957 65.05 24.4
      vertex 36.35 63.6957 21.8
      vertex 36.35 63.6957 24.4
    endloop
  endfacet
  facet normal 0 0 -1
    outer loop
      vertex 39.5 66.9 21.8
      vertex 41.9 66.9 21.8
      vertex 41.4043 65.05 21.8
    endloop
  endfacet
  facet normal 0 0 -1
    outer loop
      vertex 38.6017 65.6636 21.8
      vertex 41.4043 65.05 21.8
      vertex 40.05 63.6957 21.8
    endloop
  endfacet
  facet normal 0 0 -1
    outer loop
      vertex 41.9 66.9 21.8
      vertex 39.5 66.9 21.8
      vertex 41.4043 68.75 21.8
    endloop
  endfacet
  facet normal 0 0 -1
    outer loop
      vertex 38.6017 68.1364 21.8
      vertex 41.4043 68.75 21.8
      vertex 39.5 66.9 21.8
    endloop
  endfacet
  facet normal 0 0 -1
    outer loop
      vertex 41.4043 65.05 21.8
      vertex 38.6017 65.6636 21.8
      vertex 39.5 66.9 21.8
    endloop
  endfacet
  facet normal 0 0 -1
    outer loop
      vertex 38.2 63.2 21.8
      vertex 38.6017 65.6636 21.8
      vertex 40.05 63.6957 21.8
    endloop
  endfacet
  facet normal 0 0 -1
    outer loop
      vertex 36.35 63.6957 21.8
      vertex 38.6017 65.6636 21.8
      vertex 38.2 63.2 21.8
    endloop
  endfacet
  facet normal 0 0 -1
    outer loop
      vertex 34.9957 65.05 21.8
      vertex 37.1483 66.1359 21.8
      vertex 36.35 63.6957 21.8
    endloop
  endfacet
  facet normal -0 0 -1
    outer loop
      vertex 38.6017 65.6636 21.8
      vertex 36.35 63.6957 21.8
      vertex 37.1483 66.1359 21.8
    endloop
  endfacet
  facet normal -0 0 -1
    outer loop
      vertex 41.4043 68.75 21.8
      vertex 38.6017 68.1364 21.8
      vertex 40.05 70.1043 21.8
    endloop
  endfacet
  facet normal 0 0 -1
    outer loop
      vertex 38.6017 68.1364 21.8
      vertex 38.2 70.6 21.8
      vertex 40.05 70.1043 21.8
    endloop
  endfacet
  facet normal 0 0 -1
    outer loop
      vertex 36.35 70.1043 21.8
      vertex 38.6017 68.1364 21.8
      vertex 37.1483 67.6641 21.8
    endloop
  endfacet
  facet normal 0 0 -1
    outer loop
      vertex 38.6017 68.1364 21.8
      vertex 36.35 70.1043 21.8
      vertex 38.2 70.6 21.8
    endloop
  endfacet
  facet normal 0 0 -1
    outer loop
      vertex 34.5 66.9 21.8
      vertex 37.1483 66.1359 21.8
      vertex 34.9957 65.05 21.8
    endloop
  endfacet
  facet normal 0 0 -1
    outer loop
      vertex 37.1483 66.1359 21.8
      vertex 34.5 66.9 21.8
      vertex 37.1483 67.6641 21.8
    endloop
  endfacet
  facet normal 0 0 -1
    outer loop
      vertex 37.1483 67.6641 21.8
      vertex 34.9957 68.75 21.8
      vertex 36.35 70.1043 21.8
    endloop
  endfacet
  facet normal -0 0 -1
    outer loop
      vertex 37.1483 67.6641 21.8
      vertex 34.5 66.9 21.8
      vertex 34.9957 68.75 21.8
    endloop
  endfacet
  facet normal -0.258816 -0.965927 0
    outer loop
      vertex 36.35 63.6957 21.8
      vertex 38.2 63.2 24.4
      vertex 36.35 63.6957 24.4
    endloop
  endfacet
  facet normal -0.258816 -0.965927 -0
    outer loop
      vertex 38.2 63.2 24.4
      vertex 36.35 63.6957 21.8
      vertex 38.2 63.2 21.8
    endloop
  endfacet
  facet normal 0.309054 0.951045 -0
    outer loop
      vertex 38.6017 65.6636 21.8
      vertex 37.1483 66.1359 24.4
      vertex 38.6017 65.6636 24.4
    endloop
  endfacet
  facet normal 0.309054 0.951045 0
    outer loop
      vertex 37.1483 66.1359 24.4
      vertex 38.6017 65.6636 21.8
      vertex 37.1483 66.1359 21.8
    endloop
  endfacet
  facet normal 0.309054 -0.951045 0
    outer loop
      vertex 37.1483 67.6641 21.8
      vertex 38.6017 68.1364 24.4
      vertex 37.1483 67.6641 24.4
    endloop
  endfacet
  facet normal 0.309054 -0.951045 0
    outer loop
      vertex 38.6017 68.1364 24.4
      vertex 37.1483 67.6641 21.8
      vertex 38.6017 68.1364 21.8
    endloop
  endfacet
  facet normal -0.809016 -0.587786 0
    outer loop
      vertex 39.5 66.9 21.8
      vertex 38.6017 68.1364 24.4
      vertex 38.6017 68.1364 21.8
    endloop
  endfacet
  facet normal -0.809016 -0.587786 0
    outer loop
      vertex 38.6017 68.1364 24.4
      vertex 39.5 66.9 21.8
      vertex 39.5 66.9 24.4
    endloop
  endfacet
  facet normal 1 -0 0
    outer loop
      vertex 37.1483 66.1359 24.4
      vertex 37.1483 67.6641 21.8
      vertex 37.1483 67.6641 24.4
    endloop
  endfacet
  facet normal 1 0 0
    outer loop
      vertex 37.1483 67.6641 21.8
      vertex 37.1483 66.1359 24.4
      vertex 37.1483 66.1359 21.8
    endloop
  endfacet
  facet normal -0.809016 0.587786 0
    outer loop
      vertex 38.6017 65.6636 21.8
      vertex 39.5 66.9 24.4
      vertex 39.5 66.9 21.8
    endloop
  endfacet
  facet normal -0.809016 0.587786 0
    outer loop
      vertex 39.5 66.9 24.4
      vertex 38.6017 65.6636 21.8
      vertex 38.6017 65.6636 24.4
    endloop
  endfacet
  facet normal -0.965927 -0.258816 0
    outer loop
      vertex 34.9957 82.95 21.8
      vertex 34.5 84.8 24.4
      vertex 34.5 84.8 21.8
    endloop
  endfacet
  facet normal -0.965927 -0.258816 0
    outer loop
      vertex 34.5 84.8 24.4
      vertex 34.9957 82.95 21.8
      vertex 34.9957 82.95 24.4
    endloop
  endfacet
  facet normal 0.707107 0.707107 0
    outer loop
      vertex 41.4043 86.65 24.4
      vertex 40.05 88.0043 21.8
      vertex 40.05 88.0043 24.4
    endloop
  endfacet
  facet normal 0.707107 0.707107 0
    outer loop
      vertex 40.05 88.0043 21.8
      vertex 41.4043 86.65 24.4
      vertex 41.4043 86.65 21.8
    endloop
  endfacet
  facet normal 0.965927 0.258816 0
    outer loop
      vertex 41.9 84.8 24.4
      vertex 41.4043 86.65 21.8
      vertex 41.4043 86.65 24.4
    endloop
  endfacet
  facet normal 0.965927 0.258816 0
    outer loop
      vertex 41.4043 86.65 21.8
      vertex 41.9 84.8 24.4
      vertex 41.9 84.8 21.8
    endloop
  endfacet
  facet normal 0.258816 0.965927 -0
    outer loop
      vertex 40.05 88.0043 21.8
      vertex 38.2 88.5 24.4
      vertex 40.05 88.0043 24.4
    endloop
  endfacet
  facet normal 0.258816 0.965927 0
    outer loop
      vertex 38.2 88.5 24.4
      vertex 40.05 88.0043 21.8
      vertex 38.2 88.5 21.8
    endloop
  endfacet
  facet normal 0.258816 -0.965927 0
    outer loop
      vertex 38.2 81.1 21.8
      vertex 40.05 81.5957 24.4
      vertex 38.2 81.1 24.4
    endloop
  endfacet
  facet normal 0.258816 -0.965927 0
    outer loop
      vertex 40.05 81.5957 24.4
      vertex 38.2 81.1 21.8
      vertex 40.05 81.5957 21.8
    endloop
  endfacet
  facet normal 0.965927 -0.258816 0
    outer loop
      vertex 41.4043 82.95 24.4
      vertex 41.9 84.8 21.8
      vertex 41.9 84.8 24.4
    endloop
  endfacet
  facet normal 0.965927 -0.258816 0
    outer loop
      vertex 41.9 84.8 21.8
      vertex 41.4043 82.95 24.4
      vertex 41.4043 82.95 21.8
    endloop
  endfacet
  facet normal -0.707107 0.707107 0
    outer loop
      vertex 34.9957 86.65 21.8
      vertex 36.35 88.0043 24.4
      vertex 36.35 88.0043 21.8
    endloop
  endfacet
  facet normal -0.707107 0.707107 0
    outer loop
      vertex 36.35 88.0043 24.4
      vertex 34.9957 86.65 21.8
      vertex 34.9957 86.65 24.4
    endloop
  endfacet
  facet normal -0.258816 0.965927 0
    outer loop
      vertex 38.2 88.5 21.8
      vertex 36.35 88.0043 24.4
      vertex 38.2 88.5 24.4
    endloop
  endfacet
  facet normal -0.258816 0.965927 0
    outer loop
      vertex 36.35 88.0043 24.4
      vertex 38.2 88.5 21.8
      vertex 36.35 88.0043 21.8
    endloop
  endfacet
  facet normal -0.965927 0.258816 0
    outer loop
      vertex 34.5 84.8 21.8
      vertex 34.9957 86.65 24.4
      vertex 34.9957 86.65 21.8
    endloop
  endfacet
  facet normal -0.965927 0.258816 0
    outer loop
      vertex 34.9957 86.65 24.4
      vertex 34.5 84.8 21.8
      vertex 34.5 84.8 24.4
    endloop
  endfacet
  facet normal 0.707107 -0.707107 0
    outer loop
      vertex 40.05 81.5957 24.4
      vertex 41.4043 82.95 21.8
      vertex 41.4043 82.95 24.4
    endloop
  endfacet
  facet normal 0.707107 -0.707107 0
    outer loop
      vertex 41.4043 82.95 21.8
      vertex 40.05 81.5957 24.4
      vertex 40.05 81.5957 21.8
    endloop
  endfacet
  facet normal 0 0 1
    outer loop
      vertex 39.5 84.8 24.4
      vertex 41.9 84.8 24.4
      vertex 41.4043 86.65 24.4
    endloop
  endfacet
  facet normal 0 0 1
    outer loop
      vertex 38.6017 86.0364 24.4
      vertex 41.4043 86.65 24.4
      vertex 40.05 88.0043 24.4
    endloop
  endfacet
  facet normal 0 0 1
    outer loop
      vertex 41.9 84.8 24.4
      vertex 39.5 84.8 24.4
      vertex 41.4043 82.95 24.4
    endloop
  endfacet
  facet normal -0 0 1
    outer loop
      vertex 38.6017 83.5636 24.4
      vertex 41.4043 82.95 24.4
      vertex 39.5 84.8 24.4
    endloop
  endfacet
  facet normal 0 0 1
    outer loop
      vertex 41.4043 86.65 24.4
      vertex 38.6017 86.0364 24.4
      vertex 39.5 84.8 24.4
    endloop
  endfacet
  facet normal 0 0 1
    outer loop
      vertex 38.2 88.5 24.4
      vertex 38.6017 86.0364 24.4
      vertex 40.05 88.0043 24.4
    endloop
  endfacet
  facet normal -0 0 1
    outer loop
      vertex 36.35 88.0043 24.4
      vertex 38.6017 86.0364 24.4
      vertex 38.2 88.5 24.4
    endloop
  endfacet
  facet normal -0 0 1
    outer loop
      vertex 34.9957 86.65 24.4
      vertex 37.1483 85.5641 24.4
      vertex 36.35 88.0043 24.4
    endloop
  endfacet
  facet normal 0 0 1
    outer loop
      vertex 38.6017 86.0364 24.4
      vertex 36.35 88.0043 24.4
      vertex 37.1483 85.5641 24.4
    endloop
  endfacet
  facet normal 0 0 1
    outer loop
      vertex 41.4043 82.95 24.4
      vertex 38.6017 83.5636 24.4
      vertex 40.05 81.5957 24.4
    endloop
  endfacet
  facet normal 0 0 1
    outer loop
      vertex 38.6017 83.5636 24.4
      vertex 38.2 81.1 24.4
      vertex 40.05 81.5957 24.4
    endloop
  endfacet
  facet normal 0 0 1
    outer loop
      vertex 36.35 81.5957 24.4
      vertex 38.6017 83.5636 24.4
      vertex 37.1483 84.0359 24.4
    endloop
  endfacet
  facet normal 0 0 1
    outer loop
      vertex 38.6017 83.5636 24.4
      vertex 36.35 81.5957 24.4
      vertex 38.2 81.1 24.4
    endloop
  endfacet
  facet normal 0 0 1
    outer loop
      vertex 34.5 84.8 24.4
      vertex 37.1483 85.5641 24.4
      vertex 34.9957 86.65 24.4
    endloop
  endfacet
  facet normal 0 0 1
    outer loop
      vertex 37.1483 85.5641 24.4
      vertex 34.5 84.8 24.4
      vertex 37.1483 84.0359 24.4
    endloop
  endfacet
  facet normal 0 0 1
    outer loop
      vertex 37.1483 84.0359 24.4
      vertex 34.9957 82.95 24.4
      vertex 36.35 81.5957 24.4
    endloop
  endfacet
  facet normal 0 0 1
    outer loop
      vertex 37.1483 84.0359 24.4
      vertex 34.5 84.8 24.4
      vertex 34.9957 82.95 24.4
    endloop
  endfacet
  facet normal -0.707107 -0.707107 0
    outer loop
      vertex 36.35 81.5957 21.8
      vertex 34.9957 82.95 24.4
      vertex 34.9957 82.95 21.8
    endloop
  endfacet
  facet normal -0.707107 -0.707107 0
    outer loop
      vertex 34.9957 82.95 24.4
      vertex 36.35 81.5957 21.8
      vertex 36.35 81.5957 24.4
    endloop
  endfacet
  facet normal 0 0 -1
    outer loop
      vertex 39.5 84.8 21.8
      vertex 41.9 84.8 21.8
      vertex 41.4043 82.95 21.8
    endloop
  endfacet
  facet normal 0 0 -1
    outer loop
      vertex 38.6017 83.5636 21.8
      vertex 41.4043 82.95 21.8
      vertex 40.05 81.5957 21.8
    endloop
  endfacet
  facet normal 0 0 -1
    outer loop
      vertex 41.9 84.8 21.8
      vertex 39.5 84.8 21.8
      vertex 41.4043 86.65 21.8
    endloop
  endfacet
  facet normal 0 0 -1
    outer loop
      vertex 38.6017 86.0364 21.8
      vertex 41.4043 86.65 21.8
      vertex 39.5 84.8 21.8
    endloop
  endfacet
  facet normal 0 0 -1
    outer loop
      vertex 41.4043 82.95 21.8
      vertex 38.6017 83.5636 21.8
      vertex 39.5 84.8 21.8
    endloop
  endfacet
  facet normal 0 0 -1
    outer loop
      vertex 38.2 81.1 21.8
      vertex 38.6017 83.5636 21.8
      vertex 40.05 81.5957 21.8
    endloop
  endfacet
  facet normal 0 0 -1
    outer loop
      vertex 36.35 81.5957 21.8
      vertex 38.6017 83.5636 21.8
      vertex 38.2 81.1 21.8
    endloop
  endfacet
  facet normal 0 0 -1
    outer loop
      vertex 34.9957 82.95 21.8
      vertex 37.1483 84.0359 21.8
      vertex 36.35 81.5957 21.8
    endloop
  endfacet
  facet normal -0 0 -1
    outer loop
      vertex 38.6017 83.5636 21.8
      vertex 36.35 81.5957 21.8
      vertex 37.1483 84.0359 21.8
    endloop
  endfacet
  facet normal -0 0 -1
    outer loop
      vertex 41.4043 86.65 21.8
      vertex 38.6017 86.0364 21.8
      vertex 40.05 88.0043 21.8
    endloop
  endfacet
  facet normal 0 0 -1
    outer loop
      vertex 38.6017 86.0364 21.8
      vertex 38.2 88.5 21.8
      vertex 40.05 88.0043 21.8
    endloop
  endfacet
  facet normal 0 0 -1
    outer loop
      vertex 36.35 88.0043 21.8
      vertex 38.6017 86.0364 21.8
      vertex 37.1483 85.5641 21.8
    endloop
  endfacet
  facet normal 0 0 -1
    outer loop
      vertex 38.6017 86.0364 21.8
      vertex 36.35 88.0043 21.8
      vertex 38.2 88.5 21.8
    endloop
  endfacet
  facet normal 0 0 -1
    outer loop
      vertex 34.5 84.8 21.8
      vertex 37.1483 84.0359 21.8
      vertex 34.9957 82.95 21.8
    endloop
  endfacet
  facet normal 0 0 -1
    outer loop
      vertex 37.1483 84.0359 21.8
      vertex 34.5 84.8 21.8
      vertex 37.1483 85.5641 21.8
    endloop
  endfacet
  facet normal 0 0 -1
    outer loop
      vertex 37.1483 85.5641 21.8
      vertex 34.9957 86.65 21.8
      vertex 36.35 88.0043 21.8
    endloop
  endfacet
  facet normal -0 0 -1
    outer loop
      vertex 37.1483 85.5641 21.8
      vertex 34.5 84.8 21.8
      vertex 34.9957 86.65 21.8
    endloop
  endfacet
  facet normal -0.258816 -0.965927 0
    outer loop
      vertex 36.35 81.5957 21.8
      vertex 38.2 81.1 24.4
      vertex 36.35 81.5957 24.4
    endloop
  endfacet
  facet normal -0.258816 -0.965927 -0
    outer loop
      vertex 38.2 81.1 24.4
      vertex 36.35 81.5957 21.8
      vertex 38.2 81.1 21.8
    endloop
  endfacet
  facet normal 0.309054 0.951045 -0
    outer loop
      vertex 38.6017 83.5636 21.8
      vertex 37.1483 84.0359 24.4
      vertex 38.6017 83.5636 24.4
    endloop
  endfacet
  facet normal 0.309054 0.951045 0
    outer loop
      vertex 37.1483 84.0359 24.4
      vertex 38.6017 83.5636 21.8
      vertex 37.1483 84.0359 21.8
    endloop
  endfacet
  facet normal 0.309054 -0.951045 0
    outer loop
      vertex 37.1483 85.5641 21.8
      vertex 38.6017 86.0364 24.4
      vertex 37.1483 85.5641 24.4
    endloop
  endfacet
  facet normal 0.309054 -0.951045 0
    outer loop
      vertex 38.6017 86.0364 24.4
      vertex 37.1483 85.5641 21.8
      vertex 38.6017 86.0364 21.8
    endloop
  endfacet
  facet normal -0.809016 -0.587786 0
    outer loop
      vertex 39.5 84.8 21.8
      vertex 38.6017 86.0364 24.4
      vertex 38.6017 86.0364 21.8
    endloop
  endfacet
  facet normal -0.809016 -0.587786 0
    outer loop
      vertex 38.6017 86.0364 24.4
      vertex 39.5 84.8 21.8
      vertex 39.5 84.8 24.4
    endloop
  endfacet
  facet normal 1 -0 0
    outer loop
      vertex 37.1483 84.0359 24.4
      vertex 37.1483 85.5641 21.8
      vertex 37.1483 85.5641 24.4
    endloop
  endfacet
  facet normal 1 0 0
    outer loop
      vertex 37.1483 85.5641 21.8
      vertex 37.1483 84.0359 24.4
      vertex 37.1483 84.0359 21.8
    endloop
  endfacet
  facet normal -0.809016 0.587786 0
    outer loop
      vertex 38.6017 83.5636 21.8
      vertex 39.5 84.8 24.4
      vertex 39.5 84.8 21.8
    endloop
  endfacet
  facet normal -0.809016 0.587786 0
    outer loop
      vertex 39.5 84.8 24.4
      vertex 38.6017 83.5636 21.8
      vertex 38.6017 83.5636 24.4
    endloop
  endfacet
  facet normal 1 0 0
    outer loop
      vertex 46 91.9 21.8
      vertex 46 90.3334 10.52
      vertex 46 91.9 0
    endloop
  endfacet
  facet normal 1 0 0
    outer loop
      vertex 46 91.9 21.8
      vertex 46 89.8053 13.0046
      vertex 46 90.3334 10.52
    endloop
  endfacet
  facet normal 1 0 0
    outer loop
      vertex 46 91.9 21.8
      vertex 46 88.7722 15.325
      vertex 46 89.8053 13.0046
    endloop
  endfacet
  facet normal 1 0 0
    outer loop
      vertex 46 91.9 21.8
      vertex 46 87.2792 17.3799
      vertex 46 88.7722 15.325
    endloop
  endfacet
  facet normal 1 0 0
    outer loop
      vertex 46 91.9 21.8
      vertex 46 85.3916 19.0796
      vertex 46 87.2792 17.3799
    endloop
  endfacet
  facet normal 1 0 0
    outer loop
      vertex 46 91.9 21.8
      vertex 46 83.1918 20.3496
      vertex 46 85.3916 19.0796
    endloop
  endfacet
  facet normal 1 0 0
    outer loop
      vertex 46 91.9 21.8
      vertex 46 80.7761 21.1345
      vertex 46 83.1918 20.3496
    endloop
  endfacet
  facet normal 1 0 0
    outer loop
      vertex 46 91.9 21.8
      vertex 46 78.25 21.4
      vertex 46 80.7761 21.1345
    endloop
  endfacet
  facet normal 1 0 0
    outer loop
      vertex 46 60 0
      vertex 46 66.1666 10.52
      vertex 46 60 21.8
    endloop
  endfacet
  facet normal 1 0 0
    outer loop
      vertex 46 66.6947 13.0046
      vertex 46 60 21.8
      vertex 46 66.1666 10.52
    endloop
  endfacet
  facet normal 1 0 0
    outer loop
      vertex 46 67.7278 15.325
      vertex 46 60 21.8
      vertex 46 66.6947 13.0046
    endloop
  endfacet
  facet normal 1 0 0
    outer loop
      vertex 46 69.2208 17.3799
      vertex 46 60 21.8
      vertex 46 67.7278 15.325
    endloop
  endfacet
  facet normal 1 0 0
    outer loop
      vertex 46 71.1084 19.0796
      vertex 46 60 21.8
      vertex 46 69.2208 17.3799
    endloop
  endfacet
  facet normal 1 0 0
    outer loop
      vertex 46 73.3082 20.3496
      vertex 46 60 21.8
      vertex 46 71.1084 19.0796
    endloop
  endfacet
  facet normal 1 0 0
    outer loop
      vertex 46 75.7239 21.1345
      vertex 46 60 21.8
      vertex 46 73.3082 20.3496
    endloop
  endfacet
  facet normal 1 0 0
    outer loop
      vertex 46 78.25 21.4
      vertex 46 60 21.8
      vertex 46 75.7239 21.1345
    endloop
  endfacet
  facet normal 1 -0 0
    outer loop
      vertex 46 60 21.8
      vertex 46 78.25 21.4
      vertex 46 91.9 21.8
    endloop
  endfacet
  facet normal 1 -0 0
    outer loop
      vertex 46 90.3334 7.97998
      vertex 46 91.9 0
      vertex 46 90.3334 10.52
    endloop
  endfacet
  facet normal 1 -0 0
    outer loop
      vertex 46 89.8053 5.49544
      vertex 46 91.9 0
      vertex 46 90.3334 7.97998
    endloop
  endfacet
  facet normal 1 -0 0
    outer loop
      vertex 46 88.7722 3.175
      vertex 46 91.9 0
      vertex 46 89.8053 5.49544
    endloop
  endfacet
  facet normal 1 -0 0
    outer loop
      vertex 46 87.2792 1.12006
      vertex 46 91.9 0
      vertex 46 88.7722 3.175
    endloop
  endfacet
  facet normal 1 0 0
    outer loop
      vertex 46 91.9 0
      vertex 46 87.2792 1.12006
      vertex 46 86.0353 0
    endloop
  endfacet
  facet normal 1 0 0
    outer loop
      vertex 46 66.1666 10.52
      vertex 46 60 0
      vertex 46 66.1666 7.97998
    endloop
  endfacet
  facet normal 1 0 0
    outer loop
      vertex 46 69.2208 1.12006
      vertex 46 60 0
      vertex 46 70.4647 0
    endloop
  endfacet
  facet normal 1 0 0
    outer loop
      vertex 46 67.7278 3.175
      vertex 46 60 0
      vertex 46 69.2208 1.12006
    endloop
  endfacet
  facet normal 1 0 0
    outer loop
      vertex 46 66.6947 5.49544
      vertex 46 60 0
      vertex 46 67.7278 3.175
    endloop
  endfacet
  facet normal 1 0 0
    outer loop
      vertex 46 66.1666 7.97998
      vertex 46 60 0
      vertex 46 66.6947 5.49544
    endloop
  endfacet
  facet normal -0 0 1
    outer loop
      vertex 0 91.9 21.8
      vertex 46 60 21.8
      vertex 46 91.9 21.8
    endloop
  endfacet
  facet normal 0 0 1
    outer loop
      vertex 46 60 21.8
      vertex 0 91.9 21.8
      vertex 0 60 21.8
    endloop
  endfacet
  facet normal 0 0 -1
    outer loop
      vertex 46 60 0
      vertex 45 70.4647 0
      vertex 46 70.4647 0
    endloop
  endfacet
  facet normal 0 0 -1
    outer loop
      vertex 0 91.9 0
      vertex 45 70.4647 0
      vertex 0 60 0
    endloop
  endfacet
  facet normal 0 0 -1
    outer loop
      vertex 0 60 0
      vertex 45 70.4647 0
      vertex 46 60 0
    endloop
  endfacet
  facet normal 0 0 -1
    outer loop
      vertex 45 86.0353 0
      vertex 46 91.9 0
      vertex 46 86.0353 0
    endloop
  endfacet
  facet normal 0 0 -1
    outer loop
      vertex 45 70.4647 0
      vertex 0 91.9 0
      vertex 45 86.0353 0
    endloop
  endfacet
  facet normal 0 0 -1
    outer loop
      vertex 45 86.0353 0
      vertex 0 91.9 0
      vertex 46 91.9 0
    endloop
  endfacet
  facet normal -1 0 0
    outer loop
      vertex 0 60 0
      vertex 0 91.9 21.8
      vertex 0 91.9 0
    endloop
  endfacet
  facet normal -1 -0 0
    outer loop
      vertex 0 91.9 21.8
      vertex 0 60 0
      vertex 0 60 21.8
    endloop
  endfacet
  facet normal 0 1 -0
    outer loop
      vertex 46 91.9 0
      vertex 0 91.9 21.8
      vertex 46 91.9 21.8
    endloop
  endfacet
  facet normal 0 1 0
    outer loop
      vertex 0 91.9 21.8
      vertex 46 91.9 0
      vertex 0 91.9 0
    endloop
  endfacet
  facet normal 0 -1 0
    outer loop
      vertex 0 60 0
      vertex 46 60 21.8
      vertex 0 60 21.8
    endloop
  endfacet
  facet normal 0 -1 -0
    outer loop
      vertex 46 60 21.8
      vertex 0 60 0
      vertex 46 60 0
    endloop
  endfacet
  facet normal 0 -0.978148 -0.20791
    outer loop
      vertex 46 66.6947 5.49544
      vertex 76.8 66.1666 7.97998
      vertex 46 66.1666 7.97998
    endloop
  endfacet
  facet normal 0 -0.978148 -0.20791
    outer loop
      vertex 76.8 66.1666 7.97998
      vertex 46 66.6947 5.49544
      vertex 76.8 66.6947 5.49544
    endloop
  endfacet
  facet normal 0 0.499991 -0.866031
    outer loop
      vertex 45 83.1918 -1.84958
      vertex 76.8 85.3916 -0.579556
      vertex 76.8 83.1918 -1.84958
    endloop
  endfacet
  facet normal 0 0.499991 -0.866031
    outer loop
      vertex 76.8 85.3916 -0.579556
      vertex 45 83.1918 -1.84958
      vertex 45 85.3916 -0.579556
    endloop
  endfacet
  facet normal -0 0.669152 0.743126
    outer loop
      vertex 46 87.2792 17.3799
      vertex 76.8 85.3916 19.0796
      vertex 76.8 87.2792 17.3799
    endloop
  endfacet
  facet normal 0 0.669152 0.743126
    outer loop
      vertex 76.8 85.3916 19.0796
      vertex 46 87.2792 17.3799
      vertex 46 85.3916 19.0796
    endloop
  endfacet
  facet normal 0 0.809017 -0.587785
    outer loop
      vertex 76.8 87.2792 1.12006
      vertex 46 88.7722 3.175
      vertex 76.8 88.7722 3.175
    endloop
  endfacet
  facet normal 0 0.809017 -0.587785
    outer loop
      vertex 46 88.7722 3.175
      vertex 76.8 87.2792 1.12006
      vertex 46 87.2792 1.12006
    endloop
  endfacet
  facet normal 0 0.104531 -0.994522
    outer loop
      vertex 45 78.25 -2.9
      vertex 76.8 80.7761 -2.63449
      vertex 76.8 78.25 -2.9
    endloop
  endfacet
  facet normal 0 0.104531 -0.994522
    outer loop
      vertex 76.8 80.7761 -2.63449
      vertex 45 78.25 -2.9
      vertex 45 80.7761 -2.63449
    endloop
  endfacet
  facet normal -0 0.104527 0.994522
    outer loop
      vertex 46 80.7761 21.1345
      vertex 76.8 78.25 21.4
      vertex 76.8 80.7761 21.1345
    endloop
  endfacet
  facet normal 0 0.104527 0.994522
    outer loop
      vertex 76.8 78.25 21.4
      vertex 46 80.7761 21.1345
      vertex 46 78.25 21.4
    endloop
  endfacet
  facet normal 0 -0.913547 0.406734
    outer loop
      vertex 46 66.6947 13.0046
      vertex 76.8 67.7278 15.325
      vertex 46 67.7278 15.325
    endloop
  endfacet
  facet normal 0 -0.913547 0.406734
    outer loop
      vertex 76.8 67.7278 15.325
      vertex 46 66.6947 13.0046
      vertex 76.8 66.6947 13.0046
    endloop
  endfacet
  facet normal 0 0.913547 0.406734
    outer loop
      vertex 76.8 89.8053 13.0046
      vertex 46 88.7722 15.325
      vertex 76.8 88.7722 15.325
    endloop
  endfacet
  facet normal 0 0.913547 0.406734
    outer loop
      vertex 46 88.7722 15.325
      vertex 76.8 89.8053 13.0046
      vertex 46 89.8053 13.0046
    endloop
  endfacet
  facet normal 0 -0.913549 -0.406728
    outer loop
      vertex 46 67.7278 3.175
      vertex 76.8 66.6947 5.49544
      vertex 46 66.6947 5.49544
    endloop
  endfacet
  facet normal 0 -0.913549 -0.406728
    outer loop
      vertex 76.8 66.6947 5.49544
      vertex 46 67.7278 3.175
      vertex 76.8 67.7278 3.175
    endloop
  endfacet
  facet normal 0 -0.499984 0.866035
    outer loop
      vertex 46 73.3082 20.3496
      vertex 76.8 71.1084 19.0796
      vertex 76.8 73.3082 20.3496
    endloop
  endfacet
  facet normal 0 -0.499984 0.866035
    outer loop
      vertex 76.8 71.1084 19.0796
      vertex 46 73.3082 20.3496
      vertex 46 71.1084 19.0796
    endloop
  endfacet
  facet normal 0 0.913549 -0.406728
    outer loop
      vertex 76.8 88.7722 3.175
      vertex 46 89.8053 5.49544
      vertex 76.8 89.8053 5.49544
    endloop
  endfacet
  facet normal 0 0.913549 -0.406728
    outer loop
      vertex 46 89.8053 5.49544
      vertex 76.8 88.7722 3.175
      vertex 46 88.7722 3.175
    endloop
  endfacet
  facet normal 9.32008e-07 0.669134 -0.743142
    outer loop
      vertex 76.8 85.3916 -0.579556
      vertex 46 86.0353 0
      vertex 76.8 87.2792 1.12006
    endloop
  endfacet
  facet normal 0 0.669109 -0.743164
    outer loop
      vertex 45 85.3916 -0.579556
      vertex 46 86.0353 0
      vertex 76.8 85.3916 -0.579556
    endloop
  endfacet
  facet normal 0 0.669109 -0.743164
    outer loop
      vertex 46 86.0353 0
      vertex 45 85.3916 -0.579556
      vertex 45 86.0353 0
    endloop
  endfacet
  facet normal 0 0.669146 -0.743131
    outer loop
      vertex 76.8 87.2792 1.12006
      vertex 46 86.0353 0
      vertex 46 87.2792 1.12006
    endloop
  endfacet
  facet normal 0 -0.669146 -0.743131
    outer loop
      vertex 46 70.4647 0
      vertex 76.8 69.2208 1.12006
      vertex 46 69.2208 1.12006
    endloop
  endfacet
  facet normal 9.32008e-07 -0.669134 -0.743142
    outer loop
      vertex 76.8 69.2208 1.12006
      vertex 46 70.4647 0
      vertex 76.8 71.1084 -0.579556
    endloop
  endfacet
  facet normal 0 -0.669109 -0.743164
    outer loop
      vertex 45 71.1084 -0.579556
      vertex 46 70.4647 0
      vertex 45 70.4647 0
    endloop
  endfacet
  facet normal 0 -0.669109 -0.743164
    outer loop
      vertex 46 70.4647 0
      vertex 45 71.1084 -0.579556
      vertex 76.8 71.1084 -0.579556
    endloop
  endfacet
  facet normal 0 0.978148 -0.20791
    outer loop
      vertex 76.8 89.8053 5.49544
      vertex 46 90.3334 7.97998
      vertex 76.8 90.3334 7.97998
    endloop
  endfacet
  facet normal 0 0.978148 -0.20791
    outer loop
      vertex 46 90.3334 7.97998
      vertex 76.8 89.8053 5.49544
      vertex 46 89.8053 5.49544
    endloop
  endfacet
  facet normal -0 0.499984 0.866035
    outer loop
      vertex 46 85.3916 19.0796
      vertex 76.8 83.1918 20.3496
      vertex 76.8 85.3916 19.0796
    endloop
  endfacet
  facet normal 0 0.499984 0.866035
    outer loop
      vertex 76.8 83.1918 20.3496
      vertex 46 85.3916 19.0796
      vertex 46 83.1918 20.3496
    endloop
  endfacet
  facet normal 0 1 -0
    outer loop
      vertex 76.8 90.3334 7.97998
      vertex 46 90.3334 10.52
      vertex 76.8 90.3334 10.52
    endloop
  endfacet
  facet normal 0 1 0
    outer loop
      vertex 46 90.3334 10.52
      vertex 76.8 90.3334 7.97998
      vertex 46 90.3334 7.97998
    endloop
  endfacet
  facet normal 0 -0.809017 -0.587785
    outer loop
      vertex 46 69.2208 1.12006
      vertex 76.8 67.7278 3.175
      vertex 46 67.7278 3.175
    endloop
  endfacet
  facet normal 0 -0.809017 -0.587785
    outer loop
      vertex 76.8 67.7278 3.175
      vertex 46 69.2208 1.12006
      vertex 76.8 69.2208 1.12006
    endloop
  endfacet
  facet normal -1 0 0
    outer loop
      vertex 45 83.1918 -1.84958
      vertex 45 86.0353 0
      vertex 45 85.3916 -0.579556
    endloop
  endfacet
  facet normal -1 0 0
    outer loop
      vertex 45 80.7761 -2.63449
      vertex 45 86.0353 0
      vertex 45 83.1918 -1.84958
    endloop
  endfacet
  facet normal -1 0 0
    outer loop
      vertex 45 78.25 -2.9
      vertex 45 86.0353 0
      vertex 45 80.7761 -2.63449
    endloop
  endfacet
  facet normal -1 0 0
    outer loop
      vertex 45 75.7239 -2.63449
      vertex 45 86.0353 0
      vertex 45 78.25 -2.9
    endloop
  endfacet
  facet normal -1 0 0
    outer loop
      vertex 45 70.4647 0
      vertex 45 75.7239 -2.63449
      vertex 45 73.3082 -1.84958
    endloop
  endfacet
  facet normal -1 0 0
    outer loop
      vertex 45 70.4647 0
      vertex 45 73.3082 -1.84958
      vertex 45 71.1084 -0.579556
    endloop
  endfacet
  facet normal -1 0 0
    outer loop
      vertex 45 75.7239 -2.63449
      vertex 45 70.4647 0
      vertex 45 86.0353 0
    endloop
  endfacet
  facet normal 0 -0.104531 -0.994522
    outer loop
      vertex 45 75.7239 -2.63449
      vertex 76.8 78.25 -2.9
      vertex 76.8 75.7239 -2.63449
    endloop
  endfacet
  facet normal -0 -0.104531 -0.994522
    outer loop
      vertex 76.8 78.25 -2.9
      vertex 45 75.7239 -2.63449
      vertex 45 78.25 -2.9
    endloop
  endfacet
  facet normal 0 0.309018 -0.951056
    outer loop
      vertex 45 80.7761 -2.63449
      vertex 76.8 83.1918 -1.84958
      vertex 76.8 80.7761 -2.63449
    endloop
  endfacet
  facet normal 0 0.309018 -0.951056
    outer loop
      vertex 76.8 83.1918 -1.84958
      vertex 45 80.7761 -2.63449
      vertex 45 83.1918 -1.84958
    endloop
  endfacet
  facet normal 1 0 0
    outer loop
      vertex 76.8 89.8053 13.0046
      vertex 76.8 90.3334 7.97998
      vertex 76.8 90.3334 10.52
    endloop
  endfacet
  facet normal 1 0 0
    outer loop
      vertex 76.8 89.8053 13.0046
      vertex 76.8 89.8053 5.49544
      vertex 76.8 90.3334 7.97998
    endloop
  endfacet
  facet normal 1 0 0
    outer loop
      vertex 76.8 88.7722 15.325
      vertex 76.8 89.8053 5.49544
      vertex 76.8 89.8053 13.0046
    endloop
  endfacet
  facet normal 1 0 0
    outer loop
      vertex 76.8 88.7722 15.325
      vertex 76.8 88.7722 3.175
      vertex 76.8 89.8053 5.49544
    endloop
  endfacet
  facet normal 1 0 0
    outer loop
      vertex 76.8 87.2792 17.3799
      vertex 76.8 88.7722 3.175
      vertex 76.8 88.7722 15.325
    endloop
  endfacet
  facet normal 1 0 0
    outer loop
      vertex 76.8 87.2792 17.3799
      vertex 76.8 87.2792 1.12006
      vertex 76.8 88.7722 3.175
    endloop
  endfacet
  facet normal 1 0 0
    outer loop
      vertex 76.8 85.3916 19.0796
      vertex 76.8 87.2792 1.12006
      vertex 76.8 87.2792 17.3799
    endloop
  endfacet
  facet normal 1 0 0
    outer loop
      vertex 76.8 85.3916 19.0796
      vertex 76.8 85.3916 -0.579556
      vertex 76.8 87.2792 1.12006
    endloop
  endfacet
  facet normal 1 0 0
    outer loop
      vertex 76.8 83.1918 20.3496
      vertex 76.8 85.3916 -0.579556
      vertex 76.8 85.3916 19.0796
    endloop
  endfacet
  facet normal 1 0 0
    outer loop
      vertex 76.8 83.1918 20.3496
      vertex 76.8 83.1918 -1.84958
      vertex 76.8 85.3916 -0.579556
    endloop
  endfacet
  facet normal 1 0 0
    outer loop
      vertex 76.8 80.7761 21.1345
      vertex 76.8 83.1918 -1.84958
      vertex 76.8 83.1918 20.3496
    endloop
  endfacet
  facet normal 1 0 0
    outer loop
      vertex 76.8 80.7761 21.1345
      vertex 76.8 80.7761 -2.63449
      vertex 76.8 83.1918 -1.84958
    endloop
  endfacet
  facet normal 1 0 0
    outer loop
      vertex 76.8 78.25 21.4
      vertex 76.8 80.7761 -2.63449
      vertex 76.8 80.7761 21.1345
    endloop
  endfacet
  facet normal 1 0 0
    outer loop
      vertex 76.8 78.25 21.4
      vertex 76.8 78.25 -2.9
      vertex 76.8 80.7761 -2.63449
    endloop
  endfacet
  facet normal 1 -0 0
    outer loop
      vertex 76.8 75.7239 21.1345
      vertex 76.8 78.25 -2.9
      vertex 76.8 78.25 21.4
    endloop
  endfacet
  facet normal 1 0 0
    outer loop
      vertex 76.8 75.7239 21.1345
      vertex 76.8 75.7239 -2.63449
      vertex 76.8 78.25 -2.9
    endloop
  endfacet
  facet normal 1 -0 0
    outer loop
      vertex 76.8 73.3082 20.3496
      vertex 76.8 75.7239 -2.63449
      vertex 76.8 75.7239 21.1345
    endloop
  endfacet
  facet normal 1 0 0
    outer loop
      vertex 76.8 73.3082 20.3496
      vertex 76.8 73.3082 -1.84958
      vertex 76.8 75.7239 -2.63449
    endloop
  endfacet
  facet normal 1 -0 0
    outer loop
      vertex 76.8 71.1084 19.0796
      vertex 76.8 73.3082 -1.84958
      vertex 76.8 73.3082 20.3496
    endloop
  endfacet
  facet normal 1 0 0
    outer loop
      vertex 76.8 71.1084 19.0796
      vertex 76.8 71.1084 -0.579556
      vertex 76.8 73.3082 -1.84958
    endloop
  endfacet
  facet normal 1 -0 0
    outer loop
      vertex 76.8 69.2208 17.3799
      vertex 76.8 71.1084 -0.579556
      vertex 76.8 71.1084 19.0796
    endloop
  endfacet
  facet normal 1 0 0
    outer loop
      vertex 76.8 69.2208 17.3799
      vertex 76.8 69.2208 1.12006
      vertex 76.8 71.1084 -0.579556
    endloop
  endfacet
  facet normal 1 -0 0
    outer loop
      vertex 76.8 67.7278 15.325
      vertex 76.8 69.2208 1.12006
      vertex 76.8 69.2208 17.3799
    endloop
  endfacet
  facet normal 1 0 0
    outer loop
      vertex 76.8 67.7278 15.325
      vertex 76.8 67.7278 3.175
      vertex 76.8 69.2208 1.12006
    endloop
  endfacet
  facet normal 1 -0 0
    outer loop
      vertex 76.8 66.6947 13.0046
      vertex 76.8 67.7278 3.175
      vertex 76.8 67.7278 15.325
    endloop
  endfacet
  facet normal 1 0 0
    outer loop
      vertex 76.8 66.6947 13.0046
      vertex 76.8 66.6947 5.49544
      vertex 76.8 67.7278 3.175
    endloop
  endfacet
  facet normal 1 -0 0
    outer loop
      vertex 76.8 66.1666 10.52
      vertex 76.8 66.6947 5.49544
      vertex 76.8 66.6947 13.0046
    endloop
  endfacet
  facet normal 1 0 0
    outer loop
      vertex 76.8 66.6947 5.49544
      vertex 76.8 66.1666 10.52
      vertex 76.8 66.1666 7.97998
    endloop
  endfacet
  facet normal 0 -0.309018 -0.951056
    outer loop
      vertex 45 73.3082 -1.84958
      vertex 76.8 75.7239 -2.63449
      vertex 76.8 73.3082 -1.84958
    endloop
  endfacet
  facet normal -0 -0.309018 -0.951056
    outer loop
      vertex 76.8 75.7239 -2.63449
      vertex 45 73.3082 -1.84958
      vertex 45 75.7239 -2.63449
    endloop
  endfacet
  facet normal 0 -0.499991 -0.866031
    outer loop
      vertex 45 71.1084 -0.579556
      vertex 76.8 73.3082 -1.84958
      vertex 76.8 71.1084 -0.579556
    endloop
  endfacet
  facet normal -0 -0.499991 -0.866031
    outer loop
      vertex 76.8 73.3082 -1.84958
      vertex 45 71.1084 -0.579556
      vertex 45 73.3082 -1.84958
    endloop
  endfacet
  facet normal 0 -0.669152 0.743126
    outer loop
      vertex 46 71.1084 19.0796
      vertex 76.8 69.2208 17.3799
      vertex 76.8 71.1084 19.0796
    endloop
  endfacet
  facet normal 0 -0.669152 0.743126
    outer loop
      vertex 76.8 69.2208 17.3799
      vertex 46 71.1084 19.0796
      vertex 46 69.2208 17.3799
    endloop
  endfacet
  facet normal 0 -1 0
    outer loop
      vertex 46 66.1666 7.97998
      vertex 76.8 66.1666 10.52
      vertex 46 66.1666 10.52
    endloop
  endfacet
  facet normal 0 -1 -0
    outer loop
      vertex 76.8 66.1666 10.52
      vertex 46 66.1666 7.97998
      vertex 76.8 66.1666 7.97998
    endloop
  endfacet
  facet normal 0 -0.809012 0.587792
    outer loop
      vertex 46 67.7278 15.325
      vertex 76.8 69.2208 17.3799
      vertex 46 69.2208 17.3799
    endloop
  endfacet
  facet normal 0 -0.809012 0.587792
    outer loop
      vertex 76.8 69.2208 17.3799
      vertex 46 67.7278 15.325
      vertex 76.8 67.7278 15.325
    endloop
  endfacet
  facet normal 0 0.809012 0.587792
    outer loop
      vertex 76.8 88.7722 15.325
      vertex 46 87.2792 17.3799
      vertex 76.8 87.2792 17.3799
    endloop
  endfacet
  facet normal 0 0.809012 0.587792
    outer loop
      vertex 46 87.2792 17.3799
      vertex 76.8 88.7722 15.325
      vertex 46 88.7722 15.325
    endloop
  endfacet
  facet normal 0 -0.309014 0.951058
    outer loop
      vertex 46 75.7239 21.1345
      vertex 76.8 73.3082 20.3496
      vertex 76.8 75.7239 21.1345
    endloop
  endfacet
  facet normal 0 -0.309014 0.951058
    outer loop
      vertex 76.8 73.3082 20.3496
      vertex 46 75.7239 21.1345
      vertex 46 73.3082 20.3496
    endloop
  endfacet
  facet normal 0 0.978149 0.207905
    outer loop
      vertex 76.8 90.3334 10.52
      vertex 46 89.8053 13.0046
      vertex 76.8 89.8053 13.0046
    endloop
  endfacet
  facet normal 0 0.978149 0.207905
    outer loop
      vertex 46 89.8053 13.0046
      vertex 76.8 90.3334 10.52
      vertex 46 90.3334 10.52
    endloop
  endfacet
  facet normal 0 -0.978149 0.207905
    outer loop
      vertex 46 66.1666 10.52
      vertex 76.8 66.6947 13.0046
      vertex 46 66.6947 13.0046
    endloop
  endfacet
  facet normal 0 -0.978149 0.207905
    outer loop
      vertex 76.8 66.6947 13.0046
      vertex 46 66.1666 10.52
      vertex 76.8 66.1666 10.52
    endloop
  endfacet
  facet normal -0 0.309014 0.951058
    outer loop
      vertex 46 83.1918 20.3496
      vertex 76.8 80.7761 21.1345
      vertex 76.8 83.1918 20.3496
    endloop
  endfacet
  facet normal 0 0.309014 0.951058
    outer loop
      vertex 76.8 80.7761 21.1345
      vertex 46 83.1918 20.3496
      vertex 46 80.7761 21.1345
    endloop
  endfacet
  facet normal 0 -0.104527 0.994522
    outer loop
      vertex 46 78.25 21.4
      vertex 76.8 75.7239 21.1345
      vertex 76.8 78.25 21.4
    endloop
  endfacet
  facet normal 0 -0.104527 0.994522
    outer loop
      vertex 76.8 75.7239 21.1345
      vertex 46 78.25 21.4
      vertex 46 75.7239 21.1345
    endloop
  endfacet
  facet normal -0.951054 -0.309025 0
    outer loop
      vertex 12.1325 71.0573 24.85
      vertex 11.55 72.85 40.65
      vertex 11.55 72.85 24.85
    endloop
  endfacet
  facet normal -0.951054 -0.309025 0
    outer loop
      vertex 11.55 72.85 40.65
      vertex 12.1325 71.0573 24.85
      vertex 12.1325 71.0573 40.65
    endloop
  endfacet
  facet normal 0.587793 0.809011 -0
    outer loop
      vertex 17.0675 74.6427 24.85
      vertex 15.5425 75.7507 40.65
      vertex 17.0675 74.6427 40.65
    endloop
  endfacet
  facet normal 0.587793 0.809011 0
    outer loop
      vertex 15.5425 75.7507 40.65
      vertex 17.0675 74.6427 24.85
      vertex 15.5425 75.7507 24.85
    endloop
  endfacet
  facet normal 0.951054 0.309025 0
    outer loop
      vertex 17.65 72.85 40.65
      vertex 17.0675 74.6427 24.85
      vertex 17.0675 74.6427 40.65
    endloop
  endfacet
  facet normal 0.951054 0.309025 0
    outer loop
      vertex 17.0675 74.6427 24.85
      vertex 17.65 72.85 40.65
      vertex 17.65 72.85 24.85
    endloop
  endfacet
  facet normal 0 1 -0
    outer loop
      vertex 15.5425 75.7507 24.85
      vertex 13.6575 75.7507 40.65
      vertex 15.5425 75.7507 40.65
    endloop
  endfacet
  facet normal 0 1 0
    outer loop
      vertex 13.6575 75.7507 40.65
      vertex 15.5425 75.7507 24.85
      vertex 13.6575 75.7507 24.85
    endloop
  endfacet
  facet normal 0.587793 -0.809011 0
    outer loop
      vertex 15.5425 69.9493 24.85
      vertex 17.0675 71.0573 40.65
      vertex 15.5425 69.9493 40.65
    endloop
  endfacet
  facet normal 0.587793 -0.809011 0
    outer loop
      vertex 17.0675 71.0573 40.65
      vertex 15.5425 69.9493 24.85
      vertex 17.0675 71.0573 24.85
    endloop
  endfacet
  facet normal 0 0 1
    outer loop
      vertex 17.0675 74.6427 40.65
      vertex 17.0675 71.0573 40.65
      vertex 17.65 72.85 40.65
    endloop
  endfacet
  facet normal 0 0 1
    outer loop
      vertex 15.5425 75.7507 40.65
      vertex 17.0675 71.0573 40.65
      vertex 17.0675 74.6427 40.65
    endloop
  endfacet
  facet normal 0 0 1
    outer loop
      vertex 15.5425 75.7507 40.65
      vertex 15.5425 69.9493 40.65
      vertex 17.0675 71.0573 40.65
    endloop
  endfacet
  facet normal -0 0 1
    outer loop
      vertex 13.6575 75.7507 40.65
      vertex 15.5425 69.9493 40.65
      vertex 15.5425 75.7507 40.65
    endloop
  endfacet
  facet normal 0 0 1
    outer loop
      vertex 13.6575 75.7507 40.65
      vertex 13.6575 69.9493 40.65
      vertex 15.5425 69.9493 40.65
    endloop
  endfacet
  facet normal -0 0 1
    outer loop
      vertex 12.1325 74.6427 40.65
      vertex 13.6575 69.9493 40.65
      vertex 13.6575 75.7507 40.65
    endloop
  endfacet
  facet normal 0 0 1
    outer loop
      vertex 12.1325 74.6427 40.65
      vertex 12.1325 71.0573 40.65
      vertex 13.6575 69.9493 40.65
    endloop
  endfacet
  facet normal 0 -0 1
    outer loop
      vertex 12.1325 71.0573 40.65
      vertex 12.1325 74.6427 40.65
      vertex 11.55 72.85 40.65
    endloop
  endfacet
  facet normal -0.587793 -0.809011 0
    outer loop
      vertex 12.1325 71.0573 24.85
      vertex 13.6575 69.9493 40.65
      vertex 12.1325 71.0573 40.65
    endloop
  endfacet
  facet normal -0.587793 -0.809011 -0
    outer loop
      vertex 13.6575 69.9493 40.65
      vertex 12.1325 71.0573 24.85
      vertex 13.6575 69.9493 24.85
    endloop
  endfacet
  facet normal 0.951054 -0.309025 0
    outer loop
      vertex 17.0675 71.0573 40.65
      vertex 17.65 72.85 24.85
      vertex 17.65 72.85 40.65
    endloop
  endfacet
  facet normal 0.951054 -0.309025 0
    outer loop
      vertex 17.65 72.85 24.85
      vertex 17.0675 71.0573 40.65
      vertex 17.0675 71.0573 24.85
    endloop
  endfacet
  facet normal -0.587793 0.809011 0
    outer loop
      vertex 13.6575 75.7507 24.85
      vertex 12.1325 74.6427 40.65
      vertex 13.6575 75.7507 40.65
    endloop
  endfacet
  facet normal -0.587793 0.809011 0
    outer loop
      vertex 12.1325 74.6427 40.65
      vertex 13.6575 75.7507 24.85
      vertex 12.1325 74.6427 24.85
    endloop
  endfacet
  facet normal 0 -1 0
    outer loop
      vertex 13.6575 69.9493 24.85
      vertex 15.5425 69.9493 40.65
      vertex 13.6575 69.9493 40.65
    endloop
  endfacet
  facet normal 0 -1 -0
    outer loop
      vertex 15.5425 69.9493 40.65
      vertex 13.6575 69.9493 24.85
      vertex 15.5425 69.9493 24.85
    endloop
  endfacet
  facet normal -0.951054 0.309025 0
    outer loop
      vertex 11.55 72.85 24.85
      vertex 12.1325 74.6427 40.65
      vertex 12.1325 74.6427 24.85
    endloop
  endfacet
  facet normal -0.951054 0.309025 0
    outer loop
      vertex 12.1325 74.6427 40.65
      vertex 11.55 72.85 24.85
      vertex 11.55 72.85 40.65
    endloop
  endfacet
  facet normal 0 0 -1
    outer loop
      vertex 17.0675 71.0573 24.85
      vertex 17.0675 74.6427 24.85
      vertex 17.65 72.85 24.85
    endloop
  endfacet
  facet normal 0 0 -1
    outer loop
      vertex 15.5425 69.9493 24.85
      vertex 17.0675 74.6427 24.85
      vertex 17.0675 71.0573 24.85
    endloop
  endfacet
  facet normal 0 0 -1
    outer loop
      vertex 15.5425 69.9493 24.85
      vertex 15.5425 75.7507 24.85
      vertex 17.0675 74.6427 24.85
    endloop
  endfacet
  facet normal 0 0 -1
    outer loop
      vertex 13.6575 69.9493 24.85
      vertex 15.5425 75.7507 24.85
      vertex 15.5425 69.9493 24.85
    endloop
  endfacet
  facet normal 0 0 -1
    outer loop
      vertex 13.6575 69.9493 24.85
      vertex 13.6575 75.7507 24.85
      vertex 15.5425 75.7507 24.85
    endloop
  endfacet
  facet normal 0 0 -1
    outer loop
      vertex 12.1325 71.0573 24.85
      vertex 13.6575 75.7507 24.85
      vertex 13.6575 69.9493 24.85
    endloop
  endfacet
  facet normal 0 0 -1
    outer loop
      vertex 12.1325 71.0573 24.85
      vertex 12.1325 74.6427 24.85
      vertex 13.6575 75.7507 24.85
    endloop
  endfacet
  facet normal 0 -0 -1
    outer loop
      vertex 12.1325 74.6427 24.85
      vertex 12.1325 71.0573 24.85
      vertex 11.55 72.85 24.85
    endloop
  endfacet
  facet normal -1 0 0
    outer loop
      vertex 51.46 37.219 5
      vertex 51.46 35.6368 13.0598
      vertex 51.46 37.219 18
    endloop
  endfacet
  facet normal -1 0 0
    outer loop
      vertex 51.46 37.219 5
      vertex 51.46 35.1034 10.5504
      vertex 51.46 35.6368 13.0598
    endloop
  endfacet
  facet normal -1 0 0
    outer loop
      vertex 51.46 37.219 5
      vertex 51.46 34.0599 8.20675
      vertex 51.46 35.1034 10.5504
    endloop
  endfacet
  facet normal -1 0 0
    outer loop
      vertex 51.46 37.219 5
      vertex 51.46 32.552 6.13126
      vertex 51.46 34.0599 8.20675
    endloop
  endfacet
  facet normal -1 0 -0
    outer loop
      vertex 51.46 32.552 6.13126
      vertex 51.46 37.219 5
      vertex 51.46 31.2956 5
    endloop
  endfacet
  facet normal -1 0 0
    outer loop
      vertex 51.46 35.6368 15.6252
      vertex 51.46 37.219 18
      vertex 51.46 35.6368 13.0598
    endloop
  endfacet
  facet normal -1 -0 0
    outer loop
      vertex 51.46 37.219 18
      vertex 51.46 35.6368 15.6252
      vertex 51.46 35.132 18
    endloop
  endfacet
  facet normal -1 0 0
    outer loop
      vertex 51.46 5 18
      vertex 51.46 11.2282 13.0598
      vertex 51.46 5 5
    endloop
  endfacet
  facet normal -1 -0 0
    outer loop
      vertex 51.46 11.7616 10.5504
      vertex 51.46 5 5
      vertex 51.46 11.2282 13.0598
    endloop
  endfacet
  facet normal -1 -0 0
    outer loop
      vertex 51.46 12.8051 8.20675
      vertex 51.46 5 5
      vertex 51.46 11.7616 10.5504
    endloop
  endfacet
  facet normal -1 -0 0
    outer loop
      vertex 51.46 14.313 6.13126
      vertex 51.46 5 5
      vertex 51.46 12.8051 8.20675
    endloop
  endfacet
  facet normal -1 0 0
    outer loop
      vertex 51.46 5 5
      vertex 51.46 14.313 6.13126
      vertex 51.46 15.5694 5
    endloop
  endfacet
  facet normal -1 0 0
    outer loop
      vertex 51.46 11.2282 13.0598
      vertex 51.46 5 18
      vertex 51.46 11.2282 15.6252
    endloop
  endfacet
  facet normal -1 0 0
    outer loop
      vertex 51.46 11.2282 15.6252
      vertex 51.46 5 18
      vertex 51.46 11.733 18
    endloop
  endfacet
  facet normal 0 0 1
    outer loop
      vertex 51.46 37.219 5
      vertex 50.45 31.2956 5
      vertex 51.46 31.2956 5
    endloop
  endfacet
  facet normal 0 0 1
    outer loop
      vertex 50.45 31.2956 5
      vertex 5 37.219 5
      vertex 50.45 15.5694 5
    endloop
  endfacet
  facet normal -0 0 1
    outer loop
      vertex 5 37.219 5
      vertex 50.45 31.2956 5
      vertex 51.46 37.219 5
    endloop
  endfacet
  facet normal -0 0 1
    outer loop
      vertex 50.45 15.5694 5
      vertex 51.46 5 5
      vertex 51.46 15.5694 5
    endloop
  endfacet
  facet normal 0 0 1
    outer loop
      vertex 5 5 5
      vertex 50.45 15.5694 5
      vertex 5 37.219 5
    endloop
  endfacet
  facet normal 0 0 1
    outer loop
      vertex 50.45 15.5694 5
      vertex 5 5 5
      vertex 51.46 5 5
    endloop
  endfacet
  facet normal 1 -0 0
    outer loop
      vertex 5 5 27
      vertex 5 37.219 5
      vertex 5 37.219 27
    endloop
  endfacet
  facet normal 1 0 0
    outer loop
      vertex 5 37.219 5
      vertex 5 5 27
      vertex 5 5 5
    endloop
  endfacet
  facet normal 0 -1 0
    outer loop
      vertex 5 37.219 27
      vertex 51 37.219 18
      vertex 51 37.219 27
    endloop
  endfacet
  facet normal 0 -1 0
    outer loop
      vertex 5 37.219 5
      vertex 51 37.219 18
      vertex 5 37.219 27
    endloop
  endfacet
  facet normal 0 -1 0
    outer loop
      vertex 51.46 37.219 5
      vertex 51 37.219 18
      vertex 5 37.219 5
    endloop
  endfacet
  facet normal 0 -1 0
    outer loop
      vertex 51 37.219 18
      vertex 51.46 37.219 5
      vertex 51.46 37.219 18
    endloop
  endfacet
  facet normal 0 1 0
    outer loop
      vertex 51.46 5 18
      vertex 51.46 5 5
      vertex 51 5 18
    endloop
  endfacet
  facet normal 0 1 -0
    outer loop
      vertex 51 5 18
      vertex 5 5 27
      vertex 51 5 27
    endloop
  endfacet
  facet normal 0 1 0
    outer loop
      vertex 5 5 5
      vertex 51 5 18
      vertex 51.46 5 5
    endloop
  endfacet
  facet normal 0 1 0
    outer loop
      vertex 51 5 18
      vertex 5 5 5
      vertex 5 5 27
    endloop
  endfacet
  facet normal 0 0.978147 0.207916
    outer loop
      vertex 80 11.7616 10.5504
      vertex 51.46 11.2282 13.0598
      vertex 80 11.2282 13.0598
    endloop
  endfacet
  facet normal 0 0.978147 0.207916
    outer loop
      vertex 51.46 11.2282 13.0598
      vertex 80 11.7616 10.5504
      vertex 51.46 11.7616 10.5504
    endloop
  endfacet
  facet normal 0 -0.500006 0.866022
    outer loop
      vertex 50.45 30.6455 4.41465
      vertex 80 28.4238 3.13193
      vertex 80 30.6455 4.41465
    endloop
  endfacet
  facet normal 0 -0.500006 0.866022
    outer loop
      vertex 80 28.4238 3.13193
      vertex 50.45 30.6455 4.41465
      vertex 50.45 28.4238 3.13193
    endloop
  endfacet
  facet normal 0 -0.809023 0.587777
    outer loop
      vertex 51.46 32.552 6.13126
      vertex 80 34.0599 8.20675
      vertex 51.46 34.0599 8.20675
    endloop
  endfacet
  facet normal 0 -0.809023 0.587777
    outer loop
      vertex 80 34.0599 8.20675
      vertex 51.46 32.552 6.13126
      vertex 80 32.552 6.13126
    endloop
  endfacet
  facet normal 0 -0.104527 0.994522
    outer loop
      vertex 50.45 25.9839 2.33916
      vertex 80 23.4325 2.071
      vertex 80 25.9839 2.33916
    endloop
  endfacet
  facet normal 0 -0.104527 0.994522
    outer loop
      vertex 80 23.4325 2.071
      vertex 50.45 25.9839 2.33916
      vertex 50.45 23.4325 2.071
    endloop
  endfacet
  facet normal 0 0.91354 0.40675
    outer loop
      vertex 80 12.8051 8.20675
      vertex 51.46 11.7616 10.5504
      vertex 80 11.7616 10.5504
    endloop
  endfacet
  facet normal 0 0.91354 0.40675
    outer loop
      vertex 51.46 11.7616 10.5504
      vertex 80 12.8051 8.20675
      vertex 51.46 12.8051 8.20675
    endloop
  endfacet
  facet normal 0 -0.91354 0.40675
    outer loop
      vertex 51.46 34.0599 8.20675
      vertex 80 35.1034 10.5504
      vertex 51.46 35.1034 10.5504
    endloop
  endfacet
  facet normal 0 -0.91354 0.40675
    outer loop
      vertex 80 35.1034 10.5504
      vertex 51.46 34.0599 8.20675
      vertex 80 34.0599 8.20675
    endloop
  endfacet
  facet normal 0 -0.669128 0.743147
    outer loop
      vertex 51.46 31.2956 5
      vertex 80 32.552 6.13126
      vertex 51.46 32.552 6.13126
    endloop
  endfacet
  facet normal 2.20438e-08 -0.669128 0.743147
    outer loop
      vertex 80 32.552 6.13126
      vertex 51.46 31.2956 5
      vertex 80 30.6455 4.41465
    endloop
  endfacet
  facet normal 0 -0.669129 0.743146
    outer loop
      vertex 50.45 30.6455 4.41465
      vertex 51.46 31.2956 5
      vertex 50.45 31.2956 5
    endloop
  endfacet
  facet normal 0 -0.669129 0.743146
    outer loop
      vertex 51.46 31.2956 5
      vertex 50.45 30.6455 4.41465
      vertex 80 30.6455 4.41465
    endloop
  endfacet
  facet normal 2.20438e-08 0.669128 0.743147
    outer loop
      vertex 80 16.2195 4.41465
      vertex 51.46 15.5694 5
      vertex 80 14.313 6.13126
    endloop
  endfacet
  facet normal -0 0.669129 0.743146
    outer loop
      vertex 50.45 16.2195 4.41465
      vertex 51.46 15.5694 5
      vertex 80 16.2195 4.41465
    endloop
  endfacet
  facet normal 0 0.669129 0.743146
    outer loop
      vertex 51.46 15.5694 5
      vertex 50.45 16.2195 4.41465
      vertex 50.45 15.5694 5
    endloop
  endfacet
  facet normal 0 0.669128 0.743147
    outer loop
      vertex 80 14.313 6.13126
      vertex 51.46 15.5694 5
      vertex 51.46 14.313 6.13126
    endloop
  endfacet
  facet normal 0 -0.978147 0.207916
    outer loop
      vertex 51.46 35.1034 10.5504
      vertex 80 35.6368 13.0598
      vertex 51.46 35.6368 13.0598
    endloop
  endfacet
  facet normal 0 -0.978147 0.207916
    outer loop
      vertex 80 35.6368 13.0598
      vertex 51.46 35.1034 10.5504
      vertex 80 35.1034 10.5504
    endloop
  endfacet
  facet normal 0 -1 0
    outer loop
      vertex 51.46 35.6368 13.0598
      vertex 80 35.6368 15.6252
      vertex 51.46 35.6368 15.6252
    endloop
  endfacet
  facet normal 0 -1 -0
    outer loop
      vertex 80 35.6368 15.6252
      vertex 51.46 35.6368 13.0598
      vertex 80 35.6368 13.0598
    endloop
  endfacet
  facet normal 0 0.809023 0.587777
    outer loop
      vertex 80 14.313 6.13126
      vertex 51.46 12.8051 8.20675
      vertex 80 12.8051 8.20675
    endloop
  endfacet
  facet normal 0 0.809023 0.587777
    outer loop
      vertex 51.46 12.8051 8.20675
      vertex 80 14.313 6.13126
      vertex 51.46 14.313 6.13126
    endloop
  endfacet
  facet normal 1 0 0
    outer loop
      vertex 50.45 31.2956 5
      vertex 50.45 28.4238 3.13193
      vertex 50.45 30.6455 4.41465
    endloop
  endfacet
  facet normal 1 0 0
    outer loop
      vertex 50.45 31.2956 5
      vertex 50.45 25.9839 2.33916
      vertex 50.45 28.4238 3.13193
    endloop
  endfacet
  facet normal 1 0 0
    outer loop
      vertex 50.45 31.2956 5
      vertex 50.45 23.4325 2.071
      vertex 50.45 25.9839 2.33916
    endloop
  endfacet
  facet normal 1 0 0
    outer loop
      vertex 50.45 31.2956 5
      vertex 50.45 20.8811 2.33916
      vertex 50.45 23.4325 2.071
    endloop
  endfacet
  facet normal 1 -0 0
    outer loop
      vertex 50.45 15.5694 5
      vertex 50.45 20.8811 2.33916
      vertex 50.45 31.2956 5
    endloop
  endfacet
  facet normal 1 0 0
    outer loop
      vertex 50.45 20.8811 2.33916
      vertex 50.45 15.5694 5
      vertex 50.45 18.4412 3.13193
    endloop
  endfacet
  facet normal 1 0 0
    outer loop
      vertex 50.45 18.4412 3.13193
      vertex 50.45 15.5694 5
      vertex 50.45 16.2195 4.41465
    endloop
  endfacet
  facet normal -0 0.104527 0.994522
    outer loop
      vertex 50.45 23.4325 2.071
      vertex 80 20.8811 2.33916
      vertex 80 23.4325 2.071
    endloop
  endfacet
  facet normal 0 0.104527 0.994522
    outer loop
      vertex 80 20.8811 2.33916
      vertex 50.45 23.4325 2.071
      vertex 50.45 20.8811 2.33916
    endloop
  endfacet
  facet normal 0 -0.309016 0.951057
    outer loop
      vertex 50.45 28.4238 3.13193
      vertex 80 25.9839 2.33916
      vertex 80 28.4238 3.13193
    endloop
  endfacet
  facet normal 0 -0.309016 0.951057
    outer loop
      vertex 80 25.9839 2.33916
      vertex 50.45 28.4238 3.13193
      vertex 50.45 25.9839 2.33916
    endloop
  endfacet
  facet normal -0 0.309016 0.951057
    outer loop
      vertex 50.45 20.8811 2.33916
      vertex 80 18.4412 3.13193
      vertex 80 20.8811 2.33916
    endloop
  endfacet
  facet normal 0 0.309016 0.951057
    outer loop
      vertex 80 18.4412 3.13193
      vertex 50.45 20.8811 2.33916
      vertex 50.45 18.4412 3.13193
    endloop
  endfacet
  facet normal -0 0.500006 0.866022
    outer loop
      vertex 50.45 18.4412 3.13193
      vertex 80 16.2195 4.41465
      vertex 80 18.4412 3.13193
    endloop
  endfacet
  facet normal 0 0.500006 0.866022
    outer loop
      vertex 80 16.2195 4.41465
      vertex 50.45 18.4412 3.13193
      vertex 50.45 16.2195 4.41465
    endloop
  endfacet
  facet normal 0 1 -0
    outer loop
      vertex 80 11.2282 13.0598
      vertex 51.46 11.2282 15.6252
      vertex 80 11.2282 15.6252
    endloop
  endfacet
  facet normal 0 1 0
    outer loop
      vertex 51.46 11.2282 15.6252
      vertex 80 11.2282 13.0598
      vertex 51.46 11.2282 13.0598
    endloop
  endfacet
  facet normal 0 -0.978146 -0.20792
    outer loop
      vertex 51.46 35.6368 15.6252
      vertex 80 35.132 18
      vertex 51.46 35.132 18
    endloop
  endfacet
  facet normal 0 -0.978146 -0.20792
    outer loop
      vertex 80 35.132 18
      vertex 51.46 35.6368 15.6252
      vertex 80 35.6368 15.6252
    endloop
  endfacet
  facet normal 0 0.978146 -0.20792
    outer loop
      vertex 80 11.2282 15.6252
      vertex 51.46 11.733 18
      vertex 80 11.733 18
    endloop
  endfacet
  facet normal 0 0.978146 -0.20792
    outer loop
      vertex 51.46 11.733 18
      vertex 80 11.2282 15.6252
      vertex 51.46 11.2282 15.6252
    endloop
  endfacet
  facet normal 1 0 0
    outer loop
      vertex 80 11.2282 15.6252
      vertex 80 0 18
      vertex 80 11.2282 13.0598
    endloop
  endfacet
  facet normal 1 -0 0
    outer loop
      vertex 80 0 18
      vertex 80 11.2282 15.6252
      vertex 80 11.733 18
    endloop
  endfacet
  facet normal 1 0 0
    outer loop
      vertex 80 35.6368 13.0598
      vertex 80 45 18
      vertex 80 35.6368 15.6252
    endloop
  endfacet
  facet normal 1 0 -0
    outer loop
      vertex 80 35.6368 15.6252
      vertex 80 45 18
      vertex 80 35.132 18
    endloop
  endfacet
  facet normal 1 0 0
    outer loop
      vertex 80 35.1034 10.5504
      vertex 80 45 18
      vertex 80 35.6368 13.0598
    endloop
  endfacet
  facet normal 1 0 0
    outer loop
      vertex 80 45 18
      vertex 80 35.1034 10.5504
      vertex 80 45 0
    endloop
  endfacet
  facet normal 1 -0 0
    outer loop
      vertex 80 34.0599 8.20675
      vertex 80 45 0
      vertex 80 35.1034 10.5504
    endloop
  endfacet
  facet normal 1 -0 0
    outer loop
      vertex 80 32.552 6.13126
      vertex 80 45 0
      vertex 80 34.0599 8.20675
    endloop
  endfacet
  facet normal 1 -0 0
    outer loop
      vertex 80 30.6455 4.41465
      vertex 80 45 0
      vertex 80 32.552 6.13126
    endloop
  endfacet
  facet normal 1 -0 0
    outer loop
      vertex 80 28.4238 3.13193
      vertex 80 45 0
      vertex 80 30.6455 4.41465
    endloop
  endfacet
  facet normal 1 -0 0
    outer loop
      vertex 80 25.9839 2.33916
      vertex 80 45 0
      vertex 80 28.4238 3.13193
    endloop
  endfacet
  facet normal 1 -0 0
    outer loop
      vertex 80 23.4325 2.071
      vertex 80 45 0
      vertex 80 25.9839 2.33916
    endloop
  endfacet
  facet normal 1 0 0
    outer loop
      vertex 80 0 18
      vertex 80 11.7616 10.5504
      vertex 80 11.2282 13.0598
    endloop
  endfacet
  facet normal 1 0 0
    outer loop
      vertex 80 0 0
      vertex 80 11.7616 10.5504
      vertex 80 0 18
    endloop
  endfacet
  facet normal 1 0 0
    outer loop
      vertex 80 11.7616 10.5504
      vertex 80 0 0
      vertex 80 12.8051 8.20675
    endloop
  endfacet
  facet normal 1 0 0
    outer loop
      vertex 80 12.8051 8.20675
      vertex 80 0 0
      vertex 80 14.313 6.13126
    endloop
  endfacet
  facet normal 1 0 0
    outer loop
      vertex 80 23.4325 2.071
      vertex 80 0 0
      vertex 80 45 0
    endloop
  endfacet
  facet normal 1 0 0
    outer loop
      vertex 80 20.8811 2.33916
      vertex 80 0 0
      vertex 80 23.4325 2.071
    endloop
  endfacet
  facet normal 1 0 0
    outer loop
      vertex 80 18.4412 3.13193
      vertex 80 0 0
      vertex 80 20.8811 2.33916
    endloop
  endfacet
  facet normal 1 0 0
    outer loop
      vertex 80 16.2195 4.41465
      vertex 80 0 0
      vertex 80 18.4412 3.13193
    endloop
  endfacet
  facet normal 1 0 0
    outer loop
      vertex 80 14.313 6.13126
      vertex 80 0 0
      vertex 80 16.2195 4.41465
    endloop
  endfacet
  facet normal 0 0 1
    outer loop
      vertex 51 45 27
      vertex 5 37.219 27
      vertex 51 37.219 27
    endloop
  endfacet
  facet normal 0 0 1
    outer loop
      vertex 0 0 27
      vertex 5 37.219 27
      vertex 0 45 27
    endloop
  endfacet
  facet normal -0 0 1
    outer loop
      vertex 0 45 27
      vertex 5 37.219 27
      vertex 51 45 27
    endloop
  endfacet
  facet normal -0 0 1
    outer loop
      vertex 5 5 27
      vertex 51 0 27
      vertex 51 5 27
    endloop
  endfacet
  facet normal 0 0 1
    outer loop
      vertex 5 5 27
      vertex 0 0 27
      vertex 51 0 27
    endloop
  endfacet
  facet normal 0 0 1
    outer loop
      vertex 5 37.219 27
      vertex 0 0 27
      vertex 5 5 27
    endloop
  endfacet
  facet normal 0 0 -1
    outer loop
      vertex 0 0 0
      vertex 80 45 0
      vertex 80 0 0
    endloop
  endfacet
  facet normal -0 0 -1
    outer loop
      vertex 80 45 0
      vertex 0 0 0
      vertex 0 45 0
    endloop
  endfacet
  facet normal -1 0 0
    outer loop
      vertex 0 0 0
      vertex 0 45 27
      vertex 0 45 0
    endloop
  endfacet
  facet normal -1 -0 0
    outer loop
      vertex 0 45 27
      vertex 0 0 0
      vertex 0 0 27
    endloop
  endfacet
  facet normal 0 1 0
    outer loop
      vertex 80 45 18
      vertex 80 45 0
      vertex 51 45 18
    endloop
  endfacet
  facet normal 0 1 -0
    outer loop
      vertex 51 45 18
      vertex 0 45 27
      vertex 51 45 27
    endloop
  endfacet
  facet normal 0 1 0
    outer loop
      vertex 0 45 0
      vertex 51 45 18
      vertex 80 45 0
    endloop
  endfacet
  facet normal 0 1 0
    outer loop
      vertex 51 45 18
      vertex 0 45 0
      vertex 0 45 27
    endloop
  endfacet
  facet normal 0 -1 0
    outer loop
      vertex 0 0 27
      vertex 51 0 18
      vertex 51 0 27
    endloop
  endfacet
  facet normal 0 -1 0
    outer loop
      vertex 0 0 0
      vertex 51 0 18
      vertex 0 0 27
    endloop
  endfacet
  facet normal 0 -1 0
    outer loop
      vertex 80 0 0
      vertex 51 0 18
      vertex 0 0 0
    endloop
  endfacet
  facet normal 0 -1 0
    outer loop
      vertex 51 0 18
      vertex 80 0 0
      vertex 80 0 18
    endloop
  endfacet
  facet normal 0 0 1
    outer loop
      vertex 80 45 18
      vertex 51.46 37.219 18
      vertex 80 35.132 18
    endloop
  endfacet
  facet normal -0 0 1
    outer loop
      vertex 51 45 18
      vertex 51.46 37.219 18
      vertex 80 45 18
    endloop
  endfacet
  facet normal 0 0 1
    outer loop
      vertex 51.46 37.219 18
      vertex 51 45 18
      vertex 51 37.219 18
    endloop
  endfacet
  facet normal 0 0 1
    outer loop
      vertex 80 35.132 18
      vertex 51.46 37.219 18
      vertex 51.46 35.132 18
    endloop
  endfacet
  facet normal 0 0 1
    outer loop
      vertex 51.46 5 18
      vertex 80 11.733 18
      vertex 51.46 11.733 18
    endloop
  endfacet
  facet normal 0 0 1
    outer loop
      vertex 80 11.733 18
      vertex 51.46 5 18
      vertex 80 0 18
    endloop
  endfacet
  facet normal 0 0 1
    outer loop
      vertex 51 0 18
      vertex 51.46 5 18
      vertex 51 5 18
    endloop
  endfacet
  facet normal 0 0 1
    outer loop
      vertex 51.46 5 18
      vertex 51 0 18
      vertex 80 0 18
    endloop
  endfacet
  facet normal 1 -0 0
    outer loop
      vertex 51 37.219 27
      vertex 51 45 18
      vertex 51 45 27
    endloop
  endfacet
  facet normal 1 0 0
    outer loop
      vertex 51 45 18
      vertex 51 37.219 27
      vertex 51 37.219 18
    endloop
  endfacet
  facet normal 1 -0 0
    outer loop
      vertex 51 0 27
      vertex 51 5 18
      vertex 51 5 27
    endloop
  endfacet
  facet normal 1 0 0
    outer loop
      vertex 51 5 18
      vertex 51 0 27
      vertex 51 0 18
    endloop
  endfacet
endsolid OpenSCAD_Model
