solid OpenSCAD_Model
  facet normal 1 -0 0
    outer loop
      vertex 5.05 0 5.2
      vertex 5.05 70 0
      vertex 5.05 70 5.2
    endloop
  endfacet
  facet normal 1 0 0
    outer loop
      vertex 5.05 70 0
      vertex 5.05 0 5.2
      vertex 5.05 0 0
    endloop
  endfacet
  facet normal -0 0 1
    outer loop
      vertex 1.25 25.5 5.2
      vertex 3.15 22.5 5.2
      vertex 3.15 25.5 5.2
    endloop
  endfacet
  facet normal 0 0 1
    outer loop
      vertex 3.15 22.5 5.2
      vertex 1.25 25.5 5.2
      vertex 1.25 22.5 5.2
    endloop
  endfacet
  facet normal -0 0 1
    outer loop
      vertex 1.25 50.5 5.2
      vertex 3.15 47.5 5.2
      vertex 3.15 50.5 5.2
    endloop
  endfacet
  facet normal 0 0 1
    outer loop
      vertex 3.15 47.5 5.2
      vertex 1.25 50.5 5.2
      vertex 1.25 47.5 5.2
    endloop
  endfacet
  facet normal 0 0 1
    outer loop
      vertex 3.15 50.5 5.2
      vertex 5.05 70 5.2
      vertex 3.15 70 5.2
    endloop
  endfacet
  facet normal 0 0 1
    outer loop
      vertex 3.15 47.5 5.2
      vertex 5.05 70 5.2
      vertex 3.15 50.5 5.2
    endloop
  endfacet
  facet normal 0 0 1
    outer loop
      vertex 5.05 70 5.2
      vertex 3.15 47.5 5.2
      vertex 5.05 0 5.2
    endloop
  endfacet
  facet normal -0 0 1
    outer loop
      vertex 3.15 25.5 5.2
      vertex 5.05 0 5.2
      vertex 3.15 47.5 5.2
    endloop
  endfacet
  facet normal -0 0 1
    outer loop
      vertex 3.15 22.5 5.2
      vertex 5.05 0 5.2
      vertex 3.15 25.5 5.2
    endloop
  endfacet
  facet normal 0 0 1
    outer loop
      vertex 5.05 0 5.2
      vertex 3.15 22.5 5.2
      vertex 3.15 0 5.2
    endloop
  endfacet
  facet normal -0 0 1
    outer loop
      vertex -5.05 70 5.2
      vertex -3.15 63 5.2
      vertex -3.15 70 5.2
    endloop
  endfacet
  facet normal 0 0 1
    outer loop
      vertex -3.15 63 5.2
      vertex -5.05 70 5.2
      vertex -3.15 60 5.2
    endloop
  endfacet
  facet normal 0 0 1
    outer loop
      vertex -3.15 60 5.2
      vertex -5.05 70 5.2
      vertex -3.15 38 5.2
    endloop
  endfacet
  facet normal 0 0 1
    outer loop
      vertex -3.15 38 5.2
      vertex -5.05 70 5.2
      vertex -3.15 35 5.2
    endloop
  endfacet
  facet normal 0 0 1
    outer loop
      vertex -5.05 0 5.2
      vertex -3.15 35 5.2
      vertex -5.05 70 5.2
    endloop
  endfacet
  facet normal 0 0 1
    outer loop
      vertex -3.15 35 5.2
      vertex -5.05 0 5.2
      vertex -3.15 13 5.2
    endloop
  endfacet
  facet normal 0 0 1
    outer loop
      vertex -3.15 13 5.2
      vertex -5.05 0 5.2
      vertex -3.15 10 5.2
    endloop
  endfacet
  facet normal 0 0 1
    outer loop
      vertex -3.15 10 5.2
      vertex -5.05 0 5.2
      vertex -3.15 0 5.2
    endloop
  endfacet
  facet normal -0 0 1
    outer loop
      vertex -3.15 63 5.2
      vertex -1.25 60 5.2
      vertex -1.25 63 5.2
    endloop
  endfacet
  facet normal 0 0 1
    outer loop
      vertex -1.25 60 5.2
      vertex -3.15 63 5.2
      vertex -3.15 60 5.2
    endloop
  endfacet
  facet normal -0 0 1
    outer loop
      vertex -3.15 38 5.2
      vertex -1.25 35 5.2
      vertex -1.25 38 5.2
    endloop
  endfacet
  facet normal 0 0 1
    outer loop
      vertex -1.25 35 5.2
      vertex -3.15 38 5.2
      vertex -3.15 35 5.2
    endloop
  endfacet
  facet normal -0 0 1
    outer loop
      vertex -3.15 13 5.2
      vertex -1.25 10 5.2
      vertex -1.25 13 5.2
    endloop
  endfacet
  facet normal 0 0 1
    outer loop
      vertex -1.25 10 5.2
      vertex -3.15 13 5.2
      vertex -3.15 10 5.2
    endloop
  endfacet
  facet normal 0 0 -1
    outer loop
      vertex -5.05 0 0
      vertex 5.05 70 0
      vertex 5.05 0 0
    endloop
  endfacet
  facet normal -0 0 -1
    outer loop
      vertex 5.05 70 0
      vertex -5.05 0 0
      vertex -5.05 70 0
    endloop
  endfacet
  facet normal -1 0 0
    outer loop
      vertex -5.05 0 0
      vertex -5.05 70 5.2
      vertex -5.05 70 0
    endloop
  endfacet
  facet normal -1 -0 0
    outer loop
      vertex -5.05 70 5.2
      vertex -5.05 0 0
      vertex -5.05 0 5.2
    endloop
  endfacet
  facet normal 0 1 0
    outer loop
      vertex 5.05 70 5.2
      vertex 3.15 70 1.91
      vertex 3.15 70 5.2
    endloop
  endfacet
  facet normal 0 1 0
    outer loop
      vertex 3.15 70 1.91
      vertex 5.05 70 0
      vertex -3.15 70 1.91
    endloop
  endfacet
  facet normal 0 1 -0
    outer loop
      vertex 5.05 70 0
      vertex 3.15 70 1.91
      vertex 5.05 70 5.2
    endloop
  endfacet
  facet normal 0 1 -0
    outer loop
      vertex -3.15 70 1.91
      vertex -5.05 70 5.2
      vertex -3.15 70 5.2
    endloop
  endfacet
  facet normal 0 1 0
    outer loop
      vertex -3.15 70 1.91
      vertex -5.05 70 0
      vertex -5.05 70 5.2
    endloop
  endfacet
  facet normal 0 1 0
    outer loop
      vertex -5.05 70 0
      vertex -3.15 70 1.91
      vertex 5.05 70 0
    endloop
  endfacet
  facet normal 0 -1 0
    outer loop
      vertex -5.05 0 5.2
      vertex -3.15 0 1.91
      vertex -3.15 0 5.2
    endloop
  endfacet
  facet normal 0 -1 -0
    outer loop
      vertex -3.15 0 1.91
      vertex -5.05 0 0
      vertex 3.15 0 1.91
    endloop
  endfacet
  facet normal 0 -1 0
    outer loop
      vertex -5.05 0 0
      vertex -3.15 0 1.91
      vertex -5.05 0 5.2
    endloop
  endfacet
  facet normal 0 -1 0
    outer loop
      vertex 3.15 0 1.91
      vertex 5.05 0 5.2
      vertex 3.15 0 5.2
    endloop
  endfacet
  facet normal 0 -1 0
    outer loop
      vertex 3.15 0 1.91
      vertex 5.05 0 0
      vertex 5.05 0 5.2
    endloop
  endfacet
  facet normal 0 -1 0
    outer loop
      vertex 5.05 0 0
      vertex 3.15 0 1.91
      vertex -5.05 0 0
    endloop
  endfacet
  facet normal -1 0 0
    outer loop
      vertex 3.15 70 1.91
      vertex 3.15 50.5 4.3
      vertex 3.15 70 5.2
    endloop
  endfacet
  facet normal -1 0 0
    outer loop
      vertex 3.15 70 1.91
      vertex 3.15 47.5 4.3
      vertex 3.15 50.5 4.3
    endloop
  endfacet
  facet normal -1 0 0
    outer loop
      vertex 3.15 47.5 4.3
      vertex 3.15 25.5 4.3
      vertex 3.15 47.5 5.2
    endloop
  endfacet
  facet normal -1 0 0
    outer loop
      vertex 3.15 70 1.91
      vertex 3.15 25.5 4.3
      vertex 3.15 47.5 4.3
    endloop
  endfacet
  facet normal -1 0 0
    outer loop
      vertex 3.15 0 1.91
      vertex 3.15 25.5 4.3
      vertex 3.15 70 1.91
    endloop
  endfacet
  facet normal -1 -0 0
    outer loop
      vertex 3.15 25.5 4.3
      vertex 3.15 0 1.91
      vertex 3.15 22.5 4.3
    endloop
  endfacet
  facet normal -1 0 0
    outer loop
      vertex 3.15 0 5.2
      vertex 3.15 22.5 4.3
      vertex 3.15 0 1.91
    endloop
  endfacet
  facet normal -1 0 0
    outer loop
      vertex 3.15 22.5 4.3
      vertex 3.15 0 5.2
      vertex 3.15 22.5 5.2
    endloop
  endfacet
  facet normal -1 -0 0
    outer loop
      vertex 3.15 70 5.2
      vertex 3.15 50.5 4.3
      vertex 3.15 50.5 5.2
    endloop
  endfacet
  facet normal -1 -0 0
    outer loop
      vertex 3.15 47.5 5.2
      vertex 3.15 25.5 4.3
      vertex 3.15 25.5 5.2
    endloop
  endfacet
  facet normal -0 0 1
    outer loop
      vertex -3.15 70 1.91
      vertex 3.15 0 1.91
      vertex 3.15 70 1.91
    endloop
  endfacet
  facet normal 0 0 1
    outer loop
      vertex 3.15 0 1.91
      vertex -3.15 70 1.91
      vertex -3.15 0 1.91
    endloop
  endfacet
  facet normal 1 0 0
    outer loop
      vertex -3.15 10 5.2
      vertex -3.15 0 5.2
      vertex -3.15 10 4.3
    endloop
  endfacet
  facet normal 1 0 0
    outer loop
      vertex -3.15 35 5.2
      vertex -3.15 13 5.2
      vertex -3.15 35 4.3
    endloop
  endfacet
  facet normal 1 0 0
    outer loop
      vertex -3.15 60 5.2
      vertex -3.15 38 5.2
      vertex -3.15 60 4.3
    endloop
  endfacet
  facet normal 1 0 0
    outer loop
      vertex -3.15 63 4.3
      vertex -3.15 70 5.2
      vertex -3.15 63 5.2
    endloop
  endfacet
  facet normal 1 0 0
    outer loop
      vertex -3.15 70 5.2
      vertex -3.15 63 4.3
      vertex -3.15 70 1.91
    endloop
  endfacet
  facet normal 1 -0 0
    outer loop
      vertex -3.15 60 4.3
      vertex -3.15 70 1.91
      vertex -3.15 63 4.3
    endloop
  endfacet
  facet normal 1 0 0
    outer loop
      vertex -3.15 38 4.3
      vertex -3.15 60 4.3
      vertex -3.15 38 5.2
    endloop
  endfacet
  facet normal 1 0 0
    outer loop
      vertex -3.15 60 4.3
      vertex -3.15 38 4.3
      vertex -3.15 70 1.91
    endloop
  endfacet
  facet normal 1 -0 0
    outer loop
      vertex -3.15 35 4.3
      vertex -3.15 70 1.91
      vertex -3.15 38 4.3
    endloop
  endfacet
  facet normal 1 0 0
    outer loop
      vertex -3.15 13 4.3
      vertex -3.15 35 4.3
      vertex -3.15 13 5.2
    endloop
  endfacet
  facet normal 1 0 0
    outer loop
      vertex -3.15 0 1.91
      vertex -3.15 35 4.3
      vertex -3.15 13 4.3
    endloop
  endfacet
  facet normal 1 0 0
    outer loop
      vertex -3.15 0 1.91
      vertex -3.15 13 4.3
      vertex -3.15 10 4.3
    endloop
  endfacet
  facet normal 1 0 0
    outer loop
      vertex -3.15 35 4.3
      vertex -3.15 0 1.91
      vertex -3.15 70 1.91
    endloop
  endfacet
  facet normal 1 0 0
    outer loop
      vertex -3.15 0 1.91
      vertex -3.15 10 4.3
      vertex -3.15 0 5.2
    endloop
  endfacet
  facet normal 1 -0 0
    outer loop
      vertex -1.25 10 5.2
      vertex -1.25 13 4.3
      vertex -1.25 13 5.2
    endloop
  endfacet
  facet normal 1 0 0
    outer loop
      vertex -1.25 13 4.3
      vertex -1.25 10 5.2
      vertex -1.25 10 4.3
    endloop
  endfacet
  facet normal 0 0 -1
    outer loop
      vertex -3.15 10 4.3
      vertex -1.25 13 4.3
      vertex -1.25 10 4.3
    endloop
  endfacet
  facet normal -0 0 -1
    outer loop
      vertex -1.25 13 4.3
      vertex -3.15 10 4.3
      vertex -3.15 13 4.3
    endloop
  endfacet
  facet normal 0 1 -0
    outer loop
      vertex -1.25 13 4.3
      vertex -3.15 13 5.2
      vertex -1.25 13 5.2
    endloop
  endfacet
  facet normal 0 1 0
    outer loop
      vertex -3.15 13 5.2
      vertex -1.25 13 4.3
      vertex -3.15 13 4.3
    endloop
  endfacet
  facet normal 0 -1 0
    outer loop
      vertex -3.15 10 4.3
      vertex -1.25 10 5.2
      vertex -3.15 10 5.2
    endloop
  endfacet
  facet normal 0 -1 -0
    outer loop
      vertex -1.25 10 5.2
      vertex -3.15 10 4.3
      vertex -1.25 10 4.3
    endloop
  endfacet
  facet normal 1 -0 0
    outer loop
      vertex -1.25 35 5.2
      vertex -1.25 38 4.3
      vertex -1.25 38 5.2
    endloop
  endfacet
  facet normal 1 0 0
    outer loop
      vertex -1.25 38 4.3
      vertex -1.25 35 5.2
      vertex -1.25 35 4.3
    endloop
  endfacet
  facet normal 0 0 -1
    outer loop
      vertex -3.15 35 4.3
      vertex -1.25 38 4.3
      vertex -1.25 35 4.3
    endloop
  endfacet
  facet normal -0 0 -1
    outer loop
      vertex -1.25 38 4.3
      vertex -3.15 35 4.3
      vertex -3.15 38 4.3
    endloop
  endfacet
  facet normal 0 1 -0
    outer loop
      vertex -1.25 38 4.3
      vertex -3.15 38 5.2
      vertex -1.25 38 5.2
    endloop
  endfacet
  facet normal 0 1 0
    outer loop
      vertex -3.15 38 5.2
      vertex -1.25 38 4.3
      vertex -3.15 38 4.3
    endloop
  endfacet
  facet normal 0 -1 0
    outer loop
      vertex -3.15 35 4.3
      vertex -1.25 35 5.2
      vertex -3.15 35 5.2
    endloop
  endfacet
  facet normal 0 -1 -0
    outer loop
      vertex -1.25 35 5.2
      vertex -3.15 35 4.3
      vertex -1.25 35 4.3
    endloop
  endfacet
  facet normal 1 -0 0
    outer loop
      vertex -1.25 60 5.2
      vertex -1.25 63 4.3
      vertex -1.25 63 5.2
    endloop
  endfacet
  facet normal 1 0 0
    outer loop
      vertex -1.25 63 4.3
      vertex -1.25 60 5.2
      vertex -1.25 60 4.3
    endloop
  endfacet
  facet normal 0 0 -1
    outer loop
      vertex -3.15 60 4.3
      vertex -1.25 63 4.3
      vertex -1.25 60 4.3
    endloop
  endfacet
  facet normal -0 0 -1
    outer loop
      vertex -1.25 63 4.3
      vertex -3.15 60 4.3
      vertex -3.15 63 4.3
    endloop
  endfacet
  facet normal 0 1 -0
    outer loop
      vertex -1.25 63 4.3
      vertex -3.15 63 5.2
      vertex -1.25 63 5.2
    endloop
  endfacet
  facet normal 0 1 0
    outer loop
      vertex -3.15 63 5.2
      vertex -1.25 63 4.3
      vertex -3.15 63 4.3
    endloop
  endfacet
  facet normal 0 -1 0
    outer loop
      vertex -3.15 60 4.3
      vertex -1.25 60 5.2
      vertex -3.15 60 5.2
    endloop
  endfacet
  facet normal 0 -1 -0
    outer loop
      vertex -1.25 60 5.2
      vertex -3.15 60 4.3
      vertex -1.25 60 4.3
    endloop
  endfacet
  facet normal 0 0 -1
    outer loop
      vertex 1.25 22.5 4.3
      vertex 3.15 25.5 4.3
      vertex 3.15 22.5 4.3
    endloop
  endfacet
  facet normal -0 0 -1
    outer loop
      vertex 3.15 25.5 4.3
      vertex 1.25 22.5 4.3
      vertex 1.25 25.5 4.3
    endloop
  endfacet
  facet normal -1 0 0
    outer loop
      vertex 1.25 22.5 4.3
      vertex 1.25 25.5 5.2
      vertex 1.25 25.5 4.3
    endloop
  endfacet
  facet normal -1 -0 0
    outer loop
      vertex 1.25 25.5 5.2
      vertex 1.25 22.5 4.3
      vertex 1.25 22.5 5.2
    endloop
  endfacet
  facet normal 0 1 -0
    outer loop
      vertex 3.15 25.5 4.3
      vertex 1.25 25.5 5.2
      vertex 3.15 25.5 5.2
    endloop
  endfacet
  facet normal 0 1 0
    outer loop
      vertex 1.25 25.5 5.2
      vertex 3.15 25.5 4.3
      vertex 1.25 25.5 4.3
    endloop
  endfacet
  facet normal 0 -1 0
    outer loop
      vertex 1.25 22.5 4.3
      vertex 3.15 22.5 5.2
      vertex 1.25 22.5 5.2
    endloop
  endfacet
  facet normal 0 -1 -0
    outer loop
      vertex 3.15 22.5 5.2
      vertex 1.25 22.5 4.3
      vertex 3.15 22.5 4.3
    endloop
  endfacet
  facet normal 0 0 -1
    outer loop
      vertex 1.25 47.5 4.3
      vertex 3.15 50.5 4.3
      vertex 3.15 47.5 4.3
    endloop
  endfacet
  facet normal -0 0 -1
    outer loop
      vertex 3.15 50.5 4.3
      vertex 1.25 47.5 4.3
      vertex 1.25 50.5 4.3
    endloop
  endfacet
  facet normal -1 0 0
    outer loop
      vertex 1.25 47.5 4.3
      vertex 1.25 50.5 5.2
      vertex 1.25 50.5 4.3
    endloop
  endfacet
  facet normal -1 -0 0
    outer loop
      vertex 1.25 50.5 5.2
      vertex 1.25 47.5 4.3
      vertex 1.25 47.5 5.2
    endloop
  endfacet
  facet normal 0 1 -0
    outer loop
      vertex 3.15 50.5 4.3
      vertex 1.25 50.5 5.2
      vertex 3.15 50.5 5.2
    endloop
  endfacet
  facet normal 0 1 0
    outer loop
      vertex 1.25 50.5 5.2
      vertex 3.15 50.5 4.3
      vertex 1.25 50.5 4.3
    endloop
  endfacet
  facet normal 0 -1 0
    outer loop
      vertex 1.25 47.5 4.3
      vertex 3.15 47.5 5.2
      vertex 1.25 47.5 5.2
    endloop
  endfacet
  facet normal 0 -1 -0
    outer loop
      vertex 3.15 47.5 5.2
      vertex 1.25 47.5 4.3
      vertex 3.15 47.5 4.3
    endloop
  endfacet
endsolid OpenSCAD_Model
