solid OpenSCAD_Model
  facet normal -1 0 0
    outer loop
      vertex -1.3 0 0
      vertex -1.3 40 4.2
      vertex -1.3 40 0
    endloop
  endfacet
  facet normal -1 -0 0
    outer loop
      vertex -1.3 40 4.2
      vertex -1.3 0 0
      vertex -1.3 0 4.2
    endloop
  endfacet
  facet normal -0 0 1
    outer loop
      vertex 3.9 8 4.2
      vertex 5.8 5 4.2
      vertex 5.8 8 4.2
    endloop
  endfacet
  facet normal 0 0 1
    outer loop
      vertex 5.8 5 4.2
      vertex 3.9 8 4.2
      vertex 3.9 5 4.2
    endloop
  endfacet
  facet normal -0 0 1
    outer loop
      vertex 3.9 18 4.2
      vertex 5.8 15 4.2
      vertex 5.8 18 4.2
    endloop
  endfacet
  facet normal 0 0 1
    outer loop
      vertex 5.8 15 4.2
      vertex 3.9 18 4.2
      vertex 3.9 15 4.2
    endloop
  endfacet
  facet normal -0 0 1
    outer loop
      vertex 3.9 28 4.2
      vertex 5.8 25 4.2
      vertex 5.8 28 4.2
    endloop
  endfacet
  facet normal 0 0 1
    outer loop
      vertex 5.8 25 4.2
      vertex 3.9 28 4.2
      vertex 3.9 25 4.2
    endloop
  endfacet
  facet normal -0 0 1
    outer loop
      vertex 3.9 38 4.2
      vertex 5.8 35 4.2
      vertex 5.8 38 4.2
    endloop
  endfacet
  facet normal 0 0 1
    outer loop
      vertex 5.8 35 4.2
      vertex 3.9 38 4.2
      vertex 3.9 35 4.2
    endloop
  endfacet
  facet normal 0 0 1
    outer loop
      vertex 5.8 38 4.2
      vertex 6.8 40 4.2
      vertex 5.8 40 4.2
    endloop
  endfacet
  facet normal 0 0 1
    outer loop
      vertex 5.8 35 4.2
      vertex 6.8 40 4.2
      vertex 5.8 38 4.2
    endloop
  endfacet
  facet normal 0 0 1
    outer loop
      vertex 5.8 28 4.2
      vertex 6.8 40 4.2
      vertex 5.8 35 4.2
    endloop
  endfacet
  facet normal 0 0 1
    outer loop
      vertex 5.8 25 4.2
      vertex 6.8 40 4.2
      vertex 5.8 28 4.2
    endloop
  endfacet
  facet normal 0 0 1
    outer loop
      vertex 5.8 18 4.2
      vertex 6.8 40 4.2
      vertex 5.8 25 4.2
    endloop
  endfacet
  facet normal 0 0 1
    outer loop
      vertex 6.8 40 4.2
      vertex 5.8 18 4.2
      vertex 6.8 0 4.2
    endloop
  endfacet
  facet normal -0 0 1
    outer loop
      vertex 5.8 15 4.2
      vertex 6.8 0 4.2
      vertex 5.8 18 4.2
    endloop
  endfacet
  facet normal -0 0 1
    outer loop
      vertex 5.8 8 4.2
      vertex 6.8 0 4.2
      vertex 5.8 15 4.2
    endloop
  endfacet
  facet normal -0 0 1
    outer loop
      vertex 5.8 5 4.2
      vertex 6.8 0 4.2
      vertex 5.8 8 4.2
    endloop
  endfacet
  facet normal 0 0 1
    outer loop
      vertex 6.8 0 4.2
      vertex 5.8 5 4.2
      vertex 5.8 0 4.2
    endloop
  endfacet
  facet normal -0 0 1
    outer loop
      vertex -1.3 40 4.2
      vertex -0.299999 33 4.2
      vertex -0.299999 40 4.2
    endloop
  endfacet
  facet normal 0 0 1
    outer loop
      vertex -0.299999 33 4.2
      vertex -1.3 40 4.2
      vertex -0.299999 30 4.2
    endloop
  endfacet
  facet normal 0 0 1
    outer loop
      vertex -0.299999 30 4.2
      vertex -1.3 40 4.2
      vertex -0.299999 23 4.2
    endloop
  endfacet
  facet normal 0 0 1
    outer loop
      vertex -0.299999 23 4.2
      vertex -1.3 40 4.2
      vertex -0.299999 20 4.2
    endloop
  endfacet
  facet normal 0 0 1
    outer loop
      vertex -1.3 0 4.2
      vertex -0.299999 20 4.2
      vertex -1.3 40 4.2
    endloop
  endfacet
  facet normal 0 0 1
    outer loop
      vertex -0.299999 20 4.2
      vertex -1.3 0 4.2
      vertex -0.299999 13 4.2
    endloop
  endfacet
  facet normal 0 0 1
    outer loop
      vertex -0.299999 13 4.2
      vertex -1.3 0 4.2
      vertex -0.299999 10 4.2
    endloop
  endfacet
  facet normal -0 0 1
    outer loop
      vertex -0.299999 33 4.2
      vertex 1.6 30 4.2
      vertex 1.6 33 4.2
    endloop
  endfacet
  facet normal 0 0 1
    outer loop
      vertex 1.6 30 4.2
      vertex -0.299999 33 4.2
      vertex -0.299999 30 4.2
    endloop
  endfacet
  facet normal -0 0 1
    outer loop
      vertex -0.299999 23 4.2
      vertex 1.6 20 4.2
      vertex 1.6 23 4.2
    endloop
  endfacet
  facet normal 0 0 1
    outer loop
      vertex 1.6 20 4.2
      vertex -0.299999 23 4.2
      vertex -0.299999 20 4.2
    endloop
  endfacet
  facet normal -0 0 1
    outer loop
      vertex -0.299999 13 4.2
      vertex 1.6 10 4.2
      vertex 1.6 13 4.2
    endloop
  endfacet
  facet normal 0 0 1
    outer loop
      vertex 1.6 10 4.2
      vertex -0.299999 13 4.2
      vertex -0.299999 10 4.2
    endloop
  endfacet
  facet normal -0 0 1
    outer loop
      vertex -0.299999 3 4.2
      vertex 1.6 0 4.2
      vertex 1.6 3 4.2
    endloop
  endfacet
  facet normal 0 0 1
    outer loop
      vertex -0.299999 3 4.2
      vertex -1.3 0 4.2
      vertex 1.6 0 4.2
    endloop
  endfacet
  facet normal 0 0 1
    outer loop
      vertex -0.299999 10 4.2
      vertex -1.3 0 4.2
      vertex -0.299999 3 4.2
    endloop
  endfacet
  facet normal 1 -0 0
    outer loop
      vertex 6.8 0 4.2
      vertex 6.8 40 0
      vertex 6.8 40 4.2
    endloop
  endfacet
  facet normal 1 0 0
    outer loop
      vertex 6.8 40 0
      vertex 6.8 0 4.2
      vertex 6.8 0 0
    endloop
  endfacet
  facet normal 0 1 0
    outer loop
      vertex 6.8 40 4.2
      vertex 5.8 40 1.01
      vertex 5.8 40 4.2
    endloop
  endfacet
  facet normal 0 1 0
    outer loop
      vertex 5.8 40 1.01
      vertex 6.8 40 0
      vertex -0.299999 40 1.01
    endloop
  endfacet
  facet normal 0 1 -0
    outer loop
      vertex 6.8 40 0
      vertex 5.8 40 1.01
      vertex 6.8 40 4.2
    endloop
  endfacet
  facet normal 0 1 -0
    outer loop
      vertex -0.299999 40 1.01
      vertex -1.3 40 4.2
      vertex -0.299999 40 4.2
    endloop
  endfacet
  facet normal 0 1 0
    outer loop
      vertex -0.299999 40 1.01
      vertex -1.3 40 0
      vertex -1.3 40 4.2
    endloop
  endfacet
  facet normal 0 1 0
    outer loop
      vertex -1.3 40 0
      vertex -0.299999 40 1.01
      vertex 6.8 40 0
    endloop
  endfacet
  facet normal 0 0 -1
    outer loop
      vertex -1.3 0 0
      vertex 6.8 40 0
      vertex 6.8 0 0
    endloop
  endfacet
  facet normal -0 0 -1
    outer loop
      vertex 6.8 40 0
      vertex -1.3 0 0
      vertex -1.3 40 0
    endloop
  endfacet
  facet normal 0 -1 0
    outer loop
      vertex -1.3 0 4.2
      vertex -0.299999 0 3.3
      vertex 1.6 0 4.2
    endloop
  endfacet
  facet normal 0 -1 0
    outer loop
      vertex -1.3 0 4.2
      vertex -0.299999 0 1.01
      vertex -0.299999 0 3.3
    endloop
  endfacet
  facet normal 0 -1 -0
    outer loop
      vertex -0.299999 0 1.01
      vertex -1.3 0 0
      vertex 5.8 0 1.01
    endloop
  endfacet
  facet normal 0 -1 0
    outer loop
      vertex -1.3 0 0
      vertex -0.299999 0 1.01
      vertex -1.3 0 4.2
    endloop
  endfacet
  facet normal 0 -1 -0
    outer loop
      vertex 1.6 0 4.2
      vertex -0.299999 0 3.3
      vertex 1.6 0 3.3
    endloop
  endfacet
  facet normal 0 -1 0
    outer loop
      vertex 5.8 0 1.01
      vertex 6.8 0 4.2
      vertex 5.8 0 4.2
    endloop
  endfacet
  facet normal 0 -1 0
    outer loop
      vertex 5.8 0 1.01
      vertex 6.8 0 0
      vertex 6.8 0 4.2
    endloop
  endfacet
  facet normal 0 -1 0
    outer loop
      vertex 6.8 0 0
      vertex 5.8 0 1.01
      vertex -1.3 0 0
    endloop
  endfacet
  facet normal 1 0 0
    outer loop
      vertex -0.299999 10 4.2
      vertex -0.299999 3 4.2
      vertex -0.299999 10 3.3
    endloop
  endfacet
  facet normal 1 0 0
    outer loop
      vertex -0.299999 20 4.2
      vertex -0.299999 13 4.2
      vertex -0.299999 20 3.3
    endloop
  endfacet
  facet normal 1 0 0
    outer loop
      vertex -0.299999 30 4.2
      vertex -0.299999 23 4.2
      vertex -0.299999 30 3.3
    endloop
  endfacet
  facet normal 1 0 0
    outer loop
      vertex -0.299999 33 3.3
      vertex -0.299999 40 4.2
      vertex -0.299999 33 4.2
    endloop
  endfacet
  facet normal 1 0 0
    outer loop
      vertex -0.299999 40 4.2
      vertex -0.299999 33 3.3
      vertex -0.299999 40 1.01
    endloop
  endfacet
  facet normal 1 -0 0
    outer loop
      vertex -0.299999 30 3.3
      vertex -0.299999 40 1.01
      vertex -0.299999 33 3.3
    endloop
  endfacet
  facet normal 1 0 0
    outer loop
      vertex -0.299999 23 3.3
      vertex -0.299999 30 3.3
      vertex -0.299999 23 4.2
    endloop
  endfacet
  facet normal 1 0 0
    outer loop
      vertex -0.299999 30 3.3
      vertex -0.299999 23 3.3
      vertex -0.299999 40 1.01
    endloop
  endfacet
  facet normal 1 -0 0
    outer loop
      vertex -0.299999 20 3.3
      vertex -0.299999 40 1.01
      vertex -0.299999 23 3.3
    endloop
  endfacet
  facet normal 1 0 0
    outer loop
      vertex -0.299999 13 3.3
      vertex -0.299999 20 3.3
      vertex -0.299999 13 4.2
    endloop
  endfacet
  facet normal 1 0 0
    outer loop
      vertex -0.299999 0 1.01
      vertex -0.299999 20 3.3
      vertex -0.299999 13 3.3
    endloop
  endfacet
  facet normal 1 0 0
    outer loop
      vertex -0.299999 0 1.01
      vertex -0.299999 13 3.3
      vertex -0.299999 10 3.3
    endloop
  endfacet
  facet normal 1 0 0
    outer loop
      vertex -0.299999 3 3.3
      vertex -0.299999 10 3.3
      vertex -0.299999 3 4.2
    endloop
  endfacet
  facet normal 1 0 0
    outer loop
      vertex -0.299999 0 1.01
      vertex -0.299999 10 3.3
      vertex -0.299999 3 3.3
    endloop
  endfacet
  facet normal 1 0 0
    outer loop
      vertex -0.299999 0 1.01
      vertex -0.299999 3 3.3
      vertex -0.299999 0 3.3
    endloop
  endfacet
  facet normal 1 0 0
    outer loop
      vertex -0.299999 20 3.3
      vertex -0.299999 0 1.01
      vertex -0.299999 40 1.01
    endloop
  endfacet
  facet normal -1 0 0
    outer loop
      vertex 5.8 40 1.01
      vertex 5.8 38 3.3
      vertex 5.8 40 4.2
    endloop
  endfacet
  facet normal -1 0 0
    outer loop
      vertex 5.8 40 1.01
      vertex 5.8 35 3.3
      vertex 5.8 38 3.3
    endloop
  endfacet
  facet normal -1 0 0
    outer loop
      vertex 5.8 35 3.3
      vertex 5.8 28 3.3
      vertex 5.8 35 4.2
    endloop
  endfacet
  facet normal -1 0 0
    outer loop
      vertex 5.8 40 1.01
      vertex 5.8 28 3.3
      vertex 5.8 35 3.3
    endloop
  endfacet
  facet normal -1 0 0
    outer loop
      vertex 5.8 40 1.01
      vertex 5.8 25 3.3
      vertex 5.8 28 3.3
    endloop
  endfacet
  facet normal -1 0 0
    outer loop
      vertex 5.8 25 3.3
      vertex 5.8 18 3.3
      vertex 5.8 25 4.2
    endloop
  endfacet
  facet normal -1 0 0
    outer loop
      vertex 5.8 40 1.01
      vertex 5.8 18 3.3
      vertex 5.8 25 3.3
    endloop
  endfacet
  facet normal -1 0 0
    outer loop
      vertex 5.8 0 1.01
      vertex 5.8 18 3.3
      vertex 5.8 40 1.01
    endloop
  endfacet
  facet normal -1 0 0
    outer loop
      vertex 5.8 15 3.3
      vertex 5.8 8 3.3
      vertex 5.8 15 4.2
    endloop
  endfacet
  facet normal -1 -0 0
    outer loop
      vertex 5.8 18 3.3
      vertex 5.8 0 1.01
      vertex 5.8 15 3.3
    endloop
  endfacet
  facet normal -1 -0 0
    outer loop
      vertex 5.8 15 3.3
      vertex 5.8 0 1.01
      vertex 5.8 8 3.3
    endloop
  endfacet
  facet normal -1 -0 0
    outer loop
      vertex 5.8 8 3.3
      vertex 5.8 0 1.01
      vertex 5.8 5 3.3
    endloop
  endfacet
  facet normal -1 0 0
    outer loop
      vertex 5.8 0 4.2
      vertex 5.8 5 3.3
      vertex 5.8 0 1.01
    endloop
  endfacet
  facet normal -1 0 0
    outer loop
      vertex 5.8 5 3.3
      vertex 5.8 0 4.2
      vertex 5.8 5 4.2
    endloop
  endfacet
  facet normal -1 -0 0
    outer loop
      vertex 5.8 40 4.2
      vertex 5.8 38 3.3
      vertex 5.8 38 4.2
    endloop
  endfacet
  facet normal -1 -0 0
    outer loop
      vertex 5.8 35 4.2
      vertex 5.8 28 3.3
      vertex 5.8 28 4.2
    endloop
  endfacet
  facet normal -1 -0 0
    outer loop
      vertex 5.8 25 4.2
      vertex 5.8 18 3.3
      vertex 5.8 18 4.2
    endloop
  endfacet
  facet normal -1 -0 0
    outer loop
      vertex 5.8 15 4.2
      vertex 5.8 8 3.3
      vertex 5.8 8 4.2
    endloop
  endfacet
  facet normal -0 0 1
    outer loop
      vertex -0.299999 40 1.01
      vertex 5.8 0 1.01
      vertex 5.8 40 1.01
    endloop
  endfacet
  facet normal 0 0 1
    outer loop
      vertex 5.8 0 1.01
      vertex -0.299999 40 1.01
      vertex -0.299999 0 1.01
    endloop
  endfacet
  facet normal 1 -0 0
    outer loop
      vertex 1.6 0 4.2
      vertex 1.6 3 3.3
      vertex 1.6 3 4.2
    endloop
  endfacet
  facet normal 1 0 0
    outer loop
      vertex 1.6 3 3.3
      vertex 1.6 0 4.2
      vertex 1.6 0 3.3
    endloop
  endfacet
  facet normal 0 0 -1
    outer loop
      vertex -0.299999 0 3.3
      vertex 1.6 3 3.3
      vertex 1.6 0 3.3
    endloop
  endfacet
  facet normal -0 0 -1
    outer loop
      vertex 1.6 3 3.3
      vertex -0.299999 0 3.3
      vertex -0.299999 3 3.3
    endloop
  endfacet
  facet normal 0 1 -0
    outer loop
      vertex 1.6 3 3.3
      vertex -0.299999 3 4.2
      vertex 1.6 3 4.2
    endloop
  endfacet
  facet normal 0 1 0
    outer loop
      vertex -0.299999 3 4.2
      vertex 1.6 3 3.3
      vertex -0.299999 3 3.3
    endloop
  endfacet
  facet normal 1 -0 0
    outer loop
      vertex 1.6 10 4.2
      vertex 1.6 13 3.3
      vertex 1.6 13 4.2
    endloop
  endfacet
  facet normal 1 0 0
    outer loop
      vertex 1.6 13 3.3
      vertex 1.6 10 4.2
      vertex 1.6 10 3.3
    endloop
  endfacet
  facet normal 0 1 -0
    outer loop
      vertex 1.6 13 3.3
      vertex -0.299999 13 4.2
      vertex 1.6 13 4.2
    endloop
  endfacet
  facet normal 0 1 0
    outer loop
      vertex -0.299999 13 4.2
      vertex 1.6 13 3.3
      vertex -0.299999 13 3.3
    endloop
  endfacet
  facet normal 0 0 -1
    outer loop
      vertex -0.299999 10 3.3
      vertex 1.6 13 3.3
      vertex 1.6 10 3.3
    endloop
  endfacet
  facet normal -0 0 -1
    outer loop
      vertex 1.6 13 3.3
      vertex -0.299999 10 3.3
      vertex -0.299999 13 3.3
    endloop
  endfacet
  facet normal 0 -1 0
    outer loop
      vertex -0.299999 10 3.3
      vertex 1.6 10 4.2
      vertex -0.299999 10 4.2
    endloop
  endfacet
  facet normal 0 -1 -0
    outer loop
      vertex 1.6 10 4.2
      vertex -0.299999 10 3.3
      vertex 1.6 10 3.3
    endloop
  endfacet
  facet normal 1 -0 0
    outer loop
      vertex 1.6 20 4.2
      vertex 1.6 23 3.3
      vertex 1.6 23 4.2
    endloop
  endfacet
  facet normal 1 0 0
    outer loop
      vertex 1.6 23 3.3
      vertex 1.6 20 4.2
      vertex 1.6 20 3.3
    endloop
  endfacet
  facet normal 0 1 -0
    outer loop
      vertex 1.6 23 3.3
      vertex -0.299999 23 4.2
      vertex 1.6 23 4.2
    endloop
  endfacet
  facet normal 0 1 0
    outer loop
      vertex -0.299999 23 4.2
      vertex 1.6 23 3.3
      vertex -0.299999 23 3.3
    endloop
  endfacet
  facet normal 0 0 -1
    outer loop
      vertex -0.299999 20 3.3
      vertex 1.6 23 3.3
      vertex 1.6 20 3.3
    endloop
  endfacet
  facet normal -0 0 -1
    outer loop
      vertex 1.6 23 3.3
      vertex -0.299999 20 3.3
      vertex -0.299999 23 3.3
    endloop
  endfacet
  facet normal 0 -1 0
    outer loop
      vertex -0.299999 20 3.3
      vertex 1.6 20 4.2
      vertex -0.299999 20 4.2
    endloop
  endfacet
  facet normal 0 -1 -0
    outer loop
      vertex 1.6 20 4.2
      vertex -0.299999 20 3.3
      vertex 1.6 20 3.3
    endloop
  endfacet
  facet normal 1 -0 0
    outer loop
      vertex 1.6 30 4.2
      vertex 1.6 33 3.3
      vertex 1.6 33 4.2
    endloop
  endfacet
  facet normal 1 0 0
    outer loop
      vertex 1.6 33 3.3
      vertex 1.6 30 4.2
      vertex 1.6 30 3.3
    endloop
  endfacet
  facet normal 0 1 -0
    outer loop
      vertex 1.6 33 3.3
      vertex -0.299999 33 4.2
      vertex 1.6 33 4.2
    endloop
  endfacet
  facet normal 0 1 0
    outer loop
      vertex -0.299999 33 4.2
      vertex 1.6 33 3.3
      vertex -0.299999 33 3.3
    endloop
  endfacet
  facet normal 0 0 -1
    outer loop
      vertex -0.299999 30 3.3
      vertex 1.6 33 3.3
      vertex 1.6 30 3.3
    endloop
  endfacet
  facet normal -0 0 -1
    outer loop
      vertex 1.6 33 3.3
      vertex -0.299999 30 3.3
      vertex -0.299999 33 3.3
    endloop
  endfacet
  facet normal 0 -1 0
    outer loop
      vertex -0.299999 30 3.3
      vertex 1.6 30 4.2
      vertex -0.299999 30 4.2
    endloop
  endfacet
  facet normal 0 -1 -0
    outer loop
      vertex 1.6 30 4.2
      vertex -0.299999 30 3.3
      vertex 1.6 30 3.3
    endloop
  endfacet
  facet normal -1 0 0
    outer loop
      vertex 3.9 5 3.3
      vertex 3.9 8 4.2
      vertex 3.9 8 3.3
    endloop
  endfacet
  facet normal -1 -0 0
    outer loop
      vertex 3.9 8 4.2
      vertex 3.9 5 3.3
      vertex 3.9 5 4.2
    endloop
  endfacet
  facet normal 0 1 -0
    outer loop
      vertex 5.8 8 3.3
      vertex 3.9 8 4.2
      vertex 5.8 8 4.2
    endloop
  endfacet
  facet normal 0 1 0
    outer loop
      vertex 3.9 8 4.2
      vertex 5.8 8 3.3
      vertex 3.9 8 3.3
    endloop
  endfacet
  facet normal 0 0 -1
    outer loop
      vertex 3.9 5 3.3
      vertex 5.8 8 3.3
      vertex 5.8 5 3.3
    endloop
  endfacet
  facet normal -0 0 -1
    outer loop
      vertex 5.8 8 3.3
      vertex 3.9 5 3.3
      vertex 3.9 8 3.3
    endloop
  endfacet
  facet normal 0 -1 0
    outer loop
      vertex 3.9 5 3.3
      vertex 5.8 5 4.2
      vertex 3.9 5 4.2
    endloop
  endfacet
  facet normal 0 -1 -0
    outer loop
      vertex 5.8 5 4.2
      vertex 3.9 5 3.3
      vertex 5.8 5 3.3
    endloop
  endfacet
  facet normal -1 0 0
    outer loop
      vertex 3.9 15 3.3
      vertex 3.9 18 4.2
      vertex 3.9 18 3.3
    endloop
  endfacet
  facet normal -1 -0 0
    outer loop
      vertex 3.9 18 4.2
      vertex 3.9 15 3.3
      vertex 3.9 15 4.2
    endloop
  endfacet
  facet normal 0 1 -0
    outer loop
      vertex 5.8 18 3.3
      vertex 3.9 18 4.2
      vertex 5.8 18 4.2
    endloop
  endfacet
  facet normal 0 1 0
    outer loop
      vertex 3.9 18 4.2
      vertex 5.8 18 3.3
      vertex 3.9 18 3.3
    endloop
  endfacet
  facet normal 0 0 -1
    outer loop
      vertex 3.9 15 3.3
      vertex 5.8 18 3.3
      vertex 5.8 15 3.3
    endloop
  endfacet
  facet normal -0 0 -1
    outer loop
      vertex 5.8 18 3.3
      vertex 3.9 15 3.3
      vertex 3.9 18 3.3
    endloop
  endfacet
  facet normal 0 -1 0
    outer loop
      vertex 3.9 15 3.3
      vertex 5.8 15 4.2
      vertex 3.9 15 4.2
    endloop
  endfacet
  facet normal 0 -1 -0
    outer loop
      vertex 5.8 15 4.2
      vertex 3.9 15 3.3
      vertex 5.8 15 3.3
    endloop
  endfacet
  facet normal -1 0 0
    outer loop
      vertex 3.9 25 3.3
      vertex 3.9 28 4.2
      vertex 3.9 28 3.3
    endloop
  endfacet
  facet normal -1 -0 0
    outer loop
      vertex 3.9 28 4.2
      vertex 3.9 25 3.3
      vertex 3.9 25 4.2
    endloop
  endfacet
  facet normal 0 1 -0
    outer loop
      vertex 5.8 28 3.3
      vertex 3.9 28 4.2
      vertex 5.8 28 4.2
    endloop
  endfacet
  facet normal 0 1 0
    outer loop
      vertex 3.9 28 4.2
      vertex 5.8 28 3.3
      vertex 3.9 28 3.3
    endloop
  endfacet
  facet normal 0 0 -1
    outer loop
      vertex 3.9 25 3.3
      vertex 5.8 28 3.3
      vertex 5.8 25 3.3
    endloop
  endfacet
  facet normal -0 0 -1
    outer loop
      vertex 5.8 28 3.3
      vertex 3.9 25 3.3
      vertex 3.9 28 3.3
    endloop
  endfacet
  facet normal 0 -1 0
    outer loop
      vertex 3.9 25 3.3
      vertex 5.8 25 4.2
      vertex 3.9 25 4.2
    endloop
  endfacet
  facet normal 0 -1 -0
    outer loop
      vertex 5.8 25 4.2
      vertex 3.9 25 3.3
      vertex 5.8 25 3.3
    endloop
  endfacet
  facet normal -1 0 0
    outer loop
      vertex 3.9 35 3.3
      vertex 3.9 38 4.2
      vertex 3.9 38 3.3
    endloop
  endfacet
  facet normal -1 -0 0
    outer loop
      vertex 3.9 38 4.2
      vertex 3.9 35 3.3
      vertex 3.9 35 4.2
    endloop
  endfacet
  facet normal 0 1 -0
    outer loop
      vertex 5.8 38 3.3
      vertex 3.9 38 4.2
      vertex 5.8 38 4.2
    endloop
  endfacet
  facet normal 0 1 0
    outer loop
      vertex 3.9 38 4.2
      vertex 5.8 38 3.3
      vertex 3.9 38 3.3
    endloop
  endfacet
  facet normal 0 0 -1
    outer loop
      vertex 3.9 35 3.3
      vertex 5.8 38 3.3
      vertex 5.8 35 3.3
    endloop
  endfacet
  facet normal -0 0 -1
    outer loop
      vertex 5.8 38 3.3
      vertex 3.9 35 3.3
      vertex 3.9 38 3.3
    endloop
  endfacet
  facet normal 0 -1 0
    outer loop
      vertex 3.9 35 3.3
      vertex 5.8 35 4.2
      vertex 3.9 35 4.2
    endloop
  endfacet
  facet normal 0 -1 -0
    outer loop
      vertex 5.8 35 4.2
      vertex 3.9 35 3.3
      vertex 5.8 35 3.3
    endloop
  endfacet
endsolid OpenSCAD_Model
