solid OpenSCAD_Model
  facet normal -1 0 0
    outer loop
      vertex 4 13 0
      vertex 4 80.5 3
      vertex 4 80.5 0
    endloop
  endfacet
  facet normal -1 -0 0
    outer loop
      vertex 4 80.5 3
      vertex 4 13 0
      vertex 4 13 3
    endloop
  endfacet
  facet normal 0 0 1
    outer loop
      vertex 22 19 3
      vertex 14 19 3
      vertex 22 18 3
    endloop
  endfacet
  facet normal 0 0 1
    outer loop
      vertex 54.5 80.5 3
      vertex 44.5 74.5 3
      vertex 54.5 13 3
    endloop
  endfacet
  facet normal 0 0 1
    outer loop
      vertex 54.5 80.5 3
      vertex 37 75.5 3
      vertex 44.5 74.5 3
    endloop
  endfacet
  facet normal 0 0 1
    outer loop
      vertex 54.5 80.5 3
      vertex 22 75.5 3
      vertex 37 75.5 3
    endloop
  endfacet
  facet normal 0 0 1
    outer loop
      vertex 22 75.5 3
      vertex 14 74.5 3
      vertex 22 74.5 3
    endloop
  endfacet
  facet normal -0 0 1
    outer loop
      vertex 4 80.5 3
      vertex 22 75.5 3
      vertex 54.5 80.5 3
    endloop
  endfacet
  facet normal 0 0 1
    outer loop
      vertex 14 74.5 3
      vertex 4 80.5 3
      vertex 14 19 3
    endloop
  endfacet
  facet normal 0 0 1
    outer loop
      vertex 22 75.5 3
      vertex 4 80.5 3
      vertex 14 74.5 3
    endloop
  endfacet
  facet normal -0 0 1
    outer loop
      vertex 44.5 19 3
      vertex 54.5 13 3
      vertex 44.5 74.5 3
    endloop
  endfacet
  facet normal 0 0 1
    outer loop
      vertex 37 18 3
      vertex 44.5 19 3
      vertex 37 19 3
    endloop
  endfacet
  facet normal 0 0 1
    outer loop
      vertex 44.5 19 3
      vertex 37 18 3
      vertex 54.5 13 3
    endloop
  endfacet
  facet normal -0 0 1
    outer loop
      vertex 22 18 3
      vertex 54.5 13 3
      vertex 37 18 3
    endloop
  endfacet
  facet normal 0 0 1
    outer loop
      vertex 4 13 3
      vertex 22 18 3
      vertex 14 19 3
    endloop
  endfacet
  facet normal 0 0 1
    outer loop
      vertex 22 18 3
      vertex 4 13 3
      vertex 54.5 13 3
    endloop
  endfacet
  facet normal 0 0 1
    outer loop
      vertex 4 13 3
      vertex 14 19 3
      vertex 4 80.5 3
    endloop
  endfacet
  facet normal 0 0 1
    outer loop
      vertex 44.5 74.5 3
      vertex 37 75.5 3
      vertex 37 74.5 3
    endloop
  endfacet
  facet normal 0 0 1
    outer loop
      vertex 22 74.5 3
      vertex 37 74.5 3
      vertex 37 75.5 3
    endloop
  endfacet
  facet normal 0 0 1
    outer loop
      vertex 37 74.5 3
      vertex 22 74.5 3
      vertex 37 19 3
    endloop
  endfacet
  facet normal 0 0 1
    outer loop
      vertex 22 74.5 3
      vertex 37 75.5 3
      vertex 22 75.5 3
    endloop
  endfacet
  facet normal 0 0 1
    outer loop
      vertex 22 19 3
      vertex 37 19 3
      vertex 22 74.5 3
    endloop
  endfacet
  facet normal 0 0 1
    outer loop
      vertex 37 19 3
      vertex 22 19 3
      vertex 37 18 3
    endloop
  endfacet
  facet normal 0 0 1
    outer loop
      vertex 37 18 3
      vertex 22 19 3
      vertex 22 18 3
    endloop
  endfacet
  facet normal 1 -0 0
    outer loop
      vertex 54.5 13 3
      vertex 54.5 80.5 0
      vertex 54.5 80.5 3
    endloop
  endfacet
  facet normal 1 0 0
    outer loop
      vertex 54.5 80.5 0
      vertex 54.5 13 3
      vertex 54.5 13 0
    endloop
  endfacet
  facet normal 0 1 -0
    outer loop
      vertex 54.5 80.5 0
      vertex 4 80.5 3
      vertex 54.5 80.5 3
    endloop
  endfacet
  facet normal 0 1 0
    outer loop
      vertex 4 80.5 3
      vertex 54.5 80.5 0
      vertex 4 80.5 0
    endloop
  endfacet
  facet normal 0 0 -1
    outer loop
      vertex 4 13 0
      vertex 54.5 80.5 0
      vertex 54.5 13 0
    endloop
  endfacet
  facet normal -0 0 -1
    outer loop
      vertex 54.5 80.5 0
      vertex 4 13 0
      vertex 4 80.5 0
    endloop
  endfacet
  facet normal 0 -1 0
    outer loop
      vertex 4 13 0
      vertex 54.5 13 3
      vertex 4 13 3
    endloop
  endfacet
  facet normal 0 -1 -0
    outer loop
      vertex 54.5 13 3
      vertex 4 13 0
      vertex 54.5 13 0
    endloop
  endfacet
  facet normal -1 0 0
    outer loop
      vertex 14 74.5 5.5
      vertex 14 73 7
      vertex 14 74.5 7
    endloop
  endfacet
  facet normal -1 0 0
    outer loop
      vertex 14 73 7
      vertex 14 72 7
      vertex 14 73 7.4
    endloop
  endfacet
  facet normal -1 0 0
    outer loop
      vertex 14 74.5 5.5
      vertex 14 72 7
      vertex 14 73 7
    endloop
  endfacet
  facet normal -1 0 0
    outer loop
      vertex 14 19 5.5
      vertex 14 72 7
      vertex 14 74.5 5.5
    endloop
  endfacet
  facet normal -1 -0 0
    outer loop
      vertex 14 72 7
      vertex 14 19 5.5
      vertex 14 19 7
    endloop
  endfacet
  facet normal -1 -0 0
    outer loop
      vertex 14 73 7.4
      vertex 14 72 7
      vertex 14 72 7.4
    endloop
  endfacet
  facet normal -1 0 0
    outer loop
      vertex 14 19 3
      vertex 14 74.5 5
      vertex 14 74.5 3
    endloop
  endfacet
  facet normal -1 -0 0
    outer loop
      vertex 14 74.5 5
      vertex 14 19 3
      vertex 14 19 5
    endloop
  endfacet
  facet normal -0 0 1
    outer loop
      vertex 37 72 7
      vertex 44.5 19 7
      vertex 44.5 72 7
    endloop
  endfacet
  facet normal 0 0 1
    outer loop
      vertex 44.5 19 7
      vertex 37 72 7
      vertex 37 19 7
    endloop
  endfacet
  facet normal -0 0 1
    outer loop
      vertex 14 72 7
      vertex 22 19 7
      vertex 22 72 7
    endloop
  endfacet
  facet normal 0 0 1
    outer loop
      vertex 22 19 7
      vertex 14 72 7
      vertex 14 19 7
    endloop
  endfacet
  facet normal -0 0 1
    outer loop
      vertex 37 74.5 7
      vertex 44.5 73 7
      vertex 44.5 74.5 7
    endloop
  endfacet
  facet normal 0 0 1
    outer loop
      vertex 44.5 73 7
      vertex 37 74.5 7
      vertex 37 73 7
    endloop
  endfacet
  facet normal -0 0 1
    outer loop
      vertex 14 74.5 7
      vertex 22 73 7
      vertex 22 74.5 7
    endloop
  endfacet
  facet normal 0 0 1
    outer loop
      vertex 22 73 7
      vertex 14 74.5 7
      vertex 14 73 7
    endloop
  endfacet
  facet normal 1 0 0
    outer loop
      vertex 44.5 73 7.4
      vertex 44.5 72 7.4
      vertex 44.5 73 7
    endloop
  endfacet
  facet normal 1 -0 0
    outer loop
      vertex 44.5 73 7
      vertex 44.5 74.5 5.5
      vertex 44.5 74.5 7
    endloop
  endfacet
  facet normal 1 0 0
    outer loop
      vertex 44.5 72 7
      vertex 44.5 73 7
      vertex 44.5 72 7.4
    endloop
  endfacet
  facet normal 1 0 0
    outer loop
      vertex 44.5 73 7
      vertex 44.5 72 7
      vertex 44.5 74.5 5.5
    endloop
  endfacet
  facet normal 1 0 0
    outer loop
      vertex 44.5 19 5.5
      vertex 44.5 72 7
      vertex 44.5 19 7
    endloop
  endfacet
  facet normal 1 0 0
    outer loop
      vertex 44.5 72 7
      vertex 44.5 19 5.5
      vertex 44.5 74.5 5.5
    endloop
  endfacet
  facet normal 1 -0 0
    outer loop
      vertex 44.5 19 5
      vertex 44.5 74.5 3
      vertex 44.5 74.5 5
    endloop
  endfacet
  facet normal 1 0 0
    outer loop
      vertex 44.5 74.5 3
      vertex 44.5 19 5
      vertex 44.5 19 3
    endloop
  endfacet
  facet normal 0 1 -0
    outer loop
      vertex 44.5 74.5 3
      vertex 37 74.5 5
      vertex 44.5 74.5 5
    endloop
  endfacet
  facet normal 0 1 0
    outer loop
      vertex 37 74.5 5
      vertex 44.5 74.5 3
      vertex 37 74.5 3
    endloop
  endfacet
  facet normal 0 1 -0
    outer loop
      vertex 44.5 74.5 5.5
      vertex 37 74.5 7
      vertex 44.5 74.5 7
    endloop
  endfacet
  facet normal 0 1 0
    outer loop
      vertex 37 74.5 7
      vertex 44.5 74.5 5.5
      vertex 37 74.5 5.5
    endloop
  endfacet
  facet normal 0 1 -0
    outer loop
      vertex 22 74.5 5.5
      vertex 14 74.5 7
      vertex 22 74.5 7
    endloop
  endfacet
  facet normal 0 1 0
    outer loop
      vertex 14 74.5 7
      vertex 22 74.5 5.5
      vertex 14 74.5 5.5
    endloop
  endfacet
  facet normal 0 1 -0
    outer loop
      vertex 22 74.5 3
      vertex 14 74.5 5
      vertex 22 74.5 5
    endloop
  endfacet
  facet normal 0 1 0
    outer loop
      vertex 14 74.5 5
      vertex 22 74.5 3
      vertex 14 74.5 3
    endloop
  endfacet
  facet normal 0 -1 0
    outer loop
      vertex 37 19 5.5
      vertex 44.5 19 7
      vertex 37 19 7
    endloop
  endfacet
  facet normal 0 -1 -0
    outer loop
      vertex 44.5 19 7
      vertex 37 19 5.5
      vertex 44.5 19 5.5
    endloop
  endfacet
  facet normal 0 -1 0
    outer loop
      vertex 14 19 3
      vertex 22 19 5
      vertex 14 19 5
    endloop
  endfacet
  facet normal 0 -1 -0
    outer loop
      vertex 22 19 5
      vertex 14 19 3
      vertex 22 19 3
    endloop
  endfacet
  facet normal 0 -1 0
    outer loop
      vertex 14 19 5.5
      vertex 22 19 7
      vertex 14 19 7
    endloop
  endfacet
  facet normal 0 -1 -0
    outer loop
      vertex 22 19 7
      vertex 14 19 5.5
      vertex 22 19 5.5
    endloop
  endfacet
  facet normal 0 -1 0
    outer loop
      vertex 37 19 3
      vertex 44.5 19 5
      vertex 37 19 5
    endloop
  endfacet
  facet normal 0 -1 -0
    outer loop
      vertex 44.5 19 5
      vertex 37 19 3
      vertex 44.5 19 3
    endloop
  endfacet
  facet normal -1 0 0
    outer loop
      vertex 13.5 18.5 5
      vertex 13.5 75 5.5
      vertex 13.5 75 5
    endloop
  endfacet
  facet normal -1 -0 0
    outer loop
      vertex 13.5 75 5.5
      vertex 13.5 18.5 5
      vertex 13.5 18.5 5.5
    endloop
  endfacet
  facet normal 0 0 1
    outer loop
      vertex 45 75 5.5
      vertex 44.5 74.5 5.5
      vertex 45 18.5 5.5
    endloop
  endfacet
  facet normal -0 0 1
    outer loop
      vertex 37 75 5.5
      vertex 44.5 74.5 5.5
      vertex 45 75 5.5
    endloop
  endfacet
  facet normal 0 0 1
    outer loop
      vertex 44.5 74.5 5.5
      vertex 37 75 5.5
      vertex 37 74.5 5.5
    endloop
  endfacet
  facet normal -0 0 1
    outer loop
      vertex 44.5 19 5.5
      vertex 45 18.5 5.5
      vertex 44.5 74.5 5.5
    endloop
  endfacet
  facet normal 0 0 1
    outer loop
      vertex 37 18.5 5.5
      vertex 44.5 19 5.5
      vertex 37 19 5.5
    endloop
  endfacet
  facet normal 0 0 1
    outer loop
      vertex 44.5 19 5.5
      vertex 37 18.5 5.5
      vertex 45 18.5 5.5
    endloop
  endfacet
  facet normal 0 0 1
    outer loop
      vertex 22 75 5.5
      vertex 14 74.5 5.5
      vertex 22 74.5 5.5
    endloop
  endfacet
  facet normal 0 0 1
    outer loop
      vertex 14 74.5 5.5
      vertex 13.5 75 5.5
      vertex 14 19 5.5
    endloop
  endfacet
  facet normal -0 0 1
    outer loop
      vertex 13.5 75 5.5
      vertex 14 74.5 5.5
      vertex 22 75 5.5
    endloop
  endfacet
  facet normal -0 0 1
    outer loop
      vertex 14 19 5.5
      vertex 22 18.5 5.5
      vertex 22 19 5.5
    endloop
  endfacet
  facet normal 0 0 1
    outer loop
      vertex 14 19 5.5
      vertex 13.5 18.5 5.5
      vertex 22 18.5 5.5
    endloop
  endfacet
  facet normal 0 0 1
    outer loop
      vertex 13.5 18.5 5.5
      vertex 14 19 5.5
      vertex 13.5 75 5.5
    endloop
  endfacet
  facet normal 1 -0 0
    outer loop
      vertex 45 18.5 5.5
      vertex 45 75 5
      vertex 45 75 5.5
    endloop
  endfacet
  facet normal 1 0 0
    outer loop
      vertex 45 75 5
      vertex 45 18.5 5.5
      vertex 45 18.5 5
    endloop
  endfacet
  facet normal 0 0 -1
    outer loop
      vertex 22 18.5 5
      vertex 14 19 5
      vertex 22 19 5
    endloop
  endfacet
  facet normal -0 0 -1
    outer loop
      vertex 14 19 5
      vertex 13.5 18.5 5
      vertex 14 74.5 5
    endloop
  endfacet
  facet normal 0 0 -1
    outer loop
      vertex 13.5 18.5 5
      vertex 14 19 5
      vertex 22 18.5 5
    endloop
  endfacet
  facet normal 0 0 -1
    outer loop
      vertex 14 74.5 5
      vertex 22 75 5
      vertex 22 74.5 5
    endloop
  endfacet
  facet normal 0 0 -1
    outer loop
      vertex 14 74.5 5
      vertex 13.5 75 5
      vertex 22 75 5
    endloop
  endfacet
  facet normal 0 0 -1
    outer loop
      vertex 13.5 75 5
      vertex 14 74.5 5
      vertex 13.5 18.5 5
    endloop
  endfacet
  facet normal 0 0 -1
    outer loop
      vertex 45 18.5 5
      vertex 44.5 19 5
      vertex 45 75 5
    endloop
  endfacet
  facet normal 0 0 -1
    outer loop
      vertex 37 18.5 5
      vertex 44.5 19 5
      vertex 45 18.5 5
    endloop
  endfacet
  facet normal -0 0 -1
    outer loop
      vertex 44.5 19 5
      vertex 37 18.5 5
      vertex 37 19 5
    endloop
  endfacet
  facet normal 0 0 -1
    outer loop
      vertex 44.5 74.5 5
      vertex 45 75 5
      vertex 44.5 19 5
    endloop
  endfacet
  facet normal 0 0 -1
    outer loop
      vertex 37 75 5
      vertex 44.5 74.5 5
      vertex 37 74.5 5
    endloop
  endfacet
  facet normal 0 0 -1
    outer loop
      vertex 44.5 74.5 5
      vertex 37 75 5
      vertex 45 75 5
    endloop
  endfacet
  facet normal 0 -1 0
    outer loop
      vertex 37 18.5 5
      vertex 45 18.5 5.5
      vertex 37 18.5 5.5
    endloop
  endfacet
  facet normal 0 -1 -0
    outer loop
      vertex 45 18.5 5.5
      vertex 37 18.5 5
      vertex 45 18.5 5
    endloop
  endfacet
  facet normal 0 -1 0
    outer loop
      vertex 13.5 18.5 5
      vertex 22 18.5 5.5
      vertex 13.5 18.5 5.5
    endloop
  endfacet
  facet normal 0 -1 -0
    outer loop
      vertex 22 18.5 5.5
      vertex 13.5 18.5 5
      vertex 22 18.5 5
    endloop
  endfacet
  facet normal 0 1 -0
    outer loop
      vertex 45 75 5
      vertex 37 75 5.5
      vertex 45 75 5.5
    endloop
  endfacet
  facet normal 0 1 0
    outer loop
      vertex 37 75 5.5
      vertex 45 75 5
      vertex 37 75 5
    endloop
  endfacet
  facet normal 0 1 -0
    outer loop
      vertex 22 75 5
      vertex 13.5 75 5.5
      vertex 22 75 5.5
    endloop
  endfacet
  facet normal 0 1 0
    outer loop
      vertex 13.5 75 5.5
      vertex 22 75 5
      vertex 13.5 75 5
    endloop
  endfacet
  facet normal -0 0 1
    outer loop
      vertex 37 73 7.4
      vertex 44.5 72 7.4
      vertex 44.5 73 7.4
    endloop
  endfacet
  facet normal 0 0 1
    outer loop
      vertex 44.5 72 7.4
      vertex 37 73 7.4
      vertex 37 72 7.4
    endloop
  endfacet
  facet normal -0 0 1
    outer loop
      vertex 14 73 7.4
      vertex 22 72 7.4
      vertex 22 73 7.4
    endloop
  endfacet
  facet normal 0 0 1
    outer loop
      vertex 22 72 7.4
      vertex 14 73 7.4
      vertex 14 72 7.4
    endloop
  endfacet
  facet normal 0 1 -0
    outer loop
      vertex 44.5 73 7
      vertex 37 73 7.4
      vertex 44.5 73 7.4
    endloop
  endfacet
  facet normal 0 1 0
    outer loop
      vertex 37 73 7.4
      vertex 44.5 73 7
      vertex 37 73 7
    endloop
  endfacet
  facet normal 0 1 -0
    outer loop
      vertex 22 73 7
      vertex 14 73 7.4
      vertex 22 73 7.4
    endloop
  endfacet
  facet normal 0 1 0
    outer loop
      vertex 14 73 7.4
      vertex 22 73 7
      vertex 14 73 7
    endloop
  endfacet
  facet normal 0 -1 0
    outer loop
      vertex 37 72 7
      vertex 44.5 72 7.4
      vertex 37 72 7.4
    endloop
  endfacet
  facet normal 0 -1 -0
    outer loop
      vertex 44.5 72 7.4
      vertex 37 72 7
      vertex 44.5 72 7
    endloop
  endfacet
  facet normal 0 -1 0
    outer loop
      vertex 14 72 7
      vertex 22 72 7.4
      vertex 14 72 7.4
    endloop
  endfacet
  facet normal 0 -1 -0
    outer loop
      vertex 22 72 7.4
      vertex 14 72 7
      vertex 22 72 7
    endloop
  endfacet
  facet normal 1 0 0
    outer loop
      vertex 22 73 7.4
      vertex 22 72 7.4
      vertex 22 73 7
    endloop
  endfacet
  facet normal 1 -0 0
    outer loop
      vertex 22 73 7
      vertex 22 74.5 5.5
      vertex 22 74.5 7
    endloop
  endfacet
  facet normal 1 0 0
    outer loop
      vertex 22 74.5 5.5
      vertex 22 73 7
      vertex 22 74.5 5
    endloop
  endfacet
  facet normal 1 -0 0
    outer loop
      vertex 22 72 7
      vertex 22 74.5 5
      vertex 22 73 7
    endloop
  endfacet
  facet normal 1 0 0
    outer loop
      vertex 22 72 7
      vertex 22 73 7
      vertex 22 72 7.4
    endloop
  endfacet
  facet normal 1 0 0
    outer loop
      vertex 22 74.5 5
      vertex 22 72 7
      vertex 22 74.5 3
    endloop
  endfacet
  facet normal 1 0 0
    outer loop
      vertex 22 19 5.5
      vertex 22 72 7
      vertex 22 19 7
    endloop
  endfacet
  facet normal 1 0 0
    outer loop
      vertex 22 19 5
      vertex 22 72 7
      vertex 22 19 5.5
    endloop
  endfacet
  facet normal 1 0 0
    outer loop
      vertex 22 19 3
      vertex 22 72 7
      vertex 22 19 5
    endloop
  endfacet
  facet normal 1 0 0
    outer loop
      vertex 22 72 7
      vertex 22 19 3
      vertex 22 74.5 3
    endloop
  endfacet
  facet normal 1 -0 0
    outer loop
      vertex 22 74.5 5.5
      vertex 22 75 5
      vertex 22 75 5.5
    endloop
  endfacet
  facet normal 1 0 0
    outer loop
      vertex 22 75 5
      vertex 22 74.5 5.5
      vertex 22 74.5 5
    endloop
  endfacet
  facet normal 1 -0 0
    outer loop
      vertex 22 18.5 5.5
      vertex 22 19 5
      vertex 22 19 5.5
    endloop
  endfacet
  facet normal 1 0 0
    outer loop
      vertex 22 19 5
      vertex 22 18.5 5.5
      vertex 22 18.5 5
    endloop
  endfacet
  facet normal -1 0 0
    outer loop
      vertex 37 18.5 5
      vertex 37 19 5.5
      vertex 37 19 5
    endloop
  endfacet
  facet normal -1 -0 0
    outer loop
      vertex 37 19 5.5
      vertex 37 18.5 5
      vertex 37 18.5 5.5
    endloop
  endfacet
  facet normal -1 0 0
    outer loop
      vertex 37 72 7
      vertex 37 74.5 5
      vertex 37 74.5 3
    endloop
  endfacet
  facet normal -1 -0 -0
    outer loop
      vertex 37 73 7
      vertex 37 74.5 5
      vertex 37 72 7
    endloop
  endfacet
  facet normal -1 0 0
    outer loop
      vertex 37 74.5 5.5
      vertex 37 73 7
      vertex 37 74.5 7
    endloop
  endfacet
  facet normal -1 0 0
    outer loop
      vertex 37 73 7
      vertex 37 72 7
      vertex 37 73 7.4
    endloop
  endfacet
  facet normal -1 0 0
    outer loop
      vertex 37 74.5 5
      vertex 37 73 7
      vertex 37 74.5 5.5
    endloop
  endfacet
  facet normal -1 0 0
    outer loop
      vertex 37 19 3
      vertex 37 72 7
      vertex 37 74.5 3
    endloop
  endfacet
  facet normal -1 0 0
    outer loop
      vertex 37 19 5
      vertex 37 72 7
      vertex 37 19 3
    endloop
  endfacet
  facet normal -1 0 0
    outer loop
      vertex 37 19 5.5
      vertex 37 72 7
      vertex 37 19 5
    endloop
  endfacet
  facet normal -1 -0 0
    outer loop
      vertex 37 72 7
      vertex 37 19 5.5
      vertex 37 19 7
    endloop
  endfacet
  facet normal -1 0 0
    outer loop
      vertex 37 74.5 5
      vertex 37 75 5.5
      vertex 37 75 5
    endloop
  endfacet
  facet normal -1 -0 0
    outer loop
      vertex 37 75 5.5
      vertex 37 74.5 5
      vertex 37 74.5 5.5
    endloop
  endfacet
  facet normal -1 -0 0
    outer loop
      vertex 37 73 7.4
      vertex 37 72 7
      vertex 37 72 7.4
    endloop
  endfacet
endsolid OpenSCAD_Model
