solid OpenSCAD_Model
  facet normal 0.891006 0.453992 0
    outer loop
      vertex 3.56646 1.15881 7.5
      vertex 3.03381 2.20419 3.5
      vertex 3.03381 2.20419 7.5
    endloop
  endfacet
  facet normal 0.891006 0.453992 0
    outer loop
      vertex 3.03381 2.20419 3.5
      vertex 3.56646 1.15881 7.5
      vertex 3.56646 1.15881 3.5
    endloop
  endfacet
  facet normal 0.987688 0.156437 0
    outer loop
      vertex 3.75 0 7.5
      vertex 3.56646 1.15881 3.5
      vertex 3.56646 1.15881 7.5
    endloop
  endfacet
  facet normal 0.987688 0.156437 0
    outer loop
      vertex 3.56646 1.15881 3.5
      vertex 3.75 0 7.5
      vertex 3.75 0 3.5
    endloop
  endfacet
  facet normal 0.707107 0.707107 0
    outer loop
      vertex 3.03381 2.20419 7.5
      vertex 2.20419 3.03381 3.5
      vertex 2.20419 3.03381 7.5
    endloop
  endfacet
  facet normal 0.707107 0.707107 0
    outer loop
      vertex 2.20419 3.03381 3.5
      vertex 3.03381 2.20419 7.5
      vertex 3.03381 2.20419 3.5
    endloop
  endfacet
  facet normal 0.156437 0.987688 -0
    outer loop
      vertex 1.15881 3.56646 3.5
      vertex 0 3.75 7.5
      vertex 1.15881 3.56646 7.5
    endloop
  endfacet
  facet normal 0.156437 0.987688 0
    outer loop
      vertex 0 3.75 7.5
      vertex 1.15881 3.56646 3.5
      vertex 0 3.75 3.5
    endloop
  endfacet
  facet normal 0 0 1
    outer loop
      vertex 1.6 0 7.5
      vertex 3.75 0 7.5
      vertex 3.56646 1.15881 7.5
    endloop
  endfacet
  facet normal 0 0 1
    outer loop
      vertex 1.52169 0.494427 7.5
      vertex 3.56646 1.15881 7.5
      vertex 3.03381 2.20419 7.5
    endloop
  endfacet
  facet normal 0 0 1
    outer loop
      vertex 3.75 0 7.5
      vertex 1.6 0 7.5
      vertex 3.56646 -1.15881 7.5
    endloop
  endfacet
  facet normal 0 0 1
    outer loop
      vertex 1.29443 0.940456 7.5
      vertex 3.03381 2.20419 7.5
      vertex 2.20419 3.03381 7.5
    endloop
  endfacet
  facet normal -0 0 1
    outer loop
      vertex 1.52169 -0.494427 7.5
      vertex 3.56646 -1.15881 7.5
      vertex 1.6 0 7.5
    endloop
  endfacet
  facet normal 0 0 1
    outer loop
      vertex 3.56646 -1.15881 7.5
      vertex 1.52169 -0.494427 7.5
      vertex 3.03381 -2.20419 7.5
    endloop
  endfacet
  facet normal 0 0 1
    outer loop
      vertex 3.56646 1.15881 7.5
      vertex 1.52169 0.494427 7.5
      vertex 1.6 0 7.5
    endloop
  endfacet
  facet normal 0 0 1
    outer loop
      vertex 3.03381 2.20419 7.5
      vertex 1.29443 0.940456 7.5
      vertex 1.52169 0.494427 7.5
    endloop
  endfacet
  facet normal 0 0 1
    outer loop
      vertex 0.940456 1.29443 7.5
      vertex 2.20419 3.03381 7.5
      vertex 1.15881 3.56646 7.5
    endloop
  endfacet
  facet normal 0 0 1
    outer loop
      vertex 2.20419 3.03381 7.5
      vertex 0.940456 1.29443 7.5
      vertex 1.29443 0.940456 7.5
    endloop
  endfacet
  facet normal 0 0 1
    outer loop
      vertex 1.15881 3.56646 7.5
      vertex 0.494427 1.52169 7.5
      vertex 0.940456 1.29443 7.5
    endloop
  endfacet
  facet normal 0 0 1
    outer loop
      vertex 0 3.75 7.5
      vertex 0.494427 1.52169 7.5
      vertex 1.15881 3.56646 7.5
    endloop
  endfacet
  facet normal 0 0 1
    outer loop
      vertex 0 3.75 7.5
      vertex 0 1.6 7.5
      vertex 0.494427 1.52169 7.5
    endloop
  endfacet
  facet normal 0 0 1
    outer loop
      vertex 0 3.75 7.5
      vertex -0.494427 1.52169 7.5
      vertex 0 1.6 7.5
    endloop
  endfacet
  facet normal -0 0 1
    outer loop
      vertex -1.15881 3.56646 7.5
      vertex -0.494427 1.52169 7.5
      vertex 0 3.75 7.5
    endloop
  endfacet
  facet normal 0 0 1
    outer loop
      vertex -0.494427 1.52169 7.5
      vertex -1.15881 3.56646 7.5
      vertex -0.940456 1.29443 7.5
    endloop
  endfacet
  facet normal -0 0 1
    outer loop
      vertex -2.20419 3.03381 7.5
      vertex -0.940456 1.29443 7.5
      vertex -1.15881 3.56646 7.5
    endloop
  endfacet
  facet normal 0 0 1
    outer loop
      vertex -0.940456 1.29443 7.5
      vertex -2.20419 3.03381 7.5
      vertex -1.29443 0.940456 7.5
    endloop
  endfacet
  facet normal -0 0 1
    outer loop
      vertex -3.03381 2.20419 7.5
      vertex -1.29443 0.940456 7.5
      vertex -2.20419 3.03381 7.5
    endloop
  endfacet
  facet normal 0 0 1
    outer loop
      vertex -1.29443 0.940456 7.5
      vertex -3.03381 2.20419 7.5
      vertex -1.52169 0.494427 7.5
    endloop
  endfacet
  facet normal -0 0 1
    outer loop
      vertex 1.29443 -0.940456 7.5
      vertex 3.03381 -2.20419 7.5
      vertex 1.52169 -0.494427 7.5
    endloop
  endfacet
  facet normal 0 0 1
    outer loop
      vertex 3.03381 -2.20419 7.5
      vertex 1.29443 -0.940456 7.5
      vertex 2.20419 -3.03381 7.5
    endloop
  endfacet
  facet normal -0 0 1
    outer loop
      vertex 0.940456 -1.29443 7.5
      vertex 2.20419 -3.03381 7.5
      vertex 1.29443 -0.940456 7.5
    endloop
  endfacet
  facet normal 0 0 1
    outer loop
      vertex 2.20419 -3.03381 7.5
      vertex 0.940456 -1.29443 7.5
      vertex 1.15881 -3.56646 7.5
    endloop
  endfacet
  facet normal -0 0 1
    outer loop
      vertex 0.494427 -1.52169 7.5
      vertex 1.15881 -3.56646 7.5
      vertex 0.940456 -1.29443 7.5
    endloop
  endfacet
  facet normal -0 0 1
    outer loop
      vertex 0 -1.6 7.5
      vertex 1.15881 -3.56646 7.5
      vertex 0.494427 -1.52169 7.5
    endloop
  endfacet
  facet normal 0 0 1
    outer loop
      vertex 0 -1.6 7.5
      vertex 0 -3.75 7.5
      vertex 1.15881 -3.56646 7.5
    endloop
  endfacet
  facet normal 0 0 1
    outer loop
      vertex -0.494427 -1.52169 7.5
      vertex 0 -3.75 7.5
      vertex 0 -1.6 7.5
    endloop
  endfacet
  facet normal 0 0 1
    outer loop
      vertex -1.15881 -3.56646 7.5
      vertex -0.494427 -1.52169 7.5
      vertex -0.940456 -1.29443 7.5
    endloop
  endfacet
  facet normal 0 0 1
    outer loop
      vertex -0.494427 -1.52169 7.5
      vertex -1.15881 -3.56646 7.5
      vertex 0 -3.75 7.5
    endloop
  endfacet
  facet normal 0 0 1
    outer loop
      vertex -2.20419 -3.03381 7.5
      vertex -0.940456 -1.29443 7.5
      vertex -1.29443 -0.940456 7.5
    endloop
  endfacet
  facet normal 0 0 1
    outer loop
      vertex -3.03381 -2.20419 7.5
      vertex -1.29443 -0.940456 7.5
      vertex -1.52169 -0.494427 7.5
    endloop
  endfacet
  facet normal 0 0 1
    outer loop
      vertex -3.56646 -1.15881 7.5
      vertex -1.52169 -0.494427 7.5
      vertex -1.6 0 7.5
    endloop
  endfacet
  facet normal -0 0 1
    outer loop
      vertex -3.56646 1.15881 7.5
      vertex -1.52169 0.494427 7.5
      vertex -3.03381 2.20419 7.5
    endloop
  endfacet
  facet normal 0 0 1
    outer loop
      vertex -0.940456 -1.29443 7.5
      vertex -2.20419 -3.03381 7.5
      vertex -1.15881 -3.56646 7.5
    endloop
  endfacet
  facet normal 0 0 1
    outer loop
      vertex -1.52169 0.494427 7.5
      vertex -3.56646 1.15881 7.5
      vertex -1.6 0 7.5
    endloop
  endfacet
  facet normal 0 0 1
    outer loop
      vertex -1.29443 -0.940456 7.5
      vertex -3.03381 -2.20419 7.5
      vertex -2.20419 -3.03381 7.5
    endloop
  endfacet
  facet normal 0 0 1
    outer loop
      vertex -3.75 0 7.5
      vertex -1.6 0 7.5
      vertex -3.56646 1.15881 7.5
    endloop
  endfacet
  facet normal 0 0 1
    outer loop
      vertex -1.52169 -0.494427 7.5
      vertex -3.56646 -1.15881 7.5
      vertex -3.03381 -2.20419 7.5
    endloop
  endfacet
  facet normal 0 0 1
    outer loop
      vertex -1.6 0 7.5
      vertex -3.75 0 7.5
      vertex -3.56646 -1.15881 7.5
    endloop
  endfacet
  facet normal -0.987688 0.156437 0
    outer loop
      vertex -3.75 0 3.5
      vertex -3.56646 1.15881 7.5
      vertex -3.56646 1.15881 3.5
    endloop
  endfacet
  facet normal -0.987688 0.156437 0
    outer loop
      vertex -3.56646 1.15881 7.5
      vertex -3.75 0 3.5
      vertex -3.75 0 7.5
    endloop
  endfacet
  facet normal 0.453992 0.891006 -0
    outer loop
      vertex 2.20419 3.03381 3.5
      vertex 1.15881 3.56646 7.5
      vertex 2.20419 3.03381 7.5
    endloop
  endfacet
  facet normal 0.453992 0.891006 0
    outer loop
      vertex 1.15881 3.56646 7.5
      vertex 2.20419 3.03381 3.5
      vertex 1.15881 3.56646 3.5
    endloop
  endfacet
  facet normal -0.453992 0.891006 0
    outer loop
      vertex -1.15881 3.56646 3.5
      vertex -2.20419 3.03381 7.5
      vertex -1.15881 3.56646 7.5
    endloop
  endfacet
  facet normal -0.453992 0.891006 0
    outer loop
      vertex -2.20419 3.03381 7.5
      vertex -1.15881 3.56646 3.5
      vertex -2.20419 3.03381 3.5
    endloop
  endfacet
  facet normal -0.156437 -0.987688 0
    outer loop
      vertex -1.15881 -3.56646 3.5
      vertex 0 -3.75 7.5
      vertex -1.15881 -3.56646 7.5
    endloop
  endfacet
  facet normal -0.156437 -0.987688 -0
    outer loop
      vertex 0 -3.75 7.5
      vertex -1.15881 -3.56646 3.5
      vertex 0 -3.75 3.5
    endloop
  endfacet
  facet normal 0.707107 -0.707107 0
    outer loop
      vertex 2.20419 -3.03381 7.5
      vertex 3.03381 -2.20419 3.5
      vertex 3.03381 -2.20419 7.5
    endloop
  endfacet
  facet normal 0.707107 -0.707107 0
    outer loop
      vertex 3.03381 -2.20419 3.5
      vertex 2.20419 -3.03381 7.5
      vertex 2.20419 -3.03381 3.5
    endloop
  endfacet
  facet normal -0.891006 -0.453992 0
    outer loop
      vertex -3.03381 -2.20419 3.5
      vertex -3.56646 -1.15881 7.5
      vertex -3.56646 -1.15881 3.5
    endloop
  endfacet
  facet normal -0.891006 -0.453992 0
    outer loop
      vertex -3.56646 -1.15881 7.5
      vertex -3.03381 -2.20419 3.5
      vertex -3.03381 -2.20419 7.5
    endloop
  endfacet
  facet normal -0.156437 0.987688 0
    outer loop
      vertex 0 3.75 3.5
      vertex -1.15881 3.56646 7.5
      vertex 0 3.75 7.5
    endloop
  endfacet
  facet normal -0.156437 0.987688 0
    outer loop
      vertex -1.15881 3.56646 7.5
      vertex 0 3.75 3.5
      vertex -1.15881 3.56646 3.5
    endloop
  endfacet
  facet normal 0.453992 -0.891006 0
    outer loop
      vertex 1.15881 -3.56646 3.5
      vertex 2.20419 -3.03381 7.5
      vertex 1.15881 -3.56646 7.5
    endloop
  endfacet
  facet normal 0.453992 -0.891006 0
    outer loop
      vertex 2.20419 -3.03381 7.5
      vertex 1.15881 -3.56646 3.5
      vertex 2.20419 -3.03381 3.5
    endloop
  endfacet
  facet normal 0.156437 -0.987688 0
    outer loop
      vertex 0 -3.75 3.5
      vertex 1.15881 -3.56646 7.5
      vertex 0 -3.75 7.5
    endloop
  endfacet
  facet normal 0.156437 -0.987688 0
    outer loop
      vertex 1.15881 -3.56646 7.5
      vertex 0 -3.75 3.5
      vertex 1.15881 -3.56646 3.5
    endloop
  endfacet
  facet normal -0.987688 -0.156437 0
    outer loop
      vertex -3.56646 -1.15881 3.5
      vertex -3.75 0 7.5
      vertex -3.75 0 3.5
    endloop
  endfacet
  facet normal -0.987688 -0.156437 0
    outer loop
      vertex -3.75 0 7.5
      vertex -3.56646 -1.15881 3.5
      vertex -3.56646 -1.15881 7.5
    endloop
  endfacet
  facet normal -0.891006 0.453992 0
    outer loop
      vertex -3.56646 1.15881 3.5
      vertex -3.03381 2.20419 7.5
      vertex -3.03381 2.20419 3.5
    endloop
  endfacet
  facet normal -0.891006 0.453992 0
    outer loop
      vertex -3.03381 2.20419 7.5
      vertex -3.56646 1.15881 3.5
      vertex -3.56646 1.15881 7.5
    endloop
  endfacet
  facet normal -0.707107 0.707107 0
    outer loop
      vertex -3.03381 2.20419 3.5
      vertex -2.20419 3.03381 7.5
      vertex -2.20419 3.03381 3.5
    endloop
  endfacet
  facet normal -0.707107 0.707107 0
    outer loop
      vertex -2.20419 3.03381 7.5
      vertex -3.03381 2.20419 3.5
      vertex -3.03381 2.20419 7.5
    endloop
  endfacet
  facet normal 0 0 -1
    outer loop
      vertex 2.5 0 3.5
      vertex 3.75 0 3.5
      vertex 3.56646 -1.15881 3.5
    endloop
  endfacet
  facet normal 0 0 -1
    outer loop
      vertex 2.37764 -0.772542 3.5
      vertex 3.56646 -1.15881 3.5
      vertex 3.03381 -2.20419 3.5
    endloop
  endfacet
  facet normal 0 0 -1
    outer loop
      vertex 3.75 0 3.5
      vertex 2.5 0 3.5
      vertex 3.56646 1.15881 3.5
    endloop
  endfacet
  facet normal 0 0 -1
    outer loop
      vertex 2.37764 0.772542 3.5
      vertex 3.56646 1.15881 3.5
      vertex 2.5 0 3.5
    endloop
  endfacet
  facet normal 0 0 -1
    outer loop
      vertex 3.56646 -1.15881 3.5
      vertex 2.37764 -0.772542 3.5
      vertex 2.5 0 3.5
    endloop
  endfacet
  facet normal 0 0 -1
    outer loop
      vertex 2.02254 -1.46946 3.5
      vertex 3.03381 -2.20419 3.5
      vertex 2.20419 -3.03381 3.5
    endloop
  endfacet
  facet normal 0 0 -1
    outer loop
      vertex 3.03381 -2.20419 3.5
      vertex 2.02254 -1.46946 3.5
      vertex 2.37764 -0.772542 3.5
    endloop
  endfacet
  facet normal 0 0 -1
    outer loop
      vertex 2.20419 -3.03381 3.5
      vertex 1.46946 -2.02254 3.5
      vertex 2.02254 -1.46946 3.5
    endloop
  endfacet
  facet normal 0 0 -1
    outer loop
      vertex 1.15881 -3.56646 3.5
      vertex 1.46946 -2.02254 3.5
      vertex 2.20419 -3.03381 3.5
    endloop
  endfacet
  facet normal 0 0 -1
    outer loop
      vertex 1.15881 -3.56646 3.5
      vertex 0.772542 -2.37764 3.5
      vertex 1.46946 -2.02254 3.5
    endloop
  endfacet
  facet normal 0 0 -1
    outer loop
      vertex 0 -3.75 3.5
      vertex 0.772542 -2.37764 3.5
      vertex 1.15881 -3.56646 3.5
    endloop
  endfacet
  facet normal 0 0 -1
    outer loop
      vertex 0 -3.75 3.5
      vertex 0 -2.5 3.5
      vertex 0.772542 -2.37764 3.5
    endloop
  endfacet
  facet normal 0 0 -1
    outer loop
      vertex 0 -3.75 3.5
      vertex -0.772542 -2.37764 3.5
      vertex 0 -2.5 3.5
    endloop
  endfacet
  facet normal 0 0 -1
    outer loop
      vertex -1.15881 -3.56646 3.5
      vertex -0.772542 -2.37764 3.5
      vertex 0 -3.75 3.5
    endloop
  endfacet
  facet normal 0 0 -1
    outer loop
      vertex -1.15881 -3.56646 3.5
      vertex -1.46946 -2.02254 3.5
      vertex -0.772542 -2.37764 3.5
    endloop
  endfacet
  facet normal 0 0 -1
    outer loop
      vertex -2.20419 -3.03381 3.5
      vertex -1.46946 -2.02254 3.5
      vertex -1.15881 -3.56646 3.5
    endloop
  endfacet
  facet normal -0 0 -1
    outer loop
      vertex -1.46946 -2.02254 3.5
      vertex -2.20419 -3.03381 3.5
      vertex -2.02254 -1.46946 3.5
    endloop
  endfacet
  facet normal 0 0 -1
    outer loop
      vertex -3.03381 -2.20419 3.5
      vertex -2.02254 -1.46946 3.5
      vertex -2.20419 -3.03381 3.5
    endloop
  endfacet
  facet normal -0 0 -1
    outer loop
      vertex -2.02254 -1.46946 3.5
      vertex -3.03381 -2.20419 3.5
      vertex -2.37764 -0.772542 3.5
    endloop
  endfacet
  facet normal 0 0 -1
    outer loop
      vertex -3.56646 -1.15881 3.5
      vertex -2.37764 -0.772542 3.5
      vertex -3.03381 -2.20419 3.5
    endloop
  endfacet
  facet normal -0 0 -1
    outer loop
      vertex 3.56646 1.15881 3.5
      vertex 2.37764 0.772542 3.5
      vertex 3.03381 2.20419 3.5
    endloop
  endfacet
  facet normal 0 0 -1
    outer loop
      vertex 2.02254 1.46946 3.5
      vertex 3.03381 2.20419 3.5
      vertex 2.37764 0.772542 3.5
    endloop
  endfacet
  facet normal -0 0 -1
    outer loop
      vertex 3.03381 2.20419 3.5
      vertex 2.02254 1.46946 3.5
      vertex 2.20419 3.03381 3.5
    endloop
  endfacet
  facet normal 0 0 -1
    outer loop
      vertex 1.46946 2.02254 3.5
      vertex 2.20419 3.03381 3.5
      vertex 2.02254 1.46946 3.5
    endloop
  endfacet
  facet normal 0 0 -1
    outer loop
      vertex 1.46946 2.02254 3.5
      vertex 1.15881 3.56646 3.5
      vertex 2.20419 3.03381 3.5
    endloop
  endfacet
  facet normal 0 0 -1
    outer loop
      vertex 0.772542 2.37764 3.5
      vertex 1.15881 3.56646 3.5
      vertex 1.46946 2.02254 3.5
    endloop
  endfacet
  facet normal 0 0 -1
    outer loop
      vertex 0 2.5 3.5
      vertex 1.15881 3.56646 3.5
      vertex 0.772542 2.37764 3.5
    endloop
  endfacet
  facet normal 0 0 -1
    outer loop
      vertex 0 2.5 3.5
      vertex 0 3.75 3.5
      vertex 1.15881 3.56646 3.5
    endloop
  endfacet
  facet normal 0 0 -1
    outer loop
      vertex -0.772542 2.37764 3.5
      vertex 0 3.75 3.5
      vertex 0 2.5 3.5
    endloop
  endfacet
  facet normal 0 0 -1
    outer loop
      vertex -0.772542 2.37764 3.5
      vertex -1.15881 3.56646 3.5
      vertex 0 3.75 3.5
    endloop
  endfacet
  facet normal 0 0 -1
    outer loop
      vertex -1.46946 2.02254 3.5
      vertex -1.15881 3.56646 3.5
      vertex -0.772542 2.37764 3.5
    endloop
  endfacet
  facet normal 0 0 -1
    outer loop
      vertex -2.20419 3.03381 3.5
      vertex -1.46946 2.02254 3.5
      vertex -2.02254 1.46946 3.5
    endloop
  endfacet
  facet normal 0 0 -1
    outer loop
      vertex -1.46946 2.02254 3.5
      vertex -2.20419 3.03381 3.5
      vertex -1.15881 3.56646 3.5
    endloop
  endfacet
  facet normal 0 0 -1
    outer loop
      vertex -3.03381 2.20419 3.5
      vertex -2.02254 1.46946 3.5
      vertex -2.37764 0.772542 3.5
    endloop
  endfacet
  facet normal 0 0 -1
    outer loop
      vertex -3.56646 1.15881 3.5
      vertex -2.37764 0.772542 3.5
      vertex -2.5 0 3.5
    endloop
  endfacet
  facet normal -0 0 -1
    outer loop
      vertex -2.37764 -0.772542 3.5
      vertex -3.56646 -1.15881 3.5
      vertex -2.5 0 3.5
    endloop
  endfacet
  facet normal 0 0 -1
    outer loop
      vertex -2.02254 1.46946 3.5
      vertex -3.03381 2.20419 3.5
      vertex -2.20419 3.03381 3.5
    endloop
  endfacet
  facet normal 0 0 -1
    outer loop
      vertex -3.75 0 3.5
      vertex -2.5 0 3.5
      vertex -3.56646 -1.15881 3.5
    endloop
  endfacet
  facet normal 0 0 -1
    outer loop
      vertex -2.37764 0.772542 3.5
      vertex -3.56646 1.15881 3.5
      vertex -3.03381 2.20419 3.5
    endloop
  endfacet
  facet normal 0 0 -1
    outer loop
      vertex -2.5 0 3.5
      vertex -3.75 0 3.5
      vertex -3.56646 1.15881 3.5
    endloop
  endfacet
  facet normal 0.891006 -0.453992 0
    outer loop
      vertex 3.03381 -2.20419 7.5
      vertex 3.56646 -1.15881 3.5
      vertex 3.56646 -1.15881 7.5
    endloop
  endfacet
  facet normal 0.891006 -0.453992 0
    outer loop
      vertex 3.56646 -1.15881 3.5
      vertex 3.03381 -2.20419 7.5
      vertex 3.03381 -2.20419 3.5
    endloop
  endfacet
  facet normal 0.987688 -0.156437 0
    outer loop
      vertex 3.56646 -1.15881 7.5
      vertex 3.75 0 3.5
      vertex 3.75 0 7.5
    endloop
  endfacet
  facet normal 0.987688 -0.156437 0
    outer loop
      vertex 3.75 0 3.5
      vertex 3.56646 -1.15881 7.5
      vertex 3.56646 -1.15881 3.5
    endloop
  endfacet
  facet normal -0.707107 -0.707107 0
    outer loop
      vertex -2.20419 -3.03381 3.5
      vertex -3.03381 -2.20419 7.5
      vertex -3.03381 -2.20419 3.5
    endloop
  endfacet
  facet normal -0.707107 -0.707107 0
    outer loop
      vertex -3.03381 -2.20419 7.5
      vertex -2.20419 -3.03381 3.5
      vertex -2.20419 -3.03381 7.5
    endloop
  endfacet
  facet normal -0.453992 -0.891006 0
    outer loop
      vertex -2.20419 -3.03381 3.5
      vertex -1.15881 -3.56646 7.5
      vertex -2.20419 -3.03381 7.5
    endloop
  endfacet
  facet normal -0.453992 -0.891006 -0
    outer loop
      vertex -1.15881 -3.56646 7.5
      vertex -2.20419 -3.03381 3.5
      vertex -1.15881 -3.56646 3.5
    endloop
  endfacet
  facet normal -0.891009 -0.453986 0
    outer loop
      vertex 1.52169 0.494427 4.5
      vertex 1.29443 0.940456 7.5
      vertex 1.29443 0.940456 4.5
    endloop
  endfacet
  facet normal -0.891009 -0.453986 0
    outer loop
      vertex 1.29443 0.940456 7.5
      vertex 1.52169 0.494427 4.5
      vertex 1.52169 0.494427 7.5
    endloop
  endfacet
  facet normal -0.987688 -0.156435 0
    outer loop
      vertex 1.6 0 4.5
      vertex 1.52169 0.494427 7.5
      vertex 1.52169 0.494427 4.5
    endloop
  endfacet
  facet normal -0.987688 -0.156435 0
    outer loop
      vertex 1.52169 0.494427 7.5
      vertex 1.6 0 4.5
      vertex 1.6 0 7.5
    endloop
  endfacet
  facet normal -0.707107 -0.707107 0
    outer loop
      vertex 1.29443 0.940456 4.5
      vertex 0.940456 1.29443 7.5
      vertex 0.940456 1.29443 4.5
    endloop
  endfacet
  facet normal -0.707107 -0.707107 0
    outer loop
      vertex 0.940456 1.29443 7.5
      vertex 1.29443 0.940456 4.5
      vertex 1.29443 0.940456 7.5
    endloop
  endfacet
  facet normal 0.707107 0.707107 0
    outer loop
      vertex -0.940456 -1.29443 7.5
      vertex -1.29443 -0.940456 4.5
      vertex -1.29443 -0.940456 7.5
    endloop
  endfacet
  facet normal 0.707107 0.707107 0
    outer loop
      vertex -1.29443 -0.940456 4.5
      vertex -0.940456 -1.29443 7.5
      vertex -0.940456 -1.29443 4.5
    endloop
  endfacet
  facet normal -0.707107 0.707107 0
    outer loop
      vertex 0.940456 -1.29443 4.5
      vertex 1.29443 -0.940456 7.5
      vertex 1.29443 -0.940456 4.5
    endloop
  endfacet
  facet normal -0.707107 0.707107 0
    outer loop
      vertex 1.29443 -0.940456 7.5
      vertex 0.940456 -1.29443 4.5
      vertex 0.940456 -1.29443 7.5
    endloop
  endfacet
  facet normal -0.453986 0.891009 0
    outer loop
      vertex 0.940456 -1.29443 4.5
      vertex 0.494427 -1.52169 7.5
      vertex 0.940456 -1.29443 7.5
    endloop
  endfacet
  facet normal -0.453986 0.891009 0
    outer loop
      vertex 0.494427 -1.52169 7.5
      vertex 0.940456 -1.29443 4.5
      vertex 0.494427 -1.52169 4.5
    endloop
  endfacet
  facet normal 0.453986 0.891009 -0
    outer loop
      vertex -0.494427 -1.52169 4.5
      vertex -0.940456 -1.29443 7.5
      vertex -0.494427 -1.52169 7.5
    endloop
  endfacet
  facet normal 0.453986 0.891009 0
    outer loop
      vertex -0.940456 -1.29443 7.5
      vertex -0.494427 -1.52169 4.5
      vertex -0.940456 -1.29443 4.5
    endloop
  endfacet
  facet normal 0.987688 -0.156435 0
    outer loop
      vertex -1.6 0 7.5
      vertex -1.52169 0.494427 4.5
      vertex -1.52169 0.494427 7.5
    endloop
  endfacet
  facet normal 0.987688 -0.156435 0
    outer loop
      vertex -1.52169 0.494427 4.5
      vertex -1.6 0 7.5
      vertex -1.6 0 4.5
    endloop
  endfacet
  facet normal 0.707107 -0.707107 0
    outer loop
      vertex -1.29443 0.940456 7.5
      vertex -0.940456 1.29443 4.5
      vertex -0.940456 1.29443 7.5
    endloop
  endfacet
  facet normal 0.707107 -0.707107 0
    outer loop
      vertex -0.940456 1.29443 4.5
      vertex -1.29443 0.940456 7.5
      vertex -1.29443 0.940456 4.5
    endloop
  endfacet
  facet normal 0.156435 0.987688 -0
    outer loop
      vertex 0 -1.6 4.5
      vertex -0.494427 -1.52169 7.5
      vertex 0 -1.6 7.5
    endloop
  endfacet
  facet normal 0.156435 0.987688 0
    outer loop
      vertex -0.494427 -1.52169 7.5
      vertex 0 -1.6 4.5
      vertex -0.494427 -1.52169 4.5
    endloop
  endfacet
  facet normal 0.891009 -0.453986 0
    outer loop
      vertex -1.52169 0.494427 7.5
      vertex -1.29443 0.940456 4.5
      vertex -1.29443 0.940456 7.5
    endloop
  endfacet
  facet normal 0.891009 -0.453986 0
    outer loop
      vertex -1.29443 0.940456 4.5
      vertex -1.52169 0.494427 7.5
      vertex -1.52169 0.494427 4.5
    endloop
  endfacet
  facet normal 0.891009 0.453986 0
    outer loop
      vertex -1.29443 -0.940456 7.5
      vertex -1.52169 -0.494427 4.5
      vertex -1.52169 -0.494427 7.5
    endloop
  endfacet
  facet normal 0.891009 0.453986 0
    outer loop
      vertex -1.52169 -0.494427 4.5
      vertex -1.29443 -0.940456 7.5
      vertex -1.29443 -0.940456 4.5
    endloop
  endfacet
  facet normal -0.453986 -0.891009 0
    outer loop
      vertex 0.494427 1.52169 4.5
      vertex 0.940456 1.29443 7.5
      vertex 0.494427 1.52169 7.5
    endloop
  endfacet
  facet normal -0.453986 -0.891009 -0
    outer loop
      vertex 0.940456 1.29443 7.5
      vertex 0.494427 1.52169 4.5
      vertex 0.940456 1.29443 4.5
    endloop
  endfacet
  facet normal -0.987688 0.156435 0
    outer loop
      vertex 1.52169 -0.494427 4.5
      vertex 1.6 0 7.5
      vertex 1.6 0 4.5
    endloop
  endfacet
  facet normal -0.987688 0.156435 0
    outer loop
      vertex 1.6 0 7.5
      vertex 1.52169 -0.494427 4.5
      vertex 1.52169 -0.494427 7.5
    endloop
  endfacet
  facet normal 0.156435 -0.987688 0
    outer loop
      vertex -0.494427 1.52169 4.5
      vertex 0 1.6 7.5
      vertex -0.494427 1.52169 7.5
    endloop
  endfacet
  facet normal 0.156435 -0.987688 0
    outer loop
      vertex 0 1.6 7.5
      vertex -0.494427 1.52169 4.5
      vertex 0 1.6 4.5
    endloop
  endfacet
  facet normal -0.891009 0.453986 0
    outer loop
      vertex 1.29443 -0.940456 4.5
      vertex 1.52169 -0.494427 7.5
      vertex 1.52169 -0.494427 4.5
    endloop
  endfacet
  facet normal -0.891009 0.453986 0
    outer loop
      vertex 1.52169 -0.494427 7.5
      vertex 1.29443 -0.940456 4.5
      vertex 1.29443 -0.940456 7.5
    endloop
  endfacet
  facet normal 0 0 1
    outer loop
      vertex 1.52169 0.494427 4.5
      vertex 1.52169 -0.494427 4.5
      vertex 1.6 0 4.5
    endloop
  endfacet
  facet normal 0 0 1
    outer loop
      vertex 1.29443 0.940456 4.5
      vertex 1.52169 -0.494427 4.5
      vertex 1.52169 0.494427 4.5
    endloop
  endfacet
  facet normal 0 0 1
    outer loop
      vertex 1.29443 0.940456 4.5
      vertex 1.29443 -0.940456 4.5
      vertex 1.52169 -0.494427 4.5
    endloop
  endfacet
  facet normal 0 0 1
    outer loop
      vertex 0.940456 1.29443 4.5
      vertex 1.29443 -0.940456 4.5
      vertex 1.29443 0.940456 4.5
    endloop
  endfacet
  facet normal 0 0 1
    outer loop
      vertex 0.940456 1.29443 4.5
      vertex 0.940456 -1.29443 4.5
      vertex 1.29443 -0.940456 4.5
    endloop
  endfacet
  facet normal 0 0 1
    outer loop
      vertex 0.494427 1.52169 4.5
      vertex 0.940456 -1.29443 4.5
      vertex 0.940456 1.29443 4.5
    endloop
  endfacet
  facet normal 0 0 1
    outer loop
      vertex 0.494427 1.52169 4.5
      vertex 0.494427 -1.52169 4.5
      vertex 0.940456 -1.29443 4.5
    endloop
  endfacet
  facet normal 0 0 1
    outer loop
      vertex 0 1.6 4.5
      vertex 0.494427 -1.52169 4.5
      vertex 0.494427 1.52169 4.5
    endloop
  endfacet
  facet normal 0 0 1
    outer loop
      vertex 0 1.6 4.5
      vertex 0 -1.6 4.5
      vertex 0.494427 -1.52169 4.5
    endloop
  endfacet
  facet normal -0 0 1
    outer loop
      vertex -0.494427 1.52169 4.5
      vertex 0 -1.6 4.5
      vertex 0 1.6 4.5
    endloop
  endfacet
  facet normal 0 0 1
    outer loop
      vertex -0.494427 1.52169 4.5
      vertex -0.494427 -1.52169 4.5
      vertex 0 -1.6 4.5
    endloop
  endfacet
  facet normal -0 0 1
    outer loop
      vertex -0.940456 1.29443 4.5
      vertex -0.494427 -1.52169 4.5
      vertex -0.494427 1.52169 4.5
    endloop
  endfacet
  facet normal 0 0 1
    outer loop
      vertex -0.940456 1.29443 4.5
      vertex -0.940456 -1.29443 4.5
      vertex -0.494427 -1.52169 4.5
    endloop
  endfacet
  facet normal -0 0 1
    outer loop
      vertex -1.29443 0.940456 4.5
      vertex -0.940456 -1.29443 4.5
      vertex -0.940456 1.29443 4.5
    endloop
  endfacet
  facet normal 0 0 1
    outer loop
      vertex -1.29443 0.940456 4.5
      vertex -1.29443 -0.940456 4.5
      vertex -0.940456 -1.29443 4.5
    endloop
  endfacet
  facet normal -0 0 1
    outer loop
      vertex -1.52169 0.494427 4.5
      vertex -1.29443 -0.940456 4.5
      vertex -1.29443 0.940456 4.5
    endloop
  endfacet
  facet normal 0 0 1
    outer loop
      vertex -1.52169 0.494427 4.5
      vertex -1.52169 -0.494427 4.5
      vertex -1.29443 -0.940456 4.5
    endloop
  endfacet
  facet normal 0 -0 1
    outer loop
      vertex -1.52169 -0.494427 4.5
      vertex -1.52169 0.494427 4.5
      vertex -1.6 0 4.5
    endloop
  endfacet
  facet normal 0.453986 -0.891009 0
    outer loop
      vertex -0.940456 1.29443 4.5
      vertex -0.494427 1.52169 7.5
      vertex -0.940456 1.29443 7.5
    endloop
  endfacet
  facet normal 0.453986 -0.891009 0
    outer loop
      vertex -0.494427 1.52169 7.5
      vertex -0.940456 1.29443 4.5
      vertex -0.494427 1.52169 4.5
    endloop
  endfacet
  facet normal -0.156435 -0.987688 0
    outer loop
      vertex 0 1.6 4.5
      vertex 0.494427 1.52169 7.5
      vertex 0 1.6 7.5
    endloop
  endfacet
  facet normal -0.156435 -0.987688 -0
    outer loop
      vertex 0.494427 1.52169 7.5
      vertex 0 1.6 4.5
      vertex 0.494427 1.52169 4.5
    endloop
  endfacet
  facet normal 0.987688 0.156435 0
    outer loop
      vertex -1.52169 -0.494427 7.5
      vertex -1.6 0 4.5
      vertex -1.6 0 7.5
    endloop
  endfacet
  facet normal 0.987688 0.156435 0
    outer loop
      vertex -1.6 0 4.5
      vertex -1.52169 -0.494427 7.5
      vertex -1.52169 -0.494427 4.5
    endloop
  endfacet
  facet normal -0.156435 0.987688 0
    outer loop
      vertex 0.494427 -1.52169 4.5
      vertex 0 -1.6 7.5
      vertex 0.494427 -1.52169 7.5
    endloop
  endfacet
  facet normal -0.156435 0.987688 0
    outer loop
      vertex 0 -1.6 7.5
      vertex 0.494427 -1.52169 4.5
      vertex 0 -1.6 4.5
    endloop
  endfacet
  facet normal 0.891005 0.453993 0
    outer loop
      vertex 2.37764 0.772542 3.5
      vertex 2.02254 1.46946 0
      vertex 2.02254 1.46946 3.5
    endloop
  endfacet
  facet normal 0.891005 0.453993 0
    outer loop
      vertex 2.02254 1.46946 0
      vertex 2.37764 0.772542 3.5
      vertex 2.37764 0.772542 0
    endloop
  endfacet
  facet normal 0.987688 0.156436 0
    outer loop
      vertex 2.5 0 3.5
      vertex 2.37764 0.772542 0
      vertex 2.37764 0.772542 3.5
    endloop
  endfacet
  facet normal 0.987688 0.156436 0
    outer loop
      vertex 2.37764 0.772542 0
      vertex 2.5 0 3.5
      vertex 2.5 0 0
    endloop
  endfacet
  facet normal 0.707107 0.707107 0
    outer loop
      vertex 2.02254 1.46946 3.5
      vertex 1.46946 2.02254 0
      vertex 1.46946 2.02254 3.5
    endloop
  endfacet
  facet normal 0.707107 0.707107 0
    outer loop
      vertex 1.46946 2.02254 0
      vertex 2.02254 1.46946 3.5
      vertex 2.02254 1.46946 0
    endloop
  endfacet
  facet normal 0.156436 0.987688 -0
    outer loop
      vertex 0.772542 2.37764 0
      vertex 0 2.5 3.5
      vertex 0.772542 2.37764 3.5
    endloop
  endfacet
  facet normal 0.156436 0.987688 0
    outer loop
      vertex 0 2.5 3.5
      vertex 0.772542 2.37764 0
      vertex 0 2.5 0
    endloop
  endfacet
  facet normal -0.987688 0.156436 0
    outer loop
      vertex -2.5 0 0
      vertex -2.37764 0.772542 3.5
      vertex -2.37764 0.772542 0
    endloop
  endfacet
  facet normal -0.987688 0.156436 0
    outer loop
      vertex -2.37764 0.772542 3.5
      vertex -2.5 0 0
      vertex -2.5 0 3.5
    endloop
  endfacet
  facet normal 0.453993 0.891005 -0
    outer loop
      vertex 1.46946 2.02254 0
      vertex 0.772542 2.37764 3.5
      vertex 1.46946 2.02254 3.5
    endloop
  endfacet
  facet normal 0.453993 0.891005 0
    outer loop
      vertex 0.772542 2.37764 3.5
      vertex 1.46946 2.02254 0
      vertex 0.772542 2.37764 0
    endloop
  endfacet
  facet normal -0.453993 0.891005 0
    outer loop
      vertex -0.772542 2.37764 0
      vertex -1.46946 2.02254 3.5
      vertex -0.772542 2.37764 3.5
    endloop
  endfacet
  facet normal -0.453993 0.891005 0
    outer loop
      vertex -1.46946 2.02254 3.5
      vertex -0.772542 2.37764 0
      vertex -1.46946 2.02254 0
    endloop
  endfacet
  facet normal -0.156436 -0.987688 0
    outer loop
      vertex -0.772542 -2.37764 0
      vertex 0 -2.5 3.5
      vertex -0.772542 -2.37764 3.5
    endloop
  endfacet
  facet normal -0.156436 -0.987688 -0
    outer loop
      vertex 0 -2.5 3.5
      vertex -0.772542 -2.37764 0
      vertex 0 -2.5 0
    endloop
  endfacet
  facet normal 0.707107 -0.707107 0
    outer loop
      vertex 1.46946 -2.02254 3.5
      vertex 2.02254 -1.46946 0
      vertex 2.02254 -1.46946 3.5
    endloop
  endfacet
  facet normal 0.707107 -0.707107 0
    outer loop
      vertex 2.02254 -1.46946 0
      vertex 1.46946 -2.02254 3.5
      vertex 1.46946 -2.02254 0
    endloop
  endfacet
  facet normal -0.891005 -0.453993 0
    outer loop
      vertex -2.02254 -1.46946 0
      vertex -2.37764 -0.772542 3.5
      vertex -2.37764 -0.772542 0
    endloop
  endfacet
  facet normal -0.891005 -0.453993 0
    outer loop
      vertex -2.37764 -0.772542 3.5
      vertex -2.02254 -1.46946 0
      vertex -2.02254 -1.46946 3.5
    endloop
  endfacet
  facet normal -0.156436 0.987688 0
    outer loop
      vertex 0 2.5 0
      vertex -0.772542 2.37764 3.5
      vertex 0 2.5 3.5
    endloop
  endfacet
  facet normal -0.156436 0.987688 0
    outer loop
      vertex -0.772542 2.37764 3.5
      vertex 0 2.5 0
      vertex -0.772542 2.37764 0
    endloop
  endfacet
  facet normal 0.453993 -0.891005 0
    outer loop
      vertex 0.772542 -2.37764 0
      vertex 1.46946 -2.02254 3.5
      vertex 0.772542 -2.37764 3.5
    endloop
  endfacet
  facet normal 0.453993 -0.891005 0
    outer loop
      vertex 1.46946 -2.02254 3.5
      vertex 0.772542 -2.37764 0
      vertex 1.46946 -2.02254 0
    endloop
  endfacet
  facet normal 0.156436 -0.987688 0
    outer loop
      vertex 0 -2.5 0
      vertex 0.772542 -2.37764 3.5
      vertex 0 -2.5 3.5
    endloop
  endfacet
  facet normal 0.156436 -0.987688 0
    outer loop
      vertex 0.772542 -2.37764 3.5
      vertex 0 -2.5 0
      vertex 0.772542 -2.37764 0
    endloop
  endfacet
  facet normal -0.987688 -0.156436 0
    outer loop
      vertex -2.37764 -0.772542 0
      vertex -2.5 0 3.5
      vertex -2.5 0 0
    endloop
  endfacet
  facet normal -0.987688 -0.156436 0
    outer loop
      vertex -2.5 0 3.5
      vertex -2.37764 -0.772542 0
      vertex -2.37764 -0.772542 3.5
    endloop
  endfacet
  facet normal -0.891005 0.453993 0
    outer loop
      vertex -2.37764 0.772542 0
      vertex -2.02254 1.46946 3.5
      vertex -2.02254 1.46946 0
    endloop
  endfacet
  facet normal -0.891005 0.453993 0
    outer loop
      vertex -2.02254 1.46946 3.5
      vertex -2.37764 0.772542 0
      vertex -2.37764 0.772542 3.5
    endloop
  endfacet
  facet normal -0.707107 0.707107 0
    outer loop
      vertex -2.02254 1.46946 0
      vertex -1.46946 2.02254 3.5
      vertex -1.46946 2.02254 0
    endloop
  endfacet
  facet normal -0.707107 0.707107 0
    outer loop
      vertex -1.46946 2.02254 3.5
      vertex -2.02254 1.46946 0
      vertex -2.02254 1.46946 3.5
    endloop
  endfacet
  facet normal 0 0 -1
    outer loop
      vertex 2.37764 -0.772542 0
      vertex 2.37764 0.772542 0
      vertex 2.5 0 0
    endloop
  endfacet
  facet normal 0 0 -1
    outer loop
      vertex 2.02254 -1.46946 0
      vertex 2.37764 0.772542 0
      vertex 2.37764 -0.772542 0
    endloop
  endfacet
  facet normal 0 0 -1
    outer loop
      vertex 2.02254 -1.46946 0
      vertex 2.02254 1.46946 0
      vertex 2.37764 0.772542 0
    endloop
  endfacet
  facet normal 0 0 -1
    outer loop
      vertex 1.46946 -2.02254 0
      vertex 2.02254 1.46946 0
      vertex 2.02254 -1.46946 0
    endloop
  endfacet
  facet normal 0 0 -1
    outer loop
      vertex 1.46946 -2.02254 0
      vertex 1.46946 2.02254 0
      vertex 2.02254 1.46946 0
    endloop
  endfacet
  facet normal 0 0 -1
    outer loop
      vertex 0.772542 -2.37764 0
      vertex 1.46946 2.02254 0
      vertex 1.46946 -2.02254 0
    endloop
  endfacet
  facet normal 0 0 -1
    outer loop
      vertex 0.772542 -2.37764 0
      vertex 0.772542 2.37764 0
      vertex 1.46946 2.02254 0
    endloop
  endfacet
  facet normal 0 0 -1
    outer loop
      vertex 0 -2.5 0
      vertex 0.772542 2.37764 0
      vertex 0.772542 -2.37764 0
    endloop
  endfacet
  facet normal 0 0 -1
    outer loop
      vertex 0 -2.5 0
      vertex 0 2.5 0
      vertex 0.772542 2.37764 0
    endloop
  endfacet
  facet normal 0 0 -1
    outer loop
      vertex -0.772542 -2.37764 0
      vertex 0 2.5 0
      vertex 0 -2.5 0
    endloop
  endfacet
  facet normal 0 0 -1
    outer loop
      vertex -0.772542 -2.37764 0
      vertex -0.772542 2.37764 0
      vertex 0 2.5 0
    endloop
  endfacet
  facet normal 0 0 -1
    outer loop
      vertex -1.46946 -2.02254 0
      vertex -0.772542 2.37764 0
      vertex -0.772542 -2.37764 0
    endloop
  endfacet
  facet normal 0 0 -1
    outer loop
      vertex -1.46946 -2.02254 0
      vertex -1.46946 2.02254 0
      vertex -0.772542 2.37764 0
    endloop
  endfacet
  facet normal 0 0 -1
    outer loop
      vertex -2.02254 -1.46946 0
      vertex -1.46946 2.02254 0
      vertex -1.46946 -2.02254 0
    endloop
  endfacet
  facet normal 0 0 -1
    outer loop
      vertex -2.02254 -1.46946 0
      vertex -2.02254 1.46946 0
      vertex -1.46946 2.02254 0
    endloop
  endfacet
  facet normal 0 0 -1
    outer loop
      vertex -2.37764 -0.772542 0
      vertex -2.02254 1.46946 0
      vertex -2.02254 -1.46946 0
    endloop
  endfacet
  facet normal 0 0 -1
    outer loop
      vertex -2.37764 -0.772542 0
      vertex -2.37764 0.772542 0
      vertex -2.02254 1.46946 0
    endloop
  endfacet
  facet normal 0 -0 -1
    outer loop
      vertex -2.37764 0.772542 0
      vertex -2.37764 -0.772542 0
      vertex -2.5 0 0
    endloop
  endfacet
  facet normal 0.891005 -0.453993 0
    outer loop
      vertex 2.02254 -1.46946 3.5
      vertex 2.37764 -0.772542 0
      vertex 2.37764 -0.772542 3.5
    endloop
  endfacet
  facet normal 0.891005 -0.453993 0
    outer loop
      vertex 2.37764 -0.772542 0
      vertex 2.02254 -1.46946 3.5
      vertex 2.02254 -1.46946 0
    endloop
  endfacet
  facet normal 0.987688 -0.156436 0
    outer loop
      vertex 2.37764 -0.772542 3.5
      vertex 2.5 0 0
      vertex 2.5 0 3.5
    endloop
  endfacet
  facet normal 0.987688 -0.156436 0
    outer loop
      vertex 2.5 0 0
      vertex 2.37764 -0.772542 3.5
      vertex 2.37764 -0.772542 0
    endloop
  endfacet
  facet normal -0.707107 -0.707107 0
    outer loop
      vertex -1.46946 -2.02254 0
      vertex -2.02254 -1.46946 3.5
      vertex -2.02254 -1.46946 0
    endloop
  endfacet
  facet normal -0.707107 -0.707107 0
    outer loop
      vertex -2.02254 -1.46946 3.5
      vertex -1.46946 -2.02254 0
      vertex -1.46946 -2.02254 3.5
    endloop
  endfacet
  facet normal -0.453993 -0.891005 0
    outer loop
      vertex -1.46946 -2.02254 0
      vertex -0.772542 -2.37764 3.5
      vertex -1.46946 -2.02254 3.5
    endloop
  endfacet
  facet normal -0.453993 -0.891005 -0
    outer loop
      vertex -0.772542 -2.37764 3.5
      vertex -1.46946 -2.02254 0
      vertex -0.772542 -2.37764 0
    endloop
  endfacet
endsolid OpenSCAD_Model
