solid OpenSCAD_Model
  facet normal 0 -1 0
    outer loop
      vertex -2.75 0 4.6
      vertex 0 0 2.79999
      vertex 8.25 0 4.6
    endloop
  endfacet
  facet normal 0 -1 0
    outer loop
      vertex -2.75 0 -1.4
      vertex 0 0 2.79999
      vertex -2.75 0 4.6
    endloop
  endfacet
  facet normal 0 -1 0
    outer loop
      vertex 8.25 0 -1.4
      vertex 0.899994 0 0
      vertex -2.75 0 -1.4
    endloop
  endfacet
  facet normal 0 -1 -0
    outer loop
      vertex 0 0 2.79999
      vertex -2.75 0 -1.4
      vertex 0.899994 0 0
    endloop
  endfacet
  facet normal 0 -1 0
    outer loop
      vertex 7.7 0 2.79999
      vertex 8.25 0 4.6
      vertex 0 0 2.79999
    endloop
  endfacet
  facet normal 0 -1 0
    outer loop
      vertex 7.7 0 2.79999
      vertex 8.25 0 -1.4
      vertex 8.25 0 4.6
    endloop
  endfacet
  facet normal 0 -1 0
    outer loop
      vertex 6.79999 0 0
      vertex 8.25 0 -1.4
      vertex 7.7 0 2.79999
    endloop
  endfacet
  facet normal 0 -1 0
    outer loop
      vertex 0.899994 0 0
      vertex 8.25 0 -1.4
      vertex 6.79999 0 0
    endloop
  endfacet
  facet normal 0 -1 0
    outer loop
      vertex 1.29999 0 0.399994
      vertex 7.29999 0 2.39998
      vertex 0.399994 0 2.39998
    endloop
  endfacet
  facet normal 0 -1 0
    outer loop
      vertex 7.29999 0 2.39998
      vertex 1.29999 0 0.399994
      vertex 6.39999 0 0.399994
    endloop
  endfacet
  facet normal 0 -1 0
    outer loop
      vertex 0 -5.5 2.79999
      vertex 0.399994 -5.5 2.39998
      vertex 7.7 -5.5 2.79999
    endloop
  endfacet
  facet normal 0 -1 0
    outer loop
      vertex 0.899994 -5.5 0
      vertex 0.399994 -5.5 2.39998
      vertex 0 -5.5 2.79999
    endloop
  endfacet
  facet normal 0 -1 -0
    outer loop
      vertex 1.29999 -5.5 0.399994
      vertex 0.899994 -5.5 0
      vertex 6.39999 -5.5 0.399994
    endloop
  endfacet
  facet normal 0 -1 0
    outer loop
      vertex 0.399994 -5.5 2.39998
      vertex 0.899994 -5.5 0
      vertex 1.29999 -5.5 0.399994
    endloop
  endfacet
  facet normal 0 -1 0
    outer loop
      vertex 7.29999 -5.5 2.39998
      vertex 7.7 -5.5 2.79999
      vertex 0.399994 -5.5 2.39998
    endloop
  endfacet
  facet normal 0 -1 0
    outer loop
      vertex 6.79999 -5.5 0
      vertex 7.29999 -5.5 2.39998
      vertex 6.39999 -5.5 0.399994
    endloop
  endfacet
  facet normal 0 -1 -0
    outer loop
      vertex 7.29999 -5.5 2.39998
      vertex 6.79999 -5.5 0
      vertex 7.7 -5.5 2.79999
    endloop
  endfacet
  facet normal 0 -1 0
    outer loop
      vertex 6.79999 -5.5 0
      vertex 6.39999 -5.5 0.399994
      vertex 0.899994 -5.5 0
    endloop
  endfacet
  facet normal -0 0 1
    outer loop
      vertex 0 0 2.79999
      vertex 7.7 -5.5 2.79999
      vertex 7.7 0 2.79999
    endloop
  endfacet
  facet normal 0 0 1
    outer loop
      vertex 7.7 -5.5 2.79999
      vertex 0 0 2.79999
      vertex 0 -5.5 2.79999
    endloop
  endfacet
  facet normal -0.952029 0 -0.306008
    outer loop
      vertex 0.899994 -5.5 0
      vertex 0 0 2.79999
      vertex 0.899994 0 0
    endloop
  endfacet
  facet normal -0.952029 -0 -0.306008
    outer loop
      vertex 0 0 2.79999
      vertex 0.899994 -5.5 0
      vertex 0 -5.5 2.79999
    endloop
  endfacet
  facet normal 0 0 -1
    outer loop
      vertex 0.899994 -5.5 0
      vertex 6.79999 0 0
      vertex 6.79999 -5.5 0
    endloop
  endfacet
  facet normal -0 0 -1
    outer loop
      vertex 6.79999 0 0
      vertex 0.899994 -5.5 0
      vertex 0.899994 0 0
    endloop
  endfacet
  facet normal 0.952027 0 -0.306013
    outer loop
      vertex 7.7 -5.5 2.79999
      vertex 6.79999 0 0
      vertex 7.7 0 2.79999
    endloop
  endfacet
  facet normal 0.952027 0 -0.306013
    outer loop
      vertex 6.79999 0 0
      vertex 7.7 -5.5 2.79999
      vertex 6.79999 -5.5 0
    endloop
  endfacet
  facet normal 0.911921 -0 0.410366
    outer loop
      vertex 0.399994 -5.5 2.39998
      vertex 1.29999 0 0.399994
      vertex 0.399994 0 2.39998
    endloop
  endfacet
  facet normal 0.911921 0 0.410366
    outer loop
      vertex 1.29999 0 0.399994
      vertex 0.399994 -5.5 2.39998
      vertex 1.29999 -5.5 0.399994
    endloop
  endfacet
  facet normal 0 0 -1
    outer loop
      vertex 0.399994 -5.5 2.39998
      vertex 7.29999 0 2.39998
      vertex 7.29999 -5.5 2.39998
    endloop
  endfacet
  facet normal -0 0 -1
    outer loop
      vertex 7.29999 0 2.39998
      vertex 0.399994 -5.5 2.39998
      vertex 0.399994 0 2.39998
    endloop
  endfacet
  facet normal -0.91192 0 0.410367
    outer loop
      vertex 6.39999 -5.5 0.399994
      vertex 7.29999 0 2.39998
      vertex 6.39999 0 0.399994
    endloop
  endfacet
  facet normal -0.91192 0 0.410367
    outer loop
      vertex 7.29999 0 2.39998
      vertex 6.39999 -5.5 0.399994
      vertex 7.29999 -5.5 2.39998
    endloop
  endfacet
  facet normal -0 0 1
    outer loop
      vertex 1.29999 0 0.399994
      vertex 6.39999 -5.5 0.399994
      vertex 6.39999 0 0.399994
    endloop
  endfacet
  facet normal 0 0 1
    outer loop
      vertex 6.39999 -5.5 0.399994
      vertex 1.29999 0 0.399994
      vertex 1.29999 -5.5 0.399994
    endloop
  endfacet
  facet normal -1 0 0
    outer loop
      vertex -2.75 0 -1.4
      vertex -2.75 20 4.6
      vertex -2.75 20 -1.4
    endloop
  endfacet
  facet normal -1 -0 0
    outer loop
      vertex -2.75 20 4.6
      vertex -2.75 0 -1.4
      vertex -2.75 0 4.6
    endloop
  endfacet
  facet normal -0 0 1
    outer loop
      vertex -2.75 20 4.6
      vertex 8.25 0 4.6
      vertex 8.25 20 4.6
    endloop
  endfacet
  facet normal 0 0 1
    outer loop
      vertex 8.25 0 4.6
      vertex -2.75 20 4.6
      vertex -2.75 0 4.6
    endloop
  endfacet
  facet normal 1 -0 0
    outer loop
      vertex 8.25 0 4.6
      vertex 8.25 20 -1.4
      vertex 8.25 20 4.6
    endloop
  endfacet
  facet normal 1 0 0
    outer loop
      vertex 8.25 20 -1.4
      vertex 8.25 0 4.6
      vertex 8.25 0 -1.4
    endloop
  endfacet
  facet normal 0 0 -1
    outer loop
      vertex -2.75 0 -1.4
      vertex 8.25 20 -1.4
      vertex 8.25 0 -1.4
    endloop
  endfacet
  facet normal -0 0 -1
    outer loop
      vertex 8.25 20 -1.4
      vertex -2.75 0 -1.4
      vertex -2.75 20 -1.4
    endloop
  endfacet
  facet normal 0 1 -0
    outer loop
      vertex 8.25 20 -1.4
      vertex -2.75 20 4.6
      vertex 8.25 20 4.6
    endloop
  endfacet
  facet normal 0 1 0
    outer loop
      vertex -2.75 20 4.6
      vertex 8.25 20 -1.4
      vertex -2.75 20 -1.4
    endloop
  endfacet
endsolid OpenSCAD_Model
