solid OpenSCAD_Model
  facet normal 0 1 0
    outer loop
      vertex 40 3 12
      vertex 35.9 3 7
      vertex 0 3 12
    endloop
  endfacet
  facet normal 0 1 -0
    outer loop
      vertex 40 3 3.1
      vertex 35.9 3 7
      vertex 40 3 12
    endloop
  endfacet
  facet normal 0 1 0
    outer loop
      vertex 35.9 3 7
      vertex 40 3 3.1
      vertex 39.9 3 3
    endloop
  endfacet
  facet normal 0 1 -0
    outer loop
      vertex 3.9 3 7
      vertex 0 3 12
      vertex 35.9 3 7
    endloop
  endfacet
  facet normal 0 1 0
    outer loop
      vertex 0 3 12
      vertex 3.9 3 7
      vertex 0 3 3.1
    endloop
  endfacet
  facet normal -0.707107 0 0.707107
    outer loop
      vertex 0 3 3.1
      vertex 3.9 15 7
      vertex 0 15 3.1
    endloop
  endfacet
  facet normal -0.707107 0 0.707107
    outer loop
      vertex 3.9 15 7
      vertex 0 3 3.1
      vertex 3.9 3 7
    endloop
  endfacet
  facet normal 0 -1 0
    outer loop
      vertex 35.9 15 7
      vertex 0 15 12
      vertex 3.9 15 7
    endloop
  endfacet
  facet normal -0 -1 0
    outer loop
      vertex 3.9 15 7
      vertex 0 15 12
      vertex 0 15 3.1
    endloop
  endfacet
  facet normal 0 -1 0
    outer loop
      vertex 0 15 12
      vertex 35.9 15 7
      vertex 40 15 12
    endloop
  endfacet
  facet normal 0 -1 0
    outer loop
      vertex 35.9 15 7
      vertex 40 15 3.1
      vertex 40 15 12
    endloop
  endfacet
  facet normal -0 -1 0
    outer loop
      vertex 40 15 3.1
      vertex 35.9 15 7
      vertex 39.9 15 3
    endloop
  endfacet
  facet normal 0.707107 0 0.707107
    outer loop
      vertex 35.9 15 7
      vertex 39.9 3 3
      vertex 39.9 15 3
    endloop
  endfacet
  facet normal 0.707107 0 0.707107
    outer loop
      vertex 39.9 3 3
      vertex 35.9 15 7
      vertex 35.9 3 7
    endloop
  endfacet
  facet normal -0.707107 0 0.707107
    outer loop
      vertex 39.9 3 3
      vertex 40 15 3.1
      vertex 39.9 15 3
    endloop
  endfacet
  facet normal -0.707107 0 0.707107
    outer loop
      vertex 40 15 3.1
      vertex 39.9 3 3
      vertex 40 3 3.1
    endloop
  endfacet
  facet normal 1 0 0
    outer loop
      vertex 40 3 12
      vertex 40 0 12
      vertex 40 3 3.1
    endloop
  endfacet
  facet normal 1 0 0
    outer loop
      vertex 40 15 3.1
      vertex 40 18 12
      vertex 40 15 12
    endloop
  endfacet
  facet normal 1 0 0
    outer loop
      vertex 40 18 12
      vertex 40 15 3.1
      vertex 40 18 0
    endloop
  endfacet
  facet normal 1 -0 0
    outer loop
      vertex 40 3 3.1
      vertex 40 18 0
      vertex 40 15 3.1
    endloop
  endfacet
  facet normal 1 0 0
    outer loop
      vertex 40 3 3.1
      vertex 40 0 0
      vertex 40 18 0
    endloop
  endfacet
  facet normal 1 0 0
    outer loop
      vertex 40 0 0
      vertex 40 3 3.1
      vertex 40 0 12
    endloop
  endfacet
  facet normal -0 0 1
    outer loop
      vertex 0 18 12
      vertex 40 15 12
      vertex 40 18 12
    endloop
  endfacet
  facet normal 0 0 1
    outer loop
      vertex 40 15 12
      vertex 0 18 12
      vertex 0 15 12
    endloop
  endfacet
  facet normal -0 0 1
    outer loop
      vertex 0 3 12
      vertex 40 0 12
      vertex 40 3 12
    endloop
  endfacet
  facet normal 0 0 1
    outer loop
      vertex 40 0 12
      vertex 0 3 12
      vertex 0 0 12
    endloop
  endfacet
  facet normal 0 0 -1
    outer loop
      vertex 0 0 0
      vertex 40 18 0
      vertex 40 0 0
    endloop
  endfacet
  facet normal -0 0 -1
    outer loop
      vertex 40 18 0
      vertex 0 0 0
      vertex 0 18 0
    endloop
  endfacet
  facet normal -1 0 0
    outer loop
      vertex 0 18 0
      vertex 0 15 3.1
      vertex 0 18 12
    endloop
  endfacet
  facet normal -1 0 0
    outer loop
      vertex 0 18 0
      vertex 0 3 3.1
      vertex 0 15 3.1
    endloop
  endfacet
  facet normal -1 0 0
    outer loop
      vertex 0 0 0
      vertex 0 3 3.1
      vertex 0 18 0
    endloop
  endfacet
  facet normal -1 0 0
    outer loop
      vertex 0 0 12
      vertex 0 3 3.1
      vertex 0 0 0
    endloop
  endfacet
  facet normal -1 0 0
    outer loop
      vertex 0 3 3.1
      vertex 0 0 12
      vertex 0 3 12
    endloop
  endfacet
  facet normal -1 -0 0
    outer loop
      vertex 0 18 12
      vertex 0 15 3.1
      vertex 0 15 12
    endloop
  endfacet
  facet normal 0 1 -0
    outer loop
      vertex 40 18 0
      vertex 0 18 12
      vertex 40 18 12
    endloop
  endfacet
  facet normal 0 1 0
    outer loop
      vertex 0 18 12
      vertex 40 18 0
      vertex 0 18 0
    endloop
  endfacet
  facet normal 0 -1 0
    outer loop
      vertex 0 0 0
      vertex 40 0 12
      vertex 0 0 12
    endloop
  endfacet
  facet normal 0 -1 -0
    outer loop
      vertex 40 0 12
      vertex 0 0 0
      vertex 40 0 0
    endloop
  endfacet
  facet normal -0 0 1
    outer loop
      vertex 3.9 15 7
      vertex 35.9 3 7
      vertex 35.9 15 7
    endloop
  endfacet
  facet normal 0 0 1
    outer loop
      vertex 35.9 3 7
      vertex 3.9 15 7
      vertex 3.9 3 7
    endloop
  endfacet
endsolid OpenSCAD_Model
