solid OpenSCAD_Model
  facet normal -1 0 0
    outer loop
      vertex 4 13 0
      vertex 4 64.3 2.5
      vertex 4 64.3 0
    endloop
  endfacet
  facet normal -1 -0 0
    outer loop
      vertex 4 64.3 2.5
      vertex 4 13 0
      vertex 4 13 2.5
    endloop
  endfacet
  facet normal 0 0 1
    outer loop
      vertex 22 19 2.5
      vertex 14 19 2.5
      vertex 22 18 2.5
    endloop
  endfacet
  facet normal 0 0 1
    outer loop
      vertex 53.6 64.3 2.5
      vertex 43.6 58.3 2.5
      vertex 53.6 13 2.5
    endloop
  endfacet
  facet normal 0 0 1
    outer loop
      vertex 53.6 64.3 2.5
      vertex 37 59.3 2.5
      vertex 43.6 58.3 2.5
    endloop
  endfacet
  facet normal 0 0 1
    outer loop
      vertex 53.6 64.3 2.5
      vertex 22 59.3 2.5
      vertex 37 59.3 2.5
    endloop
  endfacet
  facet normal 0 0 1
    outer loop
      vertex 22 59.3 2.5
      vertex 14 58.3 2.5
      vertex 22 58.3 2.5
    endloop
  endfacet
  facet normal -0 0 1
    outer loop
      vertex 4 64.3 2.5
      vertex 22 59.3 2.5
      vertex 53.6 64.3 2.5
    endloop
  endfacet
  facet normal 0 0 1
    outer loop
      vertex 14 58.3 2.5
      vertex 4 64.3 2.5
      vertex 14 19 2.5
    endloop
  endfacet
  facet normal 0 0 1
    outer loop
      vertex 22 59.3 2.5
      vertex 4 64.3 2.5
      vertex 14 58.3 2.5
    endloop
  endfacet
  facet normal -0 0 1
    outer loop
      vertex 43.6 19 2.5
      vertex 53.6 13 2.5
      vertex 43.6 58.3 2.5
    endloop
  endfacet
  facet normal 0 0 1
    outer loop
      vertex 37 18 2.5
      vertex 43.6 19 2.5
      vertex 37 19 2.5
    endloop
  endfacet
  facet normal 0 0 1
    outer loop
      vertex 43.6 19 2.5
      vertex 37 18 2.5
      vertex 53.6 13 2.5
    endloop
  endfacet
  facet normal -0 0 1
    outer loop
      vertex 22 18 2.5
      vertex 53.6 13 2.5
      vertex 37 18 2.5
    endloop
  endfacet
  facet normal 0 0 1
    outer loop
      vertex 4 13 2.5
      vertex 22 18 2.5
      vertex 14 19 2.5
    endloop
  endfacet
  facet normal 0 0 1
    outer loop
      vertex 22 18 2.5
      vertex 4 13 2.5
      vertex 53.6 13 2.5
    endloop
  endfacet
  facet normal 0 0 1
    outer loop
      vertex 4 13 2.5
      vertex 14 19 2.5
      vertex 4 64.3 2.5
    endloop
  endfacet
  facet normal 0 0 1
    outer loop
      vertex 43.6 58.3 2.5
      vertex 37 59.3 2.5
      vertex 37 58.3 2.5
    endloop
  endfacet
  facet normal 0 0 1
    outer loop
      vertex 22 58.3 2.5
      vertex 37 58.3 2.5
      vertex 37 59.3 2.5
    endloop
  endfacet
  facet normal 0 0 1
    outer loop
      vertex 37 58.3 2.5
      vertex 22 58.3 2.5
      vertex 37 19 2.5
    endloop
  endfacet
  facet normal 0 0 1
    outer loop
      vertex 22 58.3 2.5
      vertex 37 59.3 2.5
      vertex 22 59.3 2.5
    endloop
  endfacet
  facet normal 0 0 1
    outer loop
      vertex 22 19 2.5
      vertex 37 19 2.5
      vertex 22 58.3 2.5
    endloop
  endfacet
  facet normal 0 0 1
    outer loop
      vertex 37 19 2.5
      vertex 22 19 2.5
      vertex 37 18 2.5
    endloop
  endfacet
  facet normal 0 0 1
    outer loop
      vertex 37 18 2.5
      vertex 22 19 2.5
      vertex 22 18 2.5
    endloop
  endfacet
  facet normal 1 -0 0
    outer loop
      vertex 53.6 13 2.5
      vertex 53.6 64.3 0
      vertex 53.6 64.3 2.5
    endloop
  endfacet
  facet normal 1 0 0
    outer loop
      vertex 53.6 64.3 0
      vertex 53.6 13 2.5
      vertex 53.6 13 0
    endloop
  endfacet
  facet normal 0 0 -1
    outer loop
      vertex 4 13 0
      vertex 53.6 64.3 0
      vertex 53.6 13 0
    endloop
  endfacet
  facet normal -0 0 -1
    outer loop
      vertex 53.6 64.3 0
      vertex 4 13 0
      vertex 4 64.3 0
    endloop
  endfacet
  facet normal 0 -1 0
    outer loop
      vertex 4 13 0
      vertex 53.6 13 2.5
      vertex 4 13 2.5
    endloop
  endfacet
  facet normal 0 -1 -0
    outer loop
      vertex 53.6 13 2.5
      vertex 4 13 0
      vertex 53.6 13 0
    endloop
  endfacet
  facet normal 0 1 -0
    outer loop
      vertex 53.6 64.3 0
      vertex 4 64.3 2.5
      vertex 53.6 64.3 2.5
    endloop
  endfacet
  facet normal 0 1 0
    outer loop
      vertex 4 64.3 2.5
      vertex 53.6 64.3 0
      vertex 4 64.3 0
    endloop
  endfacet
  facet normal -1 0 0
    outer loop
      vertex 14 19 2.5
      vertex 14 58.3 4.5
      vertex 14 58.3 2.5
    endloop
  endfacet
  facet normal -1 -0 0
    outer loop
      vertex 14 58.3 4.5
      vertex 14 19 2.5
      vertex 14 19 4.5
    endloop
  endfacet
  facet normal 1 -0 0
    outer loop
      vertex 43.6 19 4.5
      vertex 43.6 58.3 2.5
      vertex 43.6 58.3 4.5
    endloop
  endfacet
  facet normal 1 0 0
    outer loop
      vertex 43.6 58.3 2.5
      vertex 43.6 19 4.5
      vertex 43.6 19 2.5
    endloop
  endfacet
  facet normal 0 -1 0
    outer loop
      vertex 14 19 2.5
      vertex 22 19 4.5
      vertex 14 19 4.5
    endloop
  endfacet
  facet normal 0 -1 -0
    outer loop
      vertex 22 19 4.5
      vertex 14 19 2.5
      vertex 22 19 2.5
    endloop
  endfacet
  facet normal 0 -1 0
    outer loop
      vertex 37 19 2.5
      vertex 43.6 19 4.5
      vertex 37 19 4.5
    endloop
  endfacet
  facet normal 0 -1 -0
    outer loop
      vertex 43.6 19 4.5
      vertex 37 19 2.5
      vertex 43.6 19 2.5
    endloop
  endfacet
  facet normal 0 1 -0
    outer loop
      vertex 43.6 58.3 2.5
      vertex 37 58.3 4.5
      vertex 43.6 58.3 4.5
    endloop
  endfacet
  facet normal 0 1 0
    outer loop
      vertex 37 58.3 4.5
      vertex 43.6 58.3 2.5
      vertex 37 58.3 2.5
    endloop
  endfacet
  facet normal 0 1 -0
    outer loop
      vertex 22 58.3 2.5
      vertex 14 58.3 4.5
      vertex 22 58.3 4.5
    endloop
  endfacet
  facet normal 0 1 0
    outer loop
      vertex 14 58.3 4.5
      vertex 22 58.3 2.5
      vertex 14 58.3 2.5
    endloop
  endfacet
  facet normal -1 0 0
    outer loop
      vertex 13.2 18.2 4.5
      vertex 13.2 59.1 5.3
      vertex 13.2 59.1 4.5
    endloop
  endfacet
  facet normal -1 -0 0
    outer loop
      vertex 13.2 59.1 5.3
      vertex 13.2 18.2 4.5
      vertex 13.2 18.2 5.3
    endloop
  endfacet
  facet normal 0 0 1
    outer loop
      vertex 43.6 52.6 5.3
      vertex 44.4 59.1 5.3
      vertex 43.6 54 5.3
    endloop
  endfacet
  facet normal -0 0 1
    outer loop
      vertex 37 59.1 5.3
      vertex 43.6 54 5.3
      vertex 44.4 59.1 5.3
    endloop
  endfacet
  facet normal 0 0 1
    outer loop
      vertex 43.6 54 5.3
      vertex 37 59.1 5.3
      vertex 37 54 5.3
    endloop
  endfacet
  facet normal 0 0 1
    outer loop
      vertex 44.4 59.1 5.3
      vertex 43.6 52.6 5.3
      vertex 44.4 18.2 5.3
    endloop
  endfacet
  facet normal 0 0 1
    outer loop
      vertex 37 18.2 5.3
      vertex 43.6 52.6 5.3
      vertex 37 52.6 5.3
    endloop
  endfacet
  facet normal 0 0 1
    outer loop
      vertex 43.6 52.6 5.3
      vertex 37 18.2 5.3
      vertex 44.4 18.2 5.3
    endloop
  endfacet
  facet normal 0 0 1
    outer loop
      vertex 22 59.1 5.3
      vertex 14 54 5.3
      vertex 22 54 5.3
    endloop
  endfacet
  facet normal 0 0 1
    outer loop
      vertex 14 54 5.3
      vertex 13.2 59.1 5.3
      vertex 14 52.6 5.3
    endloop
  endfacet
  facet normal -0 0 1
    outer loop
      vertex 13.2 59.1 5.3
      vertex 14 54 5.3
      vertex 22 59.1 5.3
    endloop
  endfacet
  facet normal -0 0 1
    outer loop
      vertex 14 52.6 5.3
      vertex 22 18.2 5.3
      vertex 22 52.6 5.3
    endloop
  endfacet
  facet normal 0 0 1
    outer loop
      vertex 14 52.6 5.3
      vertex 13.2 18.2 5.3
      vertex 22 18.2 5.3
    endloop
  endfacet
  facet normal 0 0 1
    outer loop
      vertex 13.2 18.2 5.3
      vertex 14 52.6 5.3
      vertex 13.2 59.1 5.3
    endloop
  endfacet
  facet normal 1 -0 0
    outer loop
      vertex 44.4 18.2 5.3
      vertex 44.4 59.1 4.5
      vertex 44.4 59.1 5.3
    endloop
  endfacet
  facet normal 1 0 0
    outer loop
      vertex 44.4 59.1 4.5
      vertex 44.4 18.2 5.3
      vertex 44.4 18.2 4.5
    endloop
  endfacet
  facet normal 0 0 -1
    outer loop
      vertex 22 18.2 4.5
      vertex 14 19 4.5
      vertex 22 19 4.5
    endloop
  endfacet
  facet normal -0 0 -1
    outer loop
      vertex 14 19 4.5
      vertex 13.2 18.2 4.5
      vertex 14 58.3 4.5
    endloop
  endfacet
  facet normal 0 0 -1
    outer loop
      vertex 13.2 18.2 4.5
      vertex 14 19 4.5
      vertex 22 18.2 4.5
    endloop
  endfacet
  facet normal 0 0 -1
    outer loop
      vertex 14 58.3 4.5
      vertex 22 59.1 4.5
      vertex 22 58.3 4.5
    endloop
  endfacet
  facet normal 0 0 -1
    outer loop
      vertex 14 58.3 4.5
      vertex 13.2 59.1 4.5
      vertex 22 59.1 4.5
    endloop
  endfacet
  facet normal 0 0 -1
    outer loop
      vertex 13.2 59.1 4.5
      vertex 14 58.3 4.5
      vertex 13.2 18.2 4.5
    endloop
  endfacet
  facet normal 0 0 -1
    outer loop
      vertex 44.4 18.2 4.5
      vertex 43.6 19 4.5
      vertex 44.4 59.1 4.5
    endloop
  endfacet
  facet normal 0 0 -1
    outer loop
      vertex 37 18.2 4.5
      vertex 43.6 19 4.5
      vertex 44.4 18.2 4.5
    endloop
  endfacet
  facet normal -0 0 -1
    outer loop
      vertex 43.6 19 4.5
      vertex 37 18.2 4.5
      vertex 37 19 4.5
    endloop
  endfacet
  facet normal 0 0 -1
    outer loop
      vertex 43.6 58.3 4.5
      vertex 44.4 59.1 4.5
      vertex 43.6 19 4.5
    endloop
  endfacet
  facet normal 0 0 -1
    outer loop
      vertex 37 59.1 4.5
      vertex 43.6 58.3 4.5
      vertex 37 58.3 4.5
    endloop
  endfacet
  facet normal 0 0 -1
    outer loop
      vertex 43.6 58.3 4.5
      vertex 37 59.1 4.5
      vertex 44.4 59.1 4.5
    endloop
  endfacet
  facet normal 0 -1 0
    outer loop
      vertex 37 18.2 4.5
      vertex 44.4 18.2 5.3
      vertex 37 18.2 5.3
    endloop
  endfacet
  facet normal 0 -1 -0
    outer loop
      vertex 44.4 18.2 5.3
      vertex 37 18.2 4.5
      vertex 44.4 18.2 4.5
    endloop
  endfacet
  facet normal 0 -1 0
    outer loop
      vertex 13.2 18.2 4.5
      vertex 22 18.2 5.3
      vertex 13.2 18.2 5.3
    endloop
  endfacet
  facet normal 0 -1 -0
    outer loop
      vertex 22 18.2 5.3
      vertex 13.2 18.2 4.5
      vertex 22 18.2 4.5
    endloop
  endfacet
  facet normal 0 1 -0
    outer loop
      vertex 44.4 59.1 4.5
      vertex 37 59.1 5.3
      vertex 44.4 59.1 5.3
    endloop
  endfacet
  facet normal 0 1 0
    outer loop
      vertex 37 59.1 5.3
      vertex 44.4 59.1 4.5
      vertex 37 59.1 4.5
    endloop
  endfacet
  facet normal 0 1 -0
    outer loop
      vertex 22 59.1 4.5
      vertex 13.2 59.1 5.3
      vertex 22 59.1 5.3
    endloop
  endfacet
  facet normal 0 1 0
    outer loop
      vertex 13.2 59.1 5.3
      vertex 22 59.1 4.5
      vertex 13.2 59.1 4.5
    endloop
  endfacet
  facet normal -1 0 0
    outer loop
      vertex 14 52.6 5.3
      vertex 14 54 5.7
      vertex 14 54 5.3
    endloop
  endfacet
  facet normal -1 -0 0
    outer loop
      vertex 14 54 5.7
      vertex 14 52.6 5.3
      vertex 14 52.6 5.7
    endloop
  endfacet
  facet normal -0 0 1
    outer loop
      vertex 37 54 5.7
      vertex 43.6 52.6 5.7
      vertex 43.6 54 5.7
    endloop
  endfacet
  facet normal 0 0 1
    outer loop
      vertex 43.6 52.6 5.7
      vertex 37 54 5.7
      vertex 37 52.6 5.7
    endloop
  endfacet
  facet normal -0 0 1
    outer loop
      vertex 14 54 5.7
      vertex 22 52.6 5.7
      vertex 22 54 5.7
    endloop
  endfacet
  facet normal 0 0 1
    outer loop
      vertex 22 52.6 5.7
      vertex 14 54 5.7
      vertex 14 52.6 5.7
    endloop
  endfacet
  facet normal 1 -0 0
    outer loop
      vertex 43.6 52.6 5.7
      vertex 43.6 54 5.3
      vertex 43.6 54 5.7
    endloop
  endfacet
  facet normal 1 0 0
    outer loop
      vertex 43.6 54 5.3
      vertex 43.6 52.6 5.7
      vertex 43.6 52.6 5.3
    endloop
  endfacet
  facet normal 0 -1 0
    outer loop
      vertex 37 52.6 5.3
      vertex 43.6 52.6 5.7
      vertex 37 52.6 5.7
    endloop
  endfacet
  facet normal 0 -1 -0
    outer loop
      vertex 43.6 52.6 5.7
      vertex 37 52.6 5.3
      vertex 43.6 52.6 5.3
    endloop
  endfacet
  facet normal 0 -1 0
    outer loop
      vertex 14 52.6 5.3
      vertex 22 52.6 5.7
      vertex 14 52.6 5.7
    endloop
  endfacet
  facet normal 0 -1 -0
    outer loop
      vertex 22 52.6 5.7
      vertex 14 52.6 5.3
      vertex 22 52.6 5.3
    endloop
  endfacet
  facet normal 0 1 -0
    outer loop
      vertex 43.6 54 5.3
      vertex 37 54 5.7
      vertex 43.6 54 5.7
    endloop
  endfacet
  facet normal 0 1 0
    outer loop
      vertex 37 54 5.7
      vertex 43.6 54 5.3
      vertex 37 54 5.3
    endloop
  endfacet
  facet normal 0 1 -0
    outer loop
      vertex 22 54 5.3
      vertex 14 54 5.7
      vertex 22 54 5.7
    endloop
  endfacet
  facet normal 0 1 0
    outer loop
      vertex 14 54 5.7
      vertex 22 54 5.3
      vertex 14 54 5.3
    endloop
  endfacet
  facet normal 1 0 0
    outer loop
      vertex 22 54 5.7
      vertex 22 52.6 5.7
      vertex 22 54 5.3
    endloop
  endfacet
  facet normal 1 0 0
    outer loop
      vertex 22 59.1 5.3
      vertex 22 58.3 4.5
      vertex 22 59.1 4.5
    endloop
  endfacet
  facet normal 1 -0 0
    outer loop
      vertex 22 54 5.3
      vertex 22 58.3 4.5
      vertex 22 59.1 5.3
    endloop
  endfacet
  facet normal 1 0 0
    outer loop
      vertex 22 54 5.3
      vertex 22 58.3 2.5
      vertex 22 58.3 4.5
    endloop
  endfacet
  facet normal 1 0 0
    outer loop
      vertex 22 52.6 5.3
      vertex 22 54 5.3
      vertex 22 52.6 5.7
    endloop
  endfacet
  facet normal 1 0 0
    outer loop
      vertex 22 54 5.3
      vertex 22 52.6 5.3
      vertex 22 58.3 2.5
    endloop
  endfacet
  facet normal 1 0 0
    outer loop
      vertex 22 19 2.5
      vertex 22 52.6 5.3
      vertex 22 19 4.5
    endloop
  endfacet
  facet normal 1 0 0
    outer loop
      vertex 22 52.6 5.3
      vertex 22 19 2.5
      vertex 22 58.3 2.5
    endloop
  endfacet
  facet normal 1 -0 0
    outer loop
      vertex 22 18.2 5.3
      vertex 22 19 4.5
      vertex 22 52.6 5.3
    endloop
  endfacet
  facet normal 1 0 0
    outer loop
      vertex 22 19 4.5
      vertex 22 18.2 5.3
      vertex 22 18.2 4.5
    endloop
  endfacet
  facet normal -1 0 0
    outer loop
      vertex 37 58.3 2.5
      vertex 37 54 5.3
      vertex 37 58.3 4.5
    endloop
  endfacet
  facet normal -1 0 0
    outer loop
      vertex 37 54 5.3
      vertex 37 52.6 5.3
      vertex 37 54 5.7
    endloop
  endfacet
  facet normal -1 0 0
    outer loop
      vertex 37 58.3 2.5
      vertex 37 52.6 5.3
      vertex 37 54 5.3
    endloop
  endfacet
  facet normal -1 0 0
    outer loop
      vertex 37 19 2.5
      vertex 37 52.6 5.3
      vertex 37 58.3 2.5
    endloop
  endfacet
  facet normal -1 0 0
    outer loop
      vertex 37 19 4.5
      vertex 37 52.6 5.3
      vertex 37 19 2.5
    endloop
  endfacet
  facet normal -1 0 0
    outer loop
      vertex 37 18.2 5.3
      vertex 37 19 4.5
      vertex 37 18.2 4.5
    endloop
  endfacet
  facet normal -1 0 0
    outer loop
      vertex 37 19 4.5
      vertex 37 18.2 5.3
      vertex 37 52.6 5.3
    endloop
  endfacet
  facet normal -1 0 0
    outer loop
      vertex 37 58.3 4.5
      vertex 37 59.1 5.3
      vertex 37 59.1 4.5
    endloop
  endfacet
  facet normal -1 -0 0
    outer loop
      vertex 37 59.1 5.3
      vertex 37 58.3 4.5
      vertex 37 54 5.3
    endloop
  endfacet
  facet normal -1 -0 0
    outer loop
      vertex 37 54 5.7
      vertex 37 52.6 5.3
      vertex 37 52.6 5.7
    endloop
  endfacet
endsolid OpenSCAD_Model
