solid OpenSCAD_Model
  facet normal -1 0 0
    outer loop
      vertex 9.5 16 0
      vertex 9.5 58.9 2.5
      vertex 9.5 58.9 0
    endloop
  endfacet
  facet normal -1 -0 0
    outer loop
      vertex 9.5 58.9 2.5
      vertex 9.5 16 0
      vertex 9.5 16 2.5
    endloop
  endfacet
  facet normal 0 0 1
    outer loop
      vertex 22 19 2.5
      vertex 14 19 2.5
      vertex 22 18 2.5
    endloop
  endfacet
  facet normal 0 0 1
    outer loop
      vertex 47.7 58.9 2.5
      vertex 43.2 55.9 2.5
      vertex 47.7 16 2.5
    endloop
  endfacet
  facet normal 0 0 1
    outer loop
      vertex 47.7 58.9 2.5
      vertex 36 56.9 2.5
      vertex 43.2 55.9 2.5
    endloop
  endfacet
  facet normal 0 0 1
    outer loop
      vertex 47.7 58.9 2.5
      vertex 22 56.9 2.5
      vertex 36 56.9 2.5
    endloop
  endfacet
  facet normal 0 0 1
    outer loop
      vertex 22 56.9 2.5
      vertex 14 55.9 2.5
      vertex 22 55.9 2.5
    endloop
  endfacet
  facet normal 0 0 1
    outer loop
      vertex 14 55.9 2.5
      vertex 9.5 58.9 2.5
      vertex 14 19 2.5
    endloop
  endfacet
  facet normal 0 0 1
    outer loop
      vertex 22 56.9 2.5
      vertex 9.5 58.9 2.5
      vertex 14 55.9 2.5
    endloop
  endfacet
  facet normal -0 0 1
    outer loop
      vertex 9.5 58.9 2.5
      vertex 22 56.9 2.5
      vertex 47.7 58.9 2.5
    endloop
  endfacet
  facet normal -0 0 1
    outer loop
      vertex 43.2 19 2.5
      vertex 47.7 16 2.5
      vertex 43.2 55.9 2.5
    endloop
  endfacet
  facet normal 0 0 1
    outer loop
      vertex 36 18 2.5
      vertex 43.2 19 2.5
      vertex 36 19 2.5
    endloop
  endfacet
  facet normal 0 0 1
    outer loop
      vertex 43.2 19 2.5
      vertex 36 18 2.5
      vertex 47.7 16 2.5
    endloop
  endfacet
  facet normal -0 0 1
    outer loop
      vertex 22 18 2.5
      vertex 47.7 16 2.5
      vertex 36 18 2.5
    endloop
  endfacet
  facet normal 0 0 1
    outer loop
      vertex 22 18 2.5
      vertex 9.5 16 2.5
      vertex 47.7 16 2.5
    endloop
  endfacet
  facet normal 0 0 1
    outer loop
      vertex 14 19 2.5
      vertex 9.5 16 2.5
      vertex 22 18 2.5
    endloop
  endfacet
  facet normal 0 0 1
    outer loop
      vertex 9.5 16 2.5
      vertex 14 19 2.5
      vertex 9.5 58.9 2.5
    endloop
  endfacet
  facet normal 0 0 1
    outer loop
      vertex 43.2 55.9 2.5
      vertex 36 56.9 2.5
      vertex 36 55.9 2.5
    endloop
  endfacet
  facet normal 0 0 1
    outer loop
      vertex 22 55.9 2.5
      vertex 36 55.9 2.5
      vertex 36 56.9 2.5
    endloop
  endfacet
  facet normal 0 0 1
    outer loop
      vertex 36 55.9 2.5
      vertex 22 55.9 2.5
      vertex 36 19 2.5
    endloop
  endfacet
  facet normal 0 0 1
    outer loop
      vertex 22 55.9 2.5
      vertex 36 56.9 2.5
      vertex 22 56.9 2.5
    endloop
  endfacet
  facet normal 0 0 1
    outer loop
      vertex 22 19 2.5
      vertex 36 19 2.5
      vertex 22 55.9 2.5
    endloop
  endfacet
  facet normal 0 0 1
    outer loop
      vertex 36 19 2.5
      vertex 22 19 2.5
      vertex 36 18 2.5
    endloop
  endfacet
  facet normal 0 0 1
    outer loop
      vertex 36 18 2.5
      vertex 22 19 2.5
      vertex 22 18 2.5
    endloop
  endfacet
  facet normal 1 -0 0
    outer loop
      vertex 47.7 16 2.5
      vertex 47.7 58.9 0
      vertex 47.7 58.9 2.5
    endloop
  endfacet
  facet normal 1 0 0
    outer loop
      vertex 47.7 58.9 0
      vertex 47.7 16 2.5
      vertex 47.7 16 0
    endloop
  endfacet
  facet normal 0 0 -1
    outer loop
      vertex 9.5 16 0
      vertex 47.7 58.9 0
      vertex 47.7 16 0
    endloop
  endfacet
  facet normal -0 0 -1
    outer loop
      vertex 47.7 58.9 0
      vertex 9.5 16 0
      vertex 9.5 58.9 0
    endloop
  endfacet
  facet normal 0 -1 0
    outer loop
      vertex 9.5 16 0
      vertex 47.7 16 2.5
      vertex 9.5 16 2.5
    endloop
  endfacet
  facet normal 0 -1 -0
    outer loop
      vertex 47.7 16 2.5
      vertex 9.5 16 0
      vertex 47.7 16 0
    endloop
  endfacet
  facet normal 0 1 -0
    outer loop
      vertex 47.7 58.9 0
      vertex 9.5 58.9 2.5
      vertex 47.7 58.9 2.5
    endloop
  endfacet
  facet normal 0 1 0
    outer loop
      vertex 9.5 58.9 2.5
      vertex 47.7 58.9 0
      vertex 9.5 58.9 0
    endloop
  endfacet
  facet normal -1 0 0
    outer loop
      vertex 14 55.9 4.8
      vertex 14 51.6 5.1
      vertex 14 55.9 5.1
    endloop
  endfacet
  facet normal -1 0 0
    outer loop
      vertex 14 51.6 5.1
      vertex 14 50.2 5.1
      vertex 14 51.6 5.7
    endloop
  endfacet
  facet normal -1 0 0
    outer loop
      vertex 14 55.9 4.8
      vertex 14 50.2 5.1
      vertex 14 51.6 5.1
    endloop
  endfacet
  facet normal -1 0 0
    outer loop
      vertex 14 19 4.8
      vertex 14 50.2 5.1
      vertex 14 55.9 4.8
    endloop
  endfacet
  facet normal -1 -0 0
    outer loop
      vertex 14 50.2 5.1
      vertex 14 19 4.8
      vertex 14 19 5.1
    endloop
  endfacet
  facet normal -1 -0 0
    outer loop
      vertex 14 51.6 5.7
      vertex 14 50.2 5.1
      vertex 14 50.2 5.7
    endloop
  endfacet
  facet normal -1 0 0
    outer loop
      vertex 14 19 2.5
      vertex 14 55.9 3.7
      vertex 14 55.9 2.5
    endloop
  endfacet
  facet normal -1 -0 0
    outer loop
      vertex 14 55.9 3.7
      vertex 14 19 2.5
      vertex 14 19 3.7
    endloop
  endfacet
  facet normal -0 0 1
    outer loop
      vertex 36 50.2 5.1
      vertex 43.2 19 5.1
      vertex 43.2 50.2 5.1
    endloop
  endfacet
  facet normal 0 0 1
    outer loop
      vertex 43.2 19 5.1
      vertex 36 50.2 5.1
      vertex 36 19 5.1
    endloop
  endfacet
  facet normal -0 0 1
    outer loop
      vertex 14 50.2 5.1
      vertex 22 19 5.1
      vertex 22 50.2 5.1
    endloop
  endfacet
  facet normal 0 0 1
    outer loop
      vertex 22 19 5.1
      vertex 14 50.2 5.1
      vertex 14 19 5.1
    endloop
  endfacet
  facet normal -0 0 1
    outer loop
      vertex 36 55.9 5.1
      vertex 43.2 51.6 5.1
      vertex 43.2 55.9 5.1
    endloop
  endfacet
  facet normal 0 0 1
    outer loop
      vertex 43.2 51.6 5.1
      vertex 36 55.9 5.1
      vertex 36 51.6 5.1
    endloop
  endfacet
  facet normal -0 0 1
    outer loop
      vertex 14 55.9 5.1
      vertex 22 51.6 5.1
      vertex 22 55.9 5.1
    endloop
  endfacet
  facet normal 0 0 1
    outer loop
      vertex 22 51.6 5.1
      vertex 14 55.9 5.1
      vertex 14 51.6 5.1
    endloop
  endfacet
  facet normal 1 0 0
    outer loop
      vertex 43.2 51.6 5.7
      vertex 43.2 50.2 5.7
      vertex 43.2 51.6 5.1
    endloop
  endfacet
  facet normal 1 -0 0
    outer loop
      vertex 43.2 51.6 5.1
      vertex 43.2 55.9 4.8
      vertex 43.2 55.9 5.1
    endloop
  endfacet
  facet normal 1 0 0
    outer loop
      vertex 43.2 50.2 5.1
      vertex 43.2 51.6 5.1
      vertex 43.2 50.2 5.7
    endloop
  endfacet
  facet normal 1 -0 0
    outer loop
      vertex 43.2 50.2 5.1
      vertex 43.2 55.9 4.8
      vertex 43.2 51.6 5.1
    endloop
  endfacet
  facet normal 1 0 0
    outer loop
      vertex 43.2 19 4.8
      vertex 43.2 50.2 5.1
      vertex 43.2 19 5.1
    endloop
  endfacet
  facet normal 1 0 0
    outer loop
      vertex 43.2 50.2 5.1
      vertex 43.2 19 4.8
      vertex 43.2 55.9 4.8
    endloop
  endfacet
  facet normal 1 -0 0
    outer loop
      vertex 43.2 19 3.7
      vertex 43.2 55.9 2.5
      vertex 43.2 55.9 3.7
    endloop
  endfacet
  facet normal 1 0 0
    outer loop
      vertex 43.2 55.9 2.5
      vertex 43.2 19 3.7
      vertex 43.2 19 2.5
    endloop
  endfacet
  facet normal 0 1 -0
    outer loop
      vertex 43.2 55.9 2.5
      vertex 36 55.9 3.7
      vertex 43.2 55.9 3.7
    endloop
  endfacet
  facet normal 0 1 0
    outer loop
      vertex 36 55.9 3.7
      vertex 43.2 55.9 2.5
      vertex 36 55.9 2.5
    endloop
  endfacet
  facet normal 0 1 -0
    outer loop
      vertex 43.2 55.9 4.8
      vertex 36 55.9 5.1
      vertex 43.2 55.9 5.1
    endloop
  endfacet
  facet normal 0 1 0
    outer loop
      vertex 36 55.9 5.1
      vertex 43.2 55.9 4.8
      vertex 36 55.9 4.8
    endloop
  endfacet
  facet normal 0 1 -0
    outer loop
      vertex 22 55.9 4.8
      vertex 14 55.9 5.1
      vertex 22 55.9 5.1
    endloop
  endfacet
  facet normal 0 1 0
    outer loop
      vertex 14 55.9 5.1
      vertex 22 55.9 4.8
      vertex 14 55.9 4.8
    endloop
  endfacet
  facet normal 0 1 -0
    outer loop
      vertex 22 55.9 2.5
      vertex 14 55.9 3.7
      vertex 22 55.9 3.7
    endloop
  endfacet
  facet normal 0 1 0
    outer loop
      vertex 14 55.9 3.7
      vertex 22 55.9 2.5
      vertex 14 55.9 2.5
    endloop
  endfacet
  facet normal 0 -1 0
    outer loop
      vertex 36 19 4.8
      vertex 43.2 19 5.1
      vertex 36 19 5.1
    endloop
  endfacet
  facet normal 0 -1 -0
    outer loop
      vertex 43.2 19 5.1
      vertex 36 19 4.8
      vertex 43.2 19 4.8
    endloop
  endfacet
  facet normal 0 -1 0
    outer loop
      vertex 14 19 2.5
      vertex 22 19 3.7
      vertex 14 19 3.7
    endloop
  endfacet
  facet normal 0 -1 -0
    outer loop
      vertex 22 19 3.7
      vertex 14 19 2.5
      vertex 22 19 2.5
    endloop
  endfacet
  facet normal 0 -1 0
    outer loop
      vertex 14 19 4.8
      vertex 22 19 5.1
      vertex 14 19 5.1
    endloop
  endfacet
  facet normal 0 -1 -0
    outer loop
      vertex 22 19 5.1
      vertex 14 19 4.8
      vertex 22 19 4.8
    endloop
  endfacet
  facet normal 0 -1 0
    outer loop
      vertex 36 19 2.5
      vertex 43.2 19 3.7
      vertex 36 19 3.7
    endloop
  endfacet
  facet normal 0 -1 -0
    outer loop
      vertex 43.2 19 3.7
      vertex 36 19 2.5
      vertex 43.2 19 2.5
    endloop
  endfacet
  facet normal -1 0 0
    outer loop
      vertex 12.9 17.9 3.7
      vertex 12.9 57 4.8
      vertex 12.9 57 3.7
    endloop
  endfacet
  facet normal -1 -0 0
    outer loop
      vertex 12.9 57 4.8
      vertex 12.9 17.9 3.7
      vertex 12.9 17.9 4.8
    endloop
  endfacet
  facet normal 0 0 1
    outer loop
      vertex 22 19 4.8
      vertex 14 19 4.8
      vertex 22 18 4.8
    endloop
  endfacet
  facet normal 0 0 1
    outer loop
      vertex 44.3 57 4.8
      vertex 43.2 55.9 4.8
      vertex 44.3 17.9 4.8
    endloop
  endfacet
  facet normal 0 0 1
    outer loop
      vertex 44.3 57 4.8
      vertex 36 56.9 4.8
      vertex 43.2 55.9 4.8
    endloop
  endfacet
  facet normal 0 0 1
    outer loop
      vertex 44.3 57 4.8
      vertex 22 56.9 4.8
      vertex 36 56.9 4.8
    endloop
  endfacet
  facet normal 0 0 1
    outer loop
      vertex 22 56.9 4.8
      vertex 14 55.9 4.8
      vertex 22 55.9 4.8
    endloop
  endfacet
  facet normal 0 0 1
    outer loop
      vertex 14 55.9 4.8
      vertex 12.9 57 4.8
      vertex 14 19 4.8
    endloop
  endfacet
  facet normal 0 0 1
    outer loop
      vertex 22 56.9 4.8
      vertex 12.9 57 4.8
      vertex 14 55.9 4.8
    endloop
  endfacet
  facet normal -0 0 1
    outer loop
      vertex 12.9 57 4.8
      vertex 22 56.9 4.8
      vertex 44.3 57 4.8
    endloop
  endfacet
  facet normal -0 0 1
    outer loop
      vertex 43.2 19 4.8
      vertex 44.3 17.9 4.8
      vertex 43.2 55.9 4.8
    endloop
  endfacet
  facet normal 0 0 1
    outer loop
      vertex 36 18 4.8
      vertex 43.2 19 4.8
      vertex 36 19 4.8
    endloop
  endfacet
  facet normal 0 0 1
    outer loop
      vertex 43.2 19 4.8
      vertex 36 18 4.8
      vertex 44.3 17.9 4.8
    endloop
  endfacet
  facet normal -0 0 1
    outer loop
      vertex 22 18 4.8
      vertex 44.3 17.9 4.8
      vertex 36 18 4.8
    endloop
  endfacet
  facet normal 0 0 1
    outer loop
      vertex 22 18 4.8
      vertex 12.9 17.9 4.8
      vertex 44.3 17.9 4.8
    endloop
  endfacet
  facet normal 0 0 1
    outer loop
      vertex 14 19 4.8
      vertex 12.9 17.9 4.8
      vertex 22 18 4.8
    endloop
  endfacet
  facet normal 0 0 1
    outer loop
      vertex 12.9 17.9 4.8
      vertex 14 19 4.8
      vertex 12.9 57 4.8
    endloop
  endfacet
  facet normal 0 0 1
    outer loop
      vertex 43.2 55.9 4.8
      vertex 36 56.9 4.8
      vertex 36 55.9 4.8
    endloop
  endfacet
  facet normal 1 -0 0
    outer loop
      vertex 44.3 17.9 4.8
      vertex 44.3 57 3.7
      vertex 44.3 57 4.8
    endloop
  endfacet
  facet normal 1 0 0
    outer loop
      vertex 44.3 57 3.7
      vertex 44.3 17.9 4.8
      vertex 44.3 17.9 3.7
    endloop
  endfacet
  facet normal 0 0 -1
    outer loop
      vertex 22 55.9 3.7
      vertex 14 55.9 3.7
      vertex 22 56.9 3.7
    endloop
  endfacet
  facet normal 0 0 -1
    outer loop
      vertex 44.3 17.9 3.7
      vertex 43.2 19 3.7
      vertex 44.3 57 3.7
    endloop
  endfacet
  facet normal 0 0 -1
    outer loop
      vertex 44.3 17.9 3.7
      vertex 36 18 3.7
      vertex 43.2 19 3.7
    endloop
  endfacet
  facet normal 0 0 -1
    outer loop
      vertex 44.3 17.9 3.7
      vertex 22 18 3.7
      vertex 36 18 3.7
    endloop
  endfacet
  facet normal 0 0 -1
    outer loop
      vertex 22 18 3.7
      vertex 14 19 3.7
      vertex 22 19 3.7
    endloop
  endfacet
  facet normal -0 0 -1
    outer loop
      vertex 14 19 3.7
      vertex 12.9 17.9 3.7
      vertex 14 55.9 3.7
    endloop
  endfacet
  facet normal -0 0 -1
    outer loop
      vertex 22 18 3.7
      vertex 12.9 17.9 3.7
      vertex 14 19 3.7
    endloop
  endfacet
  facet normal 0 0 -1
    outer loop
      vertex 12.9 17.9 3.7
      vertex 22 18 3.7
      vertex 44.3 17.9 3.7
    endloop
  endfacet
  facet normal 0 0 -1
    outer loop
      vertex 43.2 55.9 3.7
      vertex 44.3 57 3.7
      vertex 43.2 19 3.7
    endloop
  endfacet
  facet normal 0 0 -1
    outer loop
      vertex 36 56.9 3.7
      vertex 43.2 55.9 3.7
      vertex 36 55.9 3.7
    endloop
  endfacet
  facet normal 0 0 -1
    outer loop
      vertex 43.2 55.9 3.7
      vertex 36 56.9 3.7
      vertex 44.3 57 3.7
    endloop
  endfacet
  facet normal 0 0 -1
    outer loop
      vertex 22 56.9 3.7
      vertex 44.3 57 3.7
      vertex 36 56.9 3.7
    endloop
  endfacet
  facet normal 0 0 -1
    outer loop
      vertex 22 56.9 3.7
      vertex 12.9 57 3.7
      vertex 44.3 57 3.7
    endloop
  endfacet
  facet normal 0 0 -1
    outer loop
      vertex 14 55.9 3.7
      vertex 12.9 57 3.7
      vertex 22 56.9 3.7
    endloop
  endfacet
  facet normal 0 0 -1
    outer loop
      vertex 12.9 57 3.7
      vertex 14 55.9 3.7
      vertex 12.9 17.9 3.7
    endloop
  endfacet
  facet normal -0 0 -1
    outer loop
      vertex 43.2 19 3.7
      vertex 36 18 3.7
      vertex 36 19 3.7
    endloop
  endfacet
  facet normal 0 -1 0
    outer loop
      vertex 12.9 17.9 3.7
      vertex 44.3 17.9 4.8
      vertex 12.9 17.9 4.8
    endloop
  endfacet
  facet normal 0 -1 -0
    outer loop
      vertex 44.3 17.9 4.8
      vertex 12.9 17.9 3.7
      vertex 44.3 17.9 3.7
    endloop
  endfacet
  facet normal 0 1 -0
    outer loop
      vertex 44.3 57 3.7
      vertex 12.9 57 4.8
      vertex 44.3 57 4.8
    endloop
  endfacet
  facet normal 0 1 0
    outer loop
      vertex 12.9 57 4.8
      vertex 44.3 57 3.7
      vertex 12.9 57 3.7
    endloop
  endfacet
  facet normal -0 0 1
    outer loop
      vertex 36 51.6 5.7
      vertex 43.2 50.2 5.7
      vertex 43.2 51.6 5.7
    endloop
  endfacet
  facet normal 0 0 1
    outer loop
      vertex 43.2 50.2 5.7
      vertex 36 51.6 5.7
      vertex 36 50.2 5.7
    endloop
  endfacet
  facet normal -0 0 1
    outer loop
      vertex 14 51.6 5.7
      vertex 22 50.2 5.7
      vertex 22 51.6 5.7
    endloop
  endfacet
  facet normal 0 0 1
    outer loop
      vertex 22 50.2 5.7
      vertex 14 51.6 5.7
      vertex 14 50.2 5.7
    endloop
  endfacet
  facet normal 0 1 -0
    outer loop
      vertex 43.2 51.6 5.1
      vertex 36 51.6 5.7
      vertex 43.2 51.6 5.7
    endloop
  endfacet
  facet normal 0 1 0
    outer loop
      vertex 36 51.6 5.7
      vertex 43.2 51.6 5.1
      vertex 36 51.6 5.1
    endloop
  endfacet
  facet normal 0 1 -0
    outer loop
      vertex 22 51.6 5.1
      vertex 14 51.6 5.7
      vertex 22 51.6 5.7
    endloop
  endfacet
  facet normal 0 1 0
    outer loop
      vertex 14 51.6 5.7
      vertex 22 51.6 5.1
      vertex 14 51.6 5.1
    endloop
  endfacet
  facet normal 0 -1 0
    outer loop
      vertex 36 50.2 5.1
      vertex 43.2 50.2 5.7
      vertex 36 50.2 5.7
    endloop
  endfacet
  facet normal 0 -1 -0
    outer loop
      vertex 43.2 50.2 5.7
      vertex 36 50.2 5.1
      vertex 43.2 50.2 5.1
    endloop
  endfacet
  facet normal 0 -1 0
    outer loop
      vertex 14 50.2 5.1
      vertex 22 50.2 5.7
      vertex 14 50.2 5.7
    endloop
  endfacet
  facet normal 0 -1 -0
    outer loop
      vertex 22 50.2 5.7
      vertex 14 50.2 5.1
      vertex 22 50.2 5.1
    endloop
  endfacet
  facet normal 1 0 0
    outer loop
      vertex 22 51.6 5.7
      vertex 22 50.2 5.7
      vertex 22 51.6 5.1
    endloop
  endfacet
  facet normal 1 -0 0
    outer loop
      vertex 22 51.6 5.1
      vertex 22 55.9 4.8
      vertex 22 55.9 5.1
    endloop
  endfacet
  facet normal 1 0 0
    outer loop
      vertex 22 55.9 4.8
      vertex 22 51.6 5.1
      vertex 22 55.9 3.7
    endloop
  endfacet
  facet normal 1 0 0
    outer loop
      vertex 22 55.9 3.7
      vertex 22 51.6 5.1
      vertex 22 55.9 2.5
    endloop
  endfacet
  facet normal 1 0 0
    outer loop
      vertex 22 50.2 5.1
      vertex 22 51.6 5.1
      vertex 22 50.2 5.7
    endloop
  endfacet
  facet normal 1 0 0
    outer loop
      vertex 22 51.6 5.1
      vertex 22 50.2 5.1
      vertex 22 55.9 2.5
    endloop
  endfacet
  facet normal 1 0 0
    outer loop
      vertex 22 19 4.8
      vertex 22 50.2 5.1
      vertex 22 19 5.1
    endloop
  endfacet
  facet normal 1 0 0
    outer loop
      vertex 22 19 3.7
      vertex 22 50.2 5.1
      vertex 22 19 4.8
    endloop
  endfacet
  facet normal 1 0 0
    outer loop
      vertex 22 19 2.5
      vertex 22 50.2 5.1
      vertex 22 19 3.7
    endloop
  endfacet
  facet normal 1 0 0
    outer loop
      vertex 22 50.2 5.1
      vertex 22 19 2.5
      vertex 22 55.9 2.5
    endloop
  endfacet
  facet normal 1 -0 0
    outer loop
      vertex 22 55.9 4.8
      vertex 22 56.9 3.7
      vertex 22 56.9 4.8
    endloop
  endfacet
  facet normal 1 0 0
    outer loop
      vertex 22 56.9 3.7
      vertex 22 55.9 4.8
      vertex 22 55.9 3.7
    endloop
  endfacet
  facet normal 1 -0 0
    outer loop
      vertex 22 18 4.8
      vertex 22 19 3.7
      vertex 22 19 4.8
    endloop
  endfacet
  facet normal 1 0 0
    outer loop
      vertex 22 19 3.7
      vertex 22 18 4.8
      vertex 22 18 3.7
    endloop
  endfacet
  facet normal -1 0 0
    outer loop
      vertex 36 18 3.7
      vertex 36 19 4.8
      vertex 36 19 3.7
    endloop
  endfacet
  facet normal -1 -0 0
    outer loop
      vertex 36 19 4.8
      vertex 36 18 3.7
      vertex 36 18 4.8
    endloop
  endfacet
  facet normal -1 0 0
    outer loop
      vertex 36 51.6 5.1
      vertex 36 55.9 3.7
      vertex 36 55.9 2.5
    endloop
  endfacet
  facet normal -1 0 0
    outer loop
      vertex 36 55.9 3.7
      vertex 36 51.6 5.1
      vertex 36 55.9 4.8
    endloop
  endfacet
  facet normal -1 0 0
    outer loop
      vertex 36 55.9 4.8
      vertex 36 51.6 5.1
      vertex 36 55.9 5.1
    endloop
  endfacet
  facet normal -1 0 0
    outer loop
      vertex 36 51.6 5.1
      vertex 36 50.2 5.1
      vertex 36 51.6 5.7
    endloop
  endfacet
  facet normal -1 0 0
    outer loop
      vertex 36 55.9 2.5
      vertex 36 50.2 5.1
      vertex 36 51.6 5.1
    endloop
  endfacet
  facet normal -1 0 0
    outer loop
      vertex 36 19 2.5
      vertex 36 50.2 5.1
      vertex 36 55.9 2.5
    endloop
  endfacet
  facet normal -1 0 0
    outer loop
      vertex 36 19 3.7
      vertex 36 50.2 5.1
      vertex 36 19 2.5
    endloop
  endfacet
  facet normal -1 0 0
    outer loop
      vertex 36 19 4.8
      vertex 36 50.2 5.1
      vertex 36 19 3.7
    endloop
  endfacet
  facet normal -1 -0 0
    outer loop
      vertex 36 50.2 5.1
      vertex 36 19 4.8
      vertex 36 19 5.1
    endloop
  endfacet
  facet normal -1 0 0
    outer loop
      vertex 36 55.9 3.7
      vertex 36 56.9 4.8
      vertex 36 56.9 3.7
    endloop
  endfacet
  facet normal -1 -0 0
    outer loop
      vertex 36 56.9 4.8
      vertex 36 55.9 3.7
      vertex 36 55.9 4.8
    endloop
  endfacet
  facet normal -1 -0 0
    outer loop
      vertex 36 51.6 5.7
      vertex 36 50.2 5.1
      vertex 36 50.2 5.7
    endloop
  endfacet
  facet normal 0 -1 0
    outer loop
      vertex 22 56.9 3.7
      vertex 36 56.9 4.8
      vertex 22 56.9 4.8
    endloop
  endfacet
  facet normal 0 -1 -0
    outer loop
      vertex 36 56.9 4.8
      vertex 22 56.9 3.7
      vertex 36 56.9 3.7
    endloop
  endfacet
  facet normal 0 1 -0
    outer loop
      vertex 36 18 3.7
      vertex 22 18 4.8
      vertex 36 18 4.8
    endloop
  endfacet
  facet normal 0 1 0
    outer loop
      vertex 22 18 4.8
      vertex 36 18 3.7
      vertex 22 18 3.7
    endloop
  endfacet
endsolid OpenSCAD_Model
