solid OpenSCAD_Model
  facet normal -1 0 0
    outer loop
      vertex 9.5 16 0
      vertex 9.5 82.7 2.5
      vertex 9.5 82.7 0
    endloop
  endfacet
  facet normal -1 -0 0
    outer loop
      vertex 9.5 82.7 2.5
      vertex 9.5 16 0
      vertex 9.5 16 2.5
    endloop
  endfacet
  facet normal 0 0 1
    outer loop
      vertex 22 19 2.5
      vertex 14 19 2.5
      vertex 22 18 2.5
    endloop
  endfacet
  facet normal 0 0 1
    outer loop
      vertex 47.7 82.7 2.5
      vertex 43.2 79.7 2.5
      vertex 47.7 16 2.5
    endloop
  endfacet
  facet normal 0 0 1
    outer loop
      vertex 47.7 82.7 2.5
      vertex 36 80.7 2.5
      vertex 43.2 79.7 2.5
    endloop
  endfacet
  facet normal 0 0 1
    outer loop
      vertex 47.7 82.7 2.5
      vertex 22 80.7 2.5
      vertex 36 80.7 2.5
    endloop
  endfacet
  facet normal 0 0 1
    outer loop
      vertex 22 80.7 2.5
      vertex 14 79.7 2.5
      vertex 22 79.7 2.5
    endloop
  endfacet
  facet normal 0 0 1
    outer loop
      vertex 14 79.7 2.5
      vertex 9.5 82.7 2.5
      vertex 14 19 2.5
    endloop
  endfacet
  facet normal 0 0 1
    outer loop
      vertex 22 80.7 2.5
      vertex 9.5 82.7 2.5
      vertex 14 79.7 2.5
    endloop
  endfacet
  facet normal -0 0 1
    outer loop
      vertex 9.5 82.7 2.5
      vertex 22 80.7 2.5
      vertex 47.7 82.7 2.5
    endloop
  endfacet
  facet normal -0 0 1
    outer loop
      vertex 43.2 19 2.5
      vertex 47.7 16 2.5
      vertex 43.2 79.7 2.5
    endloop
  endfacet
  facet normal 0 0 1
    outer loop
      vertex 36 18 2.5
      vertex 43.2 19 2.5
      vertex 36 19 2.5
    endloop
  endfacet
  facet normal 0 0 1
    outer loop
      vertex 43.2 19 2.5
      vertex 36 18 2.5
      vertex 47.7 16 2.5
    endloop
  endfacet
  facet normal -0 0 1
    outer loop
      vertex 22 18 2.5
      vertex 47.7 16 2.5
      vertex 36 18 2.5
    endloop
  endfacet
  facet normal 0 0 1
    outer loop
      vertex 22 18 2.5
      vertex 9.5 16 2.5
      vertex 47.7 16 2.5
    endloop
  endfacet
  facet normal 0 0 1
    outer loop
      vertex 14 19 2.5
      vertex 9.5 16 2.5
      vertex 22 18 2.5
    endloop
  endfacet
  facet normal 0 0 1
    outer loop
      vertex 9.5 16 2.5
      vertex 14 19 2.5
      vertex 9.5 82.7 2.5
    endloop
  endfacet
  facet normal 0 0 1
    outer loop
      vertex 43.2 79.7 2.5
      vertex 36 80.7 2.5
      vertex 36 79.7 2.5
    endloop
  endfacet
  facet normal 0 0 1
    outer loop
      vertex 22 79.7 2.5
      vertex 36 79.7 2.5
      vertex 36 80.7 2.5
    endloop
  endfacet
  facet normal 0 0 1
    outer loop
      vertex 36 79.7 2.5
      vertex 22 79.7 2.5
      vertex 36 19 2.5
    endloop
  endfacet
  facet normal 0 0 1
    outer loop
      vertex 22 79.7 2.5
      vertex 36 80.7 2.5
      vertex 22 80.7 2.5
    endloop
  endfacet
  facet normal 0 0 1
    outer loop
      vertex 22 19 2.5
      vertex 36 19 2.5
      vertex 22 79.7 2.5
    endloop
  endfacet
  facet normal 0 0 1
    outer loop
      vertex 36 19 2.5
      vertex 22 19 2.5
      vertex 36 18 2.5
    endloop
  endfacet
  facet normal 0 0 1
    outer loop
      vertex 36 18 2.5
      vertex 22 19 2.5
      vertex 22 18 2.5
    endloop
  endfacet
  facet normal 1 -0 0
    outer loop
      vertex 47.7 16 2.5
      vertex 47.7 82.7 0
      vertex 47.7 82.7 2.5
    endloop
  endfacet
  facet normal 1 0 0
    outer loop
      vertex 47.7 82.7 0
      vertex 47.7 16 2.5
      vertex 47.7 16 0
    endloop
  endfacet
  facet normal 0 1 -0
    outer loop
      vertex 47.7 82.7 0
      vertex 9.5 82.7 2.5
      vertex 47.7 82.7 2.5
    endloop
  endfacet
  facet normal 0 1 0
    outer loop
      vertex 9.5 82.7 2.5
      vertex 47.7 82.7 0
      vertex 9.5 82.7 0
    endloop
  endfacet
  facet normal 0 0 -1
    outer loop
      vertex 9.5 16 0
      vertex 47.7 82.7 0
      vertex 47.7 16 0
    endloop
  endfacet
  facet normal -0 0 -1
    outer loop
      vertex 47.7 82.7 0
      vertex 9.5 16 0
      vertex 9.5 82.7 0
    endloop
  endfacet
  facet normal 0 -1 0
    outer loop
      vertex 9.5 16 0
      vertex 47.7 16 2.5
      vertex 9.5 16 2.5
    endloop
  endfacet
  facet normal 0 -1 -0
    outer loop
      vertex 47.7 16 2.5
      vertex 9.5 16 0
      vertex 47.7 16 0
    endloop
  endfacet
  facet normal -1 0 0
    outer loop
      vertex 14 79.7 4.8
      vertex 14 75.4 5.1
      vertex 14 79.7 5.1
    endloop
  endfacet
  facet normal -1 0 0
    outer loop
      vertex 14 75.4 5.1
      vertex 14 74 5.1
      vertex 14 75.4 5.7
    endloop
  endfacet
  facet normal -1 0 0
    outer loop
      vertex 14 79.7 4.8
      vertex 14 74 5.1
      vertex 14 75.4 5.1
    endloop
  endfacet
  facet normal -1 0 0
    outer loop
      vertex 14 19 4.8
      vertex 14 74 5.1
      vertex 14 79.7 4.8
    endloop
  endfacet
  facet normal -1 -0 0
    outer loop
      vertex 14 74 5.1
      vertex 14 19 4.8
      vertex 14 19 5.1
    endloop
  endfacet
  facet normal -1 -0 0
    outer loop
      vertex 14 75.4 5.7
      vertex 14 74 5.1
      vertex 14 74 5.7
    endloop
  endfacet
  facet normal -1 0 0
    outer loop
      vertex 14 19 2.5
      vertex 14 79.7 3.7
      vertex 14 79.7 2.5
    endloop
  endfacet
  facet normal -1 -0 0
    outer loop
      vertex 14 79.7 3.7
      vertex 14 19 2.5
      vertex 14 19 3.7
    endloop
  endfacet
  facet normal -0 0 1
    outer loop
      vertex 36 74 5.1
      vertex 43.2 19 5.1
      vertex 43.2 74 5.1
    endloop
  endfacet
  facet normal 0 0 1
    outer loop
      vertex 43.2 19 5.1
      vertex 36 74 5.1
      vertex 36 19 5.1
    endloop
  endfacet
  facet normal -0 0 1
    outer loop
      vertex 14 74 5.1
      vertex 22 19 5.1
      vertex 22 74 5.1
    endloop
  endfacet
  facet normal 0 0 1
    outer loop
      vertex 22 19 5.1
      vertex 14 74 5.1
      vertex 14 19 5.1
    endloop
  endfacet
  facet normal -0 0 1
    outer loop
      vertex 36 79.7 5.1
      vertex 43.2 75.4 5.1
      vertex 43.2 79.7 5.1
    endloop
  endfacet
  facet normal 0 0 1
    outer loop
      vertex 43.2 75.4 5.1
      vertex 36 79.7 5.1
      vertex 36 75.4 5.1
    endloop
  endfacet
  facet normal -0 0 1
    outer loop
      vertex 14 79.7 5.1
      vertex 22 75.4 5.1
      vertex 22 79.7 5.1
    endloop
  endfacet
  facet normal 0 0 1
    outer loop
      vertex 22 75.4 5.1
      vertex 14 79.7 5.1
      vertex 14 75.4 5.1
    endloop
  endfacet
  facet normal 1 0 0
    outer loop
      vertex 43.2 75.4 5.7
      vertex 43.2 74 5.7
      vertex 43.2 75.4 5.1
    endloop
  endfacet
  facet normal 1 -0 0
    outer loop
      vertex 43.2 75.4 5.1
      vertex 43.2 79.7 4.8
      vertex 43.2 79.7 5.1
    endloop
  endfacet
  facet normal 1 0 0
    outer loop
      vertex 43.2 74 5.1
      vertex 43.2 75.4 5.1
      vertex 43.2 74 5.7
    endloop
  endfacet
  facet normal 1 -0 0
    outer loop
      vertex 43.2 74 5.1
      vertex 43.2 79.7 4.8
      vertex 43.2 75.4 5.1
    endloop
  endfacet
  facet normal 1 0 0
    outer loop
      vertex 43.2 19 4.8
      vertex 43.2 74 5.1
      vertex 43.2 19 5.1
    endloop
  endfacet
  facet normal 1 0 0
    outer loop
      vertex 43.2 74 5.1
      vertex 43.2 19 4.8
      vertex 43.2 79.7 4.8
    endloop
  endfacet
  facet normal 1 -0 0
    outer loop
      vertex 43.2 19 3.7
      vertex 43.2 79.7 2.5
      vertex 43.2 79.7 3.7
    endloop
  endfacet
  facet normal 1 0 0
    outer loop
      vertex 43.2 79.7 2.5
      vertex 43.2 19 3.7
      vertex 43.2 19 2.5
    endloop
  endfacet
  facet normal 0 -1 0
    outer loop
      vertex 36 19 4.8
      vertex 43.2 19 5.1
      vertex 36 19 5.1
    endloop
  endfacet
  facet normal 0 -1 -0
    outer loop
      vertex 43.2 19 5.1
      vertex 36 19 4.8
      vertex 43.2 19 4.8
    endloop
  endfacet
  facet normal 0 -1 0
    outer loop
      vertex 14 19 2.5
      vertex 22 19 3.7
      vertex 14 19 3.7
    endloop
  endfacet
  facet normal 0 -1 -0
    outer loop
      vertex 22 19 3.7
      vertex 14 19 2.5
      vertex 22 19 2.5
    endloop
  endfacet
  facet normal 0 -1 0
    outer loop
      vertex 14 19 4.8
      vertex 22 19 5.1
      vertex 14 19 5.1
    endloop
  endfacet
  facet normal 0 -1 -0
    outer loop
      vertex 22 19 5.1
      vertex 14 19 4.8
      vertex 22 19 4.8
    endloop
  endfacet
  facet normal 0 -1 0
    outer loop
      vertex 36 19 2.5
      vertex 43.2 19 3.7
      vertex 36 19 3.7
    endloop
  endfacet
  facet normal 0 -1 -0
    outer loop
      vertex 43.2 19 3.7
      vertex 36 19 2.5
      vertex 43.2 19 2.5
    endloop
  endfacet
  facet normal 0 1 -0
    outer loop
      vertex 43.2 79.7 2.5
      vertex 36 79.7 3.7
      vertex 43.2 79.7 3.7
    endloop
  endfacet
  facet normal 0 1 0
    outer loop
      vertex 36 79.7 3.7
      vertex 43.2 79.7 2.5
      vertex 36 79.7 2.5
    endloop
  endfacet
  facet normal 0 1 -0
    outer loop
      vertex 43.2 79.7 4.8
      vertex 36 79.7 5.1
      vertex 43.2 79.7 5.1
    endloop
  endfacet
  facet normal 0 1 0
    outer loop
      vertex 36 79.7 5.1
      vertex 43.2 79.7 4.8
      vertex 36 79.7 4.8
    endloop
  endfacet
  facet normal 0 1 -0
    outer loop
      vertex 22 79.7 4.8
      vertex 14 79.7 5.1
      vertex 22 79.7 5.1
    endloop
  endfacet
  facet normal 0 1 0
    outer loop
      vertex 14 79.7 5.1
      vertex 22 79.7 4.8
      vertex 14 79.7 4.8
    endloop
  endfacet
  facet normal 0 1 -0
    outer loop
      vertex 22 79.7 2.5
      vertex 14 79.7 3.7
      vertex 22 79.7 3.7
    endloop
  endfacet
  facet normal 0 1 0
    outer loop
      vertex 14 79.7 3.7
      vertex 22 79.7 2.5
      vertex 14 79.7 2.5
    endloop
  endfacet
  facet normal -1 0 0
    outer loop
      vertex 12.9 17.9 3.7
      vertex 12.9 80.8 4.8
      vertex 12.9 80.8 3.7
    endloop
  endfacet
  facet normal -1 -0 0
    outer loop
      vertex 12.9 80.8 4.8
      vertex 12.9 17.9 3.7
      vertex 12.9 17.9 4.8
    endloop
  endfacet
  facet normal 0 0 1
    outer loop
      vertex 22 19 4.8
      vertex 14 19 4.8
      vertex 22 18 4.8
    endloop
  endfacet
  facet normal 0 0 1
    outer loop
      vertex 44.3 80.8 4.8
      vertex 43.2 79.7 4.8
      vertex 44.3 17.9 4.8
    endloop
  endfacet
  facet normal 0 0 1
    outer loop
      vertex 44.3 80.8 4.8
      vertex 36 80.7 4.8
      vertex 43.2 79.7 4.8
    endloop
  endfacet
  facet normal 0 0 1
    outer loop
      vertex 44.3 80.8 4.8
      vertex 22 80.7 4.8
      vertex 36 80.7 4.8
    endloop
  endfacet
  facet normal 0 0 1
    outer loop
      vertex 22 80.7 4.8
      vertex 14 79.7 4.8
      vertex 22 79.7 4.8
    endloop
  endfacet
  facet normal 0 0 1
    outer loop
      vertex 14 79.7 4.8
      vertex 12.9 80.8 4.8
      vertex 14 19 4.8
    endloop
  endfacet
  facet normal 0 0 1
    outer loop
      vertex 22 80.7 4.8
      vertex 12.9 80.8 4.8
      vertex 14 79.7 4.8
    endloop
  endfacet
  facet normal -0 0 1
    outer loop
      vertex 12.9 80.8 4.8
      vertex 22 80.7 4.8
      vertex 44.3 80.8 4.8
    endloop
  endfacet
  facet normal -0 0 1
    outer loop
      vertex 43.2 19 4.8
      vertex 44.3 17.9 4.8
      vertex 43.2 79.7 4.8
    endloop
  endfacet
  facet normal 0 0 1
    outer loop
      vertex 36 18 4.8
      vertex 43.2 19 4.8
      vertex 36 19 4.8
    endloop
  endfacet
  facet normal 0 0 1
    outer loop
      vertex 43.2 19 4.8
      vertex 36 18 4.8
      vertex 44.3 17.9 4.8
    endloop
  endfacet
  facet normal -0 0 1
    outer loop
      vertex 22 18 4.8
      vertex 44.3 17.9 4.8
      vertex 36 18 4.8
    endloop
  endfacet
  facet normal 0 0 1
    outer loop
      vertex 22 18 4.8
      vertex 12.9 17.9 4.8
      vertex 44.3 17.9 4.8
    endloop
  endfacet
  facet normal 0 0 1
    outer loop
      vertex 14 19 4.8
      vertex 12.9 17.9 4.8
      vertex 22 18 4.8
    endloop
  endfacet
  facet normal 0 0 1
    outer loop
      vertex 12.9 17.9 4.8
      vertex 14 19 4.8
      vertex 12.9 80.8 4.8
    endloop
  endfacet
  facet normal 0 0 1
    outer loop
      vertex 43.2 79.7 4.8
      vertex 36 80.7 4.8
      vertex 36 79.7 4.8
    endloop
  endfacet
  facet normal 1 -0 0
    outer loop
      vertex 44.3 17.9 4.8
      vertex 44.3 80.8 3.7
      vertex 44.3 80.8 4.8
    endloop
  endfacet
  facet normal 1 0 0
    outer loop
      vertex 44.3 80.8 3.7
      vertex 44.3 17.9 4.8
      vertex 44.3 17.9 3.7
    endloop
  endfacet
  facet normal 0 0 -1
    outer loop
      vertex 22 79.7 3.7
      vertex 14 79.7 3.7
      vertex 22 80.7 3.7
    endloop
  endfacet
  facet normal 0 0 -1
    outer loop
      vertex 44.3 17.9 3.7
      vertex 43.2 19 3.7
      vertex 44.3 80.8 3.7
    endloop
  endfacet
  facet normal 0 0 -1
    outer loop
      vertex 44.3 17.9 3.7
      vertex 36 18 3.7
      vertex 43.2 19 3.7
    endloop
  endfacet
  facet normal 0 0 -1
    outer loop
      vertex 44.3 17.9 3.7
      vertex 22 18 3.7
      vertex 36 18 3.7
    endloop
  endfacet
  facet normal 0 0 -1
    outer loop
      vertex 22 18 3.7
      vertex 14 19 3.7
      vertex 22 19 3.7
    endloop
  endfacet
  facet normal -0 0 -1
    outer loop
      vertex 14 19 3.7
      vertex 12.9 17.9 3.7
      vertex 14 79.7 3.7
    endloop
  endfacet
  facet normal -0 0 -1
    outer loop
      vertex 22 18 3.7
      vertex 12.9 17.9 3.7
      vertex 14 19 3.7
    endloop
  endfacet
  facet normal 0 0 -1
    outer loop
      vertex 12.9 17.9 3.7
      vertex 22 18 3.7
      vertex 44.3 17.9 3.7
    endloop
  endfacet
  facet normal 0 0 -1
    outer loop
      vertex 43.2 79.7 3.7
      vertex 44.3 80.8 3.7
      vertex 43.2 19 3.7
    endloop
  endfacet
  facet normal 0 0 -1
    outer loop
      vertex 36 80.7 3.7
      vertex 43.2 79.7 3.7
      vertex 36 79.7 3.7
    endloop
  endfacet
  facet normal 0 0 -1
    outer loop
      vertex 43.2 79.7 3.7
      vertex 36 80.7 3.7
      vertex 44.3 80.8 3.7
    endloop
  endfacet
  facet normal 0 0 -1
    outer loop
      vertex 22 80.7 3.7
      vertex 44.3 80.8 3.7
      vertex 36 80.7 3.7
    endloop
  endfacet
  facet normal 0 0 -1
    outer loop
      vertex 22 80.7 3.7
      vertex 12.9 80.8 3.7
      vertex 44.3 80.8 3.7
    endloop
  endfacet
  facet normal 0 0 -1
    outer loop
      vertex 14 79.7 3.7
      vertex 12.9 80.8 3.7
      vertex 22 80.7 3.7
    endloop
  endfacet
  facet normal 0 0 -1
    outer loop
      vertex 12.9 80.8 3.7
      vertex 14 79.7 3.7
      vertex 12.9 17.9 3.7
    endloop
  endfacet
  facet normal -0 0 -1
    outer loop
      vertex 43.2 19 3.7
      vertex 36 18 3.7
      vertex 36 19 3.7
    endloop
  endfacet
  facet normal 0 -1 0
    outer loop
      vertex 12.9 17.9 3.7
      vertex 44.3 17.9 4.8
      vertex 12.9 17.9 4.8
    endloop
  endfacet
  facet normal 0 -1 -0
    outer loop
      vertex 44.3 17.9 4.8
      vertex 12.9 17.9 3.7
      vertex 44.3 17.9 3.7
    endloop
  endfacet
  facet normal 0 1 -0
    outer loop
      vertex 44.3 80.8 3.7
      vertex 12.9 80.8 4.8
      vertex 44.3 80.8 4.8
    endloop
  endfacet
  facet normal 0 1 0
    outer loop
      vertex 12.9 80.8 4.8
      vertex 44.3 80.8 3.7
      vertex 12.9 80.8 3.7
    endloop
  endfacet
  facet normal -0 0 1
    outer loop
      vertex 36 75.4 5.7
      vertex 43.2 74 5.7
      vertex 43.2 75.4 5.7
    endloop
  endfacet
  facet normal 0 0 1
    outer loop
      vertex 43.2 74 5.7
      vertex 36 75.4 5.7
      vertex 36 74 5.7
    endloop
  endfacet
  facet normal -0 0 1
    outer loop
      vertex 14 75.4 5.7
      vertex 22 74 5.7
      vertex 22 75.4 5.7
    endloop
  endfacet
  facet normal 0 0 1
    outer loop
      vertex 22 74 5.7
      vertex 14 75.4 5.7
      vertex 14 74 5.7
    endloop
  endfacet
  facet normal 0 1 -0
    outer loop
      vertex 43.2 75.4 5.1
      vertex 36 75.4 5.7
      vertex 43.2 75.4 5.7
    endloop
  endfacet
  facet normal 0 1 0
    outer loop
      vertex 36 75.4 5.7
      vertex 43.2 75.4 5.1
      vertex 36 75.4 5.1
    endloop
  endfacet
  facet normal 0 1 -0
    outer loop
      vertex 22 75.4 5.1
      vertex 14 75.4 5.7
      vertex 22 75.4 5.7
    endloop
  endfacet
  facet normal 0 1 0
    outer loop
      vertex 14 75.4 5.7
      vertex 22 75.4 5.1
      vertex 14 75.4 5.1
    endloop
  endfacet
  facet normal 0 -1 0
    outer loop
      vertex 36 74 5.1
      vertex 43.2 74 5.7
      vertex 36 74 5.7
    endloop
  endfacet
  facet normal 0 -1 -0
    outer loop
      vertex 43.2 74 5.7
      vertex 36 74 5.1
      vertex 43.2 74 5.1
    endloop
  endfacet
  facet normal 0 -1 0
    outer loop
      vertex 14 74 5.1
      vertex 22 74 5.7
      vertex 14 74 5.7
    endloop
  endfacet
  facet normal 0 -1 -0
    outer loop
      vertex 22 74 5.7
      vertex 14 74 5.1
      vertex 22 74 5.1
    endloop
  endfacet
  facet normal 1 0 0
    outer loop
      vertex 22 75.4 5.7
      vertex 22 74 5.7
      vertex 22 75.4 5.1
    endloop
  endfacet
  facet normal 1 -0 0
    outer loop
      vertex 22 75.4 5.1
      vertex 22 79.7 4.8
      vertex 22 79.7 5.1
    endloop
  endfacet
  facet normal 1 0 0
    outer loop
      vertex 22 79.7 4.8
      vertex 22 75.4 5.1
      vertex 22 79.7 3.7
    endloop
  endfacet
  facet normal 1 0 0
    outer loop
      vertex 22 79.7 3.7
      vertex 22 75.4 5.1
      vertex 22 79.7 2.5
    endloop
  endfacet
  facet normal 1 0 0
    outer loop
      vertex 22 74 5.1
      vertex 22 75.4 5.1
      vertex 22 74 5.7
    endloop
  endfacet
  facet normal 1 0 0
    outer loop
      vertex 22 75.4 5.1
      vertex 22 74 5.1
      vertex 22 79.7 2.5
    endloop
  endfacet
  facet normal 1 0 0
    outer loop
      vertex 22 19 4.8
      vertex 22 74 5.1
      vertex 22 19 5.1
    endloop
  endfacet
  facet normal 1 0 0
    outer loop
      vertex 22 19 3.7
      vertex 22 74 5.1
      vertex 22 19 4.8
    endloop
  endfacet
  facet normal 1 0 0
    outer loop
      vertex 22 19 2.5
      vertex 22 74 5.1
      vertex 22 19 3.7
    endloop
  endfacet
  facet normal 1 0 0
    outer loop
      vertex 22 74 5.1
      vertex 22 19 2.5
      vertex 22 79.7 2.5
    endloop
  endfacet
  facet normal 1 -0 0
    outer loop
      vertex 22 79.7 4.8
      vertex 22 80.7 3.7
      vertex 22 80.7 4.8
    endloop
  endfacet
  facet normal 1 0 0
    outer loop
      vertex 22 80.7 3.7
      vertex 22 79.7 4.8
      vertex 22 79.7 3.7
    endloop
  endfacet
  facet normal 1 -0 0
    outer loop
      vertex 22 18 4.8
      vertex 22 19 3.7
      vertex 22 19 4.8
    endloop
  endfacet
  facet normal 1 0 0
    outer loop
      vertex 22 19 3.7
      vertex 22 18 4.8
      vertex 22 18 3.7
    endloop
  endfacet
  facet normal -1 0 0
    outer loop
      vertex 36 18 3.7
      vertex 36 19 4.8
      vertex 36 19 3.7
    endloop
  endfacet
  facet normal -1 -0 0
    outer loop
      vertex 36 19 4.8
      vertex 36 18 3.7
      vertex 36 18 4.8
    endloop
  endfacet
  facet normal -1 0 0
    outer loop
      vertex 36 75.4 5.1
      vertex 36 79.7 3.7
      vertex 36 79.7 2.5
    endloop
  endfacet
  facet normal -1 0 0
    outer loop
      vertex 36 79.7 3.7
      vertex 36 75.4 5.1
      vertex 36 79.7 4.8
    endloop
  endfacet
  facet normal -1 0 0
    outer loop
      vertex 36 79.7 4.8
      vertex 36 75.4 5.1
      vertex 36 79.7 5.1
    endloop
  endfacet
  facet normal -1 0 0
    outer loop
      vertex 36 75.4 5.1
      vertex 36 74 5.1
      vertex 36 75.4 5.7
    endloop
  endfacet
  facet normal -1 0 0
    outer loop
      vertex 36 79.7 2.5
      vertex 36 74 5.1
      vertex 36 75.4 5.1
    endloop
  endfacet
  facet normal -1 0 0
    outer loop
      vertex 36 19 2.5
      vertex 36 74 5.1
      vertex 36 79.7 2.5
    endloop
  endfacet
  facet normal -1 0 0
    outer loop
      vertex 36 19 3.7
      vertex 36 74 5.1
      vertex 36 19 2.5
    endloop
  endfacet
  facet normal -1 0 0
    outer loop
      vertex 36 19 4.8
      vertex 36 74 5.1
      vertex 36 19 3.7
    endloop
  endfacet
  facet normal -1 -0 0
    outer loop
      vertex 36 74 5.1
      vertex 36 19 4.8
      vertex 36 19 5.1
    endloop
  endfacet
  facet normal -1 0 0
    outer loop
      vertex 36 79.7 3.7
      vertex 36 80.7 4.8
      vertex 36 80.7 3.7
    endloop
  endfacet
  facet normal -1 -0 0
    outer loop
      vertex 36 80.7 4.8
      vertex 36 79.7 3.7
      vertex 36 79.7 4.8
    endloop
  endfacet
  facet normal -1 -0 0
    outer loop
      vertex 36 75.4 5.7
      vertex 36 74 5.1
      vertex 36 74 5.7
    endloop
  endfacet
  facet normal 0 -1 0
    outer loop
      vertex 22 80.7 3.7
      vertex 36 80.7 4.8
      vertex 22 80.7 4.8
    endloop
  endfacet
  facet normal 0 -1 -0
    outer loop
      vertex 36 80.7 4.8
      vertex 22 80.7 3.7
      vertex 36 80.7 3.7
    endloop
  endfacet
  facet normal 0 1 -0
    outer loop
      vertex 36 18 3.7
      vertex 22 18 4.8
      vertex 36 18 4.8
    endloop
  endfacet
  facet normal 0 1 0
    outer loop
      vertex 22 18 4.8
      vertex 36 18 3.7
      vertex 22 18 3.7
    endloop
  endfacet
endsolid OpenSCAD_Model
