solid OpenSCAD_Model
  facet normal -1 0 0
    outer loop
      vertex 4 13 0
      vertex 4 65 2.5
      vertex 4 65 0
    endloop
  endfacet
  facet normal -1 -0 0
    outer loop
      vertex 4 65 2.5
      vertex 4 13 0
      vertex 4 13 2.5
    endloop
  endfacet
  facet normal 0 0 1
    outer loop
      vertex 22 19 2.5
      vertex 14 19 2.5
      vertex 22 18 2.5
    endloop
  endfacet
  facet normal 0 0 1
    outer loop
      vertex 55 65 2.5
      vertex 45 59 2.5
      vertex 55 13 2.5
    endloop
  endfacet
  facet normal 0 0 1
    outer loop
      vertex 55 65 2.5
      vertex 37 60 2.5
      vertex 45 59 2.5
    endloop
  endfacet
  facet normal 0 0 1
    outer loop
      vertex 55 65 2.5
      vertex 22 60 2.5
      vertex 37 60 2.5
    endloop
  endfacet
  facet normal 0 0 1
    outer loop
      vertex 22 60 2.5
      vertex 14 59 2.5
      vertex 22 59 2.5
    endloop
  endfacet
  facet normal -0 0 1
    outer loop
      vertex 4 65 2.5
      vertex 22 60 2.5
      vertex 55 65 2.5
    endloop
  endfacet
  facet normal 0 0 1
    outer loop
      vertex 14 59 2.5
      vertex 4 65 2.5
      vertex 14 19 2.5
    endloop
  endfacet
  facet normal 0 0 1
    outer loop
      vertex 22 60 2.5
      vertex 4 65 2.5
      vertex 14 59 2.5
    endloop
  endfacet
  facet normal -0 0 1
    outer loop
      vertex 45 19 2.5
      vertex 55 13 2.5
      vertex 45 59 2.5
    endloop
  endfacet
  facet normal 0 0 1
    outer loop
      vertex 37 18 2.5
      vertex 45 19 2.5
      vertex 37 19 2.5
    endloop
  endfacet
  facet normal 0 0 1
    outer loop
      vertex 45 19 2.5
      vertex 37 18 2.5
      vertex 55 13 2.5
    endloop
  endfacet
  facet normal -0 0 1
    outer loop
      vertex 22 18 2.5
      vertex 55 13 2.5
      vertex 37 18 2.5
    endloop
  endfacet
  facet normal 0 0 1
    outer loop
      vertex 4 13 2.5
      vertex 22 18 2.5
      vertex 14 19 2.5
    endloop
  endfacet
  facet normal 0 0 1
    outer loop
      vertex 22 18 2.5
      vertex 4 13 2.5
      vertex 55 13 2.5
    endloop
  endfacet
  facet normal 0 0 1
    outer loop
      vertex 4 13 2.5
      vertex 14 19 2.5
      vertex 4 65 2.5
    endloop
  endfacet
  facet normal 0 0 1
    outer loop
      vertex 45 59 2.5
      vertex 37 60 2.5
      vertex 37 59 2.5
    endloop
  endfacet
  facet normal 0 0 1
    outer loop
      vertex 22 59 2.5
      vertex 37 59 2.5
      vertex 37 60 2.5
    endloop
  endfacet
  facet normal 0 0 1
    outer loop
      vertex 37 59 2.5
      vertex 22 59 2.5
      vertex 37 19 2.5
    endloop
  endfacet
  facet normal 0 0 1
    outer loop
      vertex 22 59 2.5
      vertex 37 60 2.5
      vertex 22 60 2.5
    endloop
  endfacet
  facet normal 0 0 1
    outer loop
      vertex 22 19 2.5
      vertex 37 19 2.5
      vertex 22 59 2.5
    endloop
  endfacet
  facet normal 0 0 1
    outer loop
      vertex 37 19 2.5
      vertex 22 19 2.5
      vertex 37 18 2.5
    endloop
  endfacet
  facet normal 0 0 1
    outer loop
      vertex 37 18 2.5
      vertex 22 19 2.5
      vertex 22 18 2.5
    endloop
  endfacet
  facet normal 1 -0 0
    outer loop
      vertex 55 13 2.5
      vertex 55 65 0
      vertex 55 65 2.5
    endloop
  endfacet
  facet normal 1 0 0
    outer loop
      vertex 55 65 0
      vertex 55 13 2.5
      vertex 55 13 0
    endloop
  endfacet
  facet normal 0 1 -0
    outer loop
      vertex 55 65 0
      vertex 4 65 2.5
      vertex 55 65 2.5
    endloop
  endfacet
  facet normal 0 1 0
    outer loop
      vertex 4 65 2.5
      vertex 55 65 0
      vertex 4 65 0
    endloop
  endfacet
  facet normal 0 0 -1
    outer loop
      vertex 4 13 0
      vertex 55 65 0
      vertex 55 13 0
    endloop
  endfacet
  facet normal -0 0 -1
    outer loop
      vertex 55 65 0
      vertex 4 13 0
      vertex 4 65 0
    endloop
  endfacet
  facet normal 0 -1 0
    outer loop
      vertex 4 13 0
      vertex 55 13 2.5
      vertex 4 13 2.5
    endloop
  endfacet
  facet normal 0 -1 -0
    outer loop
      vertex 55 13 2.5
      vertex 4 13 0
      vertex 55 13 0
    endloop
  endfacet
  facet normal -1 0 0
    outer loop
      vertex 14 59 5.3
      vertex 14 54.7 6.5
      vertex 14 59 6.5
    endloop
  endfacet
  facet normal -1 0 0
    outer loop
      vertex 14 54.7 6.5
      vertex 14 53.3 6.5
      vertex 14 54.7 7.1
    endloop
  endfacet
  facet normal -1 0 0
    outer loop
      vertex 14 59 5.3
      vertex 14 53.3 6.5
      vertex 14 54.7 6.5
    endloop
  endfacet
  facet normal -1 0 0
    outer loop
      vertex 14 19 5.3
      vertex 14 53.3 6.5
      vertex 14 59 5.3
    endloop
  endfacet
  facet normal -1 -0 0
    outer loop
      vertex 14 53.3 6.5
      vertex 14 19 5.3
      vertex 14 19 6.5
    endloop
  endfacet
  facet normal -1 -0 0
    outer loop
      vertex 14 54.7 7.1
      vertex 14 53.3 6.5
      vertex 14 53.3 7.1
    endloop
  endfacet
  facet normal -1 0 0
    outer loop
      vertex 14 19 2.5
      vertex 14 59 4.5
      vertex 14 59 2.5
    endloop
  endfacet
  facet normal -1 -0 0
    outer loop
      vertex 14 59 4.5
      vertex 14 19 2.5
      vertex 14 19 4.5
    endloop
  endfacet
  facet normal -0 0 1
    outer loop
      vertex 37 53.3 6.5
      vertex 45 19 6.5
      vertex 45 53.3 6.5
    endloop
  endfacet
  facet normal 0 0 1
    outer loop
      vertex 45 19 6.5
      vertex 37 53.3 6.5
      vertex 37 19 6.5
    endloop
  endfacet
  facet normal -0 0 1
    outer loop
      vertex 14 53.3 6.5
      vertex 22 19 6.5
      vertex 22 53.3 6.5
    endloop
  endfacet
  facet normal 0 0 1
    outer loop
      vertex 22 19 6.5
      vertex 14 53.3 6.5
      vertex 14 19 6.5
    endloop
  endfacet
  facet normal -0 0 1
    outer loop
      vertex 37 59 6.5
      vertex 45 54.7 6.5
      vertex 45 59 6.5
    endloop
  endfacet
  facet normal 0 0 1
    outer loop
      vertex 45 54.7 6.5
      vertex 37 59 6.5
      vertex 37 54.7 6.5
    endloop
  endfacet
  facet normal -0 0 1
    outer loop
      vertex 14 59 6.5
      vertex 22 54.7 6.5
      vertex 22 59 6.5
    endloop
  endfacet
  facet normal 0 0 1
    outer loop
      vertex 22 54.7 6.5
      vertex 14 59 6.5
      vertex 14 54.7 6.5
    endloop
  endfacet
  facet normal 1 0 0
    outer loop
      vertex 45 54.7 7.1
      vertex 45 53.3 7.1
      vertex 45 54.7 6.5
    endloop
  endfacet
  facet normal 1 -0 0
    outer loop
      vertex 45 54.7 6.5
      vertex 45 59 5.3
      vertex 45 59 6.5
    endloop
  endfacet
  facet normal 1 0 0
    outer loop
      vertex 45 53.3 6.5
      vertex 45 54.7 6.5
      vertex 45 53.3 7.1
    endloop
  endfacet
  facet normal 1 -0 0
    outer loop
      vertex 45 53.3 6.5
      vertex 45 59 5.3
      vertex 45 54.7 6.5
    endloop
  endfacet
  facet normal 1 0 0
    outer loop
      vertex 45 19 5.3
      vertex 45 53.3 6.5
      vertex 45 19 6.5
    endloop
  endfacet
  facet normal 1 0 0
    outer loop
      vertex 45 53.3 6.5
      vertex 45 19 5.3
      vertex 45 59 5.3
    endloop
  endfacet
  facet normal 1 -0 0
    outer loop
      vertex 45 19 4.5
      vertex 45 59 2.5
      vertex 45 59 4.5
    endloop
  endfacet
  facet normal 1 0 0
    outer loop
      vertex 45 59 2.5
      vertex 45 19 4.5
      vertex 45 19 2.5
    endloop
  endfacet
  facet normal 0 1 -0
    outer loop
      vertex 45 59 2.5
      vertex 37 59 4.5
      vertex 45 59 4.5
    endloop
  endfacet
  facet normal 0 1 0
    outer loop
      vertex 37 59 4.5
      vertex 45 59 2.5
      vertex 37 59 2.5
    endloop
  endfacet
  facet normal 0 1 -0
    outer loop
      vertex 45 59 5.3
      vertex 37 59 6.5
      vertex 45 59 6.5
    endloop
  endfacet
  facet normal 0 1 0
    outer loop
      vertex 37 59 6.5
      vertex 45 59 5.3
      vertex 37 59 5.3
    endloop
  endfacet
  facet normal 0 1 -0
    outer loop
      vertex 22 59 5.3
      vertex 14 59 6.5
      vertex 22 59 6.5
    endloop
  endfacet
  facet normal 0 1 0
    outer loop
      vertex 14 59 6.5
      vertex 22 59 5.3
      vertex 14 59 5.3
    endloop
  endfacet
  facet normal 0 1 -0
    outer loop
      vertex 22 59 2.5
      vertex 14 59 4.5
      vertex 22 59 4.5
    endloop
  endfacet
  facet normal 0 1 0
    outer loop
      vertex 14 59 4.5
      vertex 22 59 2.5
      vertex 14 59 2.5
    endloop
  endfacet
  facet normal 0 -1 0
    outer loop
      vertex 37 19 5.3
      vertex 45 19 6.5
      vertex 37 19 6.5
    endloop
  endfacet
  facet normal 0 -1 -0
    outer loop
      vertex 45 19 6.5
      vertex 37 19 5.3
      vertex 45 19 5.3
    endloop
  endfacet
  facet normal 0 -1 0
    outer loop
      vertex 14 19 2.5
      vertex 22 19 4.5
      vertex 14 19 4.5
    endloop
  endfacet
  facet normal 0 -1 -0
    outer loop
      vertex 22 19 4.5
      vertex 14 19 2.5
      vertex 22 19 2.5
    endloop
  endfacet
  facet normal 0 -1 0
    outer loop
      vertex 14 19 5.3
      vertex 22 19 6.5
      vertex 14 19 6.5
    endloop
  endfacet
  facet normal 0 -1 -0
    outer loop
      vertex 22 19 6.5
      vertex 14 19 5.3
      vertex 22 19 5.3
    endloop
  endfacet
  facet normal 0 -1 0
    outer loop
      vertex 37 19 2.5
      vertex 45 19 4.5
      vertex 37 19 4.5
    endloop
  endfacet
  facet normal 0 -1 -0
    outer loop
      vertex 45 19 4.5
      vertex 37 19 2.5
      vertex 45 19 2.5
    endloop
  endfacet
  facet normal -1 0 0
    outer loop
      vertex 13.2 18.2 4.5
      vertex 13.2 59.8 5.3
      vertex 13.2 59.8 4.5
    endloop
  endfacet
  facet normal -1 -0 0
    outer loop
      vertex 13.2 59.8 5.3
      vertex 13.2 18.2 4.5
      vertex 13.2 18.2 5.3
    endloop
  endfacet
  facet normal 0 0 1
    outer loop
      vertex 45.8 59.8 5.3
      vertex 45 59 5.3
      vertex 45.8 18.2 5.3
    endloop
  endfacet
  facet normal -0 0 1
    outer loop
      vertex 37 59.8 5.3
      vertex 45 59 5.3
      vertex 45.8 59.8 5.3
    endloop
  endfacet
  facet normal 0 0 1
    outer loop
      vertex 45 59 5.3
      vertex 37 59.8 5.3
      vertex 37 59 5.3
    endloop
  endfacet
  facet normal -0 0 1
    outer loop
      vertex 45 19 5.3
      vertex 45.8 18.2 5.3
      vertex 45 59 5.3
    endloop
  endfacet
  facet normal 0 0 1
    outer loop
      vertex 37 18.2 5.3
      vertex 45 19 5.3
      vertex 37 19 5.3
    endloop
  endfacet
  facet normal 0 0 1
    outer loop
      vertex 45 19 5.3
      vertex 37 18.2 5.3
      vertex 45.8 18.2 5.3
    endloop
  endfacet
  facet normal 0 0 1
    outer loop
      vertex 22 59.8 5.3
      vertex 14 59 5.3
      vertex 22 59 5.3
    endloop
  endfacet
  facet normal 0 0 1
    outer loop
      vertex 14 59 5.3
      vertex 13.2 59.8 5.3
      vertex 14 19 5.3
    endloop
  endfacet
  facet normal -0 0 1
    outer loop
      vertex 13.2 59.8 5.3
      vertex 14 59 5.3
      vertex 22 59.8 5.3
    endloop
  endfacet
  facet normal -0 0 1
    outer loop
      vertex 14 19 5.3
      vertex 22 18.2 5.3
      vertex 22 19 5.3
    endloop
  endfacet
  facet normal 0 0 1
    outer loop
      vertex 14 19 5.3
      vertex 13.2 18.2 5.3
      vertex 22 18.2 5.3
    endloop
  endfacet
  facet normal 0 0 1
    outer loop
      vertex 13.2 18.2 5.3
      vertex 14 19 5.3
      vertex 13.2 59.8 5.3
    endloop
  endfacet
  facet normal 1 -0 0
    outer loop
      vertex 45.8 18.2 5.3
      vertex 45.8 59.8 4.5
      vertex 45.8 59.8 5.3
    endloop
  endfacet
  facet normal 1 0 0
    outer loop
      vertex 45.8 59.8 4.5
      vertex 45.8 18.2 5.3
      vertex 45.8 18.2 4.5
    endloop
  endfacet
  facet normal 0 1 -0
    outer loop
      vertex 45.8 59.8 4.5
      vertex 37 59.8 5.3
      vertex 45.8 59.8 5.3
    endloop
  endfacet
  facet normal 0 1 0
    outer loop
      vertex 37 59.8 5.3
      vertex 45.8 59.8 4.5
      vertex 37 59.8 4.5
    endloop
  endfacet
  facet normal 0 1 -0
    outer loop
      vertex 22 59.8 4.5
      vertex 13.2 59.8 5.3
      vertex 22 59.8 5.3
    endloop
  endfacet
  facet normal 0 1 0
    outer loop
      vertex 13.2 59.8 5.3
      vertex 22 59.8 4.5
      vertex 13.2 59.8 4.5
    endloop
  endfacet
  facet normal 0 0 -1
    outer loop
      vertex 22 18.2 4.5
      vertex 14 19 4.5
      vertex 22 19 4.5
    endloop
  endfacet
  facet normal -0 0 -1
    outer loop
      vertex 14 19 4.5
      vertex 13.2 18.2 4.5
      vertex 14 59 4.5
    endloop
  endfacet
  facet normal 0 0 -1
    outer loop
      vertex 13.2 18.2 4.5
      vertex 14 19 4.5
      vertex 22 18.2 4.5
    endloop
  endfacet
  facet normal 0 0 -1
    outer loop
      vertex 14 59 4.5
      vertex 22 59.8 4.5
      vertex 22 59 4.5
    endloop
  endfacet
  facet normal 0 0 -1
    outer loop
      vertex 14 59 4.5
      vertex 13.2 59.8 4.5
      vertex 22 59.8 4.5
    endloop
  endfacet
  facet normal 0 0 -1
    outer loop
      vertex 13.2 59.8 4.5
      vertex 14 59 4.5
      vertex 13.2 18.2 4.5
    endloop
  endfacet
  facet normal 0 0 -1
    outer loop
      vertex 45.8 18.2 4.5
      vertex 45 19 4.5
      vertex 45.8 59.8 4.5
    endloop
  endfacet
  facet normal 0 0 -1
    outer loop
      vertex 37 18.2 4.5
      vertex 45 19 4.5
      vertex 45.8 18.2 4.5
    endloop
  endfacet
  facet normal -0 0 -1
    outer loop
      vertex 45 19 4.5
      vertex 37 18.2 4.5
      vertex 37 19 4.5
    endloop
  endfacet
  facet normal 0 0 -1
    outer loop
      vertex 45 59 4.5
      vertex 45.8 59.8 4.5
      vertex 45 19 4.5
    endloop
  endfacet
  facet normal 0 0 -1
    outer loop
      vertex 37 59.8 4.5
      vertex 45 59 4.5
      vertex 37 59 4.5
    endloop
  endfacet
  facet normal 0 0 -1
    outer loop
      vertex 45 59 4.5
      vertex 37 59.8 4.5
      vertex 45.8 59.8 4.5
    endloop
  endfacet
  facet normal 0 -1 0
    outer loop
      vertex 37 18.2 4.5
      vertex 45.8 18.2 5.3
      vertex 37 18.2 5.3
    endloop
  endfacet
  facet normal 0 -1 -0
    outer loop
      vertex 45.8 18.2 5.3
      vertex 37 18.2 4.5
      vertex 45.8 18.2 4.5
    endloop
  endfacet
  facet normal 0 -1 0
    outer loop
      vertex 13.2 18.2 4.5
      vertex 22 18.2 5.3
      vertex 13.2 18.2 5.3
    endloop
  endfacet
  facet normal 0 -1 -0
    outer loop
      vertex 22 18.2 5.3
      vertex 13.2 18.2 4.5
      vertex 22 18.2 4.5
    endloop
  endfacet
  facet normal -0 0 1
    outer loop
      vertex 37 54.7 7.1
      vertex 45 53.3 7.1
      vertex 45 54.7 7.1
    endloop
  endfacet
  facet normal 0 0 1
    outer loop
      vertex 45 53.3 7.1
      vertex 37 54.7 7.1
      vertex 37 53.3 7.1
    endloop
  endfacet
  facet normal -0 0 1
    outer loop
      vertex 14 54.7 7.1
      vertex 22 53.3 7.1
      vertex 22 54.7 7.1
    endloop
  endfacet
  facet normal 0 0 1
    outer loop
      vertex 22 53.3 7.1
      vertex 14 54.7 7.1
      vertex 14 53.3 7.1
    endloop
  endfacet
  facet normal 0 1 -0
    outer loop
      vertex 45 54.7 6.5
      vertex 37 54.7 7.1
      vertex 45 54.7 7.1
    endloop
  endfacet
  facet normal 0 1 0
    outer loop
      vertex 37 54.7 7.1
      vertex 45 54.7 6.5
      vertex 37 54.7 6.5
    endloop
  endfacet
  facet normal 0 1 -0
    outer loop
      vertex 22 54.7 6.5
      vertex 14 54.7 7.1
      vertex 22 54.7 7.1
    endloop
  endfacet
  facet normal 0 1 0
    outer loop
      vertex 14 54.7 7.1
      vertex 22 54.7 6.5
      vertex 14 54.7 6.5
    endloop
  endfacet
  facet normal 0 -1 0
    outer loop
      vertex 37 53.3 6.5
      vertex 45 53.3 7.1
      vertex 37 53.3 7.1
    endloop
  endfacet
  facet normal 0 -1 -0
    outer loop
      vertex 45 53.3 7.1
      vertex 37 53.3 6.5
      vertex 45 53.3 6.5
    endloop
  endfacet
  facet normal 0 -1 0
    outer loop
      vertex 14 53.3 6.5
      vertex 22 53.3 7.1
      vertex 14 53.3 7.1
    endloop
  endfacet
  facet normal 0 -1 -0
    outer loop
      vertex 22 53.3 7.1
      vertex 14 53.3 6.5
      vertex 22 53.3 6.5
    endloop
  endfacet
  facet normal 1 0 0
    outer loop
      vertex 22 54.7 7.1
      vertex 22 53.3 7.1
      vertex 22 54.7 6.5
    endloop
  endfacet
  facet normal 1 -0 0
    outer loop
      vertex 22 54.7 6.5
      vertex 22 59 5.3
      vertex 22 59 6.5
    endloop
  endfacet
  facet normal 1 0 0
    outer loop
      vertex 22 59 5.3
      vertex 22 54.7 6.5
      vertex 22 59 4.5
    endloop
  endfacet
  facet normal 1 0 0
    outer loop
      vertex 22 59 4.5
      vertex 22 54.7 6.5
      vertex 22 59 2.5
    endloop
  endfacet
  facet normal 1 0 0
    outer loop
      vertex 22 53.3 6.5
      vertex 22 54.7 6.5
      vertex 22 53.3 7.1
    endloop
  endfacet
  facet normal 1 0 0
    outer loop
      vertex 22 54.7 6.5
      vertex 22 53.3 6.5
      vertex 22 59 2.5
    endloop
  endfacet
  facet normal 1 0 0
    outer loop
      vertex 22 19 5.3
      vertex 22 53.3 6.5
      vertex 22 19 6.5
    endloop
  endfacet
  facet normal 1 0 0
    outer loop
      vertex 22 19 4.5
      vertex 22 53.3 6.5
      vertex 22 19 5.3
    endloop
  endfacet
  facet normal 1 0 0
    outer loop
      vertex 22 19 2.5
      vertex 22 53.3 6.5
      vertex 22 19 4.5
    endloop
  endfacet
  facet normal 1 0 0
    outer loop
      vertex 22 53.3 6.5
      vertex 22 19 2.5
      vertex 22 59 2.5
    endloop
  endfacet
  facet normal 1 -0 0
    outer loop
      vertex 22 59 5.3
      vertex 22 59.8 4.5
      vertex 22 59.8 5.3
    endloop
  endfacet
  facet normal 1 0 0
    outer loop
      vertex 22 59.8 4.5
      vertex 22 59 5.3
      vertex 22 59 4.5
    endloop
  endfacet
  facet normal 1 -0 0
    outer loop
      vertex 22 18.2 5.3
      vertex 22 19 4.5
      vertex 22 19 5.3
    endloop
  endfacet
  facet normal 1 0 0
    outer loop
      vertex 22 19 4.5
      vertex 22 18.2 5.3
      vertex 22 18.2 4.5
    endloop
  endfacet
  facet normal -1 0 0
    outer loop
      vertex 37 18.2 4.5
      vertex 37 19 5.3
      vertex 37 19 4.5
    endloop
  endfacet
  facet normal -1 -0 0
    outer loop
      vertex 37 19 5.3
      vertex 37 18.2 4.5
      vertex 37 18.2 5.3
    endloop
  endfacet
  facet normal -1 0 0
    outer loop
      vertex 37 54.7 6.5
      vertex 37 59 4.5
      vertex 37 59 2.5
    endloop
  endfacet
  facet normal -1 0 0
    outer loop
      vertex 37 59 4.5
      vertex 37 54.7 6.5
      vertex 37 59 5.3
    endloop
  endfacet
  facet normal -1 0 0
    outer loop
      vertex 37 59 5.3
      vertex 37 54.7 6.5
      vertex 37 59 6.5
    endloop
  endfacet
  facet normal -1 0 0
    outer loop
      vertex 37 54.7 6.5
      vertex 37 53.3 6.5
      vertex 37 54.7 7.1
    endloop
  endfacet
  facet normal -1 0 0
    outer loop
      vertex 37 59 2.5
      vertex 37 53.3 6.5
      vertex 37 54.7 6.5
    endloop
  endfacet
  facet normal -1 0 0
    outer loop
      vertex 37 19 2.5
      vertex 37 53.3 6.5
      vertex 37 59 2.5
    endloop
  endfacet
  facet normal -1 0 0
    outer loop
      vertex 37 19 4.5
      vertex 37 53.3 6.5
      vertex 37 19 2.5
    endloop
  endfacet
  facet normal -1 0 0
    outer loop
      vertex 37 19 5.3
      vertex 37 53.3 6.5
      vertex 37 19 4.5
    endloop
  endfacet
  facet normal -1 -0 0
    outer loop
      vertex 37 53.3 6.5
      vertex 37 19 5.3
      vertex 37 19 6.5
    endloop
  endfacet
  facet normal -1 0 0
    outer loop
      vertex 37 59 4.5
      vertex 37 59.8 5.3
      vertex 37 59.8 4.5
    endloop
  endfacet
  facet normal -1 -0 0
    outer loop
      vertex 37 59.8 5.3
      vertex 37 59 4.5
      vertex 37 59 5.3
    endloop
  endfacet
  facet normal -1 -0 0
    outer loop
      vertex 37 54.7 7.1
      vertex 37 53.3 6.5
      vertex 37 53.3 7.1
    endloop
  endfacet
endsolid OpenSCAD_Model
