solid OpenSCAD_Model
  facet normal -1 0 0
    outer loop
      vertex 9.5 16 0
      vertex 9.5 60.3 2.5
      vertex 9.5 60.3 0
    endloop
  endfacet
  facet normal -1 -0 0
    outer loop
      vertex 9.5 60.3 2.5
      vertex 9.5 16 0
      vertex 9.5 16 2.5
    endloop
  endfacet
  facet normal 0 0 1
    outer loop
      vertex 22 19 2.5
      vertex 14 19 2.5
      vertex 22 18 2.5
    endloop
  endfacet
  facet normal 0 0 1
    outer loop
      vertex 48.1 60.3 2.5
      vertex 43.6 57.3 2.5
      vertex 48.1 16 2.5
    endloop
  endfacet
  facet normal 0 0 1
    outer loop
      vertex 48.1 60.3 2.5
      vertex 36 58.3 2.5
      vertex 43.6 57.3 2.5
    endloop
  endfacet
  facet normal 0 0 1
    outer loop
      vertex 48.1 60.3 2.5
      vertex 22 58.3 2.5
      vertex 36 58.3 2.5
    endloop
  endfacet
  facet normal 0 0 1
    outer loop
      vertex 22 58.3 2.5
      vertex 14 57.3 2.5
      vertex 22 57.3 2.5
    endloop
  endfacet
  facet normal 0 0 1
    outer loop
      vertex 14 57.3 2.5
      vertex 9.5 60.3 2.5
      vertex 14 19 2.5
    endloop
  endfacet
  facet normal 0 0 1
    outer loop
      vertex 22 58.3 2.5
      vertex 9.5 60.3 2.5
      vertex 14 57.3 2.5
    endloop
  endfacet
  facet normal -0 0 1
    outer loop
      vertex 9.5 60.3 2.5
      vertex 22 58.3 2.5
      vertex 48.1 60.3 2.5
    endloop
  endfacet
  facet normal -0 0 1
    outer loop
      vertex 43.6 19 2.5
      vertex 48.1 16 2.5
      vertex 43.6 57.3 2.5
    endloop
  endfacet
  facet normal 0 0 1
    outer loop
      vertex 36 18 2.5
      vertex 43.6 19 2.5
      vertex 36 19 2.5
    endloop
  endfacet
  facet normal 0 0 1
    outer loop
      vertex 43.6 19 2.5
      vertex 36 18 2.5
      vertex 48.1 16 2.5
    endloop
  endfacet
  facet normal -0 0 1
    outer loop
      vertex 22 18 2.5
      vertex 48.1 16 2.5
      vertex 36 18 2.5
    endloop
  endfacet
  facet normal 0 0 1
    outer loop
      vertex 22 18 2.5
      vertex 9.5 16 2.5
      vertex 48.1 16 2.5
    endloop
  endfacet
  facet normal 0 0 1
    outer loop
      vertex 14 19 2.5
      vertex 9.5 16 2.5
      vertex 22 18 2.5
    endloop
  endfacet
  facet normal 0 0 1
    outer loop
      vertex 9.5 16 2.5
      vertex 14 19 2.5
      vertex 9.5 60.3 2.5
    endloop
  endfacet
  facet normal 0 0 1
    outer loop
      vertex 43.6 57.3 2.5
      vertex 36 58.3 2.5
      vertex 36 57.3 2.5
    endloop
  endfacet
  facet normal 0 0 1
    outer loop
      vertex 22 57.3 2.5
      vertex 36 57.3 2.5
      vertex 36 58.3 2.5
    endloop
  endfacet
  facet normal 0 0 1
    outer loop
      vertex 36 57.3 2.5
      vertex 22 57.3 2.5
      vertex 36 19 2.5
    endloop
  endfacet
  facet normal 0 0 1
    outer loop
      vertex 22 57.3 2.5
      vertex 36 58.3 2.5
      vertex 22 58.3 2.5
    endloop
  endfacet
  facet normal 0 0 1
    outer loop
      vertex 22 19 2.5
      vertex 36 19 2.5
      vertex 22 57.3 2.5
    endloop
  endfacet
  facet normal 0 0 1
    outer loop
      vertex 36 19 2.5
      vertex 22 19 2.5
      vertex 36 18 2.5
    endloop
  endfacet
  facet normal 0 0 1
    outer loop
      vertex 36 18 2.5
      vertex 22 19 2.5
      vertex 22 18 2.5
    endloop
  endfacet
  facet normal 1 -0 0
    outer loop
      vertex 48.1 16 2.5
      vertex 48.1 60.3 0
      vertex 48.1 60.3 2.5
    endloop
  endfacet
  facet normal 1 0 0
    outer loop
      vertex 48.1 60.3 0
      vertex 48.1 16 2.5
      vertex 48.1 16 0
    endloop
  endfacet
  facet normal 0 1 -0
    outer loop
      vertex 48.1 60.3 0
      vertex 9.5 60.3 2.5
      vertex 48.1 60.3 2.5
    endloop
  endfacet
  facet normal 0 1 0
    outer loop
      vertex 9.5 60.3 2.5
      vertex 48.1 60.3 0
      vertex 9.5 60.3 0
    endloop
  endfacet
  facet normal 0 0 -1
    outer loop
      vertex 9.5 16 0
      vertex 48.1 60.3 0
      vertex 48.1 16 0
    endloop
  endfacet
  facet normal -0 0 -1
    outer loop
      vertex 48.1 60.3 0
      vertex 9.5 16 0
      vertex 9.5 60.3 0
    endloop
  endfacet
  facet normal 0 -1 0
    outer loop
      vertex 9.5 16 0
      vertex 48.1 16 2.5
      vertex 9.5 16 2.5
    endloop
  endfacet
  facet normal 0 -1 -0
    outer loop
      vertex 48.1 16 2.5
      vertex 9.5 16 0
      vertex 48.1 16 0
    endloop
  endfacet
  facet normal -1 0 0
    outer loop
      vertex 14 57.3 4.5
      vertex 14 53 5.1
      vertex 14 57.3 5.1
    endloop
  endfacet
  facet normal -1 0 0
    outer loop
      vertex 14 53 5.1
      vertex 14 51.6 5.1
      vertex 14 53 5.7
    endloop
  endfacet
  facet normal -1 0 0
    outer loop
      vertex 14 57.3 4.5
      vertex 14 51.6 5.1
      vertex 14 53 5.1
    endloop
  endfacet
  facet normal -1 0 0
    outer loop
      vertex 14 19 4.5
      vertex 14 51.6 5.1
      vertex 14 57.3 4.5
    endloop
  endfacet
  facet normal -1 -0 0
    outer loop
      vertex 14 51.6 5.1
      vertex 14 19 4.5
      vertex 14 19 5.1
    endloop
  endfacet
  facet normal -1 -0 0
    outer loop
      vertex 14 53 5.7
      vertex 14 51.6 5.1
      vertex 14 51.6 5.7
    endloop
  endfacet
  facet normal -1 0 0
    outer loop
      vertex 14 19 2.5
      vertex 14 57.3 3.7
      vertex 14 57.3 2.5
    endloop
  endfacet
  facet normal -1 -0 0
    outer loop
      vertex 14 57.3 3.7
      vertex 14 19 2.5
      vertex 14 19 3.7
    endloop
  endfacet
  facet normal -0 0 1
    outer loop
      vertex 36 51.6 5.1
      vertex 43.6 19 5.1
      vertex 43.6 51.6 5.1
    endloop
  endfacet
  facet normal 0 0 1
    outer loop
      vertex 43.6 19 5.1
      vertex 36 51.6 5.1
      vertex 36 19 5.1
    endloop
  endfacet
  facet normal -0 0 1
    outer loop
      vertex 14 51.6 5.1
      vertex 22 19 5.1
      vertex 22 51.6 5.1
    endloop
  endfacet
  facet normal 0 0 1
    outer loop
      vertex 22 19 5.1
      vertex 14 51.6 5.1
      vertex 14 19 5.1
    endloop
  endfacet
  facet normal -0 0 1
    outer loop
      vertex 36 57.3 5.1
      vertex 43.6 53 5.1
      vertex 43.6 57.3 5.1
    endloop
  endfacet
  facet normal 0 0 1
    outer loop
      vertex 43.6 53 5.1
      vertex 36 57.3 5.1
      vertex 36 53 5.1
    endloop
  endfacet
  facet normal -0 0 1
    outer loop
      vertex 14 57.3 5.1
      vertex 22 53 5.1
      vertex 22 57.3 5.1
    endloop
  endfacet
  facet normal 0 0 1
    outer loop
      vertex 22 53 5.1
      vertex 14 57.3 5.1
      vertex 14 53 5.1
    endloop
  endfacet
  facet normal 1 0 0
    outer loop
      vertex 43.6 53 5.7
      vertex 43.6 51.6 5.7
      vertex 43.6 53 5.1
    endloop
  endfacet
  facet normal 1 -0 0
    outer loop
      vertex 43.6 53 5.1
      vertex 43.6 57.3 4.5
      vertex 43.6 57.3 5.1
    endloop
  endfacet
  facet normal 1 0 0
    outer loop
      vertex 43.6 51.6 5.1
      vertex 43.6 53 5.1
      vertex 43.6 51.6 5.7
    endloop
  endfacet
  facet normal 1 -0 0
    outer loop
      vertex 43.6 51.6 5.1
      vertex 43.6 57.3 4.5
      vertex 43.6 53 5.1
    endloop
  endfacet
  facet normal 1 0 0
    outer loop
      vertex 43.6 19 4.5
      vertex 43.6 51.6 5.1
      vertex 43.6 19 5.1
    endloop
  endfacet
  facet normal 1 0 0
    outer loop
      vertex 43.6 51.6 5.1
      vertex 43.6 19 4.5
      vertex 43.6 57.3 4.5
    endloop
  endfacet
  facet normal 1 -0 0
    outer loop
      vertex 43.6 19 3.7
      vertex 43.6 57.3 2.5
      vertex 43.6 57.3 3.7
    endloop
  endfacet
  facet normal 1 0 0
    outer loop
      vertex 43.6 57.3 2.5
      vertex 43.6 19 3.7
      vertex 43.6 19 2.5
    endloop
  endfacet
  facet normal 0 1 -0
    outer loop
      vertex 43.6 57.3 2.5
      vertex 36 57.3 3.7
      vertex 43.6 57.3 3.7
    endloop
  endfacet
  facet normal 0 1 0
    outer loop
      vertex 36 57.3 3.7
      vertex 43.6 57.3 2.5
      vertex 36 57.3 2.5
    endloop
  endfacet
  facet normal 0 1 -0
    outer loop
      vertex 43.6 57.3 4.5
      vertex 36 57.3 5.1
      vertex 43.6 57.3 5.1
    endloop
  endfacet
  facet normal 0 1 0
    outer loop
      vertex 36 57.3 5.1
      vertex 43.6 57.3 4.5
      vertex 36 57.3 4.5
    endloop
  endfacet
  facet normal 0 1 -0
    outer loop
      vertex 22 57.3 4.5
      vertex 14 57.3 5.1
      vertex 22 57.3 5.1
    endloop
  endfacet
  facet normal 0 1 0
    outer loop
      vertex 14 57.3 5.1
      vertex 22 57.3 4.5
      vertex 14 57.3 4.5
    endloop
  endfacet
  facet normal 0 1 -0
    outer loop
      vertex 22 57.3 2.5
      vertex 14 57.3 3.7
      vertex 22 57.3 3.7
    endloop
  endfacet
  facet normal 0 1 0
    outer loop
      vertex 14 57.3 3.7
      vertex 22 57.3 2.5
      vertex 14 57.3 2.5
    endloop
  endfacet
  facet normal 0 -1 0
    outer loop
      vertex 36 19 4.5
      vertex 43.6 19 5.1
      vertex 36 19 5.1
    endloop
  endfacet
  facet normal 0 -1 -0
    outer loop
      vertex 43.6 19 5.1
      vertex 36 19 4.5
      vertex 43.6 19 4.5
    endloop
  endfacet
  facet normal 0 -1 0
    outer loop
      vertex 14 19 2.5
      vertex 22 19 3.7
      vertex 14 19 3.7
    endloop
  endfacet
  facet normal 0 -1 -0
    outer loop
      vertex 22 19 3.7
      vertex 14 19 2.5
      vertex 22 19 2.5
    endloop
  endfacet
  facet normal 0 -1 0
    outer loop
      vertex 14 19 4.5
      vertex 22 19 5.1
      vertex 14 19 5.1
    endloop
  endfacet
  facet normal 0 -1 -0
    outer loop
      vertex 22 19 5.1
      vertex 14 19 4.5
      vertex 22 19 4.5
    endloop
  endfacet
  facet normal 0 -1 0
    outer loop
      vertex 36 19 2.5
      vertex 43.6 19 3.7
      vertex 36 19 3.7
    endloop
  endfacet
  facet normal 0 -1 -0
    outer loop
      vertex 43.6 19 3.7
      vertex 36 19 2.5
      vertex 43.6 19 2.5
    endloop
  endfacet
  facet normal -1 0 0
    outer loop
      vertex 13.2 18.2 3.7
      vertex 13.2 58.1 4.5
      vertex 13.2 58.1 3.7
    endloop
  endfacet
  facet normal -1 -0 0
    outer loop
      vertex 13.2 58.1 4.5
      vertex 13.2 18.2 3.7
      vertex 13.2 18.2 4.5
    endloop
  endfacet
  facet normal 0 0 1
    outer loop
      vertex 44.4 58.1 4.5
      vertex 43.6 57.3 4.5
      vertex 44.4 18.2 4.5
    endloop
  endfacet
  facet normal -0 0 1
    outer loop
      vertex 36 58.1 4.5
      vertex 43.6 57.3 4.5
      vertex 44.4 58.1 4.5
    endloop
  endfacet
  facet normal 0 0 1
    outer loop
      vertex 43.6 57.3 4.5
      vertex 36 58.1 4.5
      vertex 36 57.3 4.5
    endloop
  endfacet
  facet normal -0 0 1
    outer loop
      vertex 43.6 19 4.5
      vertex 44.4 18.2 4.5
      vertex 43.6 57.3 4.5
    endloop
  endfacet
  facet normal 0 0 1
    outer loop
      vertex 36 18.2 4.5
      vertex 43.6 19 4.5
      vertex 36 19 4.5
    endloop
  endfacet
  facet normal 0 0 1
    outer loop
      vertex 43.6 19 4.5
      vertex 36 18.2 4.5
      vertex 44.4 18.2 4.5
    endloop
  endfacet
  facet normal 0 0 1
    outer loop
      vertex 22 58.1 4.5
      vertex 14 57.3 4.5
      vertex 22 57.3 4.5
    endloop
  endfacet
  facet normal 0 0 1
    outer loop
      vertex 14 57.3 4.5
      vertex 13.2 58.1 4.5
      vertex 14 19 4.5
    endloop
  endfacet
  facet normal -0 0 1
    outer loop
      vertex 13.2 58.1 4.5
      vertex 14 57.3 4.5
      vertex 22 58.1 4.5
    endloop
  endfacet
  facet normal -0 0 1
    outer loop
      vertex 14 19 4.5
      vertex 22 18.2 4.5
      vertex 22 19 4.5
    endloop
  endfacet
  facet normal 0 0 1
    outer loop
      vertex 14 19 4.5
      vertex 13.2 18.2 4.5
      vertex 22 18.2 4.5
    endloop
  endfacet
  facet normal 0 0 1
    outer loop
      vertex 13.2 18.2 4.5
      vertex 14 19 4.5
      vertex 13.2 58.1 4.5
    endloop
  endfacet
  facet normal 1 -0 0
    outer loop
      vertex 44.4 18.2 4.5
      vertex 44.4 58.1 3.7
      vertex 44.4 58.1 4.5
    endloop
  endfacet
  facet normal 1 0 0
    outer loop
      vertex 44.4 58.1 3.7
      vertex 44.4 18.2 4.5
      vertex 44.4 18.2 3.7
    endloop
  endfacet
  facet normal 0 0 -1
    outer loop
      vertex 22 18.2 3.7
      vertex 14 19 3.7
      vertex 22 19 3.7
    endloop
  endfacet
  facet normal -0 0 -1
    outer loop
      vertex 14 19 3.7
      vertex 13.2 18.2 3.7
      vertex 14 57.3 3.7
    endloop
  endfacet
  facet normal 0 0 -1
    outer loop
      vertex 13.2 18.2 3.7
      vertex 14 19 3.7
      vertex 22 18.2 3.7
    endloop
  endfacet
  facet normal 0 0 -1
    outer loop
      vertex 14 57.3 3.7
      vertex 22 58.1 3.7
      vertex 22 57.3 3.7
    endloop
  endfacet
  facet normal 0 0 -1
    outer loop
      vertex 14 57.3 3.7
      vertex 13.2 58.1 3.7
      vertex 22 58.1 3.7
    endloop
  endfacet
  facet normal 0 0 -1
    outer loop
      vertex 13.2 58.1 3.7
      vertex 14 57.3 3.7
      vertex 13.2 18.2 3.7
    endloop
  endfacet
  facet normal 0 0 -1
    outer loop
      vertex 44.4 18.2 3.7
      vertex 43.6 19 3.7
      vertex 44.4 58.1 3.7
    endloop
  endfacet
  facet normal 0 0 -1
    outer loop
      vertex 36 18.2 3.7
      vertex 43.6 19 3.7
      vertex 44.4 18.2 3.7
    endloop
  endfacet
  facet normal -0 0 -1
    outer loop
      vertex 43.6 19 3.7
      vertex 36 18.2 3.7
      vertex 36 19 3.7
    endloop
  endfacet
  facet normal 0 0 -1
    outer loop
      vertex 43.6 57.3 3.7
      vertex 44.4 58.1 3.7
      vertex 43.6 19 3.7
    endloop
  endfacet
  facet normal 0 0 -1
    outer loop
      vertex 36 58.1 3.7
      vertex 43.6 57.3 3.7
      vertex 36 57.3 3.7
    endloop
  endfacet
  facet normal 0 0 -1
    outer loop
      vertex 43.6 57.3 3.7
      vertex 36 58.1 3.7
      vertex 44.4 58.1 3.7
    endloop
  endfacet
  facet normal 0 -1 0
    outer loop
      vertex 36 18.2 3.7
      vertex 44.4 18.2 4.5
      vertex 36 18.2 4.5
    endloop
  endfacet
  facet normal 0 -1 -0
    outer loop
      vertex 44.4 18.2 4.5
      vertex 36 18.2 3.7
      vertex 44.4 18.2 3.7
    endloop
  endfacet
  facet normal 0 -1 0
    outer loop
      vertex 13.2 18.2 3.7
      vertex 22 18.2 4.5
      vertex 13.2 18.2 4.5
    endloop
  endfacet
  facet normal 0 -1 -0
    outer loop
      vertex 22 18.2 4.5
      vertex 13.2 18.2 3.7
      vertex 22 18.2 3.7
    endloop
  endfacet
  facet normal 0 1 -0
    outer loop
      vertex 44.4 58.1 3.7
      vertex 36 58.1 4.5
      vertex 44.4 58.1 4.5
    endloop
  endfacet
  facet normal 0 1 0
    outer loop
      vertex 36 58.1 4.5
      vertex 44.4 58.1 3.7
      vertex 36 58.1 3.7
    endloop
  endfacet
  facet normal 0 1 -0
    outer loop
      vertex 22 58.1 3.7
      vertex 13.2 58.1 4.5
      vertex 22 58.1 4.5
    endloop
  endfacet
  facet normal 0 1 0
    outer loop
      vertex 13.2 58.1 4.5
      vertex 22 58.1 3.7
      vertex 13.2 58.1 3.7
    endloop
  endfacet
  facet normal -0 0 1
    outer loop
      vertex 36 53 5.7
      vertex 43.6 51.6 5.7
      vertex 43.6 53 5.7
    endloop
  endfacet
  facet normal 0 0 1
    outer loop
      vertex 43.6 51.6 5.7
      vertex 36 53 5.7
      vertex 36 51.6 5.7
    endloop
  endfacet
  facet normal -0 0 1
    outer loop
      vertex 14 53 5.7
      vertex 22 51.6 5.7
      vertex 22 53 5.7
    endloop
  endfacet
  facet normal 0 0 1
    outer loop
      vertex 22 51.6 5.7
      vertex 14 53 5.7
      vertex 14 51.6 5.7
    endloop
  endfacet
  facet normal 0 -1 0
    outer loop
      vertex 36 51.6 5.1
      vertex 43.6 51.6 5.7
      vertex 36 51.6 5.7
    endloop
  endfacet
  facet normal 0 -1 -0
    outer loop
      vertex 43.6 51.6 5.7
      vertex 36 51.6 5.1
      vertex 43.6 51.6 5.1
    endloop
  endfacet
  facet normal 0 -1 0
    outer loop
      vertex 14 51.6 5.1
      vertex 22 51.6 5.7
      vertex 14 51.6 5.7
    endloop
  endfacet
  facet normal 0 -1 -0
    outer loop
      vertex 22 51.6 5.7
      vertex 14 51.6 5.1
      vertex 22 51.6 5.1
    endloop
  endfacet
  facet normal 0 1 -0
    outer loop
      vertex 43.6 53 5.1
      vertex 36 53 5.7
      vertex 43.6 53 5.7
    endloop
  endfacet
  facet normal 0 1 0
    outer loop
      vertex 36 53 5.7
      vertex 43.6 53 5.1
      vertex 36 53 5.1
    endloop
  endfacet
  facet normal 0 1 -0
    outer loop
      vertex 22 53 5.1
      vertex 14 53 5.7
      vertex 22 53 5.7
    endloop
  endfacet
  facet normal 0 1 0
    outer loop
      vertex 14 53 5.7
      vertex 22 53 5.1
      vertex 14 53 5.1
    endloop
  endfacet
  facet normal 1 0 0
    outer loop
      vertex 22 53 5.7
      vertex 22 51.6 5.7
      vertex 22 53 5.1
    endloop
  endfacet
  facet normal 1 -0 0
    outer loop
      vertex 22 53 5.1
      vertex 22 57.3 4.5
      vertex 22 57.3 5.1
    endloop
  endfacet
  facet normal 1 0 0
    outer loop
      vertex 22 57.3 4.5
      vertex 22 53 5.1
      vertex 22 57.3 3.7
    endloop
  endfacet
  facet normal 1 0 0
    outer loop
      vertex 22 57.3 3.7
      vertex 22 53 5.1
      vertex 22 57.3 2.5
    endloop
  endfacet
  facet normal 1 0 0
    outer loop
      vertex 22 51.6 5.1
      vertex 22 53 5.1
      vertex 22 51.6 5.7
    endloop
  endfacet
  facet normal 1 0 0
    outer loop
      vertex 22 53 5.1
      vertex 22 51.6 5.1
      vertex 22 57.3 2.5
    endloop
  endfacet
  facet normal 1 0 0
    outer loop
      vertex 22 19 4.5
      vertex 22 51.6 5.1
      vertex 22 19 5.1
    endloop
  endfacet
  facet normal 1 0 0
    outer loop
      vertex 22 19 3.7
      vertex 22 51.6 5.1
      vertex 22 19 4.5
    endloop
  endfacet
  facet normal 1 0 0
    outer loop
      vertex 22 19 2.5
      vertex 22 51.6 5.1
      vertex 22 19 3.7
    endloop
  endfacet
  facet normal 1 0 0
    outer loop
      vertex 22 51.6 5.1
      vertex 22 19 2.5
      vertex 22 57.3 2.5
    endloop
  endfacet
  facet normal 1 -0 0
    outer loop
      vertex 22 57.3 4.5
      vertex 22 58.1 3.7
      vertex 22 58.1 4.5
    endloop
  endfacet
  facet normal 1 0 0
    outer loop
      vertex 22 58.1 3.7
      vertex 22 57.3 4.5
      vertex 22 57.3 3.7
    endloop
  endfacet
  facet normal 1 -0 0
    outer loop
      vertex 22 18.2 4.5
      vertex 22 19 3.7
      vertex 22 19 4.5
    endloop
  endfacet
  facet normal 1 0 0
    outer loop
      vertex 22 19 3.7
      vertex 22 18.2 4.5
      vertex 22 18.2 3.7
    endloop
  endfacet
  facet normal -1 0 0
    outer loop
      vertex 36 18.2 3.7
      vertex 36 19 4.5
      vertex 36 19 3.7
    endloop
  endfacet
  facet normal -1 -0 0
    outer loop
      vertex 36 19 4.5
      vertex 36 18.2 3.7
      vertex 36 18.2 4.5
    endloop
  endfacet
  facet normal -1 0 0
    outer loop
      vertex 36 53 5.1
      vertex 36 57.3 3.7
      vertex 36 57.3 2.5
    endloop
  endfacet
  facet normal -1 0 0
    outer loop
      vertex 36 57.3 3.7
      vertex 36 53 5.1
      vertex 36 57.3 4.5
    endloop
  endfacet
  facet normal -1 0 0
    outer loop
      vertex 36 57.3 4.5
      vertex 36 53 5.1
      vertex 36 57.3 5.1
    endloop
  endfacet
  facet normal -1 0 0
    outer loop
      vertex 36 53 5.1
      vertex 36 51.6 5.1
      vertex 36 53 5.7
    endloop
  endfacet
  facet normal -1 0 0
    outer loop
      vertex 36 57.3 2.5
      vertex 36 51.6 5.1
      vertex 36 53 5.1
    endloop
  endfacet
  facet normal -1 0 0
    outer loop
      vertex 36 19 2.5
      vertex 36 51.6 5.1
      vertex 36 57.3 2.5
    endloop
  endfacet
  facet normal -1 0 0
    outer loop
      vertex 36 19 3.7
      vertex 36 51.6 5.1
      vertex 36 19 2.5
    endloop
  endfacet
  facet normal -1 0 0
    outer loop
      vertex 36 19 4.5
      vertex 36 51.6 5.1
      vertex 36 19 3.7
    endloop
  endfacet
  facet normal -1 -0 0
    outer loop
      vertex 36 51.6 5.1
      vertex 36 19 4.5
      vertex 36 19 5.1
    endloop
  endfacet
  facet normal -1 0 0
    outer loop
      vertex 36 57.3 3.7
      vertex 36 58.1 4.5
      vertex 36 58.1 3.7
    endloop
  endfacet
  facet normal -1 -0 0
    outer loop
      vertex 36 58.1 4.5
      vertex 36 57.3 3.7
      vertex 36 57.3 4.5
    endloop
  endfacet
  facet normal -1 -0 0
    outer loop
      vertex 36 53 5.7
      vertex 36 51.6 5.1
      vertex 36 51.6 5.7
    endloop
  endfacet
endsolid OpenSCAD_Model
