solid OpenSCAD_Model
  facet normal 1 -0 0
    outer loop
      vertex 83.7 16 2.5
      vertex 83.7 77.1 0
      vertex 83.7 77.1 2.5
    endloop
  endfacet
  facet normal 1 0 0
    outer loop
      vertex 83.7 77.1 0
      vertex 83.7 16 2.5
      vertex 83.7 16 0
    endloop
  endfacet
  facet normal 0 0 1
    outer loop
      vertex 83.7 77.1 2.5
      vertex 79.2 74.1 2.5
      vertex 83.7 16 2.5
    endloop
  endfacet
  facet normal 0 0 1
    outer loop
      vertex 83.7 77.1 2.5
      vertex 14 74.1 2.5
      vertex 79.2 74.1 2.5
    endloop
  endfacet
  facet normal 0 0 1
    outer loop
      vertex 14 74.1 2.5
      vertex 9.5 77.1 2.5
      vertex 14 19 2.5
    endloop
  endfacet
  facet normal -0 0 1
    outer loop
      vertex 9.5 77.1 2.5
      vertex 14 74.1 2.5
      vertex 83.7 77.1 2.5
    endloop
  endfacet
  facet normal -0 0 1
    outer loop
      vertex 79.2 19 2.5
      vertex 83.7 16 2.5
      vertex 79.2 74.1 2.5
    endloop
  endfacet
  facet normal -0 0 1
    outer loop
      vertex 14 19 2.5
      vertex 83.7 16 2.5
      vertex 79.2 19 2.5
    endloop
  endfacet
  facet normal 0 0 1
    outer loop
      vertex 14 19 2.5
      vertex 9.5 16 2.5
      vertex 83.7 16 2.5
    endloop
  endfacet
  facet normal 0 0 1
    outer loop
      vertex 9.5 16 2.5
      vertex 14 19 2.5
      vertex 9.5 77.1 2.5
    endloop
  endfacet
  facet normal 0 0 -1
    outer loop
      vertex 9.5 16 0
      vertex 83.7 77.1 0
      vertex 83.7 16 0
    endloop
  endfacet
  facet normal -0 0 -1
    outer loop
      vertex 83.7 77.1 0
      vertex 9.5 16 0
      vertex 9.5 77.1 0
    endloop
  endfacet
  facet normal -1 0 0
    outer loop
      vertex 9.5 16 0
      vertex 9.5 77.1 2.5
      vertex 9.5 77.1 0
    endloop
  endfacet
  facet normal -1 -0 0
    outer loop
      vertex 9.5 77.1 2.5
      vertex 9.5 16 0
      vertex 9.5 16 2.5
    endloop
  endfacet
  facet normal 0 1 -0
    outer loop
      vertex 83.7 77.1 0
      vertex 9.5 77.1 2.5
      vertex 83.7 77.1 2.5
    endloop
  endfacet
  facet normal 0 1 0
    outer loop
      vertex 9.5 77.1 2.5
      vertex 83.7 77.1 0
      vertex 9.5 77.1 0
    endloop
  endfacet
  facet normal 0 -1 0
    outer loop
      vertex 9.5 16 0
      vertex 83.7 16 2.5
      vertex 9.5 16 2.5
    endloop
  endfacet
  facet normal 0 -1 -0
    outer loop
      vertex 83.7 16 2.5
      vertex 9.5 16 0
      vertex 83.7 16 0
    endloop
  endfacet
  facet normal 1 0 0
    outer loop
      vertex 79.2 69.9 5.8
      vertex 79.2 68.3 5.8
      vertex 79.2 69.9 5.1
    endloop
  endfacet
  facet normal 1 -0 0
    outer loop
      vertex 79.2 69.9 5.1
      vertex 79.2 74.1 4.8
      vertex 79.2 74.1 5.1
    endloop
  endfacet
  facet normal 1 0 0
    outer loop
      vertex 79.2 68.3 5.1
      vertex 79.2 69.9 5.1
      vertex 79.2 68.3 5.8
    endloop
  endfacet
  facet normal 1 -0 0
    outer loop
      vertex 79.2 68.3 5.1
      vertex 79.2 74.1 4.8
      vertex 79.2 69.9 5.1
    endloop
  endfacet
  facet normal 1 0 0
    outer loop
      vertex 79.2 19 4.8
      vertex 79.2 68.3 5.1
      vertex 79.2 19 5.1
    endloop
  endfacet
  facet normal 1 0 0
    outer loop
      vertex 79.2 68.3 5.1
      vertex 79.2 19 4.8
      vertex 79.2 74.1 4.8
    endloop
  endfacet
  facet normal 1 -0 0
    outer loop
      vertex 79.2 19 3.7
      vertex 79.2 74.1 2.5
      vertex 79.2 74.1 3.7
    endloop
  endfacet
  facet normal 1 0 0
    outer loop
      vertex 79.2 74.1 2.5
      vertex 79.2 19 3.7
      vertex 79.2 19 2.5
    endloop
  endfacet
  facet normal -0 0 1
    outer loop
      vertex 14 74.1 5.1
      vertex 79.2 69.9 5.1
      vertex 79.2 74.1 5.1
    endloop
  endfacet
  facet normal 0 0 1
    outer loop
      vertex 79.2 69.9 5.1
      vertex 14 74.1 5.1
      vertex 14 69.9 5.1
    endloop
  endfacet
  facet normal -0 0 1
    outer loop
      vertex 14 68.3 5.1
      vertex 79.2 19 5.1
      vertex 79.2 68.3 5.1
    endloop
  endfacet
  facet normal 0 0 1
    outer loop
      vertex 79.2 19 5.1
      vertex 14 68.3 5.1
      vertex 14 19 5.1
    endloop
  endfacet
  facet normal -1 0 0
    outer loop
      vertex 14 74.1 4.8
      vertex 14 69.9 5.1
      vertex 14 74.1 5.1
    endloop
  endfacet
  facet normal -1 0 0
    outer loop
      vertex 14 69.9 5.1
      vertex 14 68.3 5.1
      vertex 14 69.9 5.8
    endloop
  endfacet
  facet normal -1 0 0
    outer loop
      vertex 14 74.1 4.8
      vertex 14 68.3 5.1
      vertex 14 69.9 5.1
    endloop
  endfacet
  facet normal -1 0 0
    outer loop
      vertex 14 19 4.8
      vertex 14 68.3 5.1
      vertex 14 74.1 4.8
    endloop
  endfacet
  facet normal -1 -0 0
    outer loop
      vertex 14 68.3 5.1
      vertex 14 19 4.8
      vertex 14 19 5.1
    endloop
  endfacet
  facet normal -1 -0 0
    outer loop
      vertex 14 69.9 5.8
      vertex 14 68.3 5.1
      vertex 14 68.3 5.8
    endloop
  endfacet
  facet normal -1 0 0
    outer loop
      vertex 14 19 2.5
      vertex 14 74.1 3.7
      vertex 14 74.1 2.5
    endloop
  endfacet
  facet normal -1 -0 0
    outer loop
      vertex 14 74.1 3.7
      vertex 14 19 2.5
      vertex 14 19 3.7
    endloop
  endfacet
  facet normal 0 1 -0
    outer loop
      vertex 79.2 74.1 4.8
      vertex 14 74.1 5.1
      vertex 79.2 74.1 5.1
    endloop
  endfacet
  facet normal 0 1 0
    outer loop
      vertex 14 74.1 5.1
      vertex 79.2 74.1 4.8
      vertex 14 74.1 4.8
    endloop
  endfacet
  facet normal 0 1 -0
    outer loop
      vertex 79.2 74.1 2.5
      vertex 14 74.1 3.7
      vertex 79.2 74.1 3.7
    endloop
  endfacet
  facet normal 0 1 0
    outer loop
      vertex 14 74.1 3.7
      vertex 79.2 74.1 2.5
      vertex 14 74.1 2.5
    endloop
  endfacet
  facet normal 0 -1 0
    outer loop
      vertex 14 19 4.8
      vertex 79.2 19 5.1
      vertex 14 19 5.1
    endloop
  endfacet
  facet normal 0 -1 -0
    outer loop
      vertex 79.2 19 5.1
      vertex 14 19 4.8
      vertex 79.2 19 4.8
    endloop
  endfacet
  facet normal 0 -1 0
    outer loop
      vertex 14 19 2.5
      vertex 79.2 19 3.7
      vertex 14 19 3.7
    endloop
  endfacet
  facet normal 0 -1 -0
    outer loop
      vertex 79.2 19 3.7
      vertex 14 19 2.5
      vertex 79.2 19 2.5
    endloop
  endfacet
  facet normal 1 -0 0
    outer loop
      vertex 80.3 17.9 4.8
      vertex 80.3 75.2 3.7
      vertex 80.3 75.2 4.8
    endloop
  endfacet
  facet normal 1 0 0
    outer loop
      vertex 80.3 75.2 3.7
      vertex 80.3 17.9 4.8
      vertex 80.3 17.9 3.7
    endloop
  endfacet
  facet normal 0 0 1
    outer loop
      vertex 80.3 75.2 4.8
      vertex 79.2 74.1 4.8
      vertex 80.3 17.9 4.8
    endloop
  endfacet
  facet normal 0 0 1
    outer loop
      vertex 80.3 75.2 4.8
      vertex 14 74.1 4.8
      vertex 79.2 74.1 4.8
    endloop
  endfacet
  facet normal 0 0 1
    outer loop
      vertex 14 74.1 4.8
      vertex 12.9 75.2 4.8
      vertex 14 19 4.8
    endloop
  endfacet
  facet normal -0 0 1
    outer loop
      vertex 12.9 75.2 4.8
      vertex 14 74.1 4.8
      vertex 80.3 75.2 4.8
    endloop
  endfacet
  facet normal -0 0 1
    outer loop
      vertex 79.2 19 4.8
      vertex 80.3 17.9 4.8
      vertex 79.2 74.1 4.8
    endloop
  endfacet
  facet normal -0 0 1
    outer loop
      vertex 14 19 4.8
      vertex 80.3 17.9 4.8
      vertex 79.2 19 4.8
    endloop
  endfacet
  facet normal 0 0 1
    outer loop
      vertex 14 19 4.8
      vertex 12.9 17.9 4.8
      vertex 80.3 17.9 4.8
    endloop
  endfacet
  facet normal 0 0 1
    outer loop
      vertex 12.9 17.9 4.8
      vertex 14 19 4.8
      vertex 12.9 75.2 4.8
    endloop
  endfacet
  facet normal 0 0 -1
    outer loop
      vertex 80.3 17.9 3.7
      vertex 79.2 19 3.7
      vertex 80.3 75.2 3.7
    endloop
  endfacet
  facet normal 0 0 -1
    outer loop
      vertex 80.3 17.9 3.7
      vertex 14 19 3.7
      vertex 79.2 19 3.7
    endloop
  endfacet
  facet normal -0 0 -1
    outer loop
      vertex 14 19 3.7
      vertex 12.9 17.9 3.7
      vertex 14 74.1 3.7
    endloop
  endfacet
  facet normal 0 0 -1
    outer loop
      vertex 12.9 17.9 3.7
      vertex 14 19 3.7
      vertex 80.3 17.9 3.7
    endloop
  endfacet
  facet normal 0 0 -1
    outer loop
      vertex 79.2 74.1 3.7
      vertex 80.3 75.2 3.7
      vertex 79.2 19 3.7
    endloop
  endfacet
  facet normal 0 0 -1
    outer loop
      vertex 14 74.1 3.7
      vertex 80.3 75.2 3.7
      vertex 79.2 74.1 3.7
    endloop
  endfacet
  facet normal 0 0 -1
    outer loop
      vertex 14 74.1 3.7
      vertex 12.9 75.2 3.7
      vertex 80.3 75.2 3.7
    endloop
  endfacet
  facet normal 0 0 -1
    outer loop
      vertex 12.9 75.2 3.7
      vertex 14 74.1 3.7
      vertex 12.9 17.9 3.7
    endloop
  endfacet
  facet normal -1 0 0
    outer loop
      vertex 12.9 17.9 3.7
      vertex 12.9 75.2 4.8
      vertex 12.9 75.2 3.7
    endloop
  endfacet
  facet normal -1 -0 0
    outer loop
      vertex 12.9 75.2 4.8
      vertex 12.9 17.9 3.7
      vertex 12.9 17.9 4.8
    endloop
  endfacet
  facet normal 0 1 -0
    outer loop
      vertex 80.3 75.2 3.7
      vertex 12.9 75.2 4.8
      vertex 80.3 75.2 4.8
    endloop
  endfacet
  facet normal 0 1 0
    outer loop
      vertex 12.9 75.2 4.8
      vertex 80.3 75.2 3.7
      vertex 12.9 75.2 3.7
    endloop
  endfacet
  facet normal 0 -1 0
    outer loop
      vertex 12.9 17.9 3.7
      vertex 80.3 17.9 4.8
      vertex 12.9 17.9 4.8
    endloop
  endfacet
  facet normal 0 -1 -0
    outer loop
      vertex 80.3 17.9 4.8
      vertex 12.9 17.9 3.7
      vertex 80.3 17.9 3.7
    endloop
  endfacet
  facet normal -0 0 1
    outer loop
      vertex 14 69.9 5.8
      vertex 79.2 68.3 5.8
      vertex 79.2 69.9 5.8
    endloop
  endfacet
  facet normal 0 0 1
    outer loop
      vertex 79.2 68.3 5.8
      vertex 14 69.9 5.8
      vertex 14 68.3 5.8
    endloop
  endfacet
  facet normal 0 1 -0
    outer loop
      vertex 79.2 69.9 5.1
      vertex 14 69.9 5.8
      vertex 79.2 69.9 5.8
    endloop
  endfacet
  facet normal 0 1 0
    outer loop
      vertex 14 69.9 5.8
      vertex 79.2 69.9 5.1
      vertex 14 69.9 5.1
    endloop
  endfacet
  facet normal 0 -1 0
    outer loop
      vertex 14 68.3 5.1
      vertex 79.2 68.3 5.8
      vertex 14 68.3 5.8
    endloop
  endfacet
  facet normal 0 -1 -0
    outer loop
      vertex 79.2 68.3 5.8
      vertex 14 68.3 5.1
      vertex 79.2 68.3 5.1
    endloop
  endfacet
endsolid OpenSCAD_Model
