solid OpenSCAD_Model
  facet normal 1 -0 0
    outer loop
      vertex 3.1 52.1 0.9
      vertex 3.1 53.1 -0.0999994
      vertex 3.1 53.1 0.9
    endloop
  endfacet
  facet normal 1 0 0
    outer loop
      vertex 3.1 53.1 -0.0999994
      vertex 3.1 52.1 0.9
      vertex 3.1 52.1 -0.0999994
    endloop
  endfacet
  facet normal -0 0 1
    outer loop
      vertex 2.1 53.1 0.9
      vertex 3.1 52.1 0.9
      vertex 3.1 53.1 0.9
    endloop
  endfacet
  facet normal 0 0 1
    outer loop
      vertex 3.1 52.1 0.9
      vertex 2.1 53.1 0.9
      vertex 2.1 52.1 0.9
    endloop
  endfacet
  facet normal 0 0 -1
    outer loop
      vertex 2.1 52.1 -0.0999994
      vertex 3.1 53.1 -0.0999994
      vertex 3.1 52.1 -0.0999994
    endloop
  endfacet
  facet normal -0 0 -1
    outer loop
      vertex 3.1 53.1 -0.0999994
      vertex 2.1 52.1 -0.0999994
      vertex 2.1 53.1 -0.0999994
    endloop
  endfacet
  facet normal -1 0 0
    outer loop
      vertex 2.1 52.1 -0.0999994
      vertex 2.1 53.1 0.9
      vertex 2.1 53.1 -0.0999994
    endloop
  endfacet
  facet normal -1 -0 0
    outer loop
      vertex 2.1 53.1 0.9
      vertex 2.1 52.1 -0.0999994
      vertex 2.1 52.1 0.9
    endloop
  endfacet
  facet normal 0 1 -0
    outer loop
      vertex 3.1 53.1 -0.0999994
      vertex 2.1 53.1 0.9
      vertex 3.1 53.1 0.9
    endloop
  endfacet
  facet normal 0 1 0
    outer loop
      vertex 2.1 53.1 0.9
      vertex 3.1 53.1 -0.0999994
      vertex 2.1 53.1 -0.0999994
    endloop
  endfacet
  facet normal 0 -1 0
    outer loop
      vertex 2.1 52.1 -0.0999994
      vertex 3.1 52.1 0.9
      vertex 2.1 52.1 0.9
    endloop
  endfacet
  facet normal 0 -1 -0
    outer loop
      vertex 3.1 52.1 0.9
      vertex 2.1 52.1 -0.0999994
      vertex 3.1 52.1 -0.0999994
    endloop
  endfacet
endsolid OpenSCAD_Model
